<?xml version="1.0" encoding="utf-8"?>
<!-- Generator: Adobe Illustrator 19.0.1, SVG Export Plug-In . SVG Version: 6.00 Build 0)  -->
<svg version="1.1" id="Layer_1" xmlns="http://www.w3.org/2000/svg" xmlns:xlink="http://www.w3.org/1999/xlink" x="0px" y="0px"
	 viewBox="0 0 800 800" style="enable-background:new 0 0 800 800;" xml:space="preserve">
<g>
	<g>
		<path d="M44.4,210.3c11.6,0,23.2,0.2,34.8,0.2c1.2,0,1.3-1.4,0.6-2.1c-2.5-2.8-5.3-5.1-8.6-7c-1.4-0.8-2.1,1.3-1,2.1
			c2.8,2,5.3,4.2,7.6,6.6c-0.1-0.6-0.1-1.1-0.2-1.7c-2.8,2.5-5.7,5-8.5,7.5c-1.1,0.9,0.7,2.7,1.8,1.7c2.8-2.5,5.7-5,8.5-7.5
			c0.5-0.4,0.2-1.3-0.2-1.7c-2.5-2.6-5.2-4.9-8.1-7c-0.3,0.7-0.6,1.4-1,2.1c3.1,1.8,5.7,4,8.1,6.7c0.2-0.7,0.4-1.4,0.6-2.1
			c-11.6,0-23.2-0.2-34.8-0.2C42.7,207.9,43,210.3,44.4,210.3L44.4,210.3z"/>
	</g>
</g>
<g>
	<g>
		<path d="M96.4,210.3c11.6,0,23.2,0.2,34.8,0.2c1.2,0,1.3-1.4,0.6-2.1c-2.5-2.8-5.3-5.1-8.6-7c-1.4-0.8-2.1,1.3-1,2.1
			c2.8,2,5.3,4.2,7.6,6.6c-0.1-0.6-0.1-1.1-0.2-1.7c-2.8,2.5-5.7,5-8.5,7.5c-1.1,0.9,0.7,2.7,1.8,1.7c2.8-2.5,5.7-5,8.5-7.5
			c0.5-0.4,0.2-1.3-0.2-1.7c-2.5-2.6-5.2-4.9-8.1-7c-0.3,0.7-0.6,1.4-1,2.1c3.1,1.8,5.7,4,8.1,6.7c0.2-0.7,0.4-1.4,0.6-2.1
			c-11.6,0-23.2-0.2-34.8-0.2C94.7,207.9,95,210.3,96.4,210.3L96.4,210.3z"/>
	</g>
</g>
<g>
	<g>
		<path d="M150.4,210.3c11.6,0,23.2,0.2,34.8,0.2c1.2,0,1.3-1.4,0.6-2.1c-2.5-2.8-5.3-5.1-8.6-7c-1.4-0.8-2.1,1.3-1,2.1
			c2.8,2,5.3,4.2,7.6,6.6c-0.1-0.6-0.1-1.1-0.2-1.7c-2.8,2.5-5.7,5-8.5,7.5c-1.1,0.9,0.7,2.7,1.8,1.7c2.8-2.5,5.7-5,8.5-7.5
			c0.5-0.4,0.2-1.3-0.2-1.7c-2.5-2.6-5.2-4.9-8.1-7c-0.3,0.7-0.6,1.4-1,2.1c3.1,1.8,5.7,4,8.1,6.7c0.2-0.7,0.4-1.4,0.6-2.1
			c-11.6,0-23.2-0.2-34.8-0.2C148.7,207.9,149,210.3,150.4,210.3L150.4,210.3z"/>
	</g>
</g>
<g>
	<g>
		<path d="M201.4,210.3c11.6,0,23.2,0.2,34.8,0.2c1.2,0,1.3-1.4,0.6-2.1c-2.5-2.8-5.3-5.1-8.6-7c-1.4-0.8-2.1,1.3-1,2.1
			c2.8,2,5.3,4.2,7.6,6.6c-0.1-0.6-0.1-1.1-0.2-1.7c-2.8,2.5-5.7,5-8.5,7.5c-1.1,0.9,0.7,2.7,1.8,1.7c2.8-2.5,5.7-5,8.5-7.5
			c0.5-0.4,0.2-1.3-0.2-1.7c-2.5-2.6-5.2-4.9-8.1-7c-0.3,0.7-0.6,1.4-1,2.1c3.1,1.8,5.7,4,8.1,6.7c0.2-0.7,0.4-1.4,0.6-2.1
			c-11.6,0-23.2-0.2-34.8-0.2C199.7,207.9,200,210.3,201.4,210.3L201.4,210.3z"/>
	</g>
</g>
<g>
	<g>
		<path d="M252.4,210.3c11.6,0,23.2,0.2,34.8,0.2c1.2,0,1.3-1.4,0.6-2.1c-2.5-2.8-5.3-5.1-8.6-7c-1.4-0.8-2.1,1.3-1,2.1
			c2.8,2,5.3,4.2,7.6,6.6c-0.1-0.6-0.1-1.1-0.2-1.7c-2.8,2.5-5.7,5-8.5,7.5c-1.1,0.9,0.7,2.7,1.8,1.7c2.8-2.5,5.7-5,8.5-7.5
			c0.5-0.4,0.2-1.3-0.2-1.7c-2.5-2.6-5.2-4.9-8.1-7c-0.3,0.7-0.6,1.4-1,2.1c3.1,1.8,5.7,4,8.1,6.7c0.2-0.7,0.4-1.4,0.6-2.1
			c-11.6,0-23.2-0.2-34.8-0.2C250.7,207.9,251,210.3,252.4,210.3L252.4,210.3z"/>
	</g>
</g>
<g>
	<g>
		<path d="M303.4,210.3c11.6,0,23.2,0.2,34.8,0.2c1.2,0,1.3-1.4,0.6-2.1c-2.5-2.8-5.3-5.1-8.6-7c-1.4-0.8-2.1,1.3-1,2.1
			c2.8,2,5.3,4.2,7.6,6.6c-0.1-0.6-0.1-1.1-0.2-1.7c-2.8,2.5-5.7,5-8.5,7.5c-1.1,0.9,0.7,2.7,1.8,1.7c2.8-2.5,5.7-5,8.5-7.5
			c0.5-0.4,0.2-1.3-0.2-1.7c-2.5-2.6-5.2-4.9-8.1-7c-0.3,0.7-0.6,1.4-1,2.1c3.1,1.8,5.7,4,8.1,6.7c0.2-0.7,0.4-1.4,0.6-2.1
			c-11.6,0-23.2-0.2-34.8-0.2C301.7,207.9,302,210.3,303.4,210.3L303.4,210.3z"/>
	</g>
</g>
<g>
	<g>
		<path d="M434.4,210.3c11.6,0,23.2,0.2,34.8,0.2c1.2,0,1.3-1.4,0.6-2.1c-2.5-2.8-5.3-5.1-8.6-7c-1.4-0.8-2.1,1.3-1,2.1
			c2.8,2,5.3,4.2,7.6,6.6c-0.1-0.6-0.1-1.1-0.2-1.7c-2.8,2.5-5.7,5-8.5,7.5c-1.1,0.9,0.7,2.7,1.8,1.7c2.8-2.5,5.7-5,8.5-7.5
			c0.5-0.4,0.2-1.3-0.2-1.7c-2.5-2.6-5.2-4.9-8.1-7c-0.3,0.7-0.6,1.4-1,2.1c3.1,1.8,5.7,4,8.1,6.7c0.2-0.7,0.4-1.4,0.6-2.1
			c-11.6,0-23.2-0.2-34.8-0.2C432.7,207.9,433,210.3,434.4,210.3L434.4,210.3z"/>
	</g>
</g>
<g>
	<g>
		<path d="M486.4,210.3c11.6,0,23.2,0.2,34.8,0.2c1.2,0,1.3-1.4,0.6-2.1c-2.5-2.8-5.3-5.1-8.6-7c-1.4-0.8-2.1,1.3-1,2.1
			c2.8,2,5.3,4.2,7.6,6.6c-0.1-0.6-0.1-1.1-0.2-1.7c-2.8,2.5-5.7,5-8.5,7.5c-1.1,0.9,0.7,2.7,1.8,1.7c2.8-2.5,5.7-5,8.5-7.5
			c0.5-0.4,0.2-1.3-0.2-1.7c-2.5-2.6-5.2-4.9-8.1-7c-0.3,0.7-0.6,1.4-1,2.1c3.1,1.8,5.7,4,8.1,6.7c0.2-0.7,0.4-1.4,0.6-2.1
			c-11.6,0-23.2-0.2-34.8-0.2C484.7,207.9,485,210.3,486.4,210.3L486.4,210.3z"/>
	</g>
</g>
<g>
	<g>
		<path d="M540.4,210.3c11.6,0,23.2,0.2,34.8,0.2c1.2,0,1.3-1.4,0.6-2.1c-2.5-2.8-5.3-5.1-8.6-7c-1.4-0.8-2.1,1.3-1,2.1
			c2.8,2,5.3,4.2,7.6,6.6c-0.1-0.6-0.1-1.1-0.2-1.7c-2.8,2.5-5.7,5-8.5,7.5c-1.1,0.9,0.7,2.7,1.8,1.7c2.8-2.5,5.7-5,8.5-7.5
			c0.5-0.4,0.2-1.3-0.2-1.7c-2.5-2.6-5.2-4.9-8.1-7c-0.3,0.7-0.6,1.4-1,2.1c3.1,1.8,5.7,4,8.1,6.7c0.2-0.7,0.4-1.4,0.6-2.1
			c-11.6,0-23.2-0.2-34.8-0.2C538.7,207.9,539,210.3,540.4,210.3L540.4,210.3z"/>
	</g>
</g>
<g>
	<g>
		<path d="M591.4,210.3c11.6,0,23.2,0.2,34.8,0.2c1.2,0,1.3-1.4,0.6-2.1c-2.5-2.8-5.3-5.1-8.6-7c-1.4-0.8-2.1,1.3-1,2.1
			c2.8,2,5.3,4.2,7.6,6.6c-0.1-0.6-0.1-1.1-0.2-1.7c-2.8,2.5-5.7,5-8.5,7.5c-1.1,0.9,0.7,2.7,1.8,1.7c2.8-2.5,5.7-5,8.5-7.5
			c0.5-0.4,0.2-1.3-0.2-1.7c-2.5-2.6-5.2-4.9-8.1-7c-0.3,0.7-0.6,1.4-1,2.1c3.1,1.8,5.7,4,8.1,6.7c0.2-0.7,0.4-1.4,0.6-2.1
			c-11.6,0-23.2-0.2-34.8-0.2C589.7,207.9,590,210.3,591.4,210.3L591.4,210.3z"/>
	</g>
</g>
<g>
	<g>
		<path d="M642.4,210.3c11.6,0,23.2,0.2,34.8,0.2c1.2,0,1.3-1.4,0.6-2.1c-2.5-2.8-5.3-5.1-8.6-7c-1.4-0.8-2.1,1.3-1,2.1
			c2.8,2,5.3,4.2,7.6,6.6c-0.1-0.6-0.1-1.1-0.2-1.7c-2.8,2.5-5.7,5-8.5,7.5c-1.1,0.9,0.7,2.7,1.8,1.7c2.8-2.5,5.7-5,8.5-7.5
			c0.5-0.4,0.2-1.3-0.2-1.7c-2.5-2.6-5.2-4.9-8.1-7c-0.3,0.7-0.6,1.4-1,2.1c3.1,1.8,5.7,4,8.1,6.7c0.2-0.7,0.4-1.4,0.6-2.1
			c-11.6,0-23.2-0.2-34.8-0.2C640.7,207.9,641,210.3,642.4,210.3L642.4,210.3z"/>
	</g>
</g>
<g>
	<g>
		<path d="M693.4,210.3c11.6,0,23.2,0.2,34.8,0.2c1.2,0,1.3-1.4,0.6-2.1c-2.5-2.8-5.3-5.1-8.6-7c-1.4-0.8-2.1,1.3-1,2.1
			c2.8,2,5.3,4.2,7.6,6.6c-0.1-0.6-0.1-1.1-0.2-1.7c-2.8,2.5-5.7,5-8.5,7.5c-1.1,0.9,0.7,2.7,1.8,1.7c2.8-2.5,5.7-5,8.5-7.5
			c0.5-0.4,0.2-1.3-0.2-1.7c-2.5-2.6-5.2-4.9-8.1-7c-0.3,0.7-0.6,1.4-1,2.1c3.1,1.8,5.7,4,8.1,6.7c0.2-0.7,0.4-1.4,0.6-2.1
			c-11.6,0-23.2-0.2-34.8-0.2C691.7,207.9,692,210.3,693.4,210.3L693.4,210.3z"/>
	</g>
</g>
<g>
	<g>
		<path d="M150.4,245.2c11.6,0,23.2,0.2,34.8,0.2c1.2,0,1.3-1.4,0.6-2.1c-2.5-2.8-5.3-5.1-8.6-7c-1.4-0.8-2.1,1.3-1,2.1
			c2.8,2,5.3,4.2,7.6,6.6c-0.1-0.6-0.1-1.1-0.2-1.7c-2.8,2.5-5.7,5-8.5,7.5c-1.1,0.9,0.7,2.7,1.8,1.7c2.8-2.5,5.7-5,8.5-7.5
			c0.5-0.4,0.2-1.3-0.2-1.7c-2.5-2.6-5.2-4.9-8.1-7c-0.3,0.7-0.6,1.4-1,2.1c3.1,1.8,5.7,4,8.1,6.7c0.2-0.7,0.4-1.4,0.6-2.1
			c-11.6,0-23.2-0.2-34.8-0.2C148.7,242.8,149,245.2,150.4,245.2L150.4,245.2z"/>
	</g>
</g>
<g>
	<g>
		<path d="M201.4,245.2c11.6,0,23.2,0.2,34.8,0.2c1.2,0,1.3-1.4,0.6-2.1c-2.5-2.8-5.3-5.1-8.6-7c-1.4-0.8-2.1,1.3-1,2.1
			c2.8,2,5.3,4.2,7.6,6.6c-0.1-0.6-0.1-1.1-0.2-1.7c-2.8,2.5-5.7,5-8.5,7.5c-1.1,0.9,0.7,2.7,1.8,1.7c2.8-2.5,5.7-5,8.5-7.5
			c0.5-0.4,0.2-1.3-0.2-1.7c-2.5-2.6-5.2-4.9-8.1-7c-0.3,0.7-0.6,1.4-1,2.1c3.1,1.8,5.7,4,8.1,6.7c0.2-0.7,0.4-1.4,0.6-2.1
			c-11.6,0-23.2-0.2-34.8-0.2C199.7,242.8,200,245.2,201.4,245.2L201.4,245.2z"/>
	</g>
</g>
<g>
	<g>
		<path d="M252.4,245.2c11.6,0,23.2,0.2,34.8,0.2c1.2,0,1.3-1.4,0.6-2.1c-2.5-2.8-5.3-5.1-8.6-7c-1.4-0.8-2.1,1.3-1,2.1
			c2.8,2,5.3,4.2,7.6,6.6c-0.1-0.6-0.1-1.1-0.2-1.7c-2.8,2.5-5.7,5-8.5,7.5c-1.1,0.9,0.7,2.7,1.8,1.7c2.8-2.5,5.7-5,8.5-7.5
			c0.5-0.4,0.2-1.3-0.2-1.7c-2.5-2.6-5.2-4.9-8.1-7c-0.3,0.7-0.6,1.4-1,2.1c3.1,1.8,5.7,4,8.1,6.7c0.2-0.7,0.4-1.4,0.6-2.1
			c-11.6,0-23.2-0.2-34.8-0.2C250.7,242.8,251,245.2,252.4,245.2L252.4,245.2z"/>
	</g>
</g>
<g>
	<g>
		<path d="M303.4,245.2c11.6,0,23.2,0.2,34.8,0.2c1.2,0,1.3-1.4,0.6-2.1c-2.5-2.8-5.3-5.1-8.6-7c-1.4-0.8-2.1,1.3-1,2.1
			c2.8,2,5.3,4.2,7.6,6.6c-0.1-0.6-0.1-1.1-0.2-1.7c-2.8,2.5-5.7,5-8.5,7.5c-1.1,0.9,0.7,2.7,1.8,1.7c2.8-2.5,5.7-5,8.5-7.5
			c0.5-0.4,0.2-1.3-0.2-1.7c-2.5-2.6-5.2-4.9-8.1-7c-0.3,0.7-0.6,1.4-1,2.1c3.1,1.8,5.7,4,8.1,6.7c0.2-0.7,0.4-1.4,0.6-2.1
			c-11.6,0-23.2-0.2-34.8-0.2C301.7,242.8,302,245.2,303.4,245.2L303.4,245.2z"/>
	</g>
</g>
<g>
	<g>
		<path d="M359.4,245.2c11.6,0,23.2,0.2,34.8,0.2c1.2,0,1.3-1.4,0.6-2.1c-2.5-2.8-5.3-5.1-8.6-7c-1.4-0.8-2.1,1.3-1,2.1
			c2.8,2,5.3,4.2,7.6,6.6c-0.1-0.6-0.1-1.1-0.2-1.7c-2.8,2.5-5.7,5-8.5,7.5c-1.1,0.9,0.7,2.7,1.8,1.7c2.8-2.5,5.7-5,8.5-7.5
			c0.5-0.4,0.2-1.3-0.2-1.7c-2.5-2.6-5.2-4.9-8.1-7c-0.3,0.7-0.6,1.4-1,2.1c3.1,1.8,5.7,4,8.1,6.7c0.2-0.7,0.4-1.4,0.6-2.1
			c-11.6,0-23.2-0.2-34.8-0.2C357.7,242.8,358,245.2,359.4,245.2L359.4,245.2z"/>
	</g>
</g>
<g>
	<g>
		<path d="M410.4,245.2c11.6,0,23.2,0.2,34.8,0.2c1.2,0,1.3-1.4,0.6-2.1c-2.5-2.8-5.3-5.1-8.6-7c-1.4-0.8-2.1,1.3-1,2.1
			c2.8,2,5.3,4.2,7.6,6.6c-0.1-0.6-0.1-1.1-0.2-1.7c-2.8,2.5-5.7,5-8.5,7.5c-1.1,0.9,0.7,2.7,1.8,1.7c2.8-2.5,5.7-5,8.5-7.5
			c0.5-0.4,0.2-1.3-0.2-1.7c-2.5-2.6-5.2-4.9-8.1-7c-0.3,0.7-0.6,1.4-1,2.1c3.1,1.8,5.7,4,8.1,6.7c0.2-0.7,0.4-1.4,0.6-2.1
			c-11.6,0-23.2-0.2-34.8-0.2C408.7,242.8,409,245.2,410.4,245.2L410.4,245.2z"/>
	</g>
</g>
<g>
	<g>
		<path d="M461.4,245.2c11.6,0,23.2,0.2,34.8,0.2c1.2,0,1.3-1.4,0.6-2.1c-2.5-2.8-5.3-5.1-8.6-7c-1.4-0.8-2.1,1.3-1,2.1
			c2.8,2,5.3,4.2,7.6,6.6c-0.1-0.6-0.1-1.1-0.2-1.7c-2.8,2.5-5.7,5-8.5,7.5c-1.1,0.9,0.7,2.7,1.8,1.7c2.8-2.5,5.7-5,8.5-7.5
			c0.5-0.4,0.2-1.3-0.2-1.7c-2.5-2.6-5.2-4.9-8.1-7c-0.3,0.7-0.6,1.4-1,2.1c3.1,1.8,5.7,4,8.1,6.7c0.2-0.7,0.4-1.4,0.6-2.1
			c-11.6,0-23.2-0.2-34.8-0.2C459.7,242.8,460,245.2,461.4,245.2L461.4,245.2z"/>
	</g>
</g>
<g>
	<g>
		<path d="M512.4,245.2c11.6,0,23.2,0.2,34.8,0.2c1.2,0,1.3-1.4,0.6-2.1c-2.5-2.8-5.3-5.1-8.6-7c-1.4-0.8-2.1,1.3-1,2.1
			c2.8,2,5.3,4.2,7.6,6.6c-0.1-0.6-0.1-1.1-0.2-1.7c-2.8,2.5-5.7,5-8.5,7.5c-1.1,0.9,0.7,2.7,1.8,1.7c2.8-2.5,5.7-5,8.5-7.5
			c0.5-0.4,0.2-1.3-0.2-1.7c-2.5-2.6-5.2-4.9-8.1-7c-0.3,0.7-0.6,1.4-1,2.1c3.1,1.8,5.7,4,8.1,6.7c0.2-0.7,0.4-1.4,0.6-2.1
			c-11.6,0-23.2-0.2-34.8-0.2C510.7,242.8,511,245.2,512.4,245.2L512.4,245.2z"/>
	</g>
</g>
<g>
	<g>
		<path d="M609.4,245.2c11.6,0,23.2,0.2,34.8,0.2c1.2,0,1.3-1.4,0.6-2.1c-2.5-2.8-5.3-5.1-8.6-7c-1.4-0.8-2.1,1.3-1,2.1
			c2.8,2,5.3,4.2,7.6,6.6c-0.1-0.6-0.1-1.1-0.2-1.7c-2.8,2.5-5.7,5-8.5,7.5c-1.1,0.9,0.7,2.7,1.8,1.7c2.8-2.5,5.7-5,8.5-7.5
			c0.5-0.4,0.2-1.3-0.2-1.7c-2.5-2.6-5.2-4.9-8.1-7c-0.3,0.7-0.6,1.4-1,2.1c3.1,1.8,5.7,4,8.1,6.7c0.2-0.7,0.4-1.4,0.6-2.1
			c-11.6,0-23.2-0.2-34.8-0.2C607.7,242.8,608,245.2,609.4,245.2L609.4,245.2z"/>
	</g>
</g>
<g>
	<g>
		<path d="M660.4,245.2c11.6,0,23.2,0.2,34.8,0.2c1.2,0,1.3-1.4,0.6-2.1c-2.5-2.8-5.3-5.1-8.6-7c-1.4-0.8-2.1,1.3-1,2.1
			c2.8,2,5.3,4.2,7.6,6.6c-0.1-0.6-0.1-1.1-0.2-1.7c-2.8,2.5-5.7,5-8.5,7.5c-1.1,0.9,0.7,2.7,1.8,1.7c2.8-2.5,5.7-5,8.5-7.5
			c0.5-0.4,0.2-1.3-0.2-1.7c-2.5-2.6-5.2-4.9-8.1-7c-0.3,0.7-0.6,1.4-1,2.1c3.1,1.8,5.7,4,8.1,6.7c0.2-0.7,0.4-1.4,0.6-2.1
			c-11.6,0-23.2-0.2-34.8-0.2C658.7,242.8,659,245.2,660.4,245.2L660.4,245.2z"/>
	</g>
</g>
<g>
	<g>
		<path d="M711.4,245.2c11.6,0,23.2,0.2,34.8,0.2c1.2,0,1.3-1.4,0.6-2.1c-2.5-2.8-5.3-5.1-8.6-7c-1.4-0.8-2.1,1.3-1,2.1
			c2.8,2,5.3,4.2,7.6,6.6c-0.1-0.6-0.1-1.1-0.2-1.7c-2.8,2.5-5.7,5-8.5,7.5c-1.1,0.9,0.7,2.7,1.8,1.7c2.8-2.5,5.7-5,8.5-7.5
			c0.5-0.4,0.2-1.3-0.2-1.7c-2.5-2.6-5.2-4.9-8.1-7c-0.3,0.7-0.6,1.4-1,2.1c3.1,1.8,5.7,4,8.1,6.7c0.2-0.7,0.4-1.4,0.6-2.1
			c-11.6,0-23.2-0.2-34.8-0.2C709.7,242.8,710,245.2,711.4,245.2L711.4,245.2z"/>
	</g>
</g>
<g>
	<g>
		<path d="M96.4,281.3c11.6,0,23.2,0.2,34.8,0.2c1.2,0,1.3-1.4,0.6-2.1c-2.5-2.8-5.3-5.1-8.6-7c-1.4-0.8-2.1,1.3-1,2.1
			c2.8,2,5.3,4.2,7.6,6.6c-0.1-0.6-0.1-1.1-0.2-1.7c-2.8,2.5-5.7,5-8.5,7.5c-1.1,0.9,0.7,2.7,1.8,1.7c2.8-2.5,5.7-5,8.5-7.5
			c0.5-0.4,0.2-1.3-0.2-1.7c-2.5-2.6-5.2-4.9-8.1-7c-0.3,0.7-0.6,1.4-1,2.1c3.1,1.8,5.7,4,8.1,6.7c0.2-0.7,0.4-1.4,0.6-2.1
			c-11.6,0-23.2-0.2-34.8-0.2C94.7,278.9,95,281.3,96.4,281.3L96.4,281.3z"/>
	</g>
</g>
<g>
	<g>
		<path d="M150.4,281.3c11.6,0,23.2,0.2,34.8,0.2c1.2,0,1.3-1.4,0.6-2.1c-2.5-2.8-5.3-5.1-8.6-7c-1.4-0.8-2.1,1.3-1,2.1
			c2.8,2,5.3,4.2,7.6,6.6c-0.1-0.6-0.1-1.1-0.2-1.7c-2.8,2.5-5.7,5-8.5,7.5c-1.1,0.9,0.7,2.7,1.8,1.7c2.8-2.5,5.7-5,8.5-7.5
			c0.5-0.4,0.2-1.3-0.2-1.7c-2.5-2.6-5.2-4.9-8.1-7c-0.3,0.7-0.6,1.4-1,2.1c3.1,1.8,5.7,4,8.1,6.7c0.2-0.7,0.4-1.4,0.6-2.1
			c-11.6,0-23.2-0.2-34.8-0.2C148.7,278.9,149,281.3,150.4,281.3L150.4,281.3z"/>
	</g>
</g>
<g>
	<g>
		<path d="M252.4,281.3c11.6,0,23.2,0.2,34.8,0.2c1.2,0,1.3-1.4,0.6-2.1c-2.5-2.8-5.3-5.1-8.6-7c-1.4-0.8-2.1,1.3-1,2.1
			c2.8,2,5.3,4.2,7.6,6.6c-0.1-0.6-0.1-1.1-0.2-1.7c-2.8,2.5-5.7,5-8.5,7.5c-1.1,0.9,0.7,2.7,1.8,1.7c2.8-2.5,5.7-5,8.5-7.5
			c0.5-0.4,0.2-1.3-0.2-1.7c-2.5-2.6-5.2-4.9-8.1-7c-0.3,0.7-0.6,1.4-1,2.1c3.1,1.8,5.7,4,8.1,6.7c0.2-0.7,0.4-1.4,0.6-2.1
			c-11.6,0-23.2-0.2-34.8-0.2C250.7,278.9,251,281.3,252.4,281.3L252.4,281.3z"/>
	</g>
</g>
<g>
	<g>
		<path d="M303.4,281.3c11.6,0,23.2,0.2,34.8,0.2c1.2,0,1.3-1.4,0.6-2.1c-2.5-2.8-5.3-5.1-8.6-7c-1.4-0.8-2.1,1.3-1,2.1
			c2.8,2,5.3,4.2,7.6,6.6c-0.1-0.6-0.1-1.1-0.2-1.7c-2.8,2.5-5.7,5-8.5,7.5c-1.1,0.9,0.7,2.7,1.8,1.7c2.8-2.5,5.7-5,8.5-7.5
			c0.5-0.4,0.2-1.3-0.2-1.7c-2.5-2.6-5.2-4.9-8.1-7c-0.3,0.7-0.6,1.4-1,2.1c3.1,1.8,5.7,4,8.1,6.7c0.2-0.7,0.4-1.4,0.6-2.1
			c-11.6,0-23.2-0.2-34.8-0.2C301.7,278.9,302,281.3,303.4,281.3L303.4,281.3z"/>
	</g>
</g>
<g>
	<g>
		<path d="M434.4,281.3c11.6,0,23.2,0.2,34.8,0.2c1.2,0,1.3-1.4,0.6-2.1c-2.5-2.8-5.3-5.1-8.6-7c-1.4-0.8-2.1,1.3-1,2.1
			c2.8,2,5.3,4.2,7.6,6.6c-0.1-0.6-0.1-1.1-0.2-1.7c-2.8,2.5-5.7,5-8.5,7.5c-1.1,0.9,0.7,2.7,1.8,1.7c2.8-2.5,5.7-5,8.5-7.5
			c0.5-0.4,0.2-1.3-0.2-1.7c-2.5-2.6-5.2-4.9-8.1-7c-0.3,0.7-0.6,1.4-1,2.1c3.1,1.8,5.7,4,8.1,6.7c0.2-0.7,0.4-1.4,0.6-2.1
			c-11.6,0-23.2-0.2-34.8-0.2C432.7,278.9,433,281.3,434.4,281.3L434.4,281.3z"/>
	</g>
</g>
<g>
	<g>
		<path d="M486.4,281.3c11.6,0,23.2,0.2,34.8,0.2c1.2,0,1.3-1.4,0.6-2.1c-2.5-2.8-5.3-5.1-8.6-7c-1.4-0.8-2.1,1.3-1,2.1
			c2.8,2,5.3,4.2,7.6,6.6c-0.1-0.6-0.1-1.1-0.2-1.7c-2.8,2.5-5.7,5-8.5,7.5c-1.1,0.9,0.7,2.7,1.8,1.7c2.8-2.5,5.7-5,8.5-7.5
			c0.5-0.4,0.2-1.3-0.2-1.7c-2.5-2.6-5.2-4.9-8.1-7c-0.3,0.7-0.6,1.4-1,2.1c3.1,1.8,5.7,4,8.1,6.7c0.2-0.7,0.4-1.4,0.6-2.1
			c-11.6,0-23.2-0.2-34.8-0.2C484.7,278.9,485,281.3,486.4,281.3L486.4,281.3z"/>
	</g>
</g>
<g>
	<g>
		<path d="M540.4,281.3c11.6,0,23.2,0.2,34.8,0.2c1.2,0,1.3-1.4,0.6-2.1c-2.5-2.8-5.3-5.1-8.6-7c-1.4-0.8-2.1,1.3-1,2.1
			c2.8,2,5.3,4.2,7.6,6.6c-0.1-0.6-0.1-1.1-0.2-1.7c-2.8,2.5-5.7,5-8.5,7.5c-1.1,0.9,0.7,2.7,1.8,1.7c2.8-2.5,5.7-5,8.5-7.5
			c0.5-0.4,0.2-1.3-0.2-1.7c-2.5-2.6-5.2-4.9-8.1-7c-0.3,0.7-0.6,1.4-1,2.1c3.1,1.8,5.7,4,8.1,6.7c0.2-0.7,0.4-1.4,0.6-2.1
			c-11.6,0-23.2-0.2-34.8-0.2C538.7,278.9,539,281.3,540.4,281.3L540.4,281.3z"/>
	</g>
</g>
<g>
	<g>
		<path d="M591.4,281.3c11.6,0,23.2,0.2,34.8,0.2c1.2,0,1.3-1.4,0.6-2.1c-2.5-2.8-5.3-5.1-8.6-7c-1.4-0.8-2.1,1.3-1,2.1
			c2.8,2,5.3,4.2,7.6,6.6c-0.1-0.6-0.1-1.1-0.2-1.7c-2.8,2.5-5.7,5-8.5,7.5c-1.1,0.9,0.7,2.7,1.8,1.7c2.8-2.5,5.7-5,8.5-7.5
			c0.5-0.4,0.2-1.3-0.2-1.7c-2.5-2.6-5.2-4.9-8.1-7c-0.3,0.7-0.6,1.4-1,2.1c3.1,1.8,5.7,4,8.1,6.7c0.2-0.7,0.4-1.4,0.6-2.1
			c-11.6,0-23.2-0.2-34.8-0.2C589.7,278.9,590,281.3,591.4,281.3L591.4,281.3z"/>
	</g>
</g>
<g>
	<g>
		<path d="M642.4,281.3c11.6,0,23.2,0.2,34.8,0.2c1.2,0,1.3-1.4,0.6-2.1c-2.5-2.8-5.3-5.1-8.6-7c-1.4-0.8-2.1,1.3-1,2.1
			c2.8,2,5.3,4.2,7.6,6.6c-0.1-0.6-0.1-1.1-0.2-1.7c-2.8,2.5-5.7,5-8.5,7.5c-1.1,0.9,0.7,2.7,1.8,1.7c2.8-2.5,5.7-5,8.5-7.5
			c0.5-0.4,0.2-1.3-0.2-1.7c-2.5-2.6-5.2-4.9-8.1-7c-0.3,0.7-0.6,1.4-1,2.1c3.1,1.8,5.7,4,8.1,6.7c0.2-0.7,0.4-1.4,0.6-2.1
			c-11.6,0-23.2-0.2-34.8-0.2C640.7,278.9,641,281.3,642.4,281.3L642.4,281.3z"/>
	</g>
</g>
<g>
	<g>
		<path d="M693.4,281.3c11.6,0,23.2,0.2,34.8,0.2c1.2,0,1.3-1.4,0.6-2.1c-2.5-2.8-5.3-5.1-8.6-7c-1.4-0.8-2.1,1.3-1,2.1
			c2.8,2,5.3,4.2,7.6,6.6c-0.1-0.6-0.1-1.1-0.2-1.7c-2.8,2.5-5.7,5-8.5,7.5c-1.1,0.9,0.7,2.7,1.8,1.7c2.8-2.5,5.7-5,8.5-7.5
			c0.5-0.4,0.2-1.3-0.2-1.7c-2.5-2.6-5.2-4.9-8.1-7c-0.3,0.7-0.6,1.4-1,2.1c3.1,1.8,5.7,4,8.1,6.7c0.2-0.7,0.4-1.4,0.6-2.1
			c-11.6,0-23.2-0.2-34.8-0.2C691.7,278.9,692,281.3,693.4,281.3L693.4,281.3z"/>
	</g>
</g>
<g>
	<g>
		<path d="M150.4,316.2c11.6,0,23.2,0.2,34.8,0.2c1.2,0,1.3-1.4,0.6-2.1c-2.5-2.8-5.3-5.1-8.6-7c-1.4-0.8-2.1,1.3-1,2.1
			c2.8,2,5.3,4.2,7.6,6.6c-0.1-0.6-0.1-1.1-0.2-1.7c-2.8,2.5-5.7,5-8.5,7.5c-1.1,0.9,0.7,2.7,1.8,1.7c2.8-2.5,5.7-5,8.5-7.5
			c0.5-0.4,0.2-1.3-0.2-1.7c-2.5-2.6-5.2-4.9-8.1-7c-0.3,0.7-0.6,1.4-1,2.1c3.1,1.8,5.7,4,8.1,6.7c0.2-0.7,0.4-1.4,0.6-2.1
			c-11.6,0-23.2-0.2-34.8-0.2C148.7,313.8,149,316.2,150.4,316.2L150.4,316.2z"/>
	</g>
</g>
<g>
	<g>
		<path d="M201.4,316.2c11.6,0,23.2,0.2,34.8,0.2c1.2,0,1.3-1.4,0.6-2.1c-2.5-2.8-5.3-5.1-8.6-7c-1.4-0.8-2.1,1.3-1,2.1
			c2.8,2,5.3,4.2,7.6,6.6c-0.1-0.6-0.1-1.1-0.2-1.7c-2.8,2.5-5.7,5-8.5,7.5c-1.1,0.9,0.7,2.7,1.8,1.7c2.8-2.5,5.7-5,8.5-7.5
			c0.5-0.4,0.2-1.3-0.2-1.7c-2.5-2.6-5.2-4.9-8.1-7c-0.3,0.7-0.6,1.4-1,2.1c3.1,1.8,5.7,4,8.1,6.7c0.2-0.7,0.4-1.4,0.6-2.1
			c-11.6,0-23.2-0.2-34.8-0.2C199.7,313.8,200,316.2,201.4,316.2L201.4,316.2z"/>
	</g>
</g>
<g>
	<g>
		<path d="M252.4,316.2c11.6,0,23.2,0.2,34.8,0.2c1.2,0,1.3-1.4,0.6-2.1c-2.5-2.8-5.3-5.1-8.6-7c-1.4-0.8-2.1,1.3-1,2.1
			c2.8,2,5.3,4.2,7.6,6.6c-0.1-0.6-0.1-1.1-0.2-1.7c-2.8,2.5-5.7,5-8.5,7.5c-1.1,0.9,0.7,2.7,1.8,1.7c2.8-2.5,5.7-5,8.5-7.5
			c0.5-0.4,0.2-1.3-0.2-1.7c-2.5-2.6-5.2-4.9-8.1-7c-0.3,0.7-0.6,1.4-1,2.1c3.1,1.8,5.7,4,8.1,6.7c0.2-0.7,0.4-1.4,0.6-2.1
			c-11.6,0-23.2-0.2-34.8-0.2C250.7,313.8,251,316.2,252.4,316.2L252.4,316.2z"/>
	</g>
</g>
<g>
	<g>
		<path d="M303.4,316.2c11.6,0,23.2,0.2,34.8,0.2c1.2,0,1.3-1.4,0.6-2.1c-2.5-2.8-5.3-5.1-8.6-7c-1.4-0.8-2.1,1.3-1,2.1
			c2.8,2,5.3,4.2,7.6,6.6c-0.1-0.6-0.1-1.1-0.2-1.7c-2.8,2.5-5.7,5-8.5,7.5c-1.1,0.9,0.7,2.7,1.8,1.7c2.8-2.5,5.7-5,8.5-7.5
			c0.5-0.4,0.2-1.3-0.2-1.7c-2.5-2.6-5.2-4.9-8.1-7c-0.3,0.7-0.6,1.4-1,2.1c3.1,1.8,5.7,4,8.1,6.7c0.2-0.7,0.4-1.4,0.6-2.1
			c-11.6,0-23.2-0.2-34.8-0.2C301.7,313.8,302,316.2,303.4,316.2L303.4,316.2z"/>
	</g>
</g>
<g>
	<g>
		<path d="M359.4,316.2c11.6,0,23.2,0.2,34.8,0.2c1.2,0,1.3-1.4,0.6-2.1c-2.5-2.8-5.3-5.1-8.6-7c-1.4-0.8-2.1,1.3-1,2.1
			c2.8,2,5.3,4.2,7.6,6.6c-0.1-0.6-0.1-1.1-0.2-1.7c-2.8,2.5-5.7,5-8.5,7.5c-1.1,0.9,0.7,2.7,1.8,1.7c2.8-2.5,5.7-5,8.5-7.5
			c0.5-0.4,0.2-1.3-0.2-1.7c-2.5-2.6-5.2-4.9-8.1-7c-0.3,0.7-0.6,1.4-1,2.1c3.1,1.8,5.7,4,8.1,6.7c0.2-0.7,0.4-1.4,0.6-2.1
			c-11.6,0-23.2-0.2-34.8-0.2C357.7,313.8,358,316.2,359.4,316.2L359.4,316.2z"/>
	</g>
</g>
<g>
	<g>
		<path d="M410.4,316.2c11.6,0,23.2,0.2,34.8,0.2c1.2,0,1.3-1.4,0.6-2.1c-2.5-2.8-5.3-5.1-8.6-7c-1.4-0.8-2.1,1.3-1,2.1
			c2.8,2,5.3,4.2,7.6,6.6c-0.1-0.6-0.1-1.1-0.2-1.7c-2.8,2.5-5.7,5-8.5,7.5c-1.1,0.9,0.7,2.7,1.8,1.7c2.8-2.5,5.7-5,8.5-7.5
			c0.5-0.4,0.2-1.3-0.2-1.7c-2.5-2.6-5.2-4.9-8.1-7c-0.3,0.7-0.6,1.4-1,2.1c3.1,1.8,5.7,4,8.1,6.7c0.2-0.7,0.4-1.4,0.6-2.1
			c-11.6,0-23.2-0.2-34.8-0.2C408.7,313.8,409,316.2,410.4,316.2L410.4,316.2z"/>
	</g>
</g>
<g>
	<g>
		<path d="M461.4,316.2c11.6,0,23.2,0.2,34.8,0.2c1.2,0,1.3-1.4,0.6-2.1c-2.5-2.8-5.3-5.1-8.6-7c-1.4-0.8-2.1,1.3-1,2.1
			c2.8,2,5.3,4.2,7.6,6.6c-0.1-0.6-0.1-1.1-0.2-1.7c-2.8,2.5-5.7,5-8.5,7.5c-1.1,0.9,0.7,2.7,1.8,1.7c2.8-2.5,5.7-5,8.5-7.5
			c0.5-0.4,0.2-1.3-0.2-1.7c-2.5-2.6-5.2-4.9-8.1-7c-0.3,0.7-0.6,1.4-1,2.1c3.1,1.8,5.7,4,8.1,6.7c0.2-0.7,0.4-1.4,0.6-2.1
			c-11.6,0-23.2-0.2-34.8-0.2C459.7,313.8,460,316.2,461.4,316.2L461.4,316.2z"/>
	</g>
</g>
<g>
	<g>
		<path d="M512.4,316.2c11.6,0,23.2,0.2,34.8,0.2c1.2,0,1.3-1.4,0.6-2.1c-2.5-2.8-5.3-5.1-8.6-7c-1.4-0.8-2.1,1.3-1,2.1
			c2.8,2,5.3,4.2,7.6,6.6c-0.1-0.6-0.1-1.1-0.2-1.7c-2.8,2.5-5.7,5-8.5,7.5c-1.1,0.9,0.7,2.7,1.8,1.7c2.8-2.5,5.7-5,8.5-7.5
			c0.5-0.4,0.2-1.3-0.2-1.7c-2.5-2.6-5.2-4.9-8.1-7c-0.3,0.7-0.6,1.4-1,2.1c3.1,1.8,5.7,4,8.1,6.7c0.2-0.7,0.4-1.4,0.6-2.1
			c-11.6,0-23.2-0.2-34.8-0.2C510.7,313.8,511,316.2,512.4,316.2L512.4,316.2z"/>
	</g>
</g>
<g>
	<g>
		<path d="M609.4,316.2c11.6,0,23.2,0.2,34.8,0.2c1.2,0,1.3-1.4,0.6-2.1c-2.5-2.8-5.3-5.1-8.6-7c-1.4-0.8-2.1,1.3-1,2.1
			c2.8,2,5.3,4.2,7.6,6.6c-0.1-0.6-0.1-1.1-0.2-1.7c-2.8,2.5-5.7,5-8.5,7.5c-1.1,0.9,0.7,2.7,1.8,1.7c2.8-2.5,5.7-5,8.5-7.5
			c0.5-0.4,0.2-1.3-0.2-1.7c-2.5-2.6-5.2-4.9-8.1-7c-0.3,0.7-0.6,1.4-1,2.1c3.1,1.8,5.7,4,8.1,6.7c0.2-0.7,0.4-1.4,0.6-2.1
			c-11.6,0-23.2-0.2-34.8-0.2C607.7,313.8,608,316.2,609.4,316.2L609.4,316.2z"/>
	</g>
</g>
<g>
	<g>
		<path d="M660.4,316.2c11.6,0,23.2,0.2,34.8,0.2c1.2,0,1.3-1.4,0.6-2.1c-2.5-2.8-5.3-5.1-8.6-7c-1.4-0.8-2.1,1.3-1,2.1
			c2.8,2,5.3,4.2,7.6,6.6c-0.1-0.6-0.1-1.1-0.2-1.7c-2.8,2.5-5.7,5-8.5,7.5c-1.1,0.9,0.7,2.7,1.8,1.7c2.8-2.5,5.7-5,8.5-7.5
			c0.5-0.4,0.2-1.3-0.2-1.7c-2.5-2.6-5.2-4.9-8.1-7c-0.3,0.7-0.6,1.4-1,2.1c3.1,1.8,5.7,4,8.1,6.7c0.2-0.7,0.4-1.4,0.6-2.1
			c-11.6,0-23.2-0.2-34.8-0.2C658.7,313.8,659,316.2,660.4,316.2L660.4,316.2z"/>
	</g>
</g>
<g>
	<g>
		<path d="M711.4,316.2c11.6,0,23.2,0.2,34.8,0.2c1.2,0,1.3-1.4,0.6-2.1c-2.5-2.8-5.3-5.1-8.6-7c-1.4-0.8-2.1,1.3-1,2.1
			c2.8,2,5.3,4.2,7.6,6.6c-0.1-0.6-0.1-1.1-0.2-1.7c-2.8,2.5-5.7,5-8.5,7.5c-1.1,0.9,0.7,2.7,1.8,1.7c2.8-2.5,5.7-5,8.5-7.5
			c0.5-0.4,0.2-1.3-0.2-1.7c-2.5-2.6-5.2-4.9-8.1-7c-0.3,0.7-0.6,1.4-1,2.1c3.1,1.8,5.7,4,8.1,6.7c0.2-0.7,0.4-1.4,0.6-2.1
			c-11.6,0-23.2-0.2-34.8-0.2C709.7,313.8,710,316.2,711.4,316.2L711.4,316.2z"/>
	</g>
</g>
<g>
	<g>
		<path d="M96.4,348.3c11.6,0,23.2,0.2,34.8,0.2c1.2,0,1.3-1.4,0.6-2.1c-2.5-2.8-5.3-5.1-8.6-7c-1.4-0.8-2.1,1.3-1,2.1
			c2.8,2,5.3,4.2,7.6,6.6c-0.1-0.6-0.1-1.1-0.2-1.7c-2.8,2.5-5.7,5-8.5,7.5c-1.1,0.9,0.7,2.7,1.8,1.7c2.8-2.5,5.7-5,8.5-7.5
			c0.5-0.4,0.2-1.3-0.2-1.7c-2.5-2.6-5.2-4.9-8.1-7c-0.3,0.7-0.6,1.4-1,2.1c3.1,1.8,5.7,4,8.1,6.7c0.2-0.7,0.4-1.4,0.6-2.1
			c-11.6,0-23.2-0.2-34.8-0.2C94.7,345.9,95,348.3,96.4,348.3L96.4,348.3z"/>
	</g>
</g>
<g>
	<g>
		<path d="M150.4,348.3c11.6,0,23.2,0.2,34.8,0.2c1.2,0,1.3-1.4,0.6-2.1c-2.5-2.8-5.3-5.1-8.6-7c-1.4-0.8-2.1,1.3-1,2.1
			c2.8,2,5.3,4.2,7.6,6.6c-0.1-0.6-0.1-1.1-0.2-1.7c-2.8,2.5-5.7,5-8.5,7.5c-1.1,0.9,0.7,2.7,1.8,1.7c2.8-2.5,5.7-5,8.5-7.5
			c0.5-0.4,0.2-1.3-0.2-1.7c-2.5-2.6-5.2-4.9-8.1-7c-0.3,0.7-0.6,1.4-1,2.1c3.1,1.8,5.7,4,8.1,6.7c0.2-0.7,0.4-1.4,0.6-2.1
			c-11.6,0-23.2-0.2-34.8-0.2C148.7,345.9,149,348.3,150.4,348.3L150.4,348.3z"/>
	</g>
</g>
<g>
	<g>
		<path d="M252.4,348.3c11.6,0,23.2,0.2,34.8,0.2c1.2,0,1.3-1.4,0.6-2.1c-2.5-2.8-5.3-5.1-8.6-7c-1.4-0.8-2.1,1.3-1,2.1
			c2.8,2,5.3,4.2,7.6,6.6c-0.1-0.6-0.1-1.1-0.2-1.7c-2.8,2.5-5.7,5-8.5,7.5c-1.1,0.9,0.7,2.7,1.8,1.7c2.8-2.5,5.7-5,8.5-7.5
			c0.5-0.4,0.2-1.3-0.2-1.7c-2.5-2.6-5.2-4.9-8.1-7c-0.3,0.7-0.6,1.4-1,2.1c3.1,1.8,5.7,4,8.1,6.7c0.2-0.7,0.4-1.4,0.6-2.1
			c-11.6,0-23.2-0.2-34.8-0.2C250.7,345.9,251,348.3,252.4,348.3L252.4,348.3z"/>
	</g>
</g>
<g>
	<g>
		<path d="M417.4,348.3c11.6,0,23.2,0.2,34.8,0.2c1.2,0,1.3-1.4,0.6-2.1c-2.5-2.8-5.3-5.1-8.6-7c-1.4-0.8-2.1,1.3-1,2.1
			c2.8,2,5.3,4.2,7.6,6.6c-0.1-0.6-0.1-1.1-0.2-1.7c-2.8,2.5-5.7,5-8.5,7.5c-1.1,0.9,0.7,2.7,1.8,1.7c2.8-2.5,5.7-5,8.5-7.5
			c0.5-0.4,0.2-1.3-0.2-1.7c-2.5-2.6-5.2-4.9-8.1-7c-0.3,0.7-0.6,1.4-1,2.1c3.1,1.8,5.7,4,8.1,6.7c0.2-0.7,0.4-1.4,0.6-2.1
			c-11.6,0-23.2-0.2-34.8-0.2C415.7,345.9,416,348.3,417.4,348.3L417.4,348.3z"/>
	</g>
</g>
<g>
	<g>
		<path d="M469.4,348.3c11.6,0,23.2,0.2,34.8,0.2c1.2,0,1.3-1.4,0.6-2.1c-2.5-2.8-5.3-5.1-8.6-7c-1.4-0.8-2.1,1.3-1,2.1
			c2.8,2,5.3,4.2,7.6,6.6c-0.1-0.6-0.1-1.1-0.2-1.7c-2.8,2.5-5.7,5-8.5,7.5c-1.1,0.9,0.7,2.7,1.8,1.7c2.8-2.5,5.7-5,8.5-7.5
			c0.5-0.4,0.2-1.3-0.2-1.7c-2.5-2.6-5.2-4.9-8.1-7c-0.3,0.7-0.6,1.4-1,2.1c3.1,1.8,5.7,4,8.1,6.7c0.2-0.7,0.4-1.4,0.6-2.1
			c-11.6,0-23.2-0.2-34.8-0.2C467.7,345.9,468,348.3,469.4,348.3L469.4,348.3z"/>
	</g>
</g>
<g>
	<g>
		<path d="M523.4,348.3c11.6,0,23.2,0.2,34.8,0.2c1.2,0,1.3-1.4,0.6-2.1c-2.5-2.8-5.3-5.1-8.6-7c-1.4-0.8-2.1,1.3-1,2.1
			c2.8,2,5.3,4.2,7.6,6.6c-0.1-0.6-0.1-1.1-0.2-1.7c-2.8,2.5-5.7,5-8.5,7.5c-1.1,0.9,0.7,2.7,1.8,1.7c2.8-2.5,5.7-5,8.5-7.5
			c0.5-0.4,0.2-1.3-0.2-1.7c-2.5-2.6-5.2-4.9-8.1-7c-0.3,0.7-0.6,1.4-1,2.1c3.1,1.8,5.7,4,8.1,6.7c0.2-0.7,0.4-1.4,0.6-2.1
			c-11.6,0-23.2-0.2-34.8-0.2C521.7,345.9,522,348.3,523.4,348.3L523.4,348.3z"/>
	</g>
</g>
<g>
	<g>
		<path d="M574.4,348.3c11.6,0,23.2,0.2,34.8,0.2c1.2,0,1.3-1.4,0.6-2.1c-2.5-2.8-5.3-5.1-8.6-7c-1.4-0.8-2.1,1.3-1,2.1
			c2.8,2,5.3,4.2,7.6,6.6c-0.1-0.6-0.1-1.1-0.2-1.7c-2.8,2.5-5.7,5-8.5,7.5c-1.1,0.9,0.7,2.7,1.8,1.7c2.8-2.5,5.7-5,8.5-7.5
			c0.5-0.4,0.2-1.3-0.2-1.7c-2.5-2.6-5.2-4.9-8.1-7c-0.3,0.7-0.6,1.4-1,2.1c3.1,1.8,5.7,4,8.1,6.7c0.2-0.7,0.4-1.4,0.6-2.1
			c-11.6,0-23.2-0.2-34.8-0.2C572.7,345.9,573,348.3,574.4,348.3L574.4,348.3z"/>
	</g>
</g>
<g>
	<g>
		<path d="M625.4,348.3c11.6,0,23.2,0.2,34.8,0.2c1.2,0,1.3-1.4,0.6-2.1c-2.5-2.8-5.3-5.1-8.6-7c-1.4-0.8-2.1,1.3-1,2.1
			c2.8,2,5.3,4.2,7.6,6.6c-0.1-0.6-0.1-1.1-0.2-1.7c-2.8,2.5-5.7,5-8.5,7.5c-1.1,0.9,0.7,2.7,1.8,1.7c2.8-2.5,5.7-5,8.5-7.5
			c0.5-0.4,0.2-1.3-0.2-1.7c-2.5-2.6-5.2-4.9-8.1-7c-0.3,0.7-0.6,1.4-1,2.1c3.1,1.8,5.7,4,8.1,6.7c0.2-0.7,0.4-1.4,0.6-2.1
			c-11.6,0-23.2-0.2-34.8-0.2C623.7,345.9,624,348.3,625.4,348.3L625.4,348.3z"/>
	</g>
</g>
<g>
	<g>
		<path d="M676.4,348.3c11.6,0,23.2,0.2,34.8,0.2c1.2,0,1.3-1.4,0.6-2.1c-2.5-2.8-5.3-5.1-8.6-7c-1.4-0.8-2.1,1.3-1,2.1
			c2.8,2,5.3,4.2,7.6,6.6c-0.1-0.6-0.1-1.1-0.2-1.7c-2.8,2.5-5.7,5-8.5,7.5c-1.1,0.9,0.7,2.7,1.8,1.7c2.8-2.5,5.7-5,8.5-7.5
			c0.5-0.4,0.2-1.3-0.2-1.7c-2.5-2.6-5.2-4.9-8.1-7c-0.3,0.7-0.6,1.4-1,2.1c3.1,1.8,5.7,4,8.1,6.7c0.2-0.7,0.4-1.4,0.6-2.1
			c-11.6,0-23.2-0.2-34.8-0.2C674.7,345.9,675,348.3,676.4,348.3L676.4,348.3z"/>
	</g>
</g>
<g>
	<g>
		<path d="M721.4,348.3c11.6,0,23.2,0.2,34.8,0.2c1.2,0,1.3-1.4,0.6-2.1c-2.5-2.8-5.3-5.1-8.6-7c-1.4-0.8-2.1,1.3-1,2.1
			c2.8,2,5.3,4.2,7.6,6.6c-0.1-0.6-0.1-1.1-0.2-1.7c-2.8,2.5-5.7,5-8.5,7.5c-1.1,0.9,0.7,2.7,1.8,1.7c2.8-2.5,5.7-5,8.5-7.5
			c0.5-0.4,0.2-1.3-0.2-1.7c-2.5-2.6-5.2-4.9-8.1-7c-0.3,0.7-0.6,1.4-1,2.1c3.1,1.8,5.7,4,8.1,6.7c0.2-0.7,0.4-1.4,0.6-2.1
			c-11.6,0-23.2-0.2-34.8-0.2C719.7,345.9,720,348.3,721.4,348.3L721.4,348.3z"/>
	</g>
</g>
<g>
	<g>
		<path d="M625.4,487.3c11.6,0,23.2,0.2,34.8,0.2c1.2,0,1.3-1.4,0.6-2.1c-2.5-2.8-5.3-5.1-8.6-7c-1.4-0.8-2.1,1.3-1,2.1
			c2.8,2,5.3,4.2,7.6,6.6c-0.1-0.6-0.1-1.1-0.2-1.7c-2.8,2.5-5.7,5-8.5,7.5c-1.1,0.9,0.7,2.7,1.8,1.7c2.8-2.5,5.7-5,8.5-7.5
			c0.5-0.4,0.2-1.3-0.2-1.7c-2.5-2.6-5.2-4.9-8.1-7c-0.3,0.7-0.6,1.4-1,2.1c3.1,1.8,5.7,4,8.1,6.7c0.2-0.7,0.4-1.4,0.6-2.1
			c-11.6,0-23.2-0.2-34.8-0.2C623.7,484.9,624,487.3,625.4,487.3L625.4,487.3z"/>
	</g>
</g>
<g>
	<g>
		<path d="M676.4,487.3c11.6,0,23.2,0.2,34.8,0.2c1.2,0,1.3-1.4,0.6-2.1c-2.5-2.8-5.3-5.1-8.6-7c-1.4-0.8-2.1,1.3-1,2.1
			c2.8,2,5.3,4.2,7.6,6.6c-0.1-0.6-0.1-1.1-0.2-1.7c-2.8,2.5-5.7,5-8.5,7.5c-1.1,0.9,0.7,2.7,1.8,1.7c2.8-2.5,5.7-5,8.5-7.5
			c0.5-0.4,0.2-1.3-0.2-1.7c-2.5-2.6-5.2-4.9-8.1-7c-0.3,0.7-0.6,1.4-1,2.1c3.1,1.8,5.7,4,8.1,6.7c0.2-0.7,0.4-1.4,0.6-2.1
			c-11.6,0-23.2-0.2-34.8-0.2C674.7,484.9,675,487.3,676.4,487.3L676.4,487.3z"/>
	</g>
</g>
<g>
	<g>
		<path d="M721.4,487.3c11.6,0,23.2,0.2,34.8,0.2c1.2,0,1.3-1.4,0.6-2.1c-2.5-2.8-5.3-5.1-8.6-7c-1.4-0.8-2.1,1.3-1,2.1
			c2.8,2,5.3,4.2,7.6,6.6c-0.1-0.6-0.1-1.1-0.2-1.7c-2.8,2.5-5.7,5-8.5,7.5c-1.1,0.9,0.7,2.7,1.8,1.7c2.8-2.5,5.7-5,8.5-7.5
			c0.5-0.4,0.2-1.3-0.2-1.7c-2.5-2.6-5.2-4.9-8.1-7c-0.3,0.7-0.6,1.4-1,2.1c3.1,1.8,5.7,4,8.1,6.7c0.2-0.7,0.4-1.4,0.6-2.1
			c-11.6,0-23.2-0.2-34.8-0.2C719.7,484.9,720,487.3,721.4,487.3L721.4,487.3z"/>
	</g>
</g>
<g>
	<g>
		<path d="M150.4,383.2c11.6,0,23.2,0.2,34.8,0.2c1.2,0,1.3-1.4,0.6-2.1c-2.5-2.8-5.3-5.1-8.6-7c-1.4-0.8-2.1,1.3-1,2.1
			c2.8,2,5.3,4.2,7.6,6.6c-0.1-0.6-0.1-1.1-0.2-1.7c-2.8,2.5-5.7,5-8.5,7.5c-1.1,0.9,0.7,2.7,1.8,1.7c2.8-2.5,5.7-5,8.5-7.5
			c0.5-0.4,0.2-1.3-0.2-1.7c-2.5-2.6-5.2-4.9-8.1-7c-0.3,0.7-0.6,1.4-1,2.1c3.1,1.8,5.7,4,8.1,6.7c0.2-0.7,0.4-1.4,0.6-2.1
			c-11.6,0-23.2-0.2-34.8-0.2C148.7,380.8,149,383.2,150.4,383.2L150.4,383.2z"/>
	</g>
</g>
<g>
	<g>
		<path d="M201.4,383.2c11.6,0,23.2,0.2,34.8,0.2c1.2,0,1.3-1.4,0.6-2.1c-2.5-2.8-5.3-5.1-8.6-7c-1.4-0.8-2.1,1.3-1,2.1
			c2.8,2,5.3,4.2,7.6,6.6c-0.1-0.6-0.1-1.1-0.2-1.7c-2.8,2.5-5.7,5-8.5,7.5c-1.1,0.9,0.7,2.7,1.8,1.7c2.8-2.5,5.7-5,8.5-7.5
			c0.5-0.4,0.2-1.3-0.2-1.7c-2.5-2.6-5.2-4.9-8.1-7c-0.3,0.7-0.6,1.4-1,2.1c3.1,1.8,5.7,4,8.1,6.7c0.2-0.7,0.4-1.4,0.6-2.1
			c-11.6,0-23.2-0.2-34.8-0.2C199.7,380.8,200,383.2,201.4,383.2L201.4,383.2z"/>
	</g>
</g>
<g>
	<g>
		<path d="M491.4,383.2c11.6,0,23.2,0.2,34.8,0.2c1.2,0,1.3-1.4,0.6-2.1c-2.5-2.8-5.3-5.1-8.6-7c-1.4-0.8-2.1,1.3-1,2.1
			c2.8,2,5.3,4.2,7.6,6.6c-0.1-0.6-0.1-1.1-0.2-1.7c-2.8,2.5-5.7,5-8.5,7.5c-1.1,0.9,0.7,2.7,1.8,1.7c2.8-2.5,5.7-5,8.5-7.5
			c0.5-0.4,0.2-1.3-0.2-1.7c-2.5-2.6-5.2-4.9-8.1-7c-0.3,0.7-0.6,1.4-1,2.1c3.1,1.8,5.7,4,8.1,6.7c0.2-0.7,0.4-1.4,0.6-2.1
			c-11.6,0-23.2-0.2-34.8-0.2C489.7,380.8,490,383.2,491.4,383.2L491.4,383.2z"/>
	</g>
</g>
<g>
	<g>
		<path d="M609.4,383.2c11.6,0,23.2,0.2,34.8,0.2c1.2,0,1.3-1.4,0.6-2.1c-2.5-2.8-5.3-5.1-8.6-7c-1.4-0.8-2.1,1.3-1,2.1
			c2.8,2,5.3,4.2,7.6,6.6c-0.1-0.6-0.1-1.1-0.2-1.7c-2.8,2.5-5.7,5-8.5,7.5c-1.1,0.9,0.7,2.7,1.8,1.7c2.8-2.5,5.7-5,8.5-7.5
			c0.5-0.4,0.2-1.3-0.2-1.7c-2.5-2.6-5.2-4.9-8.1-7c-0.3,0.7-0.6,1.4-1,2.1c3.1,1.8,5.7,4,8.1,6.7c0.2-0.7,0.4-1.4,0.6-2.1
			c-11.6,0-23.2-0.2-34.8-0.2C607.7,380.8,608,383.2,609.4,383.2L609.4,383.2z"/>
	</g>
</g>
<g>
	<g>
		<path d="M660.4,383.2c11.6,0,23.2,0.2,34.8,0.2c1.2,0,1.3-1.4,0.6-2.1c-2.5-2.8-5.3-5.1-8.6-7c-1.4-0.8-2.1,1.3-1,2.1
			c2.8,2,5.3,4.2,7.6,6.6c-0.1-0.6-0.1-1.1-0.2-1.7c-2.8,2.5-5.7,5-8.5,7.5c-1.1,0.9,0.7,2.7,1.8,1.7c2.8-2.5,5.7-5,8.5-7.5
			c0.5-0.4,0.2-1.3-0.2-1.7c-2.5-2.6-5.2-4.9-8.1-7c-0.3,0.7-0.6,1.4-1,2.1c3.1,1.8,5.7,4,8.1,6.7c0.2-0.7,0.4-1.4,0.6-2.1
			c-11.6,0-23.2-0.2-34.8-0.2C658.7,380.8,659,383.2,660.4,383.2L660.4,383.2z"/>
	</g>
</g>
<g>
	<g>
		<path d="M711.4,383.2c11.6,0,23.2,0.2,34.8,0.2c1.2,0,1.3-1.4,0.6-2.1c-2.5-2.8-5.3-5.1-8.6-7c-1.4-0.8-2.1,1.3-1,2.1
			c2.8,2,5.3,4.2,7.6,6.6c-0.1-0.6-0.1-1.1-0.2-1.7c-2.8,2.5-5.7,5-8.5,7.5c-1.1,0.9,0.7,2.7,1.8,1.7c2.8-2.5,5.7-5,8.5-7.5
			c0.5-0.4,0.2-1.3-0.2-1.7c-2.5-2.6-5.2-4.9-8.1-7c-0.3,0.7-0.6,1.4-1,2.1c3.1,1.8,5.7,4,8.1,6.7c0.2-0.7,0.4-1.4,0.6-2.1
			c-11.6,0-23.2-0.2-34.8-0.2C709.7,380.8,710,383.2,711.4,383.2L711.4,383.2z"/>
	</g>
</g>
<g>
	<g>
		<path d="M96.4,414.3c11.6,0,23.2,0.2,34.8,0.2c1.2,0,1.3-1.4,0.6-2.1c-2.5-2.8-5.3-5.1-8.6-7c-1.4-0.8-2.1,1.3-1,2.1
			c2.8,2,5.3,4.2,7.6,6.6c-0.1-0.6-0.1-1.1-0.2-1.7c-2.8,2.5-5.7,5-8.5,7.5c-1.1,0.9,0.7,2.7,1.8,1.7c2.8-2.5,5.7-5,8.5-7.5
			c0.5-0.4,0.2-1.3-0.2-1.7c-2.5-2.6-5.2-4.9-8.1-7c-0.3,0.7-0.6,1.4-1,2.1c3.1,1.8,5.7,4,8.1,6.7c0.2-0.7,0.4-1.4,0.6-2.1
			c-11.6,0-23.2-0.2-34.8-0.2C94.7,411.9,95,414.3,96.4,414.3L96.4,414.3z"/>
	</g>
</g>
<g>
	<g>
		<path d="M96.4,451.3c11.6,0,23.2,0.2,34.8,0.2c1.2,0,1.3-1.4,0.6-2.1c-2.5-2.8-5.3-5.1-8.6-7c-1.4-0.8-2.1,1.3-1,2.1
			c2.8,2,5.3,4.2,7.6,6.6c-0.1-0.6-0.1-1.1-0.2-1.7c-2.8,2.5-5.7,5-8.5,7.5c-1.1,0.9,0.7,2.7,1.8,1.7c2.8-2.5,5.7-5,8.5-7.5
			c0.5-0.4,0.2-1.3-0.2-1.7c-2.5-2.6-5.2-4.9-8.1-7c-0.3,0.7-0.6,1.4-1,2.1c3.1,1.8,5.7,4,8.1,6.7c0.2-0.7,0.4-1.4,0.6-2.1
			c-11.6,0-23.2-0.2-34.8-0.2C94.7,448.9,95,451.3,96.4,451.3L96.4,451.3z"/>
	</g>
</g>
<g>
	<g>
		<path d="M96.4,382.3c11.6,0,23.2,0.2,34.8,0.2c1.2,0,1.3-1.4,0.6-2.1c-2.5-2.8-5.3-5.1-8.6-7c-1.4-0.8-2.1,1.3-1,2.1
			c2.8,2,5.3,4.2,7.6,6.6c-0.1-0.6-0.1-1.1-0.2-1.7c-2.8,2.5-5.7,5-8.5,7.5c-1.1,0.9,0.7,2.7,1.8,1.7c2.8-2.5,5.7-5,8.5-7.5
			c0.5-0.4,0.2-1.3-0.2-1.7c-2.5-2.6-5.2-4.9-8.1-7c-0.3,0.7-0.6,1.4-1,2.1c3.1,1.8,5.7,4,8.1,6.7c0.2-0.7,0.4-1.4,0.6-2.1
			c-11.6,0-23.2-0.2-34.8-0.2C94.7,379.9,95,382.3,96.4,382.3L96.4,382.3z"/>
	</g>
</g>
<g>
	<g>
		<path d="M96.4,589.3c11.6,0,23.2,0.2,34.8,0.2c1.2,0,1.3-1.4,0.6-2.1c-2.5-2.8-5.3-5.1-8.6-7c-1.4-0.8-2.1,1.3-1,2.1
			c2.8,2,5.3,4.2,7.6,6.6c-0.1-0.6-0.1-1.1-0.2-1.7c-2.8,2.5-5.7,5-8.5,7.5c-1.1,0.9,0.7,2.7,1.8,1.7c2.8-2.5,5.7-5,8.5-7.5
			c0.5-0.4,0.2-1.3-0.2-1.7c-2.5-2.6-5.2-4.9-8.1-7c-0.3,0.7-0.6,1.4-1,2.1c3.1,1.8,5.7,4,8.1,6.7c0.2-0.7,0.4-1.4,0.6-2.1
			c-11.6,0-23.2-0.2-34.8-0.2C94.7,586.9,95,589.3,96.4,589.3L96.4,589.3z"/>
	</g>
</g>
<g>
	<g>
		<path d="M150.4,414.3c11.6,0,23.2,0.2,34.8,0.2c1.2,0,1.3-1.4,0.6-2.1c-2.5-2.8-5.3-5.1-8.6-7c-1.4-0.8-2.1,1.3-1,2.1
			c2.8,2,5.3,4.2,7.6,6.6c-0.1-0.6-0.1-1.1-0.2-1.7c-2.8,2.5-5.7,5-8.5,7.5c-1.1,0.9,0.7,2.7,1.8,1.7c2.8-2.5,5.7-5,8.5-7.5
			c0.5-0.4,0.2-1.3-0.2-1.7c-2.5-2.6-5.2-4.9-8.1-7c-0.3,0.7-0.6,1.4-1,2.1c3.1,1.8,5.7,4,8.1,6.7c0.2-0.7,0.4-1.4,0.6-2.1
			c-11.6,0-23.2-0.2-34.8-0.2C148.7,411.9,149,414.3,150.4,414.3L150.4,414.3z"/>
	</g>
</g>
<g>
	<g>
		<path d="M201.4,414.3c11.6,0,23.2,0.2,34.8,0.2c1.2,0,1.3-1.4,0.6-2.1c-2.5-2.8-5.3-5.1-8.6-7c-1.4-0.8-2.1,1.3-1,2.1
			c2.8,2,5.3,4.2,7.6,6.6c-0.1-0.6-0.1-1.1-0.2-1.7c-2.8,2.5-5.7,5-8.5,7.5c-1.1,0.9,0.7,2.7,1.8,1.7c2.8-2.5,5.7-5,8.5-7.5
			c0.5-0.4,0.2-1.3-0.2-1.7c-2.5-2.6-5.2-4.9-8.1-7c-0.3,0.7-0.6,1.4-1,2.1c3.1,1.8,5.7,4,8.1,6.7c0.2-0.7,0.4-1.4,0.6-2.1
			c-11.6,0-23.2-0.2-34.8-0.2C199.7,411.9,200,414.3,201.4,414.3L201.4,414.3z"/>
	</g>
</g>
<g>
	<g>
		<path d="M252.4,414.3c11.6,0,23.2,0.2,34.8,0.2c1.2,0,1.3-1.4,0.6-2.1c-2.5-2.8-5.3-5.1-8.6-7c-1.4-0.8-2.1,1.3-1,2.1
			c2.8,2,5.3,4.2,7.6,6.6c-0.1-0.6-0.1-1.1-0.2-1.7c-2.8,2.5-5.7,5-8.5,7.5c-1.1,0.9,0.7,2.7,1.8,1.7c2.8-2.5,5.7-5,8.5-7.5
			c0.5-0.4,0.2-1.3-0.2-1.7c-2.5-2.6-5.2-4.9-8.1-7c-0.3,0.7-0.6,1.4-1,2.1c3.1,1.8,5.7,4,8.1,6.7c0.2-0.7,0.4-1.4,0.6-2.1
			c-11.6,0-23.2-0.2-34.8-0.2C250.7,411.9,251,414.3,252.4,414.3L252.4,414.3z"/>
	</g>
</g>
<g>
	<g>
		<path d="M299.4,414.3c11.6,0,23.2,0.2,34.8,0.2c1.2,0,1.3-1.4,0.6-2.1c-2.5-2.8-5.3-5.1-8.6-7c-1.4-0.8-2.1,1.3-1,2.1
			c2.8,2,5.3,4.2,7.6,6.6c-0.1-0.6-0.1-1.1-0.2-1.7c-2.8,2.5-5.7,5-8.5,7.5c-1.1,0.9,0.7,2.7,1.8,1.7c2.8-2.5,5.7-5,8.5-7.5
			c0.5-0.4,0.2-1.3-0.2-1.7c-2.5-2.6-5.2-4.9-8.1-7c-0.3,0.7-0.6,1.4-1,2.1c3.1,1.8,5.7,4,8.1,6.7c0.2-0.7,0.4-1.4,0.6-2.1
			c-11.6,0-23.2-0.2-34.8-0.2C297.7,411.9,298,414.3,299.4,414.3L299.4,414.3z"/>
	</g>
</g>
<g>
	<g>
		<path d="M434.4,414.3c11.6,0,23.2,0.2,34.8,0.2c1.2,0,1.3-1.4,0.6-2.1c-2.5-2.8-5.3-5.1-8.6-7c-1.4-0.8-2.1,1.3-1,2.1
			c2.8,2,5.3,4.2,7.6,6.6c-0.1-0.6-0.1-1.1-0.2-1.7c-2.8,2.5-5.7,5-8.5,7.5c-1.1,0.9,0.7,2.7,1.8,1.7c2.8-2.5,5.7-5,8.5-7.5
			c0.5-0.4,0.2-1.3-0.2-1.7c-2.5-2.6-5.2-4.9-8.1-7c-0.3,0.7-0.6,1.4-1,2.1c3.1,1.8,5.7,4,8.1,6.7c0.2-0.7,0.4-1.4,0.6-2.1
			c-11.6,0-23.2-0.2-34.8-0.2C432.7,411.9,433,414.3,434.4,414.3L434.4,414.3z"/>
	</g>
</g>
<g>
	<g>
		<path d="M486.4,414.3c11.6,0,23.2,0.2,34.8,0.2c1.2,0,1.3-1.4,0.6-2.1c-2.5-2.8-5.3-5.1-8.6-7c-1.4-0.8-2.1,1.3-1,2.1
			c2.8,2,5.3,4.2,7.6,6.6c-0.1-0.6-0.1-1.1-0.2-1.7c-2.8,2.5-5.7,5-8.5,7.5c-1.1,0.9,0.7,2.7,1.8,1.7c2.8-2.5,5.7-5,8.5-7.5
			c0.5-0.4,0.2-1.3-0.2-1.7c-2.5-2.6-5.2-4.9-8.1-7c-0.3,0.7-0.6,1.4-1,2.1c3.1,1.8,5.7,4,8.1,6.7c0.2-0.7,0.4-1.4,0.6-2.1
			c-11.6,0-23.2-0.2-34.8-0.2C484.7,411.9,485,414.3,486.4,414.3L486.4,414.3z"/>
	</g>
</g>
<g>
	<g>
		<path d="M540.4,414.3c11.6,0,23.2,0.2,34.8,0.2c1.2,0,1.3-1.4,0.6-2.1c-2.5-2.8-5.3-5.1-8.6-7c-1.4-0.8-2.1,1.3-1,2.1
			c2.8,2,5.3,4.2,7.6,6.6c-0.1-0.6-0.1-1.1-0.2-1.7c-2.8,2.5-5.7,5-8.5,7.5c-1.1,0.9,0.7,2.7,1.8,1.7c2.8-2.5,5.7-5,8.5-7.5
			c0.5-0.4,0.2-1.3-0.2-1.7c-2.5-2.6-5.2-4.9-8.1-7c-0.3,0.7-0.6,1.4-1,2.1c3.1,1.8,5.7,4,8.1,6.7c0.2-0.7,0.4-1.4,0.6-2.1
			c-11.6,0-23.2-0.2-34.8-0.2C538.7,411.9,539,414.3,540.4,414.3L540.4,414.3z"/>
	</g>
</g>
<g>
	<g>
		<path d="M591.4,414.3c11.6,0,23.2,0.2,34.8,0.2c1.2,0,1.3-1.4,0.6-2.1c-2.5-2.8-5.3-5.1-8.6-7c-1.4-0.8-2.1,1.3-1,2.1
			c2.8,2,5.3,4.2,7.6,6.6c-0.1-0.6-0.1-1.1-0.2-1.7c-2.8,2.5-5.7,5-8.5,7.5c-1.1,0.9,0.7,2.7,1.8,1.7c2.8-2.5,5.7-5,8.5-7.5
			c0.5-0.4,0.2-1.3-0.2-1.7c-2.5-2.6-5.2-4.9-8.1-7c-0.3,0.7-0.6,1.4-1,2.1c3.1,1.8,5.7,4,8.1,6.7c0.2-0.7,0.4-1.4,0.6-2.1
			c-11.6,0-23.2-0.2-34.8-0.2C589.7,411.9,590,414.3,591.4,414.3L591.4,414.3z"/>
	</g>
</g>
<g>
	<g>
		<path d="M693.4,414.3c11.6,0,23.2,0.2,34.8,0.2c1.2,0,1.3-1.4,0.6-2.1c-2.5-2.8-5.3-5.1-8.6-7c-1.4-0.8-2.1,1.3-1,2.1
			c2.8,2,5.3,4.2,7.6,6.6c-0.1-0.6-0.1-1.1-0.2-1.7c-2.8,2.5-5.7,5-8.5,7.5c-1.1,0.9,0.7,2.7,1.8,1.7c2.8-2.5,5.7-5,8.5-7.5
			c0.5-0.4,0.2-1.3-0.2-1.7c-2.5-2.6-5.2-4.9-8.1-7c-0.3,0.7-0.6,1.4-1,2.1c3.1,1.8,5.7,4,8.1,6.7c0.2-0.7,0.4-1.4,0.6-2.1
			c-11.6,0-23.2-0.2-34.8-0.2C691.7,411.9,692,414.3,693.4,414.3L693.4,414.3z"/>
	</g>
</g>
<g>
	<g>
		<path d="M150.4,449.2c11.6,0,23.2,0.2,34.8,0.2c1.2,0,1.3-1.4,0.6-2.1c-2.5-2.8-5.3-5.1-8.6-7c-1.4-0.8-2.1,1.3-1,2.1
			c2.8,2,5.3,4.2,7.6,6.6c-0.1-0.6-0.1-1.1-0.2-1.7c-2.8,2.5-5.7,5-8.5,7.5c-1.1,0.9,0.7,2.7,1.8,1.7c2.8-2.5,5.7-5,8.5-7.5
			c0.5-0.4,0.2-1.3-0.2-1.7c-2.5-2.6-5.2-4.9-8.1-7c-0.3,0.7-0.6,1.4-1,2.1c3.1,1.8,5.7,4,8.1,6.7c0.2-0.7,0.4-1.4,0.6-2.1
			c-11.6,0-23.2-0.2-34.8-0.2C148.7,446.8,149,449.2,150.4,449.2L150.4,449.2z"/>
	</g>
</g>
<g>
	<g>
		<path d="M252.4,449.2c11.6,0,23.2,0.2,34.8,0.2c1.2,0,1.3-1.4,0.6-2.1c-2.5-2.8-5.3-5.1-8.6-7c-1.4-0.8-2.1,1.3-1,2.1
			c2.8,2,5.3,4.2,7.6,6.6c-0.1-0.6-0.1-1.1-0.2-1.7c-2.8,2.5-5.7,5-8.5,7.5c-1.1,0.9,0.7,2.7,1.8,1.7c2.8-2.5,5.7-5,8.5-7.5
			c0.5-0.4,0.2-1.3-0.2-1.7c-2.5-2.6-5.2-4.9-8.1-7c-0.3,0.7-0.6,1.4-1,2.1c3.1,1.8,5.7,4,8.1,6.7c0.2-0.7,0.4-1.4,0.6-2.1
			c-11.6,0-23.2-0.2-34.8-0.2C250.7,446.8,251,449.2,252.4,449.2L252.4,449.2z"/>
	</g>
</g>
<g>
	<g>
		<path d="M303.4,449.2c11.6,0,23.2,0.2,34.8,0.2c1.2,0,1.3-1.4,0.6-2.1c-2.5-2.8-5.3-5.1-8.6-7c-1.4-0.8-2.1,1.3-1,2.1
			c2.8,2,5.3,4.2,7.6,6.6c-0.1-0.6-0.1-1.1-0.2-1.7c-2.8,2.5-5.7,5-8.5,7.5c-1.1,0.9,0.7,2.7,1.8,1.7c2.8-2.5,5.7-5,8.5-7.5
			c0.5-0.4,0.2-1.3-0.2-1.7c-2.5-2.6-5.2-4.9-8.1-7c-0.3,0.7-0.6,1.4-1,2.1c3.1,1.8,5.7,4,8.1,6.7c0.2-0.7,0.4-1.4,0.6-2.1
			c-11.6,0-23.2-0.2-34.8-0.2C301.7,446.8,302,449.2,303.4,449.2L303.4,449.2z"/>
	</g>
</g>
<g>
	<g>
		<path d="M359.4,449.2c11.6,0,23.2,0.2,34.8,0.2c1.2,0,1.3-1.4,0.6-2.1c-2.5-2.8-5.3-5.1-8.6-7c-1.4-0.8-2.1,1.3-1,2.1
			c2.8,2,5.3,4.2,7.6,6.6c-0.1-0.6-0.1-1.1-0.2-1.7c-2.8,2.5-5.7,5-8.5,7.5c-1.1,0.9,0.7,2.7,1.8,1.7c2.8-2.5,5.7-5,8.5-7.5
			c0.5-0.4,0.2-1.3-0.2-1.7c-2.5-2.6-5.2-4.9-8.1-7c-0.3,0.7-0.6,1.4-1,2.1c3.1,1.8,5.7,4,8.1,6.7c0.2-0.7,0.4-1.4,0.6-2.1
			c-11.6,0-23.2-0.2-34.8-0.2C357.7,446.8,358,449.2,359.4,449.2L359.4,449.2z"/>
	</g>
</g>
<g>
	<g>
		<path d="M410.4,449.2c11.6,0,23.2,0.2,34.8,0.2c1.2,0,1.3-1.4,0.6-2.1c-2.5-2.8-5.3-5.1-8.6-7c-1.4-0.8-2.1,1.3-1,2.1
			c2.8,2,5.3,4.2,7.6,6.6c-0.1-0.6-0.1-1.1-0.2-1.7c-2.8,2.5-5.7,5-8.5,7.5c-1.1,0.9,0.7,2.7,1.8,1.7c2.8-2.5,5.7-5,8.5-7.5
			c0.5-0.4,0.2-1.3-0.2-1.7c-2.5-2.6-5.2-4.9-8.1-7c-0.3,0.7-0.6,1.4-1,2.1c3.1,1.8,5.7,4,8.1,6.7c0.2-0.7,0.4-1.4,0.6-2.1
			c-11.6,0-23.2-0.2-34.8-0.2C408.7,446.8,409,449.2,410.4,449.2L410.4,449.2z"/>
	</g>
</g>
<g>
	<g>
		<path d="M461.4,449.2c11.6,0,23.2,0.2,34.8,0.2c1.2,0,1.3-1.4,0.6-2.1c-2.5-2.8-5.3-5.1-8.6-7c-1.4-0.8-2.1,1.3-1,2.1
			c2.8,2,5.3,4.2,7.6,6.6c-0.1-0.6-0.1-1.1-0.2-1.7c-2.8,2.5-5.7,5-8.5,7.5c-1.1,0.9,0.7,2.7,1.8,1.7c2.8-2.5,5.7-5,8.5-7.5
			c0.5-0.4,0.2-1.3-0.2-1.7c-2.5-2.6-5.2-4.9-8.1-7c-0.3,0.7-0.6,1.4-1,2.1c3.1,1.8,5.7,4,8.1,6.7c0.2-0.7,0.4-1.4,0.6-2.1
			c-11.6,0-23.2-0.2-34.8-0.2C459.7,446.8,460,449.2,461.4,449.2L461.4,449.2z"/>
	</g>
</g>
<g>
	<g>
		<path d="M609.4,449.2c11.6,0,23.2,0.2,34.8,0.2c1.2,0,1.3-1.4,0.6-2.1c-2.5-2.8-5.3-5.1-8.6-7c-1.4-0.8-2.1,1.3-1,2.1
			c2.8,2,5.3,4.2,7.6,6.6c-0.1-0.6-0.1-1.1-0.2-1.7c-2.8,2.5-5.7,5-8.5,7.5c-1.1,0.9,0.7,2.7,1.8,1.7c2.8-2.5,5.7-5,8.5-7.5
			c0.5-0.4,0.2-1.3-0.2-1.7c-2.5-2.6-5.2-4.9-8.1-7c-0.3,0.7-0.6,1.4-1,2.1c3.1,1.8,5.7,4,8.1,6.7c0.2-0.7,0.4-1.4,0.6-2.1
			c-11.6,0-23.2-0.2-34.8-0.2C607.7,446.8,608,449.2,609.4,449.2L609.4,449.2z"/>
	</g>
</g>
<g>
	<g>
		<path d="M660.4,449.2c11.6,0,23.2,0.2,34.8,0.2c1.2,0,1.3-1.4,0.6-2.1c-2.5-2.8-5.3-5.1-8.6-7c-1.4-0.8-2.1,1.3-1,2.1
			c2.8,2,5.3,4.2,7.6,6.6c-0.1-0.6-0.1-1.1-0.2-1.7c-2.8,2.5-5.7,5-8.5,7.5c-1.1,0.9,0.7,2.7,1.8,1.7c2.8-2.5,5.7-5,8.5-7.5
			c0.5-0.4,0.2-1.3-0.2-1.7c-2.5-2.6-5.2-4.9-8.1-7c-0.3,0.7-0.6,1.4-1,2.1c3.1,1.8,5.7,4,8.1,6.7c0.2-0.7,0.4-1.4,0.6-2.1
			c-11.6,0-23.2-0.2-34.8-0.2C658.7,446.8,659,449.2,660.4,449.2L660.4,449.2z"/>
	</g>
</g>
<g>
	<g>
		<path d="M711.4,449.2c11.6,0,23.2,0.2,34.8,0.2c1.2,0,1.3-1.4,0.6-2.1c-2.5-2.8-5.3-5.1-8.6-7c-1.4-0.8-2.1,1.3-1,2.1
			c2.8,2,5.3,4.2,7.6,6.6c-0.1-0.6-0.1-1.1-0.2-1.7c-2.8,2.5-5.7,5-8.5,7.5c-1.1,0.9,0.7,2.7,1.8,1.7c2.8-2.5,5.7-5,8.5-7.5
			c0.5-0.4,0.2-1.3-0.2-1.7c-2.5-2.6-5.2-4.9-8.1-7c-0.3,0.7-0.6,1.4-1,2.1c3.1,1.8,5.7,4,8.1,6.7c0.2-0.7,0.4-1.4,0.6-2.1
			c-11.6,0-23.2-0.2-34.8-0.2C709.7,446.8,710,449.2,711.4,449.2L711.4,449.2z"/>
	</g>
</g>
<g>
	<g>
		<path d="M96.4,485.3c11.6,0,23.2,0.2,34.8,0.2c1.2,0,1.3-1.4,0.6-2.1c-2.5-2.8-5.3-5.1-8.6-7c-1.4-0.8-2.1,1.3-1,2.1
			c2.8,2,5.3,4.2,7.6,6.6c-0.1-0.6-0.1-1.1-0.2-1.7c-2.8,2.5-5.7,5-8.5,7.5c-1.1,0.9,0.7,2.7,1.8,1.7c2.8-2.5,5.7-5,8.5-7.5
			c0.5-0.4,0.2-1.3-0.2-1.7c-2.5-2.6-5.2-4.9-8.1-7c-0.3,0.7-0.6,1.4-1,2.1c3.1,1.8,5.7,4,8.1,6.7c0.2-0.7,0.4-1.4,0.6-2.1
			c-11.6,0-23.2-0.2-34.8-0.2C94.7,482.9,95,485.3,96.4,485.3L96.4,485.3z"/>
	</g>
</g>
<g>
	<g>
		<path d="M150.4,485.3c11.6,0,23.2,0.2,34.8,0.2c1.2,0,1.3-1.4,0.6-2.1c-2.5-2.8-5.3-5.1-8.6-7c-1.4-0.8-2.1,1.3-1,2.1
			c2.8,2,5.3,4.2,7.6,6.6c-0.1-0.6-0.1-1.1-0.2-1.7c-2.8,2.5-5.7,5-8.5,7.5c-1.1,0.9,0.7,2.7,1.8,1.7c2.8-2.5,5.7-5,8.5-7.5
			c0.5-0.4,0.2-1.3-0.2-1.7c-2.5-2.6-5.2-4.9-8.1-7c-0.3,0.7-0.6,1.4-1,2.1c3.1,1.8,5.7,4,8.1,6.7c0.2-0.7,0.4-1.4,0.6-2.1
			c-11.6,0-23.2-0.2-34.8-0.2C148.7,482.9,149,485.3,150.4,485.3L150.4,485.3z"/>
	</g>
</g>
<g>
	<g>
		<path d="M201.4,485.3c11.6,0,23.2,0.2,34.8,0.2c1.2,0,1.3-1.4,0.6-2.1c-2.5-2.8-5.3-5.1-8.6-7c-1.4-0.8-2.1,1.3-1,2.1
			c2.8,2,5.3,4.2,7.6,6.6c-0.1-0.6-0.1-1.1-0.2-1.7c-2.8,2.5-5.7,5-8.5,7.5c-1.1,0.9,0.7,2.7,1.8,1.7c2.8-2.5,5.7-5,8.5-7.5
			c0.5-0.4,0.2-1.3-0.2-1.7c-2.5-2.6-5.2-4.9-8.1-7c-0.3,0.7-0.6,1.4-1,2.1c3.1,1.8,5.7,4,8.1,6.7c0.2-0.7,0.4-1.4,0.6-2.1
			c-11.6,0-23.2-0.2-34.8-0.2C199.7,482.9,200,485.3,201.4,485.3L201.4,485.3z"/>
	</g>
</g>
<g>
	<g>
		<path d="M252.4,485.3c11.6,0,23.2,0.2,34.8,0.2c1.2,0,1.3-1.4,0.6-2.1c-2.5-2.8-5.3-5.1-8.6-7c-1.4-0.8-2.1,1.3-1,2.1
			c2.8,2,5.3,4.2,7.6,6.6c-0.1-0.6-0.1-1.1-0.2-1.7c-2.8,2.5-5.7,5-8.5,7.5c-1.1,0.9,0.7,2.7,1.8,1.7c2.8-2.5,5.7-5,8.5-7.5
			c0.5-0.4,0.2-1.3-0.2-1.7c-2.5-2.6-5.2-4.9-8.1-7c-0.3,0.7-0.6,1.4-1,2.1c3.1,1.8,5.7,4,8.1,6.7c0.2-0.7,0.4-1.4,0.6-2.1
			c-11.6,0-23.2-0.2-34.8-0.2C250.7,482.9,251,485.3,252.4,485.3L252.4,485.3z"/>
	</g>
</g>
<g>
	<g>
		<path d="M303.4,485.3c11.6,0,23.2,0.2,34.8,0.2c1.2,0,1.3-1.4,0.6-2.1c-2.5-2.8-5.3-5.1-8.6-7c-1.4-0.8-2.1,1.3-1,2.1
			c2.8,2,5.3,4.2,7.6,6.6c-0.1-0.6-0.1-1.1-0.2-1.7c-2.8,2.5-5.7,5-8.5,7.5c-1.1,0.9,0.7,2.7,1.8,1.7c2.8-2.5,5.7-5,8.5-7.5
			c0.5-0.4,0.2-1.3-0.2-1.7c-2.5-2.6-5.2-4.9-8.1-7c-0.3,0.7-0.6,1.4-1,2.1c3.1,1.8,5.7,4,8.1,6.7c0.2-0.7,0.4-1.4,0.6-2.1
			c-11.6,0-23.2-0.2-34.8-0.2C301.7,482.9,302,485.3,303.4,485.3L303.4,485.3z"/>
	</g>
</g>
<g>
	<g>
		<path d="M434.4,485.3c11.6,0,23.2,0.2,34.8,0.2c1.2,0,1.3-1.4,0.6-2.1c-2.5-2.8-5.3-5.1-8.6-7c-1.4-0.8-2.1,1.3-1,2.1
			c2.8,2,5.3,4.2,7.6,6.6c-0.1-0.6-0.1-1.1-0.2-1.7c-2.8,2.5-5.7,5-8.5,7.5c-1.1,0.9,0.7,2.7,1.8,1.7c2.8-2.5,5.7-5,8.5-7.5
			c0.5-0.4,0.2-1.3-0.2-1.7c-2.5-2.6-5.2-4.9-8.1-7c-0.3,0.7-0.6,1.4-1,2.1c3.1,1.8,5.7,4,8.1,6.7c0.2-0.7,0.4-1.4,0.6-2.1
			c-11.6,0-23.2-0.2-34.8-0.2C432.7,482.9,433,485.3,434.4,485.3L434.4,485.3z"/>
	</g>
</g>
<g>
	<g>
		<path d="M486.4,485.3c11.6,0,23.2,0.2,34.8,0.2c1.2,0,1.3-1.4,0.6-2.1c-2.5-2.8-5.3-5.1-8.6-7c-1.4-0.8-2.1,1.3-1,2.1
			c2.8,2,5.3,4.2,7.6,6.6c-0.1-0.6-0.1-1.1-0.2-1.7c-2.8,2.5-5.7,5-8.5,7.5c-1.1,0.9,0.7,2.7,1.8,1.7c2.8-2.5,5.7-5,8.5-7.5
			c0.5-0.4,0.2-1.3-0.2-1.7c-2.5-2.6-5.2-4.9-8.1-7c-0.3,0.7-0.6,1.4-1,2.1c3.1,1.8,5.7,4,8.1,6.7c0.2-0.7,0.4-1.4,0.6-2.1
			c-11.6,0-23.2-0.2-34.8-0.2C484.7,482.9,485,485.3,486.4,485.3L486.4,485.3z"/>
	</g>
</g>
<g>
	<g>
		<path d="M540.4,485.3c11.6,0,23.2,0.2,34.8,0.2c1.2,0,1.3-1.4,0.6-2.1c-2.5-2.8-5.3-5.1-8.6-7c-1.4-0.8-2.1,1.3-1,2.1
			c2.8,2,5.3,4.2,7.6,6.6c-0.1-0.6-0.1-1.1-0.2-1.7c-2.8,2.5-5.7,5-8.5,7.5c-1.1,0.9,0.7,2.7,1.8,1.7c2.8-2.5,5.7-5,8.5-7.5
			c0.5-0.4,0.2-1.3-0.2-1.7c-2.5-2.6-5.2-4.9-8.1-7c-0.3,0.7-0.6,1.4-1,2.1c3.1,1.8,5.7,4,8.1,6.7c0.2-0.7,0.4-1.4,0.6-2.1
			c-11.6,0-23.2-0.2-34.8-0.2C538.7,482.9,539,485.3,540.4,485.3L540.4,485.3z"/>
	</g>
</g>
<g>
	<g>
		<path d="M150.4,520.2c11.6,0,23.2,0.2,34.8,0.2c1.2,0,1.3-1.4,0.6-2.1c-2.5-2.8-5.3-5.1-8.6-7c-1.4-0.8-2.1,1.3-1,2.1
			c2.8,2,5.3,4.2,7.6,6.6c-0.1-0.6-0.1-1.1-0.2-1.7c-2.8,2.5-5.7,5-8.5,7.5c-1.1,0.9,0.7,2.7,1.8,1.7c2.8-2.5,5.7-5,8.5-7.5
			c0.5-0.4,0.2-1.3-0.2-1.7c-2.5-2.6-5.2-4.9-8.1-7c-0.3,0.7-0.6,1.4-1,2.1c3.1,1.8,5.7,4,8.1,6.7c0.2-0.7,0.4-1.4,0.6-2.1
			c-11.6,0-23.2-0.2-34.8-0.2C148.7,517.8,149,520.2,150.4,520.2L150.4,520.2z"/>
	</g>
</g>
<g>
	<g>
		<path d="M201.4,520.2c11.6,0,23.2,0.2,34.8,0.2c1.2,0,1.3-1.4,0.6-2.1c-2.5-2.8-5.3-5.1-8.6-7c-1.4-0.8-2.1,1.3-1,2.1
			c2.8,2,5.3,4.2,7.6,6.6c-0.1-0.6-0.1-1.1-0.2-1.7c-2.8,2.5-5.7,5-8.5,7.5c-1.1,0.9,0.7,2.7,1.8,1.7c2.8-2.5,5.7-5,8.5-7.5
			c0.5-0.4,0.2-1.3-0.2-1.7c-2.5-2.6-5.2-4.9-8.1-7c-0.3,0.7-0.6,1.4-1,2.1c3.1,1.8,5.7,4,8.1,6.7c0.2-0.7,0.4-1.4,0.6-2.1
			c-11.6,0-23.2-0.2-34.8-0.2C199.7,517.8,200,520.2,201.4,520.2L201.4,520.2z"/>
	</g>
</g>
<g>
	<g>
		<path d="M252.4,520.2c11.6,0,23.2,0.2,34.8,0.2c1.2,0,1.3-1.4,0.6-2.1c-2.5-2.8-5.3-5.1-8.6-7c-1.4-0.8-2.1,1.3-1,2.1
			c2.8,2,5.3,4.2,7.6,6.6c-0.1-0.6-0.1-1.1-0.2-1.7c-2.8,2.5-5.7,5-8.5,7.5c-1.1,0.9,0.7,2.7,1.8,1.7c2.8-2.5,5.7-5,8.5-7.5
			c0.5-0.4,0.2-1.3-0.2-1.7c-2.5-2.6-5.2-4.9-8.1-7c-0.3,0.7-0.6,1.4-1,2.1c3.1,1.8,5.7,4,8.1,6.7c0.2-0.7,0.4-1.4,0.6-2.1
			c-11.6,0-23.2-0.2-34.8-0.2C250.7,517.8,251,520.2,252.4,520.2L252.4,520.2z"/>
	</g>
</g>
<g>
	<g>
		<path d="M303.4,520.2c11.6,0,23.2,0.2,34.8,0.2c1.2,0,1.3-1.4,0.6-2.1c-2.5-2.8-5.3-5.1-8.6-7c-1.4-0.8-2.1,1.3-1,2.1
			c2.8,2,5.3,4.2,7.6,6.6c-0.1-0.6-0.1-1.1-0.2-1.7c-2.8,2.5-5.7,5-8.5,7.5c-1.1,0.9,0.7,2.7,1.8,1.7c2.8-2.5,5.7-5,8.5-7.5
			c0.5-0.4,0.2-1.3-0.2-1.7c-2.5-2.6-5.2-4.9-8.1-7c-0.3,0.7-0.6,1.4-1,2.1c3.1,1.8,5.7,4,8.1,6.7c0.2-0.7,0.4-1.4,0.6-2.1
			c-11.6,0-23.2-0.2-34.8-0.2C301.7,517.8,302,520.2,303.4,520.2L303.4,520.2z"/>
	</g>
</g>
<g>
	<g>
		<path d="M359.4,520.2c11.6,0,23.2,0.2,34.8,0.2c1.2,0,1.3-1.4,0.6-2.1c-2.5-2.8-5.3-5.1-8.6-7c-1.4-0.8-2.1,1.3-1,2.1
			c2.8,2,5.3,4.2,7.6,6.6c-0.1-0.6-0.1-1.1-0.2-1.7c-2.8,2.5-5.7,5-8.5,7.5c-1.1,0.9,0.7,2.7,1.8,1.7c2.8-2.5,5.7-5,8.5-7.5
			c0.5-0.4,0.2-1.3-0.2-1.7c-2.5-2.6-5.2-4.9-8.1-7c-0.3,0.7-0.6,1.4-1,2.1c3.1,1.8,5.7,4,8.1,6.7c0.2-0.7,0.4-1.4,0.6-2.1
			c-11.6,0-23.2-0.2-34.8-0.2C357.7,517.8,358,520.2,359.4,520.2L359.4,520.2z"/>
	</g>
</g>
<g>
	<g>
		<path d="M410.4,520.2c11.6,0,23.2,0.2,34.8,0.2c1.2,0,1.3-1.4,0.6-2.1c-2.5-2.8-5.3-5.1-8.6-7c-1.4-0.8-2.1,1.3-1,2.1
			c2.8,2,5.3,4.2,7.6,6.6c-0.1-0.6-0.1-1.1-0.2-1.7c-2.8,2.5-5.7,5-8.5,7.5c-1.1,0.9,0.7,2.7,1.8,1.7c2.8-2.5,5.7-5,8.5-7.5
			c0.5-0.4,0.2-1.3-0.2-1.7c-2.5-2.6-5.2-4.9-8.1-7c-0.3,0.7-0.6,1.4-1,2.1c3.1,1.8,5.7,4,8.1,6.7c0.2-0.7,0.4-1.4,0.6-2.1
			c-11.6,0-23.2-0.2-34.8-0.2C408.7,517.8,409,520.2,410.4,520.2L410.4,520.2z"/>
	</g>
</g>
<g>
	<g>
		<path d="M461.4,520.2c11.6,0,23.2,0.2,34.8,0.2c1.2,0,1.3-1.4,0.6-2.1c-2.5-2.8-5.3-5.1-8.6-7c-1.4-0.8-2.1,1.3-1,2.1
			c2.8,2,5.3,4.2,7.6,6.6c-0.1-0.6-0.1-1.1-0.2-1.7c-2.8,2.5-5.7,5-8.5,7.5c-1.1,0.9,0.7,2.7,1.8,1.7c2.8-2.5,5.7-5,8.5-7.5
			c0.5-0.4,0.2-1.3-0.2-1.7c-2.5-2.6-5.2-4.9-8.1-7c-0.3,0.7-0.6,1.4-1,2.1c3.1,1.8,5.7,4,8.1,6.7c0.2-0.7,0.4-1.4,0.6-2.1
			c-11.6,0-23.2-0.2-34.8-0.2C459.7,517.8,460,520.2,461.4,520.2L461.4,520.2z"/>
	</g>
</g>
<g>
	<g>
		<path d="M512.4,520.2c11.6,0,23.2,0.2,34.8,0.2c1.2,0,1.3-1.4,0.6-2.1c-2.5-2.8-5.3-5.1-8.6-7c-1.4-0.8-2.1,1.3-1,2.1
			c2.8,2,5.3,4.2,7.6,6.6c-0.1-0.6-0.1-1.1-0.2-1.7c-2.8,2.5-5.7,5-8.5,7.5c-1.1,0.9,0.7,2.7,1.8,1.7c2.8-2.5,5.7-5,8.5-7.5
			c0.5-0.4,0.2-1.3-0.2-1.7c-2.5-2.6-5.2-4.9-8.1-7c-0.3,0.7-0.6,1.4-1,2.1c3.1,1.8,5.7,4,8.1,6.7c0.2-0.7,0.4-1.4,0.6-2.1
			c-11.6,0-23.2-0.2-34.8-0.2C510.7,517.8,511,520.2,512.4,520.2L512.4,520.2z"/>
	</g>
</g>
<g>
	<g>
		<path d="M609.4,520.2c11.6,0,23.2,0.2,34.8,0.2c1.2,0,1.3-1.4,0.6-2.1c-2.5-2.8-5.3-5.1-8.6-7c-1.4-0.8-2.1,1.3-1,2.1
			c2.8,2,5.3,4.2,7.6,6.6c-0.1-0.6-0.1-1.1-0.2-1.7c-2.8,2.5-5.7,5-8.5,7.5c-1.1,0.9,0.7,2.7,1.8,1.7c2.8-2.5,5.7-5,8.5-7.5
			c0.5-0.4,0.2-1.3-0.2-1.7c-2.5-2.6-5.2-4.9-8.1-7c-0.3,0.7-0.6,1.4-1,2.1c3.1,1.8,5.7,4,8.1,6.7c0.2-0.7,0.4-1.4,0.6-2.1
			c-11.6,0-23.2-0.2-34.8-0.2C607.7,517.8,608,520.2,609.4,520.2L609.4,520.2z"/>
	</g>
</g>
<g>
	<g>
		<path d="M660.4,520.2c11.6,0,23.2,0.2,34.8,0.2c1.2,0,1.3-1.4,0.6-2.1c-2.5-2.8-5.3-5.1-8.6-7c-1.4-0.8-2.1,1.3-1,2.1
			c2.8,2,5.3,4.2,7.6,6.6c-0.1-0.6-0.1-1.1-0.2-1.7c-2.8,2.5-5.7,5-8.5,7.5c-1.1,0.9,0.7,2.7,1.8,1.7c2.8-2.5,5.7-5,8.5-7.5
			c0.5-0.4,0.2-1.3-0.2-1.7c-2.5-2.6-5.2-4.9-8.1-7c-0.3,0.7-0.6,1.4-1,2.1c3.1,1.8,5.7,4,8.1,6.7c0.2-0.7,0.4-1.4,0.6-2.1
			c-11.6,0-23.2-0.2-34.8-0.2C658.7,517.8,659,520.2,660.4,520.2L660.4,520.2z"/>
	</g>
</g>
<g>
	<g>
		<path d="M711.4,520.2c11.6,0,23.2,0.2,34.8,0.2c1.2,0,1.3-1.4,0.6-2.1c-2.5-2.8-5.3-5.1-8.6-7c-1.4-0.8-2.1,1.3-1,2.1
			c2.8,2,5.3,4.2,7.6,6.6c-0.1-0.6-0.1-1.1-0.2-1.7c-2.8,2.5-5.7,5-8.5,7.5c-1.1,0.9,0.7,2.7,1.8,1.7c2.8-2.5,5.7-5,8.5-7.5
			c0.5-0.4,0.2-1.3-0.2-1.7c-2.5-2.6-5.2-4.9-8.1-7c-0.3,0.7-0.6,1.4-1,2.1c3.1,1.8,5.7,4,8.1,6.7c0.2-0.7,0.4-1.4,0.6-2.1
			c-11.6,0-23.2-0.2-34.8-0.2C709.7,517.8,710,520.2,711.4,520.2L711.4,520.2z"/>
	</g>
</g>
<g>
	<g>
		<path d="M96.4,555.3c11.6,0,23.2,0.2,34.8,0.2c1.2,0,1.3-1.4,0.6-2.1c-2.5-2.8-5.3-5.1-8.6-7c-1.4-0.8-2.1,1.3-1,2.1
			c2.8,2,5.3,4.2,7.6,6.6c-0.1-0.6-0.1-1.1-0.2-1.7c-2.8,2.5-5.7,5-8.5,7.5c-1.1,0.9,0.7,2.7,1.8,1.7c2.8-2.5,5.7-5,8.5-7.5
			c0.5-0.4,0.2-1.3-0.2-1.7c-2.5-2.6-5.2-4.9-8.1-7c-0.3,0.7-0.6,1.4-1,2.1c3.1,1.8,5.7,4,8.1,6.7c0.2-0.7,0.4-1.4,0.6-2.1
			c-11.6,0-23.2-0.2-34.8-0.2C94.7,552.9,95,555.3,96.4,555.3L96.4,555.3z"/>
	</g>
</g>
<g>
	<g>
		<path d="M150.4,555.3c11.6,0,23.2,0.2,34.8,0.2c1.2,0,1.3-1.4,0.6-2.1c-2.5-2.8-5.3-5.1-8.6-7c-1.4-0.8-2.1,1.3-1,2.1
			c2.8,2,5.3,4.2,7.6,6.6c-0.1-0.6-0.1-1.1-0.2-1.7c-2.8,2.5-5.7,5-8.5,7.5c-1.1,0.9,0.7,2.7,1.8,1.7c2.8-2.5,5.7-5,8.5-7.5
			c0.5-0.4,0.2-1.3-0.2-1.7c-2.5-2.6-5.2-4.9-8.1-7c-0.3,0.7-0.6,1.4-1,2.1c3.1,1.8,5.7,4,8.1,6.7c0.2-0.7,0.4-1.4,0.6-2.1
			c-11.6,0-23.2-0.2-34.8-0.2C148.7,552.9,149,555.3,150.4,555.3L150.4,555.3z"/>
	</g>
</g>
<g>
	<g>
		<path d="M252.4,555.3c11.6,0,23.2,0.2,34.8,0.2c1.2,0,1.3-1.4,0.6-2.1c-2.5-2.8-5.3-5.1-8.6-7c-1.4-0.8-2.1,1.3-1,2.1
			c2.8,2,5.3,4.2,7.6,6.6c-0.1-0.6-0.1-1.1-0.2-1.7c-2.8,2.5-5.7,5-8.5,7.5c-1.1,0.9,0.7,2.7,1.8,1.7c2.8-2.5,5.7-5,8.5-7.5
			c0.5-0.4,0.2-1.3-0.2-1.7c-2.5-2.6-5.2-4.9-8.1-7c-0.3,0.7-0.6,1.4-1,2.1c3.1,1.8,5.7,4,8.1,6.7c0.2-0.7,0.4-1.4,0.6-2.1
			c-11.6,0-23.2-0.2-34.8-0.2C250.7,552.9,251,555.3,252.4,555.3L252.4,555.3z"/>
	</g>
</g>
<g>
	<g>
		<path d="M303.4,555.3c11.6,0,23.2,0.2,34.8,0.2c1.2,0,1.3-1.4,0.6-2.1c-2.5-2.8-5.3-5.1-8.6-7c-1.4-0.8-2.1,1.3-1,2.1
			c2.8,2,5.3,4.2,7.6,6.6c-0.1-0.6-0.1-1.1-0.2-1.7c-2.8,2.5-5.7,5-8.5,7.5c-1.1,0.9,0.7,2.7,1.8,1.7c2.8-2.5,5.7-5,8.5-7.5
			c0.5-0.4,0.2-1.3-0.2-1.7c-2.5-2.6-5.2-4.9-8.1-7c-0.3,0.7-0.6,1.4-1,2.1c3.1,1.8,5.7,4,8.1,6.7c0.2-0.7,0.4-1.4,0.6-2.1
			c-11.6,0-23.2-0.2-34.8-0.2C301.7,552.9,302,555.3,303.4,555.3L303.4,555.3z"/>
	</g>
</g>
<g>
	<g>
		<path d="M434.4,555.3c11.6,0,23.2,0.2,34.8,0.2c1.2,0,1.3-1.4,0.6-2.1c-2.5-2.8-5.3-5.1-8.6-7c-1.4-0.8-2.1,1.3-1,2.1
			c2.8,2,5.3,4.2,7.6,6.6c-0.1-0.6-0.1-1.1-0.2-1.7c-2.8,2.5-5.7,5-8.5,7.5c-1.1,0.9,0.7,2.7,1.8,1.7c2.8-2.5,5.7-5,8.5-7.5
			c0.5-0.4,0.2-1.3-0.2-1.7c-2.5-2.6-5.2-4.9-8.1-7c-0.3,0.7-0.6,1.4-1,2.1c3.1,1.8,5.7,4,8.1,6.7c0.2-0.7,0.4-1.4,0.6-2.1
			c-11.6,0-23.2-0.2-34.8-0.2C432.7,552.9,433,555.3,434.4,555.3L434.4,555.3z"/>
	</g>
</g>
<g>
	<g>
		<path d="M486.4,555.3c11.6,0,23.2,0.2,34.8,0.2c1.2,0,1.3-1.4,0.6-2.1c-2.5-2.8-5.3-5.1-8.6-7c-1.4-0.8-2.1,1.3-1,2.1
			c2.8,2,5.3,4.2,7.6,6.6c-0.1-0.6-0.1-1.1-0.2-1.7c-2.8,2.5-5.7,5-8.5,7.5c-1.1,0.9,0.7,2.7,1.8,1.7c2.8-2.5,5.7-5,8.5-7.5
			c0.5-0.4,0.2-1.3-0.2-1.7c-2.5-2.6-5.2-4.9-8.1-7c-0.3,0.7-0.6,1.4-1,2.1c3.1,1.8,5.7,4,8.1,6.7c0.2-0.7,0.4-1.4,0.6-2.1
			c-11.6,0-23.2-0.2-34.8-0.2C484.7,552.9,485,555.3,486.4,555.3L486.4,555.3z"/>
	</g>
</g>
<g>
	<g>
		<path d="M540.4,555.3c11.6,0,23.2,0.2,34.8,0.2c1.2,0,1.3-1.4,0.6-2.1c-2.5-2.8-5.3-5.1-8.6-7c-1.4-0.8-2.1,1.3-1,2.1
			c2.8,2,5.3,4.2,7.6,6.6c-0.1-0.6-0.1-1.1-0.2-1.7c-2.8,2.5-5.7,5-8.5,7.5c-1.1,0.9,0.7,2.7,1.8,1.7c2.8-2.5,5.7-5,8.5-7.5
			c0.5-0.4,0.2-1.3-0.2-1.7c-2.5-2.6-5.2-4.9-8.1-7c-0.3,0.7-0.6,1.4-1,2.1c3.1,1.8,5.7,4,8.1,6.7c0.2-0.7,0.4-1.4,0.6-2.1
			c-11.6,0-23.2-0.2-34.8-0.2C538.7,552.9,539,555.3,540.4,555.3L540.4,555.3z"/>
	</g>
</g>
<g>
	<g>
		<path d="M591.4,555.3c11.6,0,23.2,0.2,34.8,0.2c1.2,0,1.3-1.4,0.6-2.1c-2.5-2.8-5.3-5.1-8.6-7c-1.4-0.8-2.1,1.3-1,2.1
			c2.8,2,5.3,4.2,7.6,6.6c-0.1-0.6-0.1-1.1-0.2-1.7c-2.8,2.5-5.7,5-8.5,7.5c-1.1,0.9,0.7,2.7,1.8,1.7c2.8-2.5,5.7-5,8.5-7.5
			c0.5-0.4,0.2-1.3-0.2-1.7c-2.5-2.6-5.2-4.9-8.1-7c-0.3,0.7-0.6,1.4-1,2.1c3.1,1.8,5.7,4,8.1,6.7c0.2-0.7,0.4-1.4,0.6-2.1
			c-11.6,0-23.2-0.2-34.8-0.2C589.7,552.9,590,555.3,591.4,555.3L591.4,555.3z"/>
	</g>
</g>
<g>
	<g>
		<path d="M693.4,555.3c11.6,0,23.2,0.2,34.8,0.2c1.2,0,1.3-1.4,0.6-2.1c-2.5-2.8-5.3-5.1-8.6-7c-1.4-0.8-2.1,1.3-1,2.1
			c2.8,2,5.3,4.2,7.6,6.6c-0.1-0.6-0.1-1.1-0.2-1.7c-2.8,2.5-5.7,5-8.5,7.5c-1.1,0.9,0.7,2.7,1.8,1.7c2.8-2.5,5.7-5,8.5-7.5
			c0.5-0.4,0.2-1.3-0.2-1.7c-2.5-2.6-5.2-4.9-8.1-7c-0.3,0.7-0.6,1.4-1,2.1c3.1,1.8,5.7,4,8.1,6.7c0.2-0.7,0.4-1.4,0.6-2.1
			c-11.6,0-23.2-0.2-34.8-0.2C691.7,552.9,692,555.3,693.4,555.3L693.4,555.3z"/>
	</g>
</g>
<g>
	<g>
		<path d="M150.4,590.2c11.6,0,23.2,0.2,34.8,0.2c1.2,0,1.3-1.4,0.6-2.1c-2.5-2.8-5.3-5.1-8.6-7c-1.4-0.8-2.1,1.3-1,2.1
			c2.8,2,5.3,4.2,7.6,6.6c-0.1-0.6-0.1-1.1-0.2-1.7c-2.8,2.5-5.7,5-8.5,7.5c-1.1,0.9,0.7,2.7,1.8,1.7c2.8-2.5,5.7-5,8.5-7.5
			c0.5-0.4,0.2-1.3-0.2-1.7c-2.5-2.6-5.2-4.9-8.1-7c-0.3,0.7-0.6,1.4-1,2.1c3.1,1.8,5.7,4,8.1,6.7c0.2-0.7,0.4-1.4,0.6-2.1
			c-11.6,0-23.2-0.2-34.8-0.2C148.7,587.8,149,590.2,150.4,590.2L150.4,590.2z"/>
	</g>
</g>
<g>
	<g>
		<path d="M201.4,590.2c11.6,0,23.2,0.2,34.8,0.2c1.2,0,1.3-1.4,0.6-2.1c-2.5-2.8-5.3-5.1-8.6-7c-1.4-0.8-2.1,1.3-1,2.1
			c2.8,2,5.3,4.2,7.6,6.6c-0.1-0.6-0.1-1.1-0.2-1.7c-2.8,2.5-5.7,5-8.5,7.5c-1.1,0.9,0.7,2.7,1.8,1.7c2.8-2.5,5.7-5,8.5-7.5
			c0.5-0.4,0.2-1.3-0.2-1.7c-2.5-2.6-5.2-4.9-8.1-7c-0.3,0.7-0.6,1.4-1,2.1c3.1,1.8,5.7,4,8.1,6.7c0.2-0.7,0.4-1.4,0.6-2.1
			c-11.6,0-23.2-0.2-34.8-0.2C199.7,587.8,200,590.2,201.4,590.2L201.4,590.2z"/>
	</g>
</g>
<g>
	<g>
		<path d="M252.4,590.2c11.6,0,23.2,0.2,34.8,0.2c1.2,0,1.3-1.4,0.6-2.1c-2.5-2.8-5.3-5.1-8.6-7c-1.4-0.8-2.1,1.3-1,2.1
			c2.8,2,5.3,4.2,7.6,6.6c-0.1-0.6-0.1-1.1-0.2-1.7c-2.8,2.5-5.7,5-8.5,7.5c-1.1,0.9,0.7,2.7,1.8,1.7c2.8-2.5,5.7-5,8.5-7.5
			c0.5-0.4,0.2-1.3-0.2-1.7c-2.5-2.6-5.2-4.9-8.1-7c-0.3,0.7-0.6,1.4-1,2.1c3.1,1.8,5.7,4,8.1,6.7c0.2-0.7,0.4-1.4,0.6-2.1
			c-11.6,0-23.2-0.2-34.8-0.2C250.7,587.8,251,590.2,252.4,590.2L252.4,590.2z"/>
	</g>
</g>
<g>
	<g>
		<path d="M303.4,590.2c11.6,0,23.2,0.2,34.8,0.2c1.2,0,1.3-1.4,0.6-2.1c-2.5-2.8-5.3-5.1-8.6-7c-1.4-0.8-2.1,1.3-1,2.1
			c2.8,2,5.3,4.2,7.6,6.6c-0.1-0.6-0.1-1.1-0.2-1.7c-2.8,2.5-5.7,5-8.5,7.5c-1.1,0.9,0.7,2.7,1.8,1.7c2.8-2.5,5.7-5,8.5-7.5
			c0.5-0.4,0.2-1.3-0.2-1.7c-2.5-2.6-5.2-4.9-8.1-7c-0.3,0.7-0.6,1.4-1,2.1c3.1,1.8,5.7,4,8.1,6.7c0.2-0.7,0.4-1.4,0.6-2.1
			c-11.6,0-23.2-0.2-34.8-0.2C301.7,587.8,302,590.2,303.4,590.2L303.4,590.2z"/>
	</g>
</g>
<g>
	<g>
		<path d="M359.4,590.2c11.6,0,23.2,0.2,34.8,0.2c1.2,0,1.3-1.4,0.6-2.1c-2.5-2.8-5.3-5.1-8.6-7c-1.4-0.8-2.1,1.3-1,2.1
			c2.8,2,5.3,4.2,7.6,6.6c-0.1-0.6-0.1-1.1-0.2-1.7c-2.8,2.5-5.7,5-8.5,7.5c-1.1,0.9,0.7,2.7,1.8,1.7c2.8-2.5,5.7-5,8.5-7.5
			c0.5-0.4,0.2-1.3-0.2-1.7c-2.5-2.6-5.2-4.9-8.1-7c-0.3,0.7-0.6,1.4-1,2.1c3.1,1.8,5.7,4,8.1,6.7c0.2-0.7,0.4-1.4,0.6-2.1
			c-11.6,0-23.2-0.2-34.8-0.2C357.7,587.8,358,590.2,359.4,590.2L359.4,590.2z"/>
	</g>
</g>
<g>
	<g>
		<path d="M410.4,590.2c11.6,0,23.2,0.2,34.8,0.2c1.2,0,1.3-1.4,0.6-2.1c-2.5-2.8-5.3-5.1-8.6-7c-1.4-0.8-2.1,1.3-1,2.1
			c2.8,2,5.3,4.2,7.6,6.6c-0.1-0.6-0.1-1.1-0.2-1.7c-2.8,2.5-5.7,5-8.5,7.5c-1.1,0.9,0.7,2.7,1.8,1.7c2.8-2.5,5.7-5,8.5-7.5
			c0.5-0.4,0.2-1.3-0.2-1.7c-2.5-2.6-5.2-4.9-8.1-7c-0.3,0.7-0.6,1.4-1,2.1c3.1,1.8,5.7,4,8.1,6.7c0.2-0.7,0.4-1.4,0.6-2.1
			c-11.6,0-23.2-0.2-34.8-0.2C408.7,587.8,409,590.2,410.4,590.2L410.4,590.2z"/>
	</g>
</g>
<g>
	<g>
		<path d="M461.4,590.2c11.6,0,23.2,0.2,34.8,0.2c1.2,0,1.3-1.4,0.6-2.1c-2.5-2.8-5.3-5.1-8.6-7c-1.4-0.8-2.1,1.3-1,2.1
			c2.8,2,5.3,4.2,7.6,6.6c-0.1-0.6-0.1-1.1-0.2-1.7c-2.8,2.5-5.7,5-8.5,7.5c-1.1,0.9,0.7,2.7,1.8,1.7c2.8-2.5,5.7-5,8.5-7.5
			c0.5-0.4,0.2-1.3-0.2-1.7c-2.5-2.6-5.2-4.9-8.1-7c-0.3,0.7-0.6,1.4-1,2.1c3.1,1.8,5.7,4,8.1,6.7c0.2-0.7,0.4-1.4,0.6-2.1
			c-11.6,0-23.2-0.2-34.8-0.2C459.7,587.8,460,590.2,461.4,590.2L461.4,590.2z"/>
	</g>
</g>
<g>
	<g>
		<path d="M512.4,590.2c11.6,0,23.2,0.2,34.8,0.2c1.2,0,1.3-1.4,0.6-2.1c-2.5-2.8-5.3-5.1-8.6-7c-1.4-0.8-2.1,1.3-1,2.1
			c2.8,2,5.3,4.2,7.6,6.6c-0.1-0.6-0.1-1.1-0.2-1.7c-2.8,2.5-5.7,5-8.5,7.5c-1.1,0.9,0.7,2.7,1.8,1.7c2.8-2.5,5.7-5,8.5-7.5
			c0.5-0.4,0.2-1.3-0.2-1.7c-2.5-2.6-5.2-4.9-8.1-7c-0.3,0.7-0.6,1.4-1,2.1c3.1,1.8,5.7,4,8.1,6.7c0.2-0.7,0.4-1.4,0.6-2.1
			c-11.6,0-23.2-0.2-34.8-0.2C510.7,587.8,511,590.2,512.4,590.2L512.4,590.2z"/>
	</g>
</g>
<g>
	<g>
		<path d="M609.4,590.2c11.6,0,23.2,0.2,34.8,0.2c1.2,0,1.3-1.4,0.6-2.1c-2.5-2.8-5.3-5.1-8.6-7c-1.4-0.8-2.1,1.3-1,2.1
			c2.8,2,5.3,4.2,7.6,6.6c-0.1-0.6-0.1-1.1-0.2-1.7c-2.8,2.5-5.7,5-8.5,7.5c-1.1,0.9,0.7,2.7,1.8,1.7c2.8-2.5,5.7-5,8.5-7.5
			c0.5-0.4,0.2-1.3-0.2-1.7c-2.5-2.6-5.2-4.9-8.1-7c-0.3,0.7-0.6,1.4-1,2.1c3.1,1.8,5.7,4,8.1,6.7c0.2-0.7,0.4-1.4,0.6-2.1
			c-11.6,0-23.2-0.2-34.8-0.2C607.7,587.8,608,590.2,609.4,590.2L609.4,590.2z"/>
	</g>
</g>
<g>
	<g>
		<path d="M660.4,590.2c11.6,0,23.2,0.2,34.8,0.2c1.2,0,1.3-1.4,0.6-2.1c-2.5-2.8-5.3-5.1-8.6-7c-1.4-0.8-2.1,1.3-1,2.1
			c2.8,2,5.3,4.2,7.6,6.6c-0.1-0.6-0.1-1.1-0.2-1.7c-2.8,2.5-5.7,5-8.5,7.5c-1.1,0.9,0.7,2.7,1.8,1.7c2.8-2.5,5.7-5,8.5-7.5
			c0.5-0.4,0.2-1.3-0.2-1.7c-2.5-2.6-5.2-4.9-8.1-7c-0.3,0.7-0.6,1.4-1,2.1c3.1,1.8,5.7,4,8.1,6.7c0.2-0.7,0.4-1.4,0.6-2.1
			c-11.6,0-23.2-0.2-34.8-0.2C658.7,587.8,659,590.2,660.4,590.2L660.4,590.2z"/>
	</g>
</g>
<g>
	<g>
		<path d="M711.4,590.2c11.6,0,23.2,0.2,34.8,0.2c1.2,0,1.3-1.4,0.6-2.1c-2.5-2.8-5.3-5.1-8.6-7c-1.4-0.8-2.1,1.3-1,2.1
			c2.8,2,5.3,4.2,7.6,6.6c-0.1-0.6-0.1-1.1-0.2-1.7c-2.8,2.5-5.7,5-8.5,7.5c-1.1,0.9,0.7,2.7,1.8,1.7c2.8-2.5,5.7-5,8.5-7.5
			c0.5-0.4,0.2-1.3-0.2-1.7c-2.5-2.6-5.2-4.9-8.1-7c-0.3,0.7-0.6,1.4-1,2.1c3.1,1.8,5.7,4,8.1,6.7c0.2-0.7,0.4-1.4,0.6-2.1
			c-11.6,0-23.2-0.2-34.8-0.2C709.7,587.8,710,590.2,711.4,590.2L711.4,590.2z"/>
	</g>
</g>
<g>
	<g>
		<path d="M44.4,245.2c11.6,0,23.2,0.2,34.8,0.2c1.2,0,1.3-1.4,0.6-2.1c-2.5-2.8-5.3-5.1-8.6-7c-1.4-0.8-2.1,1.3-1,2.1
			c2.8,2,5.3,4.2,7.6,6.6c-0.1-0.6-0.1-1.1-0.2-1.7c-2.8,2.5-5.7,5-8.5,7.5c-1.1,0.9,0.7,2.7,1.8,1.7c2.8-2.5,5.7-5,8.5-7.5
			c0.5-0.4,0.2-1.3-0.2-1.7c-2.5-2.6-5.2-4.9-8.1-7c-0.3,0.7-0.6,1.4-1,2.1c3.1,1.8,5.7,4,8.1,6.7c0.2-0.7,0.4-1.4,0.6-2.1
			c-11.6,0-23.2-0.2-34.8-0.2C42.7,242.8,43,245.2,44.4,245.2L44.4,245.2z"/>
	</g>
</g>
<g>
	<g>
		<path d="M44.4,279.1c11.6,0,23.2,0.2,34.8,0.2c1.2,0,1.3-1.4,0.6-2.1c-2.5-2.8-5.3-5.1-8.6-7c-1.4-0.8-2.1,1.3-1,2.1
			c2.8,2,5.3,4.2,7.6,6.6c-0.1-0.6-0.1-1.1-0.2-1.7c-2.8,2.5-5.7,5-8.5,7.5c-1.1,0.9,0.7,2.7,1.8,1.7c2.8-2.5,5.7-5,8.5-7.5
			c0.5-0.4,0.2-1.3-0.2-1.7c-2.5-2.6-5.2-4.9-8.1-7c-0.3,0.7-0.6,1.4-1,2.1c3.1,1.8,5.7,4,8.1,6.7c0.2-0.7,0.4-1.4,0.6-2.1
			c-11.6,0-23.2-0.2-34.8-0.2C42.7,276.6,43,279.1,44.4,279.1L44.4,279.1z"/>
	</g>
</g>
<g>
	<g>
		<path d="M44.4,313.4c11.6,0,23.2,0.2,34.8,0.2c1.2,0,1.3-1.4,0.6-2.1c-2.5-2.8-5.3-5.1-8.6-7c-1.4-0.8-2.1,1.3-1,2.1
			c2.8,2,5.3,4.2,7.6,6.6c-0.1-0.6-0.1-1.1-0.2-1.7c-2.8,2.5-5.7,5-8.5,7.5c-1.1,0.9,0.7,2.7,1.8,1.7c2.8-2.5,5.7-5,8.5-7.5
			c0.5-0.4,0.2-1.3-0.2-1.7c-2.5-2.6-5.2-4.9-8.1-7c-0.3,0.7-0.6,1.4-1,2.1c3.1,1.8,5.7,4,8.1,6.7c0.2-0.7,0.4-1.4,0.6-2.1
			c-11.6,0-23.2-0.2-34.8-0.2C42.7,311,43,313.4,44.4,313.4L44.4,313.4z"/>
	</g>
</g>
<g>
	<g>
		<path d="M44.4,347.8c11.6,0,23.2,0.2,34.8,0.2c1.2,0,1.3-1.4,0.6-2.1c-2.5-2.8-5.3-5.1-8.6-7c-1.4-0.8-2.1,1.3-1,2.1
			c2.8,2,5.3,4.2,7.6,6.6c-0.1-0.6-0.1-1.1-0.2-1.7c-2.8,2.5-5.7,5-8.5,7.5c-1.1,0.9,0.7,2.7,1.8,1.7c2.8-2.5,5.7-5,8.5-7.5
			c0.5-0.4,0.2-1.3-0.2-1.7c-2.5-2.6-5.2-4.9-8.1-7c-0.3,0.7-0.6,1.4-1,2.1c3.1,1.8,5.7,4,8.1,6.7c0.2-0.7,0.4-1.4,0.6-2.1
			c-11.6,0-23.2-0.2-34.8-0.2C42.7,345.4,43,347.8,44.4,347.8L44.4,347.8z"/>
	</g>
</g>
<g>
	<g>
		<path d="M44.4,382.1c11.6,0,23.2,0.2,34.8,0.2c1.2,0,1.3-1.4,0.6-2.1c-2.5-2.8-5.3-5.1-8.6-7c-1.4-0.8-2.1,1.3-1,2.1
			c2.8,2,5.3,4.2,7.6,6.6c-0.1-0.6-0.1-1.1-0.2-1.7c-2.8,2.5-5.7,5-8.5,7.5c-1.1,0.9,0.7,2.7,1.8,1.7c2.8-2.5,5.7-5,8.5-7.5
			c0.5-0.4,0.2-1.3-0.2-1.7c-2.5-2.6-5.2-4.9-8.1-7c-0.3,0.7-0.6,1.4-1,2.1c3.1,1.8,5.7,4,8.1,6.7c0.2-0.7,0.4-1.4,0.6-2.1
			c-11.6,0-23.2-0.2-34.8-0.2C42.7,379.7,43,382.1,44.4,382.1L44.4,382.1z"/>
	</g>
</g>
<g>
	<g>
		<path d="M44.4,416.5c11.6,0,23.2,0.2,34.8,0.2c1.2,0,1.3-1.4,0.6-2.1c-2.5-2.8-5.3-5.1-8.6-7c-1.4-0.8-2.1,1.3-1,2.1
			c2.8,2,5.3,4.2,7.6,6.6c-0.1-0.6-0.1-1.1-0.2-1.7c-2.8,2.5-5.7,5-8.5,7.5c-1.1,0.9,0.7,2.7,1.8,1.7c2.8-2.5,5.7-5,8.5-7.5
			c0.5-0.4,0.2-1.3-0.2-1.7c-2.5-2.6-5.2-4.9-8.1-7c-0.3,0.7-0.6,1.4-1,2.1c3.1,1.8,5.7,4,8.1,6.7c0.2-0.7,0.4-1.4,0.6-2.1
			c-11.6,0-23.2-0.2-34.8-0.2C42.7,414.1,43,416.5,44.4,416.5L44.4,416.5z"/>
	</g>
</g>
<g>
	<g>
		<path d="M44.4,450.9c11.6,0,23.2,0.2,34.8,0.2c1.2,0,1.3-1.4,0.6-2.1c-2.5-2.8-5.3-5.1-8.6-7c-1.4-0.8-2.1,1.3-1,2.1
			c2.8,2,5.3,4.2,7.6,6.6c-0.1-0.6-0.1-1.1-0.2-1.7c-2.8,2.5-5.7,5-8.5,7.5c-1.1,0.9,0.7,2.7,1.8,1.7c2.8-2.5,5.7-5,8.5-7.5
			c0.5-0.4,0.2-1.3-0.2-1.7c-2.5-2.6-5.2-4.9-8.1-7c-0.3,0.7-0.6,1.4-1,2.1c3.1,1.8,5.7,4,8.1,6.7c0.2-0.7,0.4-1.4,0.6-2.1
			c-11.6,0-23.2-0.2-34.8-0.2C42.7,448.4,43,450.9,44.4,450.9L44.4,450.9z"/>
	</g>
</g>
<g>
	<g>
		<path d="M44.4,485.2c11.6,0,23.2,0.2,34.8,0.2c1.2,0,1.3-1.4,0.6-2.1c-2.5-2.8-5.3-5.1-8.6-7c-1.4-0.8-2.1,1.3-1,2.1
			c2.8,2,5.3,4.2,7.6,6.6c-0.1-0.6-0.1-1.1-0.2-1.7c-2.8,2.5-5.7,5-8.5,7.5c-1.1,0.9,0.7,2.7,1.8,1.7c2.8-2.5,5.7-5,8.5-7.5
			c0.5-0.4,0.2-1.3-0.2-1.7c-2.5-2.6-5.2-4.9-8.1-7c-0.3,0.7-0.6,1.4-1,2.1c3.1,1.8,5.7,4,8.1,6.7c0.2-0.7,0.4-1.4,0.6-2.1
			c-11.6,0-23.2-0.2-34.8-0.2C42.7,482.8,43,485.2,44.4,485.2L44.4,485.2z"/>
	</g>
</g>
<g>
	<g>
		<path d="M44.4,519.6c11.6,0,23.2,0.2,34.8,0.2c1.2,0,1.3-1.4,0.6-2.1c-2.5-2.8-5.3-5.1-8.6-7c-1.4-0.8-2.1,1.3-1,2.1
			c2.8,2,5.3,4.2,7.6,6.6c-0.1-0.6-0.1-1.1-0.2-1.7c-2.8,2.5-5.7,5-8.5,7.5c-1.1,0.9,0.7,2.7,1.8,1.7c2.8-2.5,5.7-5,8.5-7.5
			c0.5-0.4,0.2-1.3-0.2-1.7c-2.5-2.6-5.2-4.9-8.1-7c-0.3,0.7-0.6,1.4-1,2.1c3.1,1.8,5.7,4,8.1,6.7c0.2-0.7,0.4-1.4,0.6-2.1
			c-11.6,0-23.2-0.2-34.8-0.2C42.7,517.2,43,519.6,44.4,519.6L44.4,519.6z"/>
	</g>
</g>
<g>
	<g>
		<path d="M44.4,554c11.6,0,23.2,0.2,34.8,0.2c1.2,0,1.3-1.4,0.6-2.1c-2.5-2.8-5.3-5.1-8.6-7c-1.4-0.8-2.1,1.3-1,2.1
			c2.8,2,5.3,4.2,7.6,6.6c-0.1-0.6-0.1-1.1-0.2-1.7c-2.8,2.5-5.7,5-8.5,7.5c-1.1,0.9,0.7,2.7,1.8,1.7c2.8-2.5,5.7-5,8.5-7.5
			c0.5-0.4,0.2-1.3-0.2-1.7c-2.5-2.6-5.2-4.9-8.1-7c-0.3,0.7-0.6,1.4-1,2.1c3.1,1.8,5.7,4,8.1,6.7c0.2-0.7,0.4-1.4,0.6-2.1
			c-11.6,0-23.2-0.2-34.8-0.2C42.7,551.5,43,554,44.4,554L44.4,554z"/>
	</g>
</g>
<g>
	<g>
		<path d="M44.4,588.3c11.6,0,23.2,0.2,34.8,0.2c1.2,0,1.3-1.4,0.6-2.1c-2.5-2.8-5.3-5.1-8.6-7c-1.4-0.8-2.1,1.3-1,2.1
			c2.8,2,5.3,4.2,7.6,6.6c-0.1-0.6-0.1-1.1-0.2-1.7c-2.8,2.5-5.7,5-8.5,7.5c-1.1,0.9,0.7,2.7,1.8,1.7c2.8-2.5,5.7-5,8.5-7.5
			c0.5-0.4,0.2-1.3-0.2-1.7c-2.5-2.6-5.2-4.9-8.1-7c-0.3,0.7-0.6,1.4-1,2.1c3.1,1.8,5.7,4,8.1,6.7c0.2-0.7,0.4-1.4,0.6-2.1
			c-11.6,0-23.2-0.2-34.8-0.2C42.7,585.9,43,588.3,44.4,588.3L44.4,588.3z"/>
	</g>
</g>
</svg>
