<?xml version="1.0" encoding="UTF-8"?>
<svg width="213px" height="191px" viewBox="0 0 213 191" version="1.1" xmlns="http://www.w3.org/2000/svg" xmlns:xlink="http://www.w3.org/1999/xlink">
    <!-- Generator: Sketch 50.2 (55047) - http://www.bohemiancoding.com/sketch -->
    <title>Group</title>
    <desc>Created with Sketch.</desc>
    <defs>
        <polygon id="path-1" points="0.977570318 1.00789733 77.4125625 1.00789733 77.4125625 38.0176405 0.977570318 38.0176405"></polygon>
    </defs>
    <g id="Page-1" stroke="none" stroke-width="1" fill="none" fill-rule="evenodd">
        <g id="Artboard" transform="translate(-438.000000, -2623.000000)">
            <g id="Group" transform="translate(438.000000, 2623.000000)">
                <path d="M99.3695099,93.0909828 L99.3695099,189.252634 C99.3695099,189.886313 100.353865,189.886313 100.353865,189.252634 L100.353865,93.0909828 C100.353865,92.4573042 99.3695099,92.4560738 99.3695099,93.0909828" id="Fill-26" fill="#010202"></path>
                <path d="M23.0819886,88.1692073 L23.0819886,153.062818 C23.0819886,153.695266 24.0663437,153.696497 24.0663437,153.062818 L24.0663437,88.1692073 C24.0663437,87.5355287 23.0819886,87.5342982 23.0819886,88.1692073" id="Fill-28" fill="#010202"></path>
                <path d="M187.96147,98.0127584 L187.96147,157.487494 C187.96147,158.121173 188.945825,158.122403 188.945825,157.487494 L188.945825,98.0127584 C188.945825,97.3790798 187.96147,97.3778494 187.96147,98.0127584" id="Fill-30" fill="#010202"></path>
                <path d="M100.733617,93.4670727 C108.041223,101.490797 115.35129,109.515752 122.658897,117.539477 C123.087091,118.008276 123.781062,117.311845 123.356558,116.843046 C116.046491,108.819321 108.737655,100.795597 101.428818,92.7706414 C101.001854,92.3018423 100.306653,92.999504 100.733617,93.4670727" id="Fill-32" fill="#010202"></path>
                <path d="M188.095133,61.4749781 C195.40397,69.4987027 202.712807,77.5236578 210.021644,85.5473824 C210.449838,86.017412 211.143808,85.3197503 210.718075,84.8521816 C203.409238,76.8272265 196.100401,68.8035019 188.790334,60.7797773 C188.36337,60.3097477 187.668169,61.0074094 188.095133,61.4749781" id="Fill-34" fill="#010202"></path>
                <path d="M123.352424,117.697793 C152.966748,108.437472 182.179947,97.9344033 210.912042,86.2205774 C211.491581,85.9843322 211.23811,85.0319686 210.649957,85.2706747 C181.917862,96.985731 152.704663,107.48757 123.09034,116.749121 C122.488653,116.937379 122.745815,117.887281 123.352424,117.697793" id="Fill-36" fill="#010202"></path>
                <path d="M2.76892262,32.7962574 C32.3832462,23.5359367 61.5964452,13.0328676 90.3285405,1.31904172 C90.9068491,1.08402693 90.6546081,0.130432918 90.066456,0.370369477 C61.3343606,12.0841953 32.1211617,22.586034 2.50683807,31.8475852 C1.905151,32.0358431 2.16231378,32.9857458 2.76892262,32.7962574" id="Fill-38" fill="#010202"></path>
                <path d="M101.205318,93.0889152 C130.818411,83.827364 160.03284,73.3255254 188.763705,61.6116995 C189.343244,61.3754543 189.089773,60.4230907 188.502851,60.6617968 C159.770756,72.3768531 130.557557,82.8786918 100.943233,92.140243 C100.340316,92.3285009 100.597479,93.2784036 101.205318,93.0889152" id="Fill-40" fill="#010202"></path>
                <path d="M24.9166432,57.4060423 C54.5309668,48.1444911 83.7441657,37.6426525 112.476261,25.9288266 C113.0558,25.6925814 112.802329,24.7402178 112.215407,24.9789239 C83.4833116,36.6939802 54.2688823,47.1958189 24.6557891,56.4573701 C24.0528716,56.645628 24.3100343,57.5955307 24.9166432,57.4060423" id="Fill-42" fill="#010202"></path>
                <path d="M101.205318,190.294305 C130.818411,181.032753 160.03284,170.530915 188.763705,158.817089 C189.343244,158.580844 189.089773,157.62725 188.502851,157.867186 C159.770756,169.582242 130.557557,180.082851 100.943233,189.345632 C100.340316,189.53389 100.597479,190.483793 101.205318,190.294305" id="Fill-44" fill="#010202"></path>
                <path d="M100.364807,189.248625 C75.011511,176.823603 49.4982568,164.725878 23.8336581,152.956683 C23.2615017,152.694598 22.7619415,153.542374 23.3365588,153.805689 C49.002388,165.576115 74.5144116,177.673839 99.8689385,190.097631 C100.434943,190.375712 100.934503,189.527936 100.364807,189.248625" id="Fill-46" fill="#010202"></path>
                <path d="M79.0828013,113.078782 C53.8513188,100.614385 28.4598786,88.4772863 2.91586341,76.6699467 C2.34493745,76.4054013 1.84414678,77.2544076 2.41876408,77.5201835 C27.9640097,89.3275231 53.3542195,101.465852 78.585702,113.927788 C79.1517062,114.208329 79.6512664,113.360553 79.0828013,113.078782" id="Fill-48" fill="#010202"></path>
                <path d="M100.000347,92.1612353 C74.768865,79.6980691 49.3774248,67.5597401 23.8334096,55.7524005 C23.2624836,55.4878551 22.761693,56.3368614 23.3363103,56.6026373 C48.8803255,68.4099769 74.2717657,80.5483059 99.5032481,93.0102416 C100.069252,93.2907828 100.568813,92.4417765 100.000347,92.1612353" id="Fill-50" fill="#010202"></path>
                <path d="M188.591725,61.400138 C163.360242,48.9369718 137.970033,36.7986428 112.426017,24.9913032 C111.853861,24.7267578 111.354301,25.5757641 111.927688,25.8415399 C137.472933,37.6488795 162.864373,49.7872085 188.095856,62.2491443 C188.66186,62.5296855 189.16019,61.6806792 188.591725,61.400138" id="Fill-52" fill="#010202"></path>
                <g id="Group-56" transform="translate(134.000000, 1.000000)">
                    <mask id="mask-2" fill="white">
                        <use xlink:href="#path-1"></use>
                    </mask>
                    <g id="Clip-55"></g>
                    <path d="M77.1636937,37.1203219 C52.173225,24.7756031 27.0231,12.7538531 1.72185,1.05750937 C1.15635,0.796696875 0.66031875,1.63641562 1.229475,1.89966562 C26.530725,13.5960094 51.68085,25.6177594 76.6725375,37.9624781 C77.2331625,38.2391344 77.727975,37.3994156 77.1636937,37.1203219" id="Fill-54" fill="#010202" mask="url(#mask-2)"></path>
                </g>
                <path d="M99.5252593,92.7572409 C92.5498729,99.5775914 85.5744864,106.399172 78.5991,113.220753 C78.1462967,113.664944 78.8414975,114.360144 79.2967617,113.917185 C86.2721481,107.095604 93.2463041,100.274023 100.221691,93.4524417 C100.675724,93.0094819 99.9792931,92.3142811 99.5252593,92.7572409" id="Fill-57" fill="#010202"></path>
                <path d="M23.2382552,55.8439241 C16.2628687,62.6642746 9.28748231,69.4858555 2.31209588,76.3074365 C1.85806208,76.7516267 2.55449332,77.4468275 3.00852712,77.0038677 C9.98391355,70.1822868 16.9580695,63.3607058 23.933456,56.5391249 C24.3887202,56.0961651 23.6910585,55.4009643 23.2382552,55.8439241" id="Fill-59" fill="#010202"></path>
                <path d="M188.819382,61.2374927 C196.987069,54.2657976 204.844684,46.9532696 212.395918,39.3183652 C212.841339,38.8680227 212.146138,38.170361 211.700717,38.621934 C204.149483,46.2568383 196.290638,53.5705968 188.124182,60.5422919 C187.641848,60.9532602 188.339509,61.6472305 188.819382,61.2374927" id="Fill-61" fill="#010202"></path>
                <path d="M112.531192,24.280679 C120.631204,17.3212883 128.422375,10.0222952 135.905935,2.40584747 C136.350125,1.95304412 135.654924,1.25661287 135.210734,1.70941623 C127.725944,9.32709437 119.936004,16.6248571 111.835991,23.5842478 C111.354888,23.9976769 112.05255,24.6916473 112.531192,24.280679" id="Fill-63" fill="#010202"></path>
                <path d="M111.557292,23.9876172 C104.023284,16.5803449 96.9346965,8.75472176 90.3382868,0.500904126 C89.9433143,0.00626568071 89.2505744,0.7076187 89.6418556,1.19733537 C96.2394957,9.45115301 103.328083,17.2755457 110.862091,24.682818 C111.313664,25.1282386 112.010095,24.4330378 111.557292,23.9876172" id="Fill-65" fill="#010202"></path>
                <path d="M24.8948107,55.9547804 C17.1873102,48.1266964 9.48104005,40.2986123 1.7735395,32.4705283 C1.32811881,32.0177249 0.631687569,32.7141562 1.07710826,33.1657291 C8.78337836,40.9950436 16.4921094,48.8231276 24.1996099,56.6512117 C24.6438001,57.1027846 25.3390009,56.4063533 24.8948107,55.9547804" id="Fill-67" fill="#010202"></path>
                <path d="M111.93692,25.4161072 C111.447203,46.4443933 111.641613,67.4800621 112.51892,88.4960438 C112.544759,89.1272615 113.529114,89.1297224 113.502044,88.4960438 C112.625968,67.4800621 112.430328,46.4443933 112.921275,25.4161072 C112.93604,24.7824286 111.951685,24.7824286 111.93692,25.4161072" id="Fill-69" fill="#010202"></path>
            </g>
        </g>
    </g>
</svg>