<?xml version="1.0" encoding="utf-8"?>
<!-- Generator: Adobe Illustrator 19.0.1, SVG Export Plug-In . SVG Version: 6.00 Build 0)  -->
<svg version="1.1" id="Layer_1" xmlns="http://www.w3.org/2000/svg" xmlns:xlink="http://www.w3.org/1999/xlink" x="0px" y="0px"
	 viewBox="0 0 225 225" style="enable-background:new 0 0 225 225;" xml:space="preserve">
<style type="text/css">
	.st0{fill:#7BD0E4;}
</style>
<g>
	<g>
		<path class="st0" d="M108.3,117.7c0,31.6,0.1,63.3,0.1,94.9c0,3,5.9,2.2,5.9-0.4c0-31.6-0.1-63.3-0.1-94.9
			C114.1,114.3,108.3,115.1,108.3,117.7L108.3,117.7z"/>
	</g>
</g>
<g>
	<g>
		<path class="st0" d="M112.2,214.6c12.4-2.9,24.8-6.2,36.9-10c11.1-3.5,22.8-6.8,33.4-11.8c9.6-4.5,7.7-16.2,8-25.3
			c0.5-13.3,0.7-26.5,0.6-39.8c0-2.9-5.9-1.9-5.9,0.5c0.1,11.3,0,22.5-0.4,33.8c-0.2,5.6-0.4,11.3-0.7,16.9
			c-0.1,2.4,0.1,6.2-1.2,8.4c-1.4,2.3-5.1,3.2-7.4,4.1c-21,7.9-42.5,14.4-64.4,19.4C107.6,211.7,108.6,215.4,112.2,214.6
			L112.2,214.6z"/>
	</g>
</g>
<g>
	<g>
		<path class="st0" d="M108.1,117.9c6.1,4.1,11.2,9.2,15.4,15.2c2.7,3.8,5.5,9,10.4,10.3c4.7,1.3,9.9-1.2,14.3-2.7
			c7.7-2.7,15.5-5.3,23.2-8c7.4-2.6,14.8-5.1,22.3-7.7c3.7-1.3,7.4-2.6,11.1-3.8c2-0.7,4.5-1.3,6.2-2.6c4.7-3.6-1.7-9-4.1-12.2
			c-4.7-6.2-9.5-12.4-14.3-18.5c-1.1-1.3-6.1,1.1-5.8,1.6c3.7,4.6,7.3,9.3,10.9,14.1c1.7,2.2,3.4,4.5,5.1,6.7c0.9,1.2,4.7,5,4.4,6.6
			c-0.4,1.9-4.6,3.4-6.2,3.9c-1.2,0.4-2.5,0.9-3.7,1.3c-3.1,1.1-6.2,2.1-9.3,3.2c-5.9,2-11.8,4-17.6,6.1c-5.6,1.9-11.1,3.8-16.7,5.7
			c-5.6,1.9-13.5,6.5-18.6,1.9c-4-3.6-6.5-8.8-10-12.8c-3.4-3.9-7.3-7.2-11.5-10.2C112.2,115.1,107.4,117.5,108.1,117.9L108.1,117.9
			z"/>
	</g>
</g>
<g>
	<g>
		<path class="st0" d="M110.3,118.1c26.5-8.7,53-17.8,79.3-27.2c3.8-1.4,0.3-3.1-2.2-2.2c-25.8,9.2-51.7,18.1-77.8,26.7
			C106.2,116.5,106.8,119.2,110.3,118.1L110.3,118.1z"/>
	</g>
</g>
<g>
	<g>
		<path class="st0" d="M191.4,89.1c4.8-5.6,9.6-11.1,14.5-16.7c2.2-2.5,7.8-7.5,3.6-10.7c-1.9-1.5-5.6-1.8-7.8-2.4
			c-3.7-1.1-7.5-2.2-11.2-3.4c-6.9-2.2-13.7-4.7-20.4-7.4c-6.5-2.6-12.9-5.3-19.2-8.2c-5.2-2.4-10.5-4.9-16.3-3
			c-4.3,1.4-7.5,4.7-10.3,8.1c-4.7,5.8-9.2,11.8-13.8,17.7c-1.5,2,4.3,1.5,5.4,0.1c3.3-4.2,6.6-8.5,9.9-12.7c3.9-5,8-12.4,15.3-9.7
			c10.3,3.7,20.2,9.1,30.5,12.9c9.6,3.6,19.3,6.7,29.2,9.5c2.3,0.6,2.9,0.2,3.4,2.7c0.4,2.1,0,2.2-1.2,3.7c-1.8,2.2-3.8,4.3-5.7,6.5
			c-3.8,4.3-7.5,8.7-11.3,13C184.4,90.9,190.2,90.5,191.4,89.1L191.4,89.1z"/>
	</g>
</g>
<g>
	<g>
		<path class="st0" d="M110,65.5c13,5,26.1,9.9,39.1,14.9c11.7,4.4,23.3,9.2,35.6,12c1.7,0.4,6.8-2.3,3.6-3
			c-12.5-2.9-24.4-7.9-36.4-12.4c-12.4-4.7-24.9-9.4-37.3-14.1C113,62.2,107.7,64.7,110,65.5L110,65.5z"/>
	</g>
</g>
<g>
	<g>
		<path class="st0" d="M113.8,63.5c-1.3-6.2-6.5-10.3-10.8-14.5c-3.9-3.9-8.7-10.9-14.3-12.3C83,35.3,77.2,38.9,72.2,41
			c-7.5,3.2-15.1,6.2-22.7,8.9c-7.3,2.6-14.7,5-22.1,7.1c-4.3,1.2-11.1,1.9-13.6,6.3c-2.6,4.4,3,9.5,5.5,12.7
			c4.4,5.5,9.3,10.5,14.6,15.2c2,1.7,7-1.2,4.5-3.4c-4.1-3.6-8-7.5-11.5-11.7c-1.7-2-3.3-4-4.8-6.1c-0.6-0.9-1.6-1.8-2-2.8
			c-1.1-2.5-0.6-3,1.4-4.1c2.1-1.2,5.7-1.6,8-2.3c2.7-0.8,5.3-1.6,8-2.4c5.3-1.7,10.6-3.5,15.9-5.4c4.6-1.7,9.2-3.4,13.8-5.3
			c5.5-2.2,11.6-6.2,17.5-6.2c3.4,0,3.8,0.7,6,2.8c0.9,0.9,1.7,1.7,2.6,2.6c1.9,1.9,3.9,3.9,5.8,5.8c3.6,3.6,7.9,7,9,12.2
			C108.6,67.8,114.4,66.3,113.8,63.5L113.8,63.5z"/>
	</g>
</g>
<g>
	<g>
		<path class="st0" d="M37.8,90c23.9-9.4,48.2-17.9,72.8-25.4c3.3-1,3-2.6-0.4-1.6c-25.1,7.7-49.9,16.3-74.3,25.9
			C32,90.4,35.7,90.8,37.8,90L37.8,90z"/>
	</g>
</g>
<g>
	<g>
		<path class="st0" d="M34.6,90.3c25,7.3,49.2,16.6,72.7,27.9c1.4,0.7,6.7-1.5,4.7-2.5c-23.4-11.3-47.7-20.6-72.7-27.9
			C37.7,87.4,32.6,89.8,34.6,90.3L34.6,90.3z"/>
	</g>
</g>
<g>
	<g>
		<path class="st0" d="M34.4,89.5c-5.3,5.5-10.7,11-16,16.5c-3.7,3.8-7.5,7.5-6.9,13.2c0.1,0.5,0.8,0.9,1.2,1
			c21.7,5.6,42.9,12.9,63.4,21.9c2.9,1.3,6.1,3.2,9.4,2.7c3.3-0.5,5.8-3,8.2-5c7.5-6.5,14-13.9,19.6-22c1.7-2.4-4.2-2.3-5.5-0.5
			c-3.1,4.5-6.6,8.9-10.3,12.9c-1.9,2.1-3.9,4-6,5.9c-1.6,1.4-4.1,4.4-6.2,4.7c-2,0.2-5-2-6.9-2.8c-2.6-1.1-5.2-2.2-7.8-3.3
			c-5.5-2.3-11.1-4.4-16.7-6.5c-10.6-3.8-21.3-7.2-32.2-10.2c-1.6-0.4-3.4-0.3-3.9-2c-0.6-1.9,1.2-4.1,2.4-5.4
			c1.8-2.2,4-4.1,5.9-6.2c4.4-4.5,8.8-9.1,13.2-13.6C41.6,88.4,36,87.8,34.4,89.5L34.4,89.5z"/>
	</g>
</g>
<g>
	<g>
		<path class="st0" d="M33.5,127.4c0,12-0.1,23.9-0.1,35.9c0,5.8-0.2,11.5,0,17.3c0.1,4.6,1.3,7.7,5.6,9.6
			c10.6,4.7,22.1,7.9,33,11.8c11.8,4.2,23.6,8.5,35.4,12.7c1.4,0.5,6.6-1.7,4.7-2.4c-21.8-7.8-43.5-15.5-65.3-23.4
			c-2.6-0.9-5.5-1.7-6.9-4.4c-1.1-2.2-0.8-5-0.8-7.3c0-5.5,0-11,0-16.5c0-11.6,0.1-23.3,0.1-34.9C39.3,124.7,33.5,125.6,33.5,127.4
			L33.5,127.4z"/>
	</g>
</g>
<g>
	<g>
		<path d="M110.7,116.7c0,31.6,0.1,63.3,0.1,94.9c0,1.5,2.9,1.1,2.9-0.2c0-31.6-0.1-63.3-0.1-94.9
			C113.6,114.9,110.7,115.4,110.7,116.7L110.7,116.7z"/>
	</g>
</g>
<g>
	<g>
		<path d="M112.9,212.7c12.4-2.9,24.8-6.2,36.9-10c11-3.4,22.6-6.7,33-11.6c8.9-4.2,6.8-16,7.2-24.4c0.5-13.3,0.7-26.5,0.6-39.8
			c0-1.4-2.9-1-2.9,0.3c0.1,11.3,0,22.5-0.4,33.8c-0.2,5.6-0.4,11.3-0.7,16.9c-0.1,2.4,0.2,6.5-1.3,8.6c-1.9,2.7-5.3,3.7-8.1,4.7
			c-21.1,8-42.7,14.5-64.7,19.6C110.6,211.3,111.1,213.1,112.9,212.7L112.9,212.7z"/>
	</g>
</g>
<g>
	<g>
		<path d="M110.4,116.5c6.1,4.2,11.2,9.3,15.5,15.3c2.6,3.7,5.4,8.9,10.1,10.2c4.2,1.1,8.8-1.1,12.6-2.4c7.7-2.7,15.5-5.3,23.2-8
			c7.4-2.6,14.8-5.1,22.3-7.7c3.7-1.3,7.4-2.6,11.1-3.8c1.8-0.6,4-1.1,5.5-2.3c4.4-3.4-2.1-9-4.3-11.9c-4.7-6.2-9.5-12.4-14.3-18.5
			c-0.5-0.7-3.1,0.6-2.9,0.8c3.7,4.6,7.3,9.3,10.9,14.1c1.7,2.2,3.4,4.5,5.1,6.7c0.9,1.3,4.6,4.9,4.4,6.6c-0.3,2-5.4,4-7.2,4.6
			c-1.2,0.4-2.5,0.9-3.7,1.3c-3.1,1.1-6.2,2.1-9.3,3.2c-5.9,2-11.8,4-17.6,6.1c-5.6,1.9-11.1,3.8-16.7,5.7c-6,2.1-15.1,7-20.5,2.1
			c-4-3.6-6.5-8.9-10.1-12.9c-3.4-3.9-7.2-7.2-11.4-10.1C112.5,115.1,110,116.3,110.4,116.5L110.4,116.5z"/>
	</g>
</g>
<g>
	<g>
		<path d="M111,116.4c26.4-8.7,52.7-17.7,78.9-27c1.9-0.7,0.2-1.5-1.1-1.1c-25.9,9.2-52,18.2-78.2,26.8
			C109,115.7,109.3,117,111,116.4L111,116.4z"/>
	</g>
</g>
<g>
	<g>
		<path d="M190.9,88.1c4.8-5.6,9.6-11.1,14.5-16.7c1.9-2.2,7.5-7,3.8-10c-1.8-1.5-5.5-1.8-7.5-2.4c-3.8-1.1-7.6-2.3-11.4-3.5
			c-6.9-2.2-13.7-4.7-20.4-7.4c-6.5-2.6-12.9-5.3-19.2-8.2c-4.7-2.2-9.6-4.7-15-3c-3.9,1.3-6.7,4.4-9.1,7.5
			c-4.7,5.8-9.2,11.8-13.8,17.7c-0.8,1,2.1,0.7,2.7,0c3.3-4.2,6.6-8.5,9.9-12.7c4.5-5.7,9.3-13.5,17.8-10.4
			c10.3,3.8,20.2,9.1,30.5,12.9c9.5,3.6,19.2,6.7,28.9,9.4c2.5,0.7,3.3,0.3,3.8,3.2c0.4,2.5,0.3,2.3-1.1,4c-1.8,2.2-3.8,4.3-5.7,6.5
			c-3.8,4.3-7.5,8.7-11.3,13C187.5,89,190.3,88.8,190.9,88.1L190.9,88.1z"/>
	</g>
</g>
<g>
	<g>
		<path d="M112.1,63.9c13,5,26.1,9.9,39.1,14.9c11.6,4.4,23.2,9.2,35.3,12c0.9,0.2,3.4-1.1,1.8-1.5c-12.6-2.9-24.6-7.9-36.7-12.5
			c-12.4-4.7-24.9-9.4-37.3-14.1C113.6,62.2,110.9,63.5,112.1,63.9L112.1,63.9z"/>
	</g>
</g>
<g>
	<g>
		<path d="M113.3,62.9c-1.3-6.1-6.4-10.1-10.6-14.3c-3.7-3.7-8.4-10.7-13.8-11.9c-5.1-1.2-10.5,2.3-15,4.2
			c-7.6,3.3-15.3,6.3-23.1,9.1c-7.3,2.6-14.7,5-22.1,7.1c-3.6,1.1-10.7,1.7-12.7,5.7c-2,4,3.4,8.8,5.7,11.6
			c4.3,5.4,9.2,10.4,14.3,15c1,0.9,3.5-0.6,2.2-1.7C34,84.1,30,80.1,26.4,75.9c-2.8-3.3-11.7-11.9-4.4-14.6
			c10.4-3.9,21.4-6.3,31.9-10.1c4.5-1.6,9-3.4,13.4-5.2c6-2.4,12-6.2,18.4-6.2c4.1,0,4.5,0.5,7.1,3c0.9,0.9,1.7,1.7,2.6,2.6
			c1.9,1.9,3.9,3.9,5.8,5.8c3.7,3.7,8,7.1,9.1,12.5C110.7,65.1,113.6,64.3,113.3,62.9L113.3,62.9z"/>
	</g>
</g>
<g>
	<g>
		<path d="M38.3,88.8c24.1-9.4,48.5-17.9,73.2-25.5c1.6-0.5,1.5-1.3-0.2-0.8c-25,7.7-49.6,16.3-73.9,25.8
			C35.4,89,37.2,89.2,38.3,88.8L38.3,88.8z"/>
	</g>
</g>
<g>
	<g>
		<path d="M36.7,88.8c25,7.3,49.2,16.6,72.7,27.9c0.7,0.3,3.4-0.8,2.3-1.3C88.3,104.1,64,94.8,39,87.5
			C38.3,87.3,35.7,88.5,36.7,88.8L36.7,88.8z"/>
	</g>
</g>
<g>
	<g>
		<path d="M36.5,88.9c-5.3,5.5-10.7,11-16,16.5c-3.5,3.6-7.2,7.1-6.7,12.5c0,0.3,0.4,0.5,0.6,0.5c21.8,5.6,43.1,13,63.7,22
			c2.5,1.1,5.4,3,8.2,2.6c2.8-0.4,5-2.7,7-4.5c7.4-6.4,13.8-13.7,19.4-21.8c0.8-1.2-2.1-1.2-2.7-0.2c-3.2,4.6-6.7,9-10.5,13.1
			c-3.2,3.4-8.6,10.5-13.3,11c-2.7,0.3-5.4-1.6-7.8-2.7c-2.6-1.1-5.2-2.2-7.8-3.3c-5.5-2.3-11.1-4.4-16.7-6.5
			c-10.6-3.8-21.3-7.2-32.2-10.2c-2.1-0.6-3.3-0.4-4.2-2.3c-1-2.3,0.8-4.5,2.4-6.3c1.8-2.2,4-4.1,5.9-6.2c4.4-4.5,8.8-9.1,13.2-13.6
			C40.1,88.3,37.3,88,36.5,88.9L36.5,88.9z"/>
	</g>
</g>
<g>
	<g>
		<path d="M35.9,126.1c0,12-0.1,23.9-0.1,35.9c0,5.8-0.2,11.5,0,17.3c0.1,4.5,1.1,7.6,5.3,9.4c10.6,4.7,22.1,7.9,33,11.8
			c11.8,4.2,23.6,8.5,35.4,12.7c0.7,0.3,3.3-0.9,2.4-1.2c-21.8-7.8-43.5-15.5-65.3-23.4c-2.7-1-5.8-1.8-7.1-4.6
			c-1.1-2.2-0.8-4.9-0.8-7.3c0-5.5,0-11,0-16.5c0-11.6,0.1-23.3,0.1-34.9C38.8,124.7,35.9,125.1,35.9,126.1L35.9,126.1z"/>
	</g>
</g>
</svg>
