<?xml version="1.0" encoding="utf-8"?>
<!-- Generator: Adobe Illustrator 19.0.1, SVG Export Plug-In . SVG Version: 6.00 Build 0)  -->
<svg version="1.1" id="Layer_1" xmlns="http://www.w3.org/2000/svg" xmlns:xlink="http://www.w3.org/1999/xlink" x="0px" y="0px"
	 viewBox="0 0 225 225" style="enable-background:new 0 0 225 225;" xml:space="preserve">
<style type="text/css">
	.st0{fill:#7CD0E4;}
	.st1{fill:#7DD1E4;}
</style>
<g>
	<path class="st0" d="M97.2,20.8C71.3,47.9,32.2,82.4,4.9,108"/>
	<g>
		<path class="st1" d="M96,19.6C66.8,50.2,34.6,78,3.7,106.8c-1.5,1.4,0.8,3.7,2.3,2.3c30.9-28.8,63.1-56.6,92.3-87.2
			C99.8,20.4,97.5,18.1,96,19.6L96,19.6z"/>
	</g>
</g>
<g>
	<path class="st0" d="M96.7,38.5C70.8,65.6,51.4,84.8,24,110.3"/>
	<g>
		<path class="st1" d="M95.5,37.3C72,62,47.7,85.9,22.8,109.2c-1.5,1.4,0.8,3.7,2.3,2.3C50,88.2,74.3,64.3,97.8,39.6
			C99.3,38.1,97,35.8,95.5,37.3L95.5,37.3z"/>
	</g>
</g>
<g>
	<path class="st0" d="M4.2,109.5c29.8,28,71.4,67.3,101.7,94.6"/>
	<g>
		<path class="st1" d="M3,110.7c33.7,31.7,67.3,63.6,101.7,94.6c1.5,1.4,3.9-0.9,2.3-2.3c-34.4-31-68-62.9-101.7-94.6
			C3.8,106.9,1.5,109.2,3,110.7L3,110.7z"/>
	</g>
</g>
<g>
	<path class="st0" d="M24.5,111.9c29.8,28,51.4,47.4,81.8,74.7"/>
	<g>
		<path class="st1" d="M23.3,113.1c26.9,25.3,54.4,50,81.8,74.7c1.5,1.4,3.9-0.9,2.3-2.3c-27.4-24.7-54.9-49.4-81.8-74.7
			C24.1,109.3,21.8,111.6,23.3,113.1L23.3,113.1z"/>
	</g>
</g>
<g>
	<path class="st0" d="M97.2,21.7c0,5.7,0,11.3,0,17"/>
	<g>
		<path class="st1" d="M95.5,21.7c0,5.7,0,11.3,0,17c0,2.1,3.2,2.1,3.2,0c0-5.7,0-11.3,0-17C98.8,19.6,95.5,19.6,95.5,21.7
			L95.5,21.7z"/>
	</g>
</g>
<g>
	<path class="st0" d="M106.3,186.5c0,5.7,0,11.3,0,17"/>
	<g>
		<path class="st1" d="M103.8,186.5c0,5.7,0,11.3,0,17c0,3.2,5,3.2,5,0c0-5.7,0-11.3,0-17C108.8,183.2,103.8,183.2,103.8,186.5
			L103.8,186.5z"/>
	</g>
</g>
<g>
	<path class="st0" d="M128.4,205.9c25.8-27.1,64.9-61.6,92.3-87.2"/>
	<g>
		<path class="st1" d="M129.6,207c29.2-30.6,61.4-58.4,92.3-87.2c1.5-1.4-0.8-3.7-2.3-2.3c-30.9,28.8-63.1,56.6-92.3,87.2
			C125.8,206.3,128.1,208.6,129.6,207L129.6,207z"/>
	</g>
</g>
<g>
	<path class="st0" d="M126.8,186.5c25.8-27.1,45.3-46.3,72.7-71.9"/>
	<g>
		<path class="st1" d="M128,187.6c23.5-24.7,47.8-48.6,72.7-71.9c1.5-1.4-0.8-3.7-2.3-2.3c-24.9,23.3-49.2,47.2-72.7,71.9
			C124.2,186.8,126.5,189.1,128,187.6L128,187.6z"/>
	</g>
</g>
<g>
	<path class="st0" d="M219.3,116.4c-29.8-28-71.4-67.3-101.7-94.6"/>
	<g>
		<path class="st1" d="M220.5,115.2c-33.7-31.7-67.3-63.6-101.7-94.6c-1.5-1.4-3.9,0.9-2.3,2.3c34.4,31,68,62.9,101.7,94.6
			C219.7,119,222,116.7,220.5,115.2L220.5,115.2z"/>
	</g>
</g>
<g>
	<path class="st0" d="M199,114c-29.8-28-51.4-47.4-81.8-74.7"/>
	<g>
		<path class="st1" d="M200.2,112.8c-26.9-25.3-54.4-50-81.8-74.7c-1.5-1.4-3.9,0.9-2.3,2.3c27.4,24.7,54.9,49.4,81.8,74.7
			C199.4,116.6,201.7,114.3,200.2,112.8L200.2,112.8z"/>
	</g>
</g>
<g>
	<path class="st0" d="M127.3,205.1c0-5.7,0-11.3,0-17"/>
	<g>
		<path class="st1" d="M129.8,205.1c0-5.7,0-11.3,0-17c0-3.2-5-3.2-5,0c0,5.7,0,11.3,0,17C124.8,208.4,129.8,208.4,129.8,205.1
			L129.8,205.1z"/>
	</g>
</g>
<g>
	<path class="st0" d="M117.2,39.4c0-5.7,0-11.3,0-17"/>
	<g>
		<path class="st1" d="M118.8,39.4c0-5.7,0-11.3,0-17c0-2.1-3.2-2.1-3.2,0c0,5.7,0,11.3,0,17C115.6,41.5,118.8,41.5,118.8,39.4
			L118.8,39.4z"/>
	</g>
</g>
<g>
	<g>
		<path d="M98.9,19C69.7,49.6,37.5,77.3,6.6,106.2c-1.5,1.4,0.8,3.7,2.3,2.3C39.8,79.6,72,51.9,101.2,21.3
			C102.7,19.8,100.4,17.4,98.9,19L98.9,19z"/>
	</g>
</g>
<g>
	<g>
		<path d="M98.4,36.7c-23.5,24.7-47.8,48.6-72.7,71.9c-1.5,1.4,0.8,3.7,2.3,2.3C52.9,87.6,77.2,63.7,100.7,39
			C102.2,37.5,99.9,35.2,98.4,36.7L98.4,36.7z"/>
	</g>
</g>
<g>
	<g>
		<path d="M5.9,109.1c33.7,31.7,67.3,63.6,101.7,94.6c1.5,1.4,3.9-0.9,2.3-2.3c-34.4-31-68-62.9-101.7-94.6
			C6.7,105.3,4.4,107.6,5.9,109.1L5.9,109.1z"/>
	</g>
</g>
<g>
	<g>
		<path d="M26.2,111.4c26.9,25.3,54.4,50,81.8,74.7c1.5,1.4,3.9-0.9,2.3-2.3c-27.4-24.7-54.9-49.4-81.8-74.7
			C27,107.7,24.7,110,26.2,111.4L26.2,111.4z"/>
	</g>
</g>
<g>
	<g>
		<path d="M98.4,20.1c0,5.7,0,11.3,0,17c0,2.1,3.2,2.1,3.2,0c0-5.7,0-11.3,0-17C101.7,18,98.4,18,98.4,20.1L98.4,20.1z"/>
	</g>
</g>
<g>
	<g>
		<path d="M106.7,185.8c-0.1,4.9-0.9,9.8-1,14.7c0,3.2,5,3.2,5,0c0.1-4.9,0.9-9.8,1-14.7C111.7,182.6,106.7,182.6,106.7,185.8
			L106.7,185.8z"/>
	</g>
</g>
<g>
	<g>
		<path d="M130.4,203.7c29.2-30.6,61.4-58.4,92.3-87.2c1.5-1.4-0.8-3.7-2.3-2.3c-30.9,28.8-63.1,56.6-92.3,87.2
			C126.6,202.9,128.9,205.2,130.4,203.7L130.4,203.7z"/>
	</g>
</g>
<g>
	<g>
		<path d="M130.9,186c23.5-24.7,47.8-48.6,72.7-71.9c1.5-1.4-0.8-3.7-2.3-2.3c-24.9,23.3-49.2,47.2-72.7,71.9
			C127.1,185.2,129.4,187.5,130.9,186L130.9,186z"/>
	</g>
</g>
<g>
	<g>
		<path d="M223.4,113.6C189.7,81.9,156,50,121.7,19c-1.5-1.4-3.9,0.9-2.3,2.3c34.4,31,68,62.9,101.7,94.6
			C222.6,117.3,224.9,115,223.4,113.6L223.4,113.6z"/>
	</g>
</g>
<g>
	<g>
		<path d="M203.1,111.2c-26.9-25.3-54.4-50-81.8-74.7c-1.5-1.4-3.9,0.9-2.3,2.3c27.4,24.7,54.9,49.4,81.8,74.7
			C202.3,115,204.6,112.7,203.1,111.2L203.1,111.2z"/>
	</g>
</g>
<g>
	<g>
		<path d="M131.7,201.5c0-5,0.1-10,0.1-14.9c0-3.2-5-3.2-5,0c0,5-0.1,10-0.1,14.9C126.7,204.7,131.7,204.7,131.7,201.5L131.7,201.5z
			"/>
	</g>
</g>
<g>
	<g>
		<path d="M121.7,37.8c0-5.7,0-11.3,0-17c0-2.1-3.2-2.1-3.2,0c0,5.7,0,11.3,0,17C118.5,39.9,121.7,39.9,121.7,37.8L121.7,37.8z"/>
	</g>
</g>
</svg>
