<?xml version="1.0" encoding="UTF-8"?>
<svg width="221px" height="194px" viewBox="0 0 221 194" version="1.1" xmlns="http://www.w3.org/2000/svg" xmlns:xlink="http://www.w3.org/1999/xlink">
    <!-- Generator: Sketch 50.2 (55047) - http://www.bohemiancoding.com/sketch -->
    <title>Group 3</title>
    <desc>Created with Sketch.</desc>
    <defs>
        <polygon id="path-1" points="0 0.878817413 98.0434063 0.878817413 98.0434063 92.4426724 0 92.4426724"></polygon>
    </defs>
    <g id="Page-1" stroke="none" stroke-width="1" fill="none" fill-rule="evenodd">
        <g id="Artboard" transform="translate(-430.000000, -2045.000000)">
            <g id="Group-3" transform="translate(430.000000, 2045.000000)">
                <path d="M112.087007,0.455167049 C140.633079,25.8679153 166.441976,54.1613247 194.728292,79.8507465 C202.763403,87.1473366 211.004153,94.2139077 219.523059,100.936535 C219.793637,101.151364 220.180024,100.769446 219.906198,100.553532 C189.887095,76.8615859 163.6864,48.9045249 136.296241,22.3210673 C128.498158,14.7521435 120.587514,7.29822925 112.470147,0.0710788894 C112.210391,-0.158940008 111.826169,0.222978161 112.087007,0.455167049" id="Fill-1" fill="#010202"></path>
                <path d="M220.528585,101.07217 C194.471263,124.401328 167.839139,147.239369 142.572848,171.427982 C135.485074,178.211268 128.602663,185.206429 122.072306,192.528641 C121.839777,192.788324 122.222254,193.175133 122.455869,192.91219 C133.837815,180.150746 146.303084,168.43673 158.973716,156.972618 C172.09528,145.099966 185.312463,133.329449 198.497049,121.52525 C205.968387,114.835406 213.440811,108.14665 220.913235,101.456806 C221.174015,101.2232 220.788279,100.83965 220.528585,101.07217" id="Fill-3" fill="#010202"></path>
                <path d="M112,0.266540965 L112,11.7338728 C112,12.088157 112.5,12.0892607 112.5,11.7338728 L112.5,0.266540965 C112.5,-0.0888469884 112,-0.0888469884 112,0.266540965" id="Fill-5" fill="#010202"></path>
                <path d="M112.086646,12.4565224 C137.033935,34.8113254 158.867393,60.3287644 183.412654,83.0923509 C190.863643,90.0025313 198.572233,96.6213446 206.525488,102.936832 C206.794943,103.151008 207.178648,102.769405 206.907037,102.553054 C180.608158,81.6659575 158.317703,56.7714784 134.616378,33.0826931 C127.416521,25.8854946 120.047446,18.8633337 112.468195,12.0716571 C112.209518,11.8400856 111.826891,12.2238637 112.086646,12.4565224" id="Fill-7" fill="#010202"></path>
                <path d="M207.527627,102.070735 C201.223737,107.611633 194.273908,112.348923 188.001554,117.934166 C181.357296,123.851452 174.784808,129.827143 168.325415,135.94452 C157.842493,145.87336 146.696233,155.187867 136.639587,165.548254 C131.616702,170.721418 126.872201,176.156322 122.072241,181.530659 C121.839529,181.790236 122.223395,182.174195 122.456107,181.912454 C130.457491,172.954866 138.454525,164.129231 147.337822,156.018515 C160.090231,144.373218 172.559906,132.411021 185.458032,120.925797 C192.711257,114.465562 200.62782,108.855442 207.912581,102.453612 C208.174654,102.223237 207.788613,101.841441 207.527627,102.070735" id="Fill-9" fill="#010202"></path>
                <path d="M122,182.266136 L122,193.733864 C122,194.08816 122.5,194.089264 122.5,193.733864 L122.5,182.266136 C122.5,181.91184 122,181.910736 122,182.266136" id="Fill-11" fill="#010202"></path>
                <path d="M108.912993,193.544836 C80.3669205,168.131167 54.5580244,139.839025 26.271708,114.149768 C18.2365975,106.853225 9.995847,99.7866998 1.47694145,93.0630304 C1.20636257,92.8492878 0.819975926,93.2301185 1.09380176,93.4471161 C31.1129053,117.13891 57.3135997,145.095791 84.7037588,171.679077 C92.5018423,179.247952 100.412486,186.700733 108.529853,193.928922 C108.789609,194.158939 109.173831,193.777023 108.912993,193.544836" id="Fill-13" fill="#010202"></path>
                <g id="Group-17" transform="translate(0.000000, 1.000000)">
                    <mask id="mask-2" fill="white">
                        <use xlink:href="#path-1"></use>
                    </mask>
                    <g id="Clip-16"></g>
                    <path d="M0.466483696,92.3708442 C26.272125,69.1522047 52.6470163,46.4223558 77.6692663,22.349414 C84.6885815,15.5961 91.5045163,8.63623953 97.9717989,1.34763488 C98.2020815,1.0881 97.8232989,0.705286047 97.5919402,0.965902326 C86.3199293,13.6668907 73.9750598,25.325414 61.4268098,36.7352163 C48.4319837,48.5527047 35.342462,60.2663791 22.2852228,72.0146581 C14.8860489,78.6728093 7.48579891,85.3309605 0.085548913,91.9880302 C-0.172711957,92.2205302 0.209298913,92.6022628 0.466483696,92.3708442" id="Fill-15" fill="#010202" mask="url(#mask-2)"></path>
                </g>
                <path d="M109.5,193.733864 L109.5,182.266136 C109.5,181.91184 109,181.910736 109,182.266136 L109,193.733864 C109,194.08816 109.5,194.089264 109.5,193.733864" id="Fill-18" fill="#010202"></path>
                <path d="M107.913354,182.54379 C82.9660652,160.18891 61.132607,134.671383 36.5873464,111.907718 C29.1363568,104.997514 21.4277675,98.3786773 13.4745124,92.0631682 C13.2050566,91.848991 12.8213517,92.2305961 13.0929631,92.4469477 C39.3918415,113.334116 61.6822967,138.228681 85.383622,161.917548 C92.5834789,169.114771 99.952554,176.136956 107.531805,182.928656 C107.790482,183.159141 108.173109,182.777536 107.913354,182.54379" id="Fill-20" fill="#010202"></path>
                <path d="M13.4723731,91.9291454 C19.7762628,86.3882552 26.7260919,81.6509725 32.9984459,76.0657379 C39.6427044,70.1484609 46.2151918,64.1716974 52.6745855,58.0554112 C63.1575072,48.1265859 74.3037673,38.8120932 84.3604126,28.4517209 C89.383298,23.278565 94.1277987,17.8425872 98.927759,12.4693406 C99.1604711,12.2097634 98.7766048,11.8258056 98.5438926,12.0875459 C90.542509,21.0451201 82.5454752,29.8707425 73.6621777,37.9814463 C60.9097687,49.6267254 48.4400941,61.5899865 35.5419681,73.075193 C28.2887432,79.5343373 20.3721799,85.1444481 13.0874193,91.5462691 C12.8253463,91.7777254 13.2113875,92.1584385 13.4723731,91.9291454" id="Fill-22" fill="#010202"></path>
                <path d="M99.5,11.733459 L99.5,0.266127243 C99.5,-0.0881570217 99,-0.0892607109 99,0.266127243 L99,11.733459 C99,12.088847 99.5,12.088847 99.5,11.733459" id="Fill-24" fill="#010202"></path>
            </g>
        </g>
    </g>
</svg>