<?xml version="1.0" encoding="utf-8"?>
<!-- Generator: Adobe Illustrator 19.0.1, SVG Export Plug-In . SVG Version: 6.00 Build 0)  -->
<svg version="1.1" id="Layer_1" xmlns="http://www.w3.org/2000/svg" xmlns:xlink="http://www.w3.org/1999/xlink" x="0px" y="0px"
	 viewBox="0 0 2110.7 1252.8" style="enable-background:new 0 0 2110.7 1252.8;" xml:space="preserve">
<style type="text/css">
	.st0{fill:#FFFFFF;}
</style>
<g id="YbB8e5.tif">
	<g>
		<path d="M56.8,1071.9c4.3-6.1,10.3-7.5,17.4-7.5c63,0.1,126,0.1,189,0.1c2.1,0,4.2,0,6.7,0c0-2.1,0-3.6,0-5.1
			c-0.1-311.3,0-622.6-0.4-933.9c0-30,20.1-52.9,41.4-60c5.8-1.9,12-2.4,18.1-3.4c1.5-0.3,3-0.1,4.5-0.1c468.1,0,936.3,0,1404.4,0
			c26.8,0,46.4,12.1,58.1,35.8c3.5,7.1,4,15.6,5.8,23.5c0.4,1.6,0.1,3.3,0.1,5c0,307.3-0.1,614.6-0.1,922c0,5.2,0,10.3,0,16.3
			c2.2,0,4.3,0,6.4,0c63.2,0,126.3,0,189.5,0c3.1,0,6.5,0.1,9.3,1.1c5.8,2,8.7,6.7,8.7,12.7c0.1,12.5,0.2,25,0,37.5
			c-0.1,8.1-5.2,13.1-13.5,13.9c-1.7,0.2-3.3,0.1-5,0.1c-641,0-1281.9,0-1922.9,0.1c-7.3,0-13.6-1.3-17.6-8
			C56.8,1105.2,56.8,1088.5,56.8,1071.9z M1795.8,1063.9c0-4.2,0-7.9,0-11.5c0.1-176.5,0.1-353,0.2-529.5c0-131.8,0-263.6-0.1-395.5
			c0-7.1-0.6-14.5-2.8-21.1c-8-24.5-28.9-38.4-56.4-38.4c-467.1,0-934.3,0-1401.4,0c-2.3,0-4.8-0.4-7,0.2c-7.7,1.9-16,2.8-22.8,6.5
			c-20.4,11.2-29.9,28.9-29.9,52.5c0.2,290.3,0.1,580.6,0.1,870.9c0,20.2,0.1,40.3,0.2,60.5c0,1.8,0.2,3.5,0.2,5.3
			C782.8,1063.9,1288.9,1063.9,1795.8,1063.9z M892.5,1070.7c-2.1,0-4.1,0-6,0c-235-0.1-470-0.2-705-0.3c-36.2,0-72.3,0-108.5,0
			c-9,0-11.1,2.3-11.2,11.3c0,9.8,0,19.7,0,29.5c0,10.6,2,12.5,12.5,12.5c641,0,1282,0,1923,0c1.7,0,3.3,0.1,5-0.1
			c4.6-0.6,7.4-3.2,7.5-7.9c0.1-12.5,0.2-25,0-37.5c-0.1-4.6-2.8-7.3-7.6-7.7c-2-0.1-4-0.2-6-0.2c-68,0.1-136,0.2-204,0.2
			c-201.3,0-402.7,0-604,0c-2.3,0-4.6,0-7.4,0c0,3.8,0.1,7.1,0,10.4c-0.4,8.3-4.5,14.2-12.4,17c-2.9,1-6.2,1.2-9.3,1.2
			c-81.5,0.1-163,0-244.5,0c-1.5,0-3,0-4.5-0.1c-8.3-0.7-14.8-6.1-16.4-14.3C892.8,1080.6,892.9,1076,892.5,1070.7z M899.4,1071
			c-2,14.1,0.6,22.7,18.9,22.6c79.6-0.5,159.3-0.2,238.9-0.2c2.2,0,4.3,0,6.5-0.2c5.8-0.7,10.4-4.8,11-10.5
			c0.4-3.7,0.1-7.6,0.1-11.6C1082.8,1071,991.2,1071,899.4,1071z"/>
		<path class="st0" d="M1795.8,1063.9c-506.8,0-1012.9,0-1519.7,0c-0.1-1.8-0.2-3.6-0.2-5.3c-0.1-20.2-0.2-40.3-0.2-60.5
			c0-290.3,0-580.6-0.1-870.9c0-23.6,9.5-41.3,29.9-52.5c6.8-3.7,15.1-4.6,22.8-6.5c2.2-0.5,4.6-0.2,7-0.2c467.1,0,934.3,0,1401.4,0
			c27.5,0,48.4,13.9,56.4,38.4c2.2,6.7,2.8,14.1,2.8,21.1c0.2,131.8,0.1,263.6,0.1,395.5c0,176.5-0.1,353-0.2,529.5
			C1795.8,1056,1795.8,1059.6,1795.8,1063.9z M1743,123.2c-471.2,0-942.1,0-1413.3,0c0,293.9,0,587.6,0,881.5
			c471.3,0,942.2,0,1413.3,0C1743,710.7,1743,417,1743,123.2z M1028.3,88.4c-5.4,0.1-9.7,4.5-9.7,10c0.1,5.5,4.5,9.7,9.9,9.7
			c5.5-0.1,9.8-4.5,9.7-9.9C1038.2,92.6,1033.8,88.3,1028.3,88.4z"/>
		<path class="st0" d="M892.5,1070.7c0.4,5.3,0.3,9.8,1.2,14.2c1.6,8.2,8.2,13.6,16.4,14.3c1.5,0.1,3,0.1,4.5,0.1
			c81.5,0,163,0,244.5,0c3.1,0,6.4-0.1,9.3-1.2c7.9-2.8,11.9-8.7,12.4-17c0.2-3.3,0-6.6,0-10.4c2.8,0,5.1,0,7.4,0
			c201.3,0,402.7,0,604,0c68,0,136-0.2,204-0.2c2,0,4,0,6,0.2c4.7,0.3,7.5,3,7.6,7.7c0.2,12.5,0.1,25,0,37.5c0,4.7-2.9,7.3-7.5,7.9
			c-1.6,0.2-3.3,0.1-5,0.1c-641,0-1282,0-1923,0c-10.6,0-12.5-2-12.5-12.5c0-9.8,0-19.7,0-29.5c0-9,2.2-11.3,11.2-11.3
			c36.2,0,72.3,0,108.5,0c235,0.1,470,0.2,705,0.3C888.4,1070.7,890.4,1070.7,892.5,1070.7z"/>
		<path class="st0" d="M899.4,1071c91.8,0,183.4,0,275.3,0c0,4,0.3,7.9-0.1,11.6c-0.6,5.7-5.2,9.9-11,10.5c-2.1,0.2-4.3,0.2-6.5,0.2
			c-79.6,0-159.3-0.3-238.9,0.2C900,1093.7,897.4,1085.1,899.4,1071z"/>
		<path d="M1743,123.2c0,293.8,0,587.6,0,881.5c-471.2,0-942.1,0-1413.3,0c0-293.9,0-587.6,0-881.5
			C800.9,123.2,1271.8,123.2,1743,123.2z M1737,129.3c-467.3,0-934.4,0-1401.3,0c0,290,0,579.6,0,869.4c467.2,0,934.2,0,1401.3,0
			C1737,708.8,1737,419,1737,129.3z"/>
		<path d="M1028.3,88.4c5.5-0.1,9.9,4.2,10,9.7c0.1,5.5-4.2,9.9-9.7,9.9c-5.5,0.1-9.9-4.2-9.9-9.7
			C1018.6,92.9,1022.9,88.5,1028.3,88.4z M1028.9,104c1.6-3,3.1-4.7,2.9-6.1c-0.2-1.2-2.5-3.3-3.4-3.1c-1.5,0.4-3.4,2.3-3.5,3.6
			C1024.9,99.7,1026.8,101.2,1028.9,104z"/>
		<path class="st0" d="M1028.9,104c-2.1-2.8-4.1-4.3-4-5.6c0.1-1.4,2-3.3,3.5-3.6c0.9-0.2,3.3,1.9,3.4,3.1
			C1032.1,99.3,1030.5,100.9,1028.9,104z"/>
	</g>
</g>
</svg>
