<?xml version="1.0" encoding="utf-8"?>
<!-- Generator: Adobe Illustrator 19.0.1, SVG Export Plug-In . SVG Version: 6.00 Build 0)  -->
<svg version="1.1" id="Layer_1" xmlns="http://www.w3.org/2000/svg" xmlns:xlink="http://www.w3.org/1999/xlink" x="0px" y="0px"
	 viewBox="0 0 692 335" style="enable-background:new 0 0 692 335;" xml:space="preserve">
<style type="text/css">
	.st0{fill:#E96565;}
	.st1{fill:#F3ACAC;}
	.st2{fill:#EA6767;}
</style>
<g>
	<path class="st0" d="M544.3,336c-65.8,0-131.5,0-197.3,0c-1.9-7.9-3.9-15.8-5.7-23.7c-0.5-2.4-1.7-3.7-4-4.4
		c-9.4-2.7-18.7-5.5-28-8.4c-2-0.6-3.5,0-4.8,1.2c-7.2,6.7-14.3,13.5-21.4,20.3c-1.4,1.3-1.8,2.7-1.3,4.5c0.9,3.5,1.6,7,2.4,10.5
		c-66.4,0-132.8,0-199.2,0c-0.9-5.5-2.7-10.9-3.7-16.3c-0.6-3-2-4.5-4.9-5.3c-9-2.5-17.9-5.2-26.9-8c-2.2-0.7-3.9-0.2-5.5,1.3
		c-6.4,6.1-12.8,12.3-19.4,18.2c-2.7,2.5-4.2,4.9-2.7,8.5c0.2,0.5,0,1.1,0,1.6c-6.8,0-13.6,0-20.4,0c-1,0-1.4-0.2-1.2-1.2
		c0.1-0.3,0-0.6,0-1c0-111.3,0-222.6,0-333.8c7.2,0,14.4,0,21.6,0c-0.6,1.2-0.8,2.5-0.5,3.9c2.3,9.7,4.6,19.4,6.9,29.1
		c0.4,1.6,1.3,2.7,2.9,3.2c9.6,2.8,19.2,5.7,28.7,8.5c2,0.6,3.5,0.2,5-1.2c6-5.7,11.7-11.7,18.1-16.8c4.6-3.7,5.2-7.5,3.5-12.7
		c-1.5-4.5-2.5-9.2-3.2-14c66.4,0,132.8,0,199.2,0c0,0.2-0.1,0.5,0,0.7c2,8.7,4,17.4,6.1,26.1c0.4,1.6,1.6,2.3,3,2.8
		c9.2,2.7,18.4,5.4,27.6,8.3c2.7,0.8,4.6,0.2,6.7-1.7c6.3-6.2,12.8-12.3,19.4-18.2c2.3-2.1,3-4,2.2-6.9c-1-3.6-1.7-7.3-2.5-11
		C411,0,477,0,542.9,0c0,0.4-0.1,0.8,0,1.2c2,8.5,4,17,6,25.4c0.4,1.8,1.7,2.6,3.4,3.1c9.1,2.7,18.2,5.4,27.3,8.2
		c2.6,0.8,4.5,0.3,6.5-1.6c6.4-6.2,12.9-12.4,19.6-18.4c2.3-2.1,3-4,2.2-6.9c-1-3.6-1.7-7.3-2.5-11c28,0,56,0,84.1,0
		c1.8,0,2.4,0.2,2.4,2.3c-0.2,9.3-0.1,18.7-0.1,28c-6.5,5.5-12.6,11.6-18.7,17.5c-1.4,1.4-1.3,3-0.9,4.7c2.2,9.5,4.5,19,6.7,28.4
		c0.3,1.3,0.7,2.6,2.1,3c3.6,1.2,7.1,2.5,10.8,3c0,17.6,0,35.2,0,52.8c-6.5,5.6-12.6,11.5-18.7,17.5c-1.2,1.2-1.3,2.6-1,4.2
		c2.3,9.7,4.6,19.4,6.9,29.1c0.3,1.3,0.9,2.5,2.2,2.9c3.5,1,6.9,2.5,10.6,2.9c0,17.6,0,35.2,0,52.8c-6.5,5.5-12.6,11.6-18.7,17.5
		c-1.4,1.4-1.3,3-0.9,4.7c2.2,9.5,4.5,19,6.7,28.4c0.3,1.3,0.7,2.6,2.1,3c3.6,1.2,7.1,2.5,10.8,3c0,9.5,0,19,0,28.6
		c0,1.4-0.3,1.7-1.7,1.7c-27.6-0.1-55.2,0-82.8,0c-1.9-7.9-3.9-15.8-5.7-23.7c-0.5-2.3-1.5-3.7-3.8-4.3c-9.5-2.8-19-5.6-28.5-8.5
		c-1.9-0.6-3.3,0.1-4.6,1.3c-7.1,6.7-14.1,13.4-21.3,20.1c-1.5,1.4-1.9,3-1.4,5C542.8,329.1,543.5,332.6,544.3,336z M478.1,177
		c0-0.1-0.1-0.7-0.3-1.3c-2.2-9.2-4.4-18.3-6.4-27.5c-0.5-2.4-1.6-3.7-4-4.4c-9.2-2.7-18.4-5.4-27.6-8.3c-2.2-0.7-3.9-0.2-5.5,1.2
		c-6.9,6.5-13.8,13.1-20.7,19.6c-1.8,1.7-2.3,3.4-1.7,5.8c2.3,9.3,4.5,18.6,6.6,28c0.5,2.1,1.7,3.2,3.7,3.9
		c9.1,2.7,18.2,5.4,27.3,8.2c2.4,0.7,4.2,0.3,6.1-1.4c6.9-6.6,13.8-13,20.8-19.5C477.6,180.2,478.2,179,478.1,177z M348,122.3
		c0-0.2-0.1-0.9-0.3-1.6c-2.1-9.1-4.4-18.2-6.4-27.3c-0.5-2.4-1.6-3.8-4-4.5c-9.2-2.7-18.4-5.4-27.6-8.3c-2.3-0.7-4-0.2-5.7,1.4
		c-6.8,6.4-13.5,12.9-20.4,19.3c-2,1.8-2.5,3.7-1.8,6.2c2.3,9.2,4.5,18.5,6.6,27.7c0.5,2.1,1.6,3.3,3.7,3.9c9,2.7,18.1,5.3,27.1,8.1
		c2.6,0.8,4.5,0.4,6.5-1.5c6.8-6.5,13.7-12.9,20.6-19.4C347.5,125.5,348.1,124.4,348,122.3z M218,293.7c-0.1-0.6-0.2-1.3-0.4-1.9
		c-2.2-9.2-4.4-18.3-6.4-27.5c-0.5-2.4-1.6-3.8-4-4.4c-9.4-2.7-18.7-5.5-28-8.4c-2-0.6-3.6,0-5,1.4c-6.9,6.5-13.8,13.1-20.7,19.6
		c-1.8,1.7-2.3,3.4-1.7,5.8c2.3,9.3,4.5,18.6,6.6,28c0.5,2.1,1.7,3.2,3.7,3.8c9,2.6,18.1,5.3,27.1,8.1c2.6,0.8,4.5,0.4,6.5-1.5
		c6.7-6.5,13.6-12.8,20.5-19.2C217.3,296.5,218.1,295.3,218,293.7z M218,74.9c-0.1-0.7-0.3-1.4-0.4-2.1c-2.1-9-4.4-18-6.3-27.1
		c-0.6-2.6-1.7-4-4.3-4.8c-9.3-2.7-18.5-5.5-27.8-8.3c-2-0.6-3.6,0-5,1.3c-6.9,6.5-13.8,13.1-20.7,19.6c-1.8,1.7-2.3,3.4-1.7,5.8
		c2.3,9.3,4.5,18.6,6.6,28c0.5,2.1,1.6,3.3,3.7,3.9c9,2.6,18.1,5.3,27.1,8.1c2.6,0.8,4.5,0.4,6.5-1.5c6.7-6.5,13.6-12.8,20.5-19.2
		C217.3,77.6,218.1,76.5,218,74.9z M608.2,231.7c0-0.1-0.1-0.8-0.3-1.5c-2.2-9.4-4.4-18.8-6.6-28.2c-0.4-2-1.6-2.9-3.5-3.5
		c-9.3-2.8-18.5-5.5-27.8-8.4c-2.2-0.7-4-0.2-5.7,1.3c-6.8,6.4-13.5,12.9-20.4,19.2c-1.9,1.8-2.5,3.6-1.9,6.2
		c2.3,9.2,4.5,18.5,6.6,27.7c0.5,2.1,1.6,3.3,3.7,3.9c9.1,2.7,18.2,5.4,27.3,8.2c2.5,0.8,4.4,0.3,6.3-1.5
		c6.7-6.5,13.6-12.8,20.5-19.2C607.5,235.1,608.3,234,608.2,231.7z M478.1,286.6c0-0.2-0.1-0.9-0.3-1.6c-2.2-9.4-4.4-18.8-6.6-28.2
		c-0.5-2-1.6-2.9-3.5-3.5c-9.3-2.7-18.5-5.5-27.8-8.4c-2.3-0.7-4-0.3-5.7,1.3c-6.8,6.5-13.7,13-20.6,19.4c-1.8,1.7-2.4,3.4-1.8,5.8
		c2.3,9.4,4.5,18.8,6.7,28.2c0.4,1.9,1.5,3.1,3.4,3.6c9.3,2.8,18.7,5.6,28,8.4c2.1,0.6,3.8,0.3,5.5-1.3c7-6.7,14.1-13.2,21.2-19.8
		C477.6,289.6,478.2,288.5,478.1,286.6z M217.9,183.8c-0.1-0.2-0.2-1-0.4-1.8c-2.2-9.3-4.3-18.5-6.5-27.8c-0.4-1.9-1.4-3.1-3.3-3.6
		c-9.6-2.8-19.1-5.7-28.7-8.6c-1.9-0.6-3.5,0.1-4.8,1.4c-6.9,6.5-13.8,13.1-20.7,19.6c-1.8,1.7-2.3,3.4-1.7,5.8
		c2.3,9.4,4.5,18.8,6.7,28.2c0.4,1.9,1.5,3,3.4,3.6c9.3,2.8,18.7,5.6,28,8.4c2.1,0.6,3.8,0.2,5.5-1.3c7-6.7,14.1-13.2,21.1-19.8
		C217.5,186.8,218,185.7,217.9,183.8z M87.8,129.1c0-0.2-0.1-0.9-0.3-1.6c-2.2-9.4-4.4-18.8-6.6-28.2c-0.4-2-1.6-2.9-3.5-3.5
		c-9.3-2.7-18.5-5.5-27.8-8.4c-2.3-0.7-4-0.3-5.7,1.3c-6.8,6.5-13.7,13-20.6,19.4c-1.8,1.7-2.4,3.4-1.8,5.8
		c2.3,9.4,4.5,18.8,6.7,28.2c0.5,2,1.6,3.1,3.6,3.7c9.2,2.7,18.4,5.5,27.6,8.3c2.3,0.7,4.1,0.3,5.9-1.4c6.9-6.6,14-13.1,21-19.7
		C87.4,132.1,87.9,131.1,87.8,129.1z M608.2,122.3c-0.1-0.2-0.2-1-0.4-1.8c-2.1-8.8-4.3-17.5-6.1-26.4c-0.6-3.1-2-4.6-5-5.5
		c-9-2.5-17.9-5.3-26.9-8c-2.1-0.7-3.7-0.1-5.2,1.3c-6.9,6.5-13.8,13.1-20.8,19.6c-1.8,1.7-2.3,3.4-1.7,5.8c2.3,9.3,4.5,18.6,6.6,28
		c0.5,2.1,1.6,3.3,3.7,3.9c9.1,2.7,18.2,5.4,27.3,8.2c2.4,0.7,4.2,0.4,6.1-1.4c6.9-6.6,14-13.1,21-19.7
		C607.7,125.4,608.3,124.3,608.2,122.3z M478.1,67.7c0-0.2-0.1-0.9-0.3-1.6c-2.2-9.4-4.4-18.8-6.6-28.2c-0.5-2-1.6-2.9-3.5-3.5
		c-9.3-2.7-18.5-5.5-27.8-8.4c-2.3-0.7-4-0.3-5.7,1.3c-6.8,6.5-13.7,13-20.6,19.4c-1.8,1.7-2.4,3.4-1.8,5.8
		c2.3,9.4,4.5,18.8,6.7,28.2c0.4,1.9,1.5,3.1,3.4,3.6c9.3,2.8,18.7,5.6,28,8.4c2.1,0.6,3.8,0.3,5.5-1.3c7-6.7,14.1-13.2,21.2-19.8
		C477.6,70.7,478.2,69.6,478.1,67.7z M348,231.7c0-0.1-0.1-0.7-0.3-1.3c-2.2-9.2-4.4-18.3-6.4-27.5c-0.5-2.4-1.6-3.7-4-4.4
		c-9.2-2.7-18.4-5.4-27.6-8.3c-2.2-0.7-3.9-0.2-5.5,1.3c-6.9,6.5-13.8,13.1-20.7,19.6c-1.7,1.6-2.3,3.3-1.7,5.6
		c2.3,9.5,4.5,19,6.7,28.4c0.4,1.8,1.4,2.9,3.2,3.5c9.3,2.8,18.7,5.5,28,8.4c2.3,0.7,4.1,0.2,5.9-1.5c6.9-6.6,13.8-13,20.8-19.5
		C347.5,234.9,348.1,233.7,348,231.7z M87.8,238.4c0-0.1-0.1-0.8-0.3-1.5c-2.1-9.1-4.4-18.2-6.4-27.3c-0.5-2.4-1.6-3.8-4-4.5
		c-9.3-2.7-18.5-5.5-27.8-8.3c-2.1-0.7-3.7-0.1-5.2,1.3c-6.9,6.5-13.7,13-20.6,19.4c-1.9,1.8-2.5,3.7-1.8,6.2
		c2.3,9.2,4.5,18.5,6.6,27.7c0.5,2.1,1.6,3.3,3.7,3.9c9.1,2.7,18.2,5.4,27.3,8.2c2.5,0.8,4.4,0.3,6.3-1.6c6.7-6.4,13.5-12.7,20.3-19
		C87,241.9,88,240.7,87.8,238.4z"/>
	<path class="st1" d="M83.5,0c0.7,4.8,1.7,9.5,3.2,14c1.7,5.2,1.1,9-3.5,12.7c-6.4,5.2-12.1,11.1-18.1,16.8c-1.5,1.4-3,1.8-5,1.2
		c-9.6-2.9-19.1-5.7-28.7-8.5c-1.6-0.5-2.6-1.6-2.9-3.2c-2.3-9.7-4.6-19.4-6.9-29.1c-0.3-1.4-0.1-2.7,0.5-3.9C27,0,32,0,37,0
		c-0.5,1.1-1.4,1.8-2.2,2.4c-2,1.5-2.3,3.3-1.6,5.7c1.4,5.3,2.6,10.7,3.8,16.1c0.5,2.1,1.6,3.3,3.6,3.9c5.8,1.6,11.5,3.3,17.2,5.1
		c1.6,0.5,2.8,0,3.9-1c4.1-3.8,8.1-7.7,12.3-11.4c2.5-2.1,2.9-4.3,2-7.4C74.8,9.1,73.5,4.6,73,0C76.5,0,80,0,83.5,0z"/>
	<path class="st1" d="M345.1,0c0.8,3.7,1.5,7.4,2.5,11c0.8,2.9,0.1,4.9-2.2,6.9c-6.6,5.9-13,12-19.4,18.2c-2,2-4,2.6-6.7,1.7
		c-9.2-2.8-18.4-5.5-27.6-8.3c-1.5-0.4-2.7-1.2-3-2.8c-2-8.7-4.1-17.4-6.1-26.1c-0.1-0.2,0-0.5,0-0.7c3.5,0,7,0,10.6,0
		c0.7,6,2.7,11.6,3.8,17.5c0.4,2.1,1.6,3.3,3.7,3.9c5.8,1.6,11.5,3.4,17.2,5.1c1.4,0.4,2.5,0.2,3.5-0.7c4.7-4.3,9.3-8.7,14-13.1
		c1.2-1.1,1.5-2.3,1.1-3.9c-0.8-2.9-1.3-5.9-2-8.9C338.1,0,341.6,0,345.1,0z"/>
	<path class="st1" d="M605.3,0c0.8,3.7,1.5,7.4,2.5,11c0.8,2.9,0.1,4.9-2.2,6.9c-6.7,6-13.1,12.2-19.6,18.4c-2,1.9-3.9,2.4-6.5,1.6
		c-9.1-2.8-18.2-5.5-27.3-8.2c-1.6-0.5-2.9-1.3-3.4-3.1c-2-8.5-4-17-6-25.4c-0.1-0.4,0-0.8,0-1.2c3.5,0,7,0,10.6,0
		c0.8,6.4,2.8,12.6,4.2,18.9c0.3,1.1,1.2,1.9,2.3,2.2c6.1,1.8,12.2,3.6,18.3,5.5c1.2,0.4,2.2,0.2,3.1-0.7c4.9-4.5,9.7-9,14.5-13.6
		c1-0.9,1.1-2,0.8-3.3c-0.8-3-1.4-6.1-2-9.1C598.2,0,601.8,0,605.3,0z"/>
	<path class="st1" d="M284.2,336c-0.8-3.5-1.6-7-2.4-10.5c-0.4-1.8,0-3.3,1.3-4.5c7.1-6.7,14.3-13.5,21.4-20.3
		c1.3-1.3,2.9-1.8,4.8-1.2c9.3,2.9,18.6,5.7,28,8.4c2.4,0.7,3.5,2,4,4.4c1.8,7.9,3.8,15.8,5.7,23.7c-3.7,0-7.4,0-11,0
		c-0.9-5.8-2.5-11.5-3.9-17.2c-0.4-1.5-1.5-2.1-2.9-2.5c-5.9-1.7-11.8-3.5-17.7-5.3c-1.3-0.4-2.4-0.2-3.3,0.7
		c-4.8,4.5-9.5,8.9-14.3,13.4c-1.1,1-1.2,2.1-0.9,3.5c0.6,2.5,1.2,5,1.7,7.5C291.2,336,287.7,336,284.2,336z"/>
	<path class="st1" d="M544.3,336c-0.8-3.4-1.5-6.9-2.4-10.3c-0.5-2-0.1-3.5,1.4-5c7.1-6.7,14.2-13.4,21.3-20.1
		c1.3-1.2,2.7-1.9,4.6-1.3c9.5,2.9,19,5.7,28.5,8.5c2.3,0.7,3.3,2.1,3.8,4.3c1.8,7.9,3.8,15.8,5.7,23.7c-3.7,0-7.4,0-11,0
		c-0.8-5.5-2.4-10.7-3.5-16.1c-0.5-2.1-1.6-3.3-3.7-3.8c-5.5-1.5-10.9-3.1-16.3-4.8c-2-0.7-3.5-0.4-5,1c-4.5,4.3-9,8.6-13.5,12.8
		c-1.1,1-1.2,2.1-0.9,3.5c0.6,2.5,1.2,5,1.7,7.5C551.4,336,547.8,336,544.3,336z"/>
	<path class="st1" d="M22.1,336c0-0.6,0.1-1.2,0-1.6c-1.5-3.6,0-6.1,2.7-8.5c6.6-5.9,12.9-12.1,19.4-18.2c1.6-1.5,3.2-2,5.5-1.3
		c8.9,2.8,17.9,5.5,26.9,8c2.9,0.8,4.3,2.3,4.9,5.3c1,5.5,2.7,10.8,3.7,16.3c-3.5,0-7,0-10.6,0c-0.7-3.2-1.5-6.4-2.2-9.6
		c-0.4-1.9-1.5-3-3.4-3.5c-5.7-1.6-11.4-3.3-17-5.1c-1.7-0.5-2.9-0.3-4.1,0.9c-4.5,4.2-8.9,8.4-13.5,12.6c-1.5,1.4-1.9,2.9-1.1,4.7
		C29.4,336,25.8,336,22.1,336z"/>
	<path class="st1" d="M43.2,0c8.3,0,16.6,0,25,0c1.2,4.9,2.3,9.8,3.5,14.7c0.3,1.3,0.1,2.3-0.9,3.2c-3.6,3.3-7.1,6.7-10.6,10
		c-0.9,0.9-1.9,1-3.1,0.7c-4.6-1.4-9.2-2.8-13.8-4.1c-1.5-0.4-2.2-1.3-2.6-2.8c-1-4.4-2-8.9-3.1-13.3c-0.4-1.6,0-2.7,1.1-3.8
		C40.2,3,42.2,2,43.2,0z"/>
	<path class="st1" d="M691.7,86.9c-3.7-0.5-7.2-1.9-10.8-3c-1.4-0.4-1.8-1.7-2.1-3c-2.2-9.5-4.5-19-6.7-28.4
		c-0.4-1.7-0.5-3.3,0.9-4.7c6.2-5.9,12.2-11.9,18.7-17.5c0,4.8,0,9.6,0,14.4c-2.7,1.9-4.9,4.3-7.3,6.5c-1.3,1.2-1.5,2.5-1.1,4.1
		c1.3,5.4,2.7,10.8,3.8,16.3c0.6,2.7,1.8,4.4,4.6,4.8C691.7,79.8,691.7,83.4,691.7,86.9z"/>
	<path class="st1" d="M691.7,305.8c-3.7-0.5-7.2-1.9-10.8-3c-1.4-0.4-1.8-1.7-2.1-3c-2.2-9.5-4.5-19-6.7-28.4
		c-0.4-1.7-0.5-3.3,0.9-4.7c6.2-5.9,12.2-11.9,18.7-17.5c0,4.8,0,9.6,0,14.4c-2.7,1.9-4.9,4.3-7.3,6.5c-1.3,1.2-1.5,2.5-1.1,4.1
		c1.3,5.4,2.7,10.8,3.8,16.3c0.6,2.7,1.8,4.4,4.6,4.8C691.7,298.7,691.7,302.2,691.7,305.8z"/>
	<path class="st1" d="M691.7,196.3c-3.7-0.5-7.1-1.9-10.6-2.9c-1.4-0.4-1.9-1.6-2.2-2.9c-2.3-9.7-4.6-19.4-6.9-29.1
		c-0.4-1.6-0.3-3,1-4.2c6.1-5.9,12.2-11.9,18.7-17.5c0,4.8,0,9.6,0,14.4c-2.7,1.9-4.9,4.3-7.3,6.5c-1.3,1.2-1.5,2.5-1.1,4.1
		c1.3,5.4,2.7,10.8,3.8,16.3c0.6,2.7,1.8,4.4,4.6,4.8C691.7,189.3,691.7,192.8,691.7,196.3z"/>
	<path class="st1" d="M297.6,0c10.9,0,21.8,0,32.6,0c0,2.7,1,5.2,1.6,7.7c0.3,1.4,0.2,2.4-0.9,3.4c-3.6,3.3-7.1,6.7-10.6,10.1
		c-0.8,0.8-1.7,1.1-2.8,0.7c-4.7-1.4-9.5-2.8-14.2-4.3c-1.1-0.3-1.9-0.9-2.1-2C300,10.4,298.8,5.2,297.6,0z"/>
	<path class="st1" d="M557.8,0c10.9,0,21.8,0,32.6,0c0,2.7,1,5.2,1.6,7.7c0.3,1.4,0.2,2.4-0.9,3.4c-3.6,3.3-7.1,6.7-10.6,10.1
		c-0.8,0.8-1.7,1.1-2.8,0.7c-4.7-1.4-9.5-2.8-14.2-4.2c-1.1-0.3-1.9-0.9-2.1-2C560.1,10.4,558.9,5.2,557.8,0z"/>
	<path class="st1" d="M591.8,336c-10.9,0-21.8,0-32.6,0c-0.1-2.1-0.7-4.1-1.2-6.1c-0.4-1.5-0.1-2.6,1-3.6c3.4-3.2,6.8-6.5,10.2-9.7
		c0.9-0.8,1.7-1.2,3-0.8c4.7,1.5,9.5,2.9,14.2,4.3c1.2,0.4,1.9,1,2.2,2.2C589.7,326.8,590.8,331.4,591.8,336z"/>
	<path class="st1" d="M331.7,336c-10.9,0-21.8,0-32.6,0c-0.1-2.1-0.7-4.1-1.2-6.1c-0.4-1.5-0.1-2.6,1-3.6c3.4-3.2,6.8-6.5,10.2-9.7
		c0.9-0.8,1.7-1.2,3-0.8c4.7,1.5,9.5,2.9,14.2,4.3c1.2,0.4,1.9,1,2.2,2.2C329.6,326.8,330.6,331.4,331.7,336z"/>
	<path class="st2" d="M43.2,0c-1,2-3,3-4.4,4.6c-1.1,1.2-1.5,2.2-1.1,3.8c1.1,4.4,2.1,8.8,3.1,13.3c0.3,1.5,1.1,2.4,2.6,2.8
		c4.6,1.3,9.2,2.7,13.8,4.1c1.2,0.4,2.2,0.2,3.1-0.7c3.5-3.4,7-6.7,10.6-10c1-0.9,1.2-1.9,0.9-3.2C70.4,9.8,69.3,4.9,68.2,0
		c1.6,0,3.2,0,4.8,0c0.5,4.6,1.8,9.1,3,13.5c0.9,3.1,0.4,5.2-2,7.4c-4.2,3.6-8.2,7.5-12.3,11.4c-1.1,1.1-2.3,1.5-3.9,1
		c-5.7-1.8-11.5-3.5-17.2-5.1c-2.1-0.6-3.2-1.8-3.6-3.9c-1.2-5.4-2.4-10.7-3.8-16.1c-0.6-2.4-0.4-4.2,1.6-5.7
		C35.6,1.8,36.5,1.1,37,0C39,0,41.1,0,43.2,0z"/>
	<path class="st2" d="M297.6,0c1.2,5.2,2.4,10.4,3.5,15.6c0.3,1.1,1.1,1.7,2.1,2c4.7,1.4,9.5,2.8,14.2,4.3c1.1,0.3,2,0.1,2.8-0.7
		c3.5-3.4,7-6.7,10.6-10.1c1.1-1,1.2-2,0.9-3.4c-0.6-2.6-1.6-5-1.6-7.7c1.4,0,2.9,0,4.3,0c0.7,3,1.2,5.9,2,8.9
		c0.4,1.6,0.1,2.8-1.1,3.9c-4.7,4.3-9.3,8.7-14,13.1c-1,0.9-2.1,1.2-3.5,0.7c-5.7-1.8-11.5-3.5-17.2-5.1c-2.1-0.6-3.2-1.8-3.7-3.9
		C296,11.6,294,6,293.3,0C294.7,0,296.2,0,297.6,0z"/>
	<path class="st2" d="M557.8,0c1.2,5.2,2.4,10.4,3.5,15.6c0.3,1.1,1.1,1.7,2.1,2c4.7,1.4,9.5,2.8,14.2,4.2c1.1,0.3,2,0.1,2.8-0.7
		c3.5-3.4,7.1-6.7,10.6-10.1c1.1-1,1.2-2,0.9-3.4c-0.6-2.6-1.6-5-1.6-7.7c1.4,0,2.9,0,4.3,0c0.7,3,1.3,6.1,2,9.1
		c0.3,1.3,0.1,2.4-0.8,3.3c-4.8,4.5-9.7,9.1-14.5,13.6c-0.9,0.8-1.9,1-3.1,0.7c-6.1-1.8-12.2-3.7-18.3-5.5c-1.2-0.3-2.1-1.1-2.3-2.2
		c-1.4-6.3-3.4-12.5-4.2-18.9C554.9,0,556.3,0,557.8,0z"/>
	<path class="st1" d="M70.1,336c-10.9,0-21.8,0-32.6,0c-0.2-1.2,0.4-2.1,1.2-2.9c3.4-3.2,6.9-6.5,10.3-9.7c1-0.9,1.9-1.2,3.3-0.8
		c4.4,1.4,8.9,2.7,13.3,4c1.9,0.5,2.8,1.6,3.1,3.5C69,332,69.6,334,70.1,336z"/>
	<path class="st2" d="M591.8,336c-1.1-4.6-2.1-9.2-3.2-13.7c-0.3-1.2-1-1.9-2.2-2.2c-4.7-1.4-9.5-2.8-14.2-4.3c-1.3-0.4-2.2,0-3,0.8
		c-3.4,3.2-6.8,6.5-10.2,9.7c-1.1,1-1.5,2.1-1,3.6c0.5,2,1.1,4,1.2,6.1c-1.4,0-2.9,0-4.3,0c-0.6-2.5-1.1-5-1.7-7.5
		c-0.3-1.4-0.1-2.5,0.9-3.5c4.5-4.3,9-8.6,13.5-12.8c1.5-1.4,3-1.6,5-1c5.4,1.8,10.8,3.3,16.3,4.8c2.1,0.6,3.3,1.7,3.7,3.8
		c1.1,5.4,2.8,10.6,3.5,16.1C594.7,336,593.3,336,591.8,336z"/>
	<path class="st2" d="M331.7,336c-1.1-4.6-2.1-9.2-3.2-13.7c-0.3-1.2-1-1.9-2.2-2.2c-4.7-1.4-9.5-2.8-14.2-4.3c-1.3-0.4-2.2,0-3,0.8
		c-3.4,3.2-6.8,6.5-10.2,9.7c-1.1,1-1.5,2.1-1,3.6c0.5,2,1.1,4,1.2,6.1c-1.4,0-2.9,0-4.3,0c-0.6-2.5-1.1-5-1.7-7.5
		c-0.3-1.3-0.2-2.5,0.9-3.5c4.8-4.5,9.5-8.9,14.3-13.4c0.9-0.9,2-1.1,3.3-0.7c5.9,1.8,11.8,3.5,17.7,5.3c1.4,0.4,2.5,1,2.9,2.5
		c1.4,5.7,3,11.4,3.9,17.2C334.6,336,333.1,336,331.7,336z"/>
	<path class="st2" d="M70.1,336c-0.5-2-1-4-1.4-6.1c-0.4-1.8-1.2-2.9-3.1-3.5c-4.5-1.2-8.9-2.6-13.3-4c-1.3-0.4-2.3-0.1-3.3,0.8
		c-3.4,3.3-6.8,6.5-10.3,9.7c-0.9,0.8-1.4,1.7-1.2,2.9c-1.4,0-2.9,0-4.3,0c-0.9-1.8-0.4-3.3,1.1-4.7c4.5-4.2,9-8.4,13.5-12.6
		c1.2-1.2,2.5-1.4,4.1-0.9c5.6,1.8,11.3,3.5,17,5.1c1.9,0.5,3,1.6,3.4,3.5c0.7,3.2,1.4,6.4,2.2,9.6C73,336,71.5,336,70.1,336z"/>
	<path class="st2" d="M691.7,295.2c-2.8-0.4-4-2.1-4.6-4.8c-1.1-5.5-2.5-10.9-3.8-16.3c-0.4-1.6-0.2-2.9,1.1-4.1
		c2.4-2.2,4.6-4.6,7.3-6.5c0,1.9,0,3.8,0,5.8c-1.5,1.5-4.3,2.5-3.7,5.1c1.1,5.1,1.9,10.2,3.7,15.1
		C691.7,291.4,691.7,293.3,691.7,295.2z"/>
	<path class="st2" d="M691.7,76.3c-2.8-0.4-4-2.1-4.6-4.8c-1.1-5.5-2.5-10.9-3.8-16.3c-0.4-1.6-0.2-2.9,1.1-4.1
		c2.4-2.2,4.6-4.6,7.3-6.5c0,1.9,0,3.8,0,5.8c-1.5,1.5-4.3,2.5-3.7,5.1c1.1,5.1,1.9,10.2,3.7,15.1C691.7,72.5,691.7,74.4,691.7,76.3
		z"/>
	<path class="st2" d="M691.7,185.8c-2.8-0.4-4-2.1-4.6-4.8c-1.1-5.5-2.5-10.9-3.8-16.3c-0.4-1.6-0.2-2.9,1.1-4.1
		c2.4-2.2,4.6-4.6,7.3-6.5c0,1.9,0,3.8,0,5.8c-0.7,0.6-1.3,1.1-2,1.7c-1,1-2.2,1.9-1.8,3.6c1.3,5.1,2.5,10.2,3.8,15.3
		C691.7,182.2,691.7,184,691.7,185.8z"/>
	<path class="st1" d="M691.7,180.5c-1.3-5.1-2.5-10.2-3.8-15.3c-0.4-1.7,0.8-2.6,1.8-3.6c0.6-0.6,1.3-1.2,2-1.7
		C691.7,166.7,691.7,173.6,691.7,180.5z"/>
	<path class="st1" d="M691.7,289.4c-1.8-4.9-2.7-10-3.7-15.1c-0.6-2.6,2.2-3.6,3.7-5.1C691.7,276,691.7,282.7,691.7,289.4z"/>
	<path class="st1" d="M691.7,70.6c-1.8-4.9-2.7-10-3.7-15.1c-0.6-2.6,2.2-3.6,3.7-5.1C691.7,57.1,691.7,63.8,691.7,70.6z"/>
	<path class="st1" d="M478.1,177c0.1,2-0.5,3.1-1.6,4.1c-7,6.5-13.9,13-20.8,19.5c-1.8,1.8-3.7,2.2-6.1,1.4
		c-9.1-2.8-18.2-5.5-27.3-8.2c-2.1-0.6-3.3-1.7-3.7-3.9c-2.2-9.3-4.4-18.7-6.6-28c-0.6-2.4-0.1-4.1,1.7-5.8c7-6.5,13.8-13,20.7-19.6
		c1.6-1.5,3.3-1.9,5.5-1.2c9.2,2.8,18.3,5.6,27.6,8.3c2.4,0.7,3.5,2,4,4.4c2,9.2,4.3,18.4,6.4,27.5C478,176.3,478.1,176.9,478.1,177
		z M466.9,174.3c-0.1-0.4-0.2-0.9-0.3-1.4c-1.4-5.8-2.8-11.6-4.1-17.5c-0.4-1.9-1.5-2.9-3.3-3.4c-5.8-1.7-11.6-3.4-17.4-5.2
		c-1.4-0.4-2.5-0.3-3.5,0.7c-4.7,4.4-9.4,8.8-14.2,13.3c-1,1-1.3,2.1-1,3.5c1.4,6,2.8,12,4.2,17.9c0.4,1.5,1.2,2.6,2.7,3.1
		c6,1.8,12.1,3.6,18.1,5.4c1.4,0.4,2.5,0.1,3.5-0.8c4.6-4.3,9.2-8.6,13.8-12.9C466.2,176.3,466.9,175.4,466.9,174.3z"/>
	<path class="st1" d="M348,122.3c0.1,2-0.5,3.1-1.6,4.1c-6.9,6.4-13.8,12.8-20.6,19.4c-2,1.9-3.9,2.3-6.5,1.5
		c-9-2.8-18-5.5-27.1-8.1c-2.1-0.6-3.2-1.8-3.7-3.9c-2.1-9.3-4.3-18.5-6.6-27.7c-0.6-2.5-0.1-4.4,1.8-6.2
		c6.9-6.3,13.6-12.8,20.4-19.3c1.6-1.6,3.3-2.1,5.7-1.4c9.2,2.9,18.3,5.6,27.6,8.3c2.4,0.7,3.4,2.1,4,4.5c2,9.1,4.2,18.2,6.4,27.3
		C347.9,121.5,348,122.2,348,122.3z M318.8,136.2c1.3,0,2.1-0.4,2.7-1c4.7-4.4,9.3-8.7,14-13.1c1.1-1,1.5-2.1,1.1-3.7
		c-1.5-5.9-2.8-11.8-4.2-17.7c-0.4-1.9-1.6-3-3.5-3.5c-5.8-1.6-11.5-3.4-17.2-5.1c-1.4-0.4-2.5-0.3-3.5,0.7
		c-4.7,4.4-9.4,8.8-14.2,13.2c-1.1,1-1.3,2.2-1,3.7c1.4,5.8,2.8,11.6,4.1,17.5c0.4,1.9,1.5,3,3.4,3.6c4.2,1.2,8.4,2.5,12.6,3.7
		C315.2,135.1,317.1,135.7,318.8,136.2z"/>
	<path class="st1" d="M218,293.7c0.1,1.6-0.7,2.7-1.8,3.8c-6.8,6.4-13.7,12.7-20.5,19.2c-2,1.9-3.9,2.3-6.5,1.5
		c-9-2.8-18-5.5-27.1-8.1c-2.1-0.6-3.3-1.7-3.7-3.8c-2.2-9.3-4.4-18.7-6.6-28c-0.6-2.4-0.1-4.1,1.7-5.8c7-6.5,13.8-13.1,20.7-19.6
		c1.4-1.3,3-2,5-1.4c9.3,2.8,18.7,5.7,28,8.4c2.4,0.7,3.5,2,4,4.4c2,9.2,4.3,18.4,6.4,27.5C217.8,292.5,217.9,293.1,218,293.7z
		 M206.7,290.5c0-0.2-0.1-0.4-0.1-0.7c-1.5-6.2-3-12.4-4.4-18.6c-0.4-1.7-1.5-2.5-3.1-3c-5.9-1.7-11.8-3.5-17.7-5.3
		c-1.4-0.4-2.5,0-3.5,0.9c-4.6,4.3-9.2,8.6-13.8,12.9c-1.3,1.2-1.5,2.5-1.1,4.1c1.4,5.6,2.7,11.2,4,16.8c0.5,2.2,1.6,3.5,3.8,4.1
		c5.8,1.6,11.5,3.4,17.2,5.1c1.4,0.4,2.5,0.1,3.5-0.8c4.7-4.4,9.3-8.7,14-13.1C206.2,292.3,206.7,291.5,206.7,290.5z"/>
	<path class="st1" d="M218,74.9c0,1.6-0.8,2.7-1.9,3.8c-6.8,6.4-13.7,12.7-20.5,19.2c-2,1.9-3.9,2.3-6.5,1.5c-9-2.8-18-5.5-27.1-8.1
		c-2.1-0.6-3.2-1.8-3.7-3.9c-2.2-9.3-4.4-18.7-6.6-28c-0.6-2.4-0.1-4.1,1.7-5.8c7-6.5,13.8-13.1,20.7-19.6c1.4-1.3,3-2,5-1.3
		c9.2,2.8,18.5,5.6,27.8,8.3c2.6,0.7,3.7,2.2,4.3,4.8c2,9.1,4.2,18.1,6.3,27.1C217.8,73.5,217.9,74.2,218,74.9z M206.7,71
		c-1.5-6.2-3.1-12.9-4.8-19.5c-0.3-1.3-1.5-1.7-2.7-2.1c-5.9-1.7-11.8-3.5-17.7-5.3c-1.5-0.5-2.6,0-3.7,1
		c-4.5,4.3-9.1,8.5-13.7,12.7c-1.3,1.2-1.6,2.4-1.2,4.1c1.4,5.7,2.8,11.3,4,17c0.5,2.1,1.6,3.4,3.6,4c5.8,1.6,11.5,3.4,17.2,5.1
		c1.4,0.4,2.5,0.2,3.5-0.7c4.7-4.4,9.5-8.8,14.2-13.2C206.3,73.3,206.8,72.5,206.7,71z"/>
	<path class="st1" d="M608.2,231.7c0.1,2.2-0.7,3.4-1.8,4.4c-6.8,6.4-13.7,12.7-20.5,19.2c-1.9,1.8-3.8,2.3-6.3,1.5
		c-9.1-2.8-18.2-5.5-27.3-8.2c-2.1-0.6-3.2-1.8-3.7-3.9c-2.1-9.3-4.3-18.5-6.6-27.7c-0.6-2.5,0-4.4,1.9-6.2
		c6.9-6.3,13.6-12.8,20.4-19.2c1.7-1.6,3.5-2,5.7-1.3c9.2,2.8,18.5,5.6,27.8,8.4c1.9,0.6,3,1.5,3.5,3.5c2.2,9.4,4.4,18.8,6.6,28.2
		C608,231,608.1,231.7,608.2,231.7z M579.2,245.7c1,0,1.7-0.4,2.3-0.9c4.7-4.4,9.5-8.8,14.2-13.2c1-0.9,1.4-2,1.1-3.4
		c-1.5-5.9-2.8-11.8-4.2-17.7c-0.5-2-1.6-3.1-3.6-3.7c-5.7-1.6-11.3-3.3-17-5c-1.6-0.5-2.8-0.3-3.9,0.8c-4.6,4.4-9.3,8.7-14,13.1
		c-1.1,1-1.3,2.1-1,3.5c1.4,5.9,2.8,11.8,4.2,17.7c0.4,1.8,1.4,2.9,3.2,3.5c5.7,1.7,11.5,3.4,17.2,5.1
		C578.3,245.5,578.8,245.6,579.2,245.7z"/>
	<path class="st1" d="M478.1,286.6c0.1,1.9-0.5,3-1.5,3.9c-7.1,6.6-14.1,13.2-21.2,19.8c-1.6,1.6-3.3,1.9-5.5,1.3
		c-9.3-2.8-18.7-5.6-28-8.4c-1.9-0.6-2.9-1.7-3.4-3.6c-2.2-9.4-4.4-18.8-6.7-28.2c-0.6-2.4,0-4.1,1.8-5.8
		c6.9-6.4,13.7-12.9,20.6-19.4c1.6-1.6,3.4-2,5.7-1.3c9.2,2.9,18.5,5.6,27.8,8.4c1.9,0.5,3,1.5,3.5,3.5c2.2,9.4,4.4,18.8,6.6,28.2
		C477.9,285.7,478.1,286.4,478.1,286.6z M440.6,256c-1.1,0-1.9,0.5-2.6,1.2c-4.5,4.3-9.1,8.5-13.7,12.7c-1.3,1.2-1.6,2.5-1.2,4.3
		c1.4,5.6,2.7,11.2,4,16.8c0.5,2.2,1.7,3.5,3.8,4.1c5.7,1.6,11.3,3.3,17,5c1.4,0.4,2.5,0.3,3.6-0.6c4.7-4.4,9.5-8.8,14.2-13.2
		c0.9-0.9,1.4-1.8,1.1-3.2c-1.5-6.1-2.9-12.3-4.4-18.4c-0.4-1.6-1.3-2.6-3-3.1c-5.4-1.6-10.7-3.2-16.1-4.8
		C442.4,256.5,441.5,256.2,440.6,256z"/>
	<path class="st1" d="M217.9,183.8c0.1,1.9-0.5,3-1.4,3.9c-7.1,6.6-14.1,13.2-21.1,19.8c-1.6,1.5-3.3,2-5.5,1.3
		c-9.3-2.8-18.7-5.6-28-8.4c-1.9-0.6-3-1.7-3.4-3.6c-2.2-9.4-4.4-18.8-6.7-28.2c-0.6-2.4,0-4.1,1.7-5.8c7-6.5,13.8-13.1,20.7-19.6
		c1.3-1.3,2.9-2,4.8-1.4c9.6,2.9,19.1,5.8,28.7,8.6c1.9,0.6,2.9,1.7,3.3,3.6c2.1,9.3,4.3,18.5,6.5,27.8
		C217.7,182.8,217.9,183.6,217.9,183.8z M206.7,181.1c0-0.2-0.1-0.4-0.1-0.7c-1.5-6.3-3-12.6-4.5-18.9c-0.4-1.6-1.5-2.3-3-2.8
		c-5.7-1.7-11.5-3.4-17.2-5.1c-1.6-0.5-2.9-0.3-4.2,0.9c-4.6,4.4-9.3,8.8-14,13.1c-1.1,1-1.2,2.2-0.9,3.5c1.4,5.8,2.8,11.6,4.1,17.5
		c0.4,1.9,1.5,3.1,3.4,3.6c5.8,1.7,11.6,3.4,17.4,5.2c1.4,0.4,2.5,0.2,3.5-0.7c4.7-4.4,9.3-8.7,14-13.1
		C206.1,182.9,206.7,182.2,206.7,181.1z"/>
	<path class="st1" d="M87.8,129.1c0.1,1.9-0.5,3-1.5,3.9c-7,6.5-14,13.1-21,19.7c-1.8,1.7-3.6,2.1-5.9,1.4
		c-9.2-2.8-18.4-5.6-27.6-8.3c-2-0.6-3.1-1.7-3.6-3.7c-2.2-9.4-4.4-18.8-6.7-28.2c-0.6-2.4,0-4.1,1.8-5.8
		c6.9-6.4,13.7-12.9,20.6-19.4c1.7-1.6,3.4-2,5.7-1.3c9.2,2.9,18.5,5.6,27.8,8.4c1.9,0.5,3,1.5,3.5,3.5c2.2,9.4,4.4,18.8,6.6,28.2
		C87.7,128.3,87.8,129,87.8,129.1z M76.7,126.3c0-0.2-0.1-0.4-0.1-0.7c-1.5-6.2-3-12.4-4.4-18.6c-0.4-1.8-1.7-2.5-3.4-3
		c-5.5-1.6-11.1-3.1-16.5-5c-2.1-0.7-3.6-0.3-5,1.1c-4.5,4.2-8.9,8.5-13.4,12.7c-1,1-1.3,2.1-1,3.5c1.4,5.9,2.8,11.8,4.2,17.7
		c0.4,1.8,1.4,2.9,3.2,3.5c5.9,1.7,11.8,3.5,17.7,5.3c1.3,0.4,2.4,0.2,3.3-0.7c4.8-4.5,9.6-8.9,14.3-13.4
		C76.2,128,76.6,127.2,76.7,126.3z"/>
	<path class="st1" d="M608.2,122.3c0.1,1.9-0.4,3-1.4,3.9c-7,6.5-14,13.1-21,19.7c-1.9,1.8-3.7,2.1-6.1,1.4
		c-9.1-2.8-18.2-5.5-27.3-8.2c-2.1-0.6-3.2-1.8-3.7-3.9c-2.2-9.3-4.4-18.7-6.6-28c-0.6-2.4-0.1-4.1,1.7-5.8
		c7-6.5,13.8-13.1,20.8-19.6c1.5-1.4,3.1-1.9,5.2-1.3c8.9,2.8,17.9,5.5,26.9,8c3,0.8,4.4,2.4,5,5.5c1.8,8.8,4.1,17.6,6.1,26.4
		C608,121.3,608.1,122.1,608.2,122.3z M570.6,91.8c-1.1,0.1-1.8,0.5-2.5,1.1c-4.8,4.5-9.5,9-14.3,13.5c-0.9,0.9-1,2-0.7,3.1
		c1.4,6,2.8,12,4.2,17.9c0.4,1.6,1.3,2.7,2.9,3.2c6,1.8,11.9,3.5,17.9,5.4c1.4,0.4,2.5,0.1,3.5-0.8c4.7-4.4,9.3-8.7,14-13.1
		c1.1-1,1.4-2.1,1.1-3.7c-1.5-5.9-2.9-11.8-4.2-17.7c-0.4-1.9-1.6-3-3.5-3.5c-3.4-0.9-6.7-2-10.1-3
		C576.2,93.4,573.3,92.6,570.6,91.8z"/>
	<path class="st1" d="M478.1,67.7c0.1,1.9-0.5,3-1.5,3.9c-7.1,6.6-14.1,13.2-21.2,19.8c-1.6,1.6-3.3,1.9-5.5,1.3
		c-9.3-2.8-18.7-5.6-28-8.4c-1.9-0.6-2.9-1.7-3.4-3.6c-2.2-9.4-4.4-18.8-6.7-28.2c-0.6-2.4,0-4.1,1.8-5.8
		c6.9-6.4,13.7-12.9,20.6-19.4c1.6-1.6,3.4-2,5.7-1.3c9.2,2.9,18.5,5.6,27.8,8.4c1.9,0.5,3,1.5,3.5,3.5c2.2,9.4,4.4,18.8,6.6,28.2
		C478,66.8,478.1,67.5,478.1,67.7z M466.9,64.9c0-0.2-0.1-0.4-0.1-0.7c-1.5-6.2-3-12.4-4.4-18.6c-0.4-1.7-1.5-2.5-3.1-3
		c-5.9-1.7-11.8-3.5-17.7-5.3c-1.4-0.4-2.5-0.1-3.5,0.9c-4.6,4.3-9.2,8.6-13.8,12.9c-1.3,1.2-1.5,2.4-1.1,4.1c1.4,5.7,2.8,11.3,4,17
		c0.5,2.1,1.6,3.3,3.7,3.9c5.8,1.6,11.5,3.4,17.2,5.1c1.4,0.4,2.5,0.2,3.5-0.8c4.7-4.4,9.3-8.7,14-13.1
		C466.3,66.7,466.8,66,466.9,64.9z"/>
	<path class="st1" d="M348,231.7c0.1,2-0.5,3.1-1.6,4.1c-7,6.5-13.9,13-20.8,19.5c-1.8,1.7-3.5,2.2-5.9,1.5
		c-9.3-2.8-18.7-5.6-28-8.4c-1.8-0.5-2.8-1.7-3.2-3.5c-2.2-9.5-4.4-19-6.7-28.4c-0.6-2.3,0-4,1.7-5.6c7-6.5,13.8-13.1,20.7-19.6
		c1.6-1.5,3.3-1.9,5.5-1.3c9.2,2.8,18.3,5.6,27.6,8.3c2.4,0.7,3.5,2,4,4.4c2,9.2,4.3,18.4,6.4,27.5C347.9,231,348,231.6,348,231.7z
		 M310.6,201.3c-1.1,0-1.9,0.5-2.5,1.1c-4.7,4.4-9.4,8.8-14.2,13.3c-1.2,1.1-1.2,2.3-0.8,3.7c1.4,5.7,2.7,11.3,4,17
		c0.5,2.1,1.6,3.3,3.7,3.9c5.8,1.6,11.5,3.4,17.2,5.1c1.4,0.4,2.5,0.2,3.5-0.7c4.7-4.4,9.3-8.7,14-13.1c1.1-1,1.5-2.1,1.1-3.6
		c-1.5-6-2.9-11.9-4.3-17.9c-0.4-1.7-1.4-2.7-3.1-3.2c-3.7-1-7.3-2.2-11-3.3C315.6,202.8,313,202,310.6,201.3z"/>
	<path class="st1" d="M87.8,238.4c0.2,2.3-0.8,3.5-1.9,4.5c-6.8,6.3-13.6,12.6-20.3,19c-1.9,1.8-3.8,2.3-6.3,1.6
		c-9.1-2.8-18.2-5.5-27.3-8.2c-2.1-0.6-3.2-1.8-3.7-3.9c-2.1-9.3-4.3-18.5-6.6-27.7c-0.6-2.5-0.1-4.4,1.8-6.2
		c6.9-6.4,13.7-12.9,20.6-19.4c1.5-1.4,3.1-1.9,5.2-1.3c9.2,2.9,18.5,5.6,27.8,8.3c2.4,0.7,3.5,2.1,4,4.5c2,9.1,4.2,18.2,6.4,27.3
		C87.7,237.6,87.8,238.3,87.8,238.4z M50.4,208c-1.3,0-2.1,0.7-2.9,1.4c-4.6,4.3-9.2,8.7-13.8,13c-1.1,1-1.2,2.2-0.9,3.5
		c1.4,5.8,2.8,11.6,4.1,17.5c0.4,1.9,1.5,3.1,3.4,3.6c5.8,1.7,11.7,3.4,17.5,5.2c1.4,0.4,2.5,0.2,3.5-0.8c4.7-4.4,9.3-8.7,14-13.1
		c1.1-1,1.5-2.1,1.1-3.7c-1.5-6-2.9-12.1-4.3-18.2c-0.4-1.8-1.5-2.5-3.1-2.9c-5.4-1.6-10.7-3.2-16.1-4.8
		C52,208.5,51.1,208.2,50.4,208z"/>
	<path class="st2" d="M466.9,174.3c0,1.2-0.6,2-1.4,2.7c-4.6,4.3-9.2,8.6-13.8,12.9c-1,0.9-2.1,1.3-3.5,0.8
		c-6-1.8-12.1-3.6-18.1-5.4c-1.5-0.5-2.3-1.6-2.7-3.1c-1.4-6-2.8-12-4.2-17.9c-0.3-1.4,0-2.5,1-3.5c4.7-4.4,9.5-8.8,14.2-13.3
		c1-1,2.1-1.1,3.5-0.7c5.8,1.8,11.6,3.5,17.4,5.2c1.8,0.5,2.8,1.5,3.3,3.4c1.3,5.8,2.7,11.7,4.1,17.5
		C466.7,173.4,466.8,173.8,466.9,174.3z M447.8,186.1c1.4,0.2,2-0.2,2.5-0.7c3.6-3.4,7.2-6.8,10.8-10.2c0.9-0.9,1.2-1.8,0.8-3
		c-1.1-4.5-2.2-9-3.2-13.5c-0.4-1.5-1.1-2.5-2.7-3c-4.6-1.3-9.2-2.7-13.8-4.1c-1.3-0.4-2.2,0-3,0.8c-3.5,3.3-6.9,6.6-10.4,9.9
		c-1.1,1-1.3,2.1-0.9,3.5c0.7,2.8,1.7,5.6,1.9,8.4c0.4,5.8,3.4,8.5,8.9,9.4C442.1,184.1,445.2,185.4,447.8,186.1z"/>
	<path class="st2" d="M318.8,136.2c-1.6-0.5-3.6-1.1-5.6-1.7c-4.2-1.3-8.4-2.5-12.6-3.7c-1.9-0.5-3-1.7-3.4-3.6
		c-1.3-5.8-2.7-11.7-4.1-17.5c-0.4-1.5-0.1-2.6,1-3.7c4.7-4.4,9.5-8.8,14.2-13.2c1-1,2.2-1.1,3.5-0.7c5.7,1.8,11.5,3.5,17.2,5.1
		c1.9,0.5,3,1.6,3.5,3.5c1.4,5.9,2.7,11.8,4.2,17.7c0.4,1.5,0,2.6-1.1,3.7c-4.7,4.4-9.3,8.7-14,13.1
		C320.9,135.8,320.1,136.2,318.8,136.2z M318.1,131.5c1,0,1.5-0.2,1.9-0.6c3.8-3.6,7.5-7.1,11.3-10.7c0.8-0.7,0.9-1.6,0.6-2.6
		c-1.1-4.6-2.2-9.2-3.3-13.8c-0.4-1.6-1.2-2.4-2.8-2.9c-4.5-1.3-9.1-2.6-13.5-4c-1.3-0.4-2.3-0.1-3.2,0.8c-3.3,3.2-6.7,6.4-10.1,9.6
		c-1.2,1.1-1.6,2.2-1.1,3.8c0.7,2.6,1.6,5.3,1.8,7.9c0.4,6,3.5,9,9.4,9.9C312.2,129.4,315.3,130.7,318.1,131.5z"/>
	<path class="st2" d="M206.7,290.5c0,1.1-0.6,1.8-1.3,2.5c-4.7,4.4-9.3,8.7-14,13.1c-1,0.9-2.1,1.2-3.5,0.8
		c-5.7-1.7-11.5-3.5-17.2-5.1c-2.2-0.6-3.3-1.9-3.8-4.1c-1.2-5.6-2.6-11.2-4-16.8c-0.4-1.6-0.2-2.9,1.1-4.1
		c4.6-4.3,9.2-8.6,13.8-12.9c1-0.9,2-1.3,3.5-0.9c5.9,1.8,11.8,3.6,17.7,5.3c1.6,0.5,2.7,1.3,3.1,3c1.5,6.2,3,12.4,4.4,18.6
		C206.7,290,206.7,290.3,206.7,290.5z M187.8,302.3c1.2,0.2,1.9-0.3,2.5-0.9c3.5-3.4,7.1-6.7,10.6-10.1c0.9-0.8,1.2-1.7,0.9-3
		c-1.1-4.6-2.2-9.2-3.2-13.8c-0.4-1.6-1.3-2.4-2.8-2.9c-4.5-1.3-9-2.6-13.5-4c-1.2-0.4-2.2-0.2-3.1,0.7c-3.5,3.4-7.1,6.7-10.6,10.1
		c-1,0.9-1.2,2-0.8,3.3c0.7,2.7,1.7,5.4,1.9,8.2c0.4,6.2,3.7,9,9.6,9.9C182.2,300.4,185.2,301.6,187.8,302.3z"/>
	<path class="st2" d="M206.7,71c0.1,1.5-0.4,2.3-1.2,3c-4.7,4.4-9.4,8.8-14.2,13.2c-1,1-2.2,1.1-3.5,0.7c-5.7-1.8-11.5-3.5-17.2-5.1
		c-2.1-0.6-3.2-1.8-3.6-4c-1.3-5.7-2.6-11.4-4-17c-0.4-1.7-0.1-2.9,1.2-4.1c4.6-4.2,9.1-8.5,13.7-12.7c1.1-1,2.1-1.5,3.7-1
		c5.9,1.8,11.8,3.5,17.7,5.3c1.2,0.4,2.4,0.8,2.7,2.1C203.6,58.1,205.2,64.8,206.7,71z M187.6,83.4c1.4,0.2,2-0.2,2.6-0.7
		c3.6-3.4,7.2-6.8,10.8-10.2c0.9-0.9,1.1-1.7,0.8-3c-1.1-4.6-2.2-9.2-3.2-13.8c-0.3-1.5-1.1-2.3-2.6-2.8c-4.6-1.3-9.2-2.7-13.8-4.1
		c-1.2-0.4-2.2-0.1-3.1,0.7c-3.5,3.3-6.9,6.6-10.4,9.9c-1.1,1-1.3,2-1,3.4c1.1,4.5,2.2,9,3.2,13.5c0.3,1.5,1.2,2.3,2.6,2.8
		c3.9,1.1,7.8,2.3,11.7,3.5C186.2,83,187.2,83.3,187.6,83.4z"/>
	<path class="st2" d="M579.2,245.7c-0.4-0.1-0.9-0.2-1.5-0.4c-5.7-1.7-11.5-3.4-17.2-5.1c-1.8-0.5-2.8-1.7-3.2-3.5
		c-1.4-5.9-2.8-11.8-4.2-17.7c-0.3-1.4-0.1-2.5,1-3.5c4.7-4.4,9.3-8.7,14-13.1c1.2-1.1,2.4-1.3,3.9-0.8c5.6,1.8,11.3,3.5,17,5
		c2,0.6,3.1,1.7,3.6,3.7c1.3,5.9,2.7,11.8,4.2,17.7c0.4,1.4-0.1,2.5-1.1,3.4c-4.7,4.4-9.4,8.8-14.2,13.2
		C580.9,245.3,580.2,245.6,579.2,245.7z M578.1,240.9c1.2,0.1,1.8-0.3,2.3-0.8c3.6-3.4,7.2-6.8,10.8-10.2c0.8-0.8,1.2-1.6,0.9-2.8
		c-1.2-4.7-2.3-9.3-3.3-14c-0.3-1.5-1.2-2.3-2.6-2.7c-4.6-1.3-9.2-2.7-13.8-4.1c-1.2-0.4-2.2-0.1-3,0.8c-3.5,3.3-6.9,6.6-10.4,9.9
		c-1.1,1-1.3,2.1-0.9,3.4c0.7,2.8,1.3,5.6,2,8.4c2.2,9,0.2,6.5,8.9,9.4C572,239.2,575.3,240.1,578.1,240.9z"/>
	<path class="st2" d="M440.6,256c0.9,0.3,1.8,0.5,2.7,0.8c5.4,1.6,10.7,3.2,16.1,4.8c1.6,0.5,2.6,1.4,3,3.1
		c1.4,6.1,2.9,12.3,4.4,18.4c0.3,1.4-0.2,2.3-1.1,3.2c-4.7,4.4-9.4,8.8-14.2,13.2c-1,1-2.2,1.1-3.6,0.6c-5.6-1.7-11.3-3.4-17-5
		c-2.2-0.6-3.3-1.9-3.8-4.1c-1.2-5.6-2.6-11.2-4-16.8c-0.4-1.8-0.1-3.1,1.2-4.3c4.6-4.2,9.1-8.5,13.7-12.7
		C438.7,256.5,439.5,256,440.6,256z M448,295.6c1.3,0.1,1.9-0.3,2.5-0.9c3.5-3.3,6.9-6.6,10.4-9.9c1-1,1.4-1.9,1-3.4
		c-1.1-4.4-2.2-8.8-3.2-13.3c-0.4-1.7-1.2-2.6-2.9-3.1c-4.5-1.3-9.1-2.6-13.6-4c-1.2-0.4-2.2-0.2-3.1,0.7c-3.5,3.3-6.9,6.6-10.4,9.9
		c-1,1-1.4,2-1,3.4c0.7,2.6,1.7,5.3,1.8,7.9c0.4,6.4,3.9,9.3,9.9,10.2C442.6,293.7,445.4,294.9,448,295.6z"/>
	<path class="st2" d="M206.7,181.1c-0.1,1.1-0.6,1.8-1.3,2.5c-4.7,4.4-9.3,8.7-14,13.1c-1,0.9-2.2,1.2-3.5,0.7
		c-5.8-1.8-11.6-3.5-17.4-5.2c-1.9-0.5-2.9-1.7-3.4-3.6c-1.3-5.8-2.7-11.7-4.1-17.5c-0.3-1.3-0.2-2.5,0.9-3.5
		c4.7-4.4,9.3-8.7,14-13.1c1.2-1.2,2.5-1.4,4.2-0.9c5.7,1.8,11.5,3.5,17.2,5.1c1.5,0.4,2.6,1.2,3,2.8c1.5,6.3,3,12.6,4.5,18.9
		C206.7,180.7,206.7,180.9,206.7,181.1z M187.7,192.9c1.4,0.2,2-0.2,2.5-0.7c3.6-3.4,7.2-6.8,10.8-10.2c0.9-0.9,1.2-1.8,0.8-3
		c-1.1-4.5-2.2-9-3.2-13.5c-0.4-1.5-1.1-2.5-2.7-3c-4.6-1.3-9.2-2.7-13.8-4.1c-1.3-0.4-2.2-0.1-3,0.8c-3.4,3.2-6.8,6.5-10.3,9.7
		c-1.1,1-1.5,2.1-1.1,3.6c0.8,2.8,1.8,5.6,1.9,8.4c0.4,5.8,3.4,8.5,8.9,9.4C181.9,190.8,185.1,192.1,187.7,192.9z"/>
	<path class="st2" d="M76.7,126.3c0,1-0.4,1.7-1.1,2.4c-4.8,4.5-9.6,9-14.3,13.4c-0.9,0.9-2,1.1-3.3,0.7c-5.9-1.8-11.8-3.5-17.7-5.3
		c-1.8-0.5-2.8-1.7-3.2-3.5c-1.4-5.9-2.8-11.8-4.2-17.7c-0.3-1.4-0.1-2.5,1-3.5c4.5-4.2,8.9-8.5,13.4-12.7c1.4-1.4,2.9-1.8,5-1.1
		c5.5,1.8,11,3.4,16.5,5c1.6,0.5,2.9,1.2,3.4,3c1.5,6.2,3,12.4,4.4,18.6C76.6,125.8,76.6,126.1,76.7,126.3z M57.9,138.2
		c1.1,0,1.7-0.2,2.1-0.7c3.7-3.5,7.3-6.9,11-10.4c0.8-0.8,1.1-1.6,0.8-2.8c-1.1-4.6-2.2-9.2-3.3-13.8c-0.4-1.6-1.2-2.5-2.8-2.9
		c-4.5-1.3-9.1-2.6-13.5-4c-1.3-0.4-2.3-0.1-3.3,0.8c-3.4,3.3-6.8,6.5-10.3,9.7c-1.1,1.1-1.4,2.2-1,3.7c0.7,2.7,1.7,5.4,1.9,8.2
		c0.5,5.8,3.3,8.8,9.1,9.6C51.9,136.1,55.1,137.4,57.9,138.2z"/>
	<path class="st2" d="M570.6,91.8c2.7,0.8,5.5,1.6,8.4,2.4c3.4,1,6.7,2.1,10.1,3c1.9,0.5,3,1.6,3.5,3.5c1.3,5.9,2.7,11.8,4.2,17.7
		c0.4,1.5,0,2.7-1.1,3.7c-4.7,4.4-9.3,8.7-14,13.1c-1,0.9-2.1,1.2-3.5,0.8c-6-1.8-11.9-3.6-17.9-5.4c-1.6-0.5-2.5-1.6-2.9-3.2
		c-1.4-6-2.8-12-4.2-17.9c-0.3-1.2-0.2-2.2,0.7-3.1c4.8-4.5,9.5-9,14.3-13.5C568.8,92.3,569.5,91.9,570.6,91.8z M578,131.5
		c1.2,0.1,1.8-0.2,2.4-0.7c3.6-3.4,7.2-6.8,10.8-10.2c0.9-0.9,1.2-1.8,0.9-3c-1.1-4.5-2.2-9-3.2-13.5c-0.4-1.5-1.1-2.5-2.7-3
		c-4.6-1.3-9.2-2.7-13.8-4.1c-1.3-0.4-2.2-0.1-3,0.8c-3.5,3.3-6.9,6.6-10.4,9.9c-1.1,1-1.3,2.1-0.9,3.5c0.7,2.7,1.7,5.4,1.9,8.2
		c0.4,5.9,3.4,8.9,9.2,9.7C572.3,129.4,575.4,130.7,578,131.5z"/>
	<path class="st2" d="M466.9,64.9c-0.1,1.1-0.6,1.8-1.3,2.5c-4.7,4.4-9.3,8.7-14,13.1c-1,0.9-2.1,1.2-3.5,0.8
		c-5.7-1.7-11.5-3.5-17.2-5.1c-2.1-0.6-3.2-1.8-3.7-3.9c-1.3-5.7-2.6-11.4-4-17c-0.4-1.7-0.1-2.9,1.1-4.1c4.6-4.3,9.2-8.6,13.8-12.9
		c1-0.9,2.1-1.3,3.5-0.9c5.9,1.8,11.8,3.6,17.7,5.3c1.6,0.5,2.7,1.3,3.1,3c1.5,6.2,3,12.4,4.4,18.6
		C466.8,64.5,466.9,64.7,466.9,64.9z M448.1,76.8c1.2,0.1,1.8-0.4,2.3-0.9c3.5-3.4,7.1-6.7,10.6-10.1c0.9-0.8,1.3-1.7,1-3
		c-1.2-4.6-2.2-9.2-3.3-13.8c-0.4-1.6-1.2-2.4-2.8-2.9c-4.5-1.3-9.1-2.6-13.6-4c-1.2-0.4-2.2-0.2-3.1,0.7
		c-3.5,3.4-7.1,6.7-10.6,10.1c-1,0.9-1.2,2-0.9,3.2c0.7,2.7,1.7,5.4,1.9,8.2c0.4,6.2,3.7,9.1,9.6,10C442.5,74.8,445.5,76,448.1,76.8
		z"/>
	<path class="st2" d="M310.6,201.3c2.4,0.7,5,1.5,7.6,2.3c3.7,1.1,7.3,2.2,11,3.3c1.7,0.5,2.7,1.5,3.1,3.2c1.4,6,2.8,12,4.3,17.9
		c0.4,1.5-0.1,2.6-1.1,3.6c-4.7,4.4-9.3,8.7-14,13.1c-1,0.9-2.1,1.2-3.5,0.7c-5.7-1.8-11.5-3.5-17.2-5.1c-2.1-0.6-3.2-1.8-3.7-3.9
		c-1.3-5.7-2.6-11.4-4-17c-0.3-1.4-0.3-2.7,0.8-3.7c4.7-4.4,9.4-8.8,14.2-13.3C308.7,201.8,309.4,201.3,310.6,201.3z M317.7,240.9
		c1.4,0.2,2-0.2,2.5-0.7c3.6-3.4,7.2-6.8,10.8-10.2c0.9-0.8,1.2-1.7,0.9-3c-1.1-4.5-2.2-9-3.2-13.5c-0.4-1.7-1.3-2.6-2.9-3.1
		c-4.5-1.3-9.1-2.6-13.6-4c-1.2-0.4-2.2-0.1-3,0.7c-3.5,3.3-6.9,6.6-10.4,9.9c-1.1,1-1.3,2-1,3.4c1.1,4.5,2.2,9,3.2,13.5
		c0.3,1.5,1.2,2.3,2.6,2.7c3.9,1.1,7.8,2.3,11.7,3.5C316.3,240.4,317.3,240.7,317.7,240.9z"/>
	<path class="st2" d="M50.4,208c0.8,0.2,1.7,0.5,2.6,0.8c5.4,1.6,10.7,3.2,16.1,4.8c1.6,0.5,2.7,1.2,3.1,2.9
		c1.4,6.1,2.8,12.1,4.3,18.2c0.4,1.5,0,2.6-1.1,3.7c-4.7,4.4-9.3,8.7-14,13.1c-1,0.9-2.1,1.2-3.5,0.8c-5.8-1.8-11.6-3.5-17.5-5.2
		c-1.9-0.5-3-1.7-3.4-3.6c-1.3-5.8-2.7-11.7-4.1-17.5c-0.3-1.3-0.2-2.5,0.9-3.5c4.6-4.3,9.2-8.7,13.8-13
		C48.2,208.7,49.1,208,50.4,208z M57.8,247.6c1.2,0.2,1.9-0.3,2.5-0.9c3.5-3.4,7.1-6.7,10.6-10.1c1-0.9,1.2-1.9,0.9-3.2
		c-1.1-4.4-2.2-8.8-3.2-13.3c-0.4-1.6-1.2-2.6-2.9-3.1c-4.5-1.3-9.1-2.6-13.6-4c-1.2-0.4-2.2-0.2-3.1,0.7
		c-3.5,3.4-7.1,6.7-10.6,10.1c-1,0.9-1.2,2-0.8,3.3c0.7,2.6,1.7,5.3,1.8,7.9c0.4,6.4,3.9,9.3,9.9,10.2
		C52.3,245.7,55.2,246.9,57.8,247.6z"/>
	<path class="st1" d="M447.8,186.1c-2.6-0.8-5.8-2.1-9.1-2.6c-5.6-0.9-8.5-3.6-8.9-9.4c-0.2-2.8-1.2-5.6-1.9-8.4
		c-0.4-1.4-0.2-2.5,0.9-3.5c3.5-3.3,7-6.6,10.4-9.9c0.9-0.8,1.8-1.2,3-0.8c4.6,1.4,9.2,2.8,13.8,4.1c1.6,0.5,2.4,1.4,2.7,3
		c1,4.5,2.1,9,3.2,13.5c0.3,1.2,0.1,2.2-0.8,3c-3.6,3.4-7.2,6.8-10.8,10.2C449.8,185.9,449.2,186.3,447.8,186.1z"/>
	<path class="st1" d="M318.1,131.5c-2.8-0.8-5.8-2.1-9-2.6c-5.8-0.9-9-3.9-9.4-9.9c-0.2-2.7-1.1-5.3-1.8-7.9c-0.5-1.6,0-2.7,1.1-3.8
		c3.4-3.1,6.7-6.4,10.1-9.6c0.9-0.9,1.9-1.2,3.2-0.8c4.5,1.4,9,2.8,13.5,4c1.6,0.4,2.4,1.3,2.8,2.9c1,4.6,2.1,9.2,3.3,13.8
		c0.3,1,0.2,1.9-0.6,2.6c-3.8,3.6-7.5,7.1-11.3,10.7C319.6,131.3,319.1,131.5,318.1,131.5z"/>
	<path class="st1" d="M187.8,302.3c-2.7-0.8-5.6-2-8.6-2.5c-5.9-0.9-9.2-3.8-9.6-9.9c-0.2-2.8-1.2-5.5-1.9-8.2
		c-0.3-1.3-0.2-2.3,0.8-3.3c3.6-3.3,7.1-6.7,10.6-10.1c0.9-0.9,1.8-1.1,3.1-0.7c4.5,1.4,9,2.7,13.5,4c1.5,0.4,2.5,1.3,2.8,2.9
		c1,4.6,2.1,9.2,3.2,13.8c0.3,1.3,0,2.1-0.9,3c-3.6,3.3-7.1,6.7-10.6,10.1C189.7,302.1,189.1,302.5,187.8,302.3z"/>
	<path class="st1" d="M187.6,83.4c-0.4-0.1-1.4-0.4-2.4-0.7c-3.9-1.2-7.8-2.3-11.7-3.5c-1.5-0.4-2.3-1.2-2.6-2.8
		c-1-4.5-2.1-9-3.2-13.5c-0.4-1.4-0.1-2.5,1-3.4c3.5-3.3,7-6.6,10.4-9.9c0.9-0.8,1.8-1.1,3.1-0.7c4.6,1.4,9.2,2.8,13.8,4.1
		c1.5,0.4,2.3,1.3,2.6,2.8c1,4.6,2.1,9.2,3.2,13.8c0.3,1.3,0.1,2.1-0.8,3c-3.6,3.4-7.2,6.8-10.8,10.2
		C189.6,83.3,189,83.6,187.6,83.4z"/>
	<path class="st1" d="M578.1,240.9c-2.9-0.8-6.1-1.7-9.3-2.8c-8.7-2.8-6.7-0.4-8.9-9.4c-0.7-2.8-1.3-5.6-2-8.4
		c-0.4-1.4-0.1-2.5,0.9-3.4c3.5-3.3,7-6.6,10.4-9.9c0.9-0.8,1.8-1.1,3-0.8c4.6,1.4,9.2,2.8,13.8,4.1c1.5,0.4,2.3,1.2,2.6,2.7
		c1.1,4.7,2.2,9.3,3.3,14c0.3,1.2-0.1,2-0.9,2.8c-3.6,3.4-7.2,6.8-10.8,10.2C579.9,240.7,579.3,241,578.1,240.9z"/>
	<path class="st1" d="M448,295.6c-2.6-0.7-5.4-1.9-8.4-2.4c-6-0.9-9.5-3.8-9.9-10.2c-0.2-2.7-1.1-5.3-1.8-7.9c-0.4-1.4,0-2.5,1-3.4
		c3.5-3.3,7-6.6,10.4-9.9c0.9-0.8,1.8-1.1,3.1-0.7c4.5,1.4,9,2.8,13.6,4c1.7,0.5,2.5,1.4,2.9,3.1c1,4.4,2,8.9,3.2,13.3
		c0.4,1.5,0,2.4-1,3.4c-3.5,3.3-7,6.6-10.4,9.9C449.9,295.3,449.2,295.8,448,295.6z"/>
	<path class="st1" d="M187.7,192.9c-2.6-0.8-5.8-2.1-9.1-2.6c-5.6-0.9-8.5-3.6-8.9-9.4c-0.2-2.8-1.2-5.6-1.9-8.4
		c-0.4-1.5,0-2.6,1.1-3.6c3.5-3.2,6.9-6.5,10.3-9.7c0.9-0.8,1.8-1.2,3-0.8c4.6,1.4,9.2,2.8,13.8,4.1c1.6,0.5,2.4,1.4,2.7,3
		c1,4.5,2.1,9,3.2,13.5c0.3,1.3,0.1,2.2-0.8,3c-3.6,3.4-7.2,6.8-10.8,10.2C189.7,192.6,189.1,193,187.7,192.9z"/>
	<path class="st1" d="M57.9,138.2c-2.8-0.8-6-2.2-9.3-2.6c-5.7-0.9-8.6-3.8-9.1-9.6c-0.2-2.8-1.1-5.5-1.9-8.2
		c-0.4-1.5-0.2-2.6,1-3.7c3.5-3.2,6.9-6.5,10.3-9.7c1-0.9,1.9-1.2,3.3-0.8c4.5,1.4,9,2.8,13.5,4c1.6,0.4,2.4,1.3,2.8,2.9
		c1,4.6,2.1,9.2,3.3,13.8c0.3,1.2,0,2-0.8,2.8c-3.7,3.5-7.3,6.9-11,10.4C59.5,138,59,138.3,57.9,138.2z"/>
	<path class="st1" d="M578,131.5c-2.7-0.8-5.8-2.1-9-2.6c-5.8-0.9-8.8-3.8-9.2-9.7c-0.2-2.8-1.2-5.5-1.9-8.2
		c-0.4-1.4-0.1-2.5,0.9-3.5c3.5-3.3,7-6.6,10.4-9.9c0.9-0.8,1.8-1.2,3-0.8c4.6,1.4,9.2,2.8,13.8,4.1c1.6,0.5,2.4,1.4,2.7,3
		c1,4.5,2.1,9,3.2,13.5c0.3,1.3,0,2.2-0.9,3c-3.6,3.4-7.2,6.8-10.8,10.2C579.9,131.2,579.3,131.6,578,131.5z"/>
	<path class="st1" d="M448.1,76.8c-2.6-0.8-5.6-2-8.8-2.5c-5.9-0.9-9.2-3.8-9.6-10c-0.2-2.8-1.2-5.5-1.9-8.2
		c-0.3-1.3-0.1-2.3,0.9-3.2c3.6-3.3,7.1-6.7,10.6-10.1c0.9-0.9,1.8-1,3.1-0.7c4.5,1.4,9,2.8,13.6,4c1.6,0.4,2.4,1.3,2.8,2.9
		c1,4.6,2.1,9.2,3.3,13.8c0.3,1.3-0.1,2.1-1,3c-3.5,3.3-7.1,6.7-10.6,10.1C449.9,76.4,449.4,76.8,448.1,76.8z"/>
	<path class="st1" d="M317.7,240.9c-0.4-0.1-1.4-0.4-2.4-0.7c-3.9-1.2-7.8-2.3-11.7-3.5c-1.5-0.4-2.3-1.2-2.6-2.7
		c-1-4.5-2-9-3.2-13.5c-0.4-1.4-0.1-2.5,1-3.4c3.5-3.3,7-6.6,10.4-9.9c0.9-0.8,1.8-1.1,3-0.7c4.5,1.4,9,2.8,13.6,4
		c1.7,0.5,2.5,1.4,2.9,3.1c1,4.5,2.1,9,3.2,13.5c0.3,1.3,0,2.2-0.9,3c-3.6,3.4-7.2,6.8-10.8,10.2C319.7,240.7,319.1,241,317.7,240.9
		z"/>
	<path class="st1" d="M57.8,247.6c-2.6-0.8-5.4-1.9-8.4-2.4c-6-0.9-9.5-3.8-9.9-10.2c-0.2-2.7-1.1-5.3-1.8-7.9
		c-0.3-1.3-0.2-2.3,0.8-3.3c3.6-3.3,7.1-6.7,10.6-10.1c0.9-0.9,1.8-1.1,3.1-0.7c4.5,1.4,9,2.8,13.6,4c1.7,0.5,2.5,1.5,2.9,3.1
		c1,4.4,2,8.9,3.2,13.3c0.3,1.3,0.1,2.3-0.9,3.2c-3.6,3.3-7.1,6.7-10.6,10.1C59.6,247.3,59,247.8,57.8,247.6z"/>
</g>
</svg>
