<?xml version="1.0" encoding="utf-8"?>
<!-- Generator: Adobe Illustrator 19.0.1, SVG Export Plug-In . SVG Version: 6.00 Build 0)  -->
<svg version="1.1" id="Layer_1" xmlns="http://www.w3.org/2000/svg" xmlns:xlink="http://www.w3.org/1999/xlink" x="0px" y="0px"
	 viewBox="-97 125 380 327" style="enable-background:new -97 125 380 327;" xml:space="preserve">
<style type="text/css">
	.st0{fill:#83BFE0;}
	.st1{fill:#FDFEFD;}
</style>
<rect x="-97" y="125" class="st0" width="380" height="327"/>
<g id="hIHQzy.tif">
	<g>
		<path class="st1" d="M31.3,278.9c0-9.3,0-18.7,0-28c0-2.8,0.3-5.4,2.3-7.6c0.6-0.7,1.4-1.2,2.1-1.6c12.8-7.3,25.5-14.6,38.3-22
			c4.5-2.6,9.1-5.2,13.6-7.8c2.9-1.7,5.9-1.6,8.8,0c15.2,8.7,30.3,17.4,45.5,26.1c2.1,1.2,4.3,2.4,6.3,3.7c2.8,1.8,4.4,4.4,4.4,7.6
			c0.1,19.8,0.1,39.7,0,59.5c0,3.1-1.4,5.7-4.2,7.3c-17.3,9.9-34.6,19.9-51.9,29.8c-3.2,1.8-6.3,1.8-9.4,0
			c-8.4-4.8-16.7-9.6-25.1-14.4c-8.8-5-17.6-10-26.3-15.1c-2.7-1.6-4.4-4.2-4.4-7.3C31.2,299,31.3,288.9,31.3,278.9
			C31.3,278.9,31.3,278.9,31.3,278.9z M140,279.2C140,279.2,140,279.2,140,279.2c0-8,0-16,0-23.9c0-2.4-1-4.1-3.1-5.3
			c-13.8-7.9-27.6-15.8-41.4-23.8c-2.4-1.4-4.7-1.4-7,0c-13.6,7.8-27.2,15.6-40.8,23.5c-2.4,1.4-3.6,3.4-3.5,6.2
			c0.1,7.5,0,15.1,0,22.6c0,8.5,0,16.9,0,25.4c0,1.8,0.7,3.3,2.3,4.3c1.7,1.1,3.5,2.1,5.2,3.1c12.4,7.1,24.7,14.2,37.1,21.3
			c2.4,1.4,4.6,1.3,6.9,0c4.1-2.4,8.3-4.8,12.4-7.1c9.5-5.5,19-10.9,28.5-16.4c2.1-1.2,3.4-2.9,3.4-5.4
			C140,295.4,140,287.3,140,279.2z"/>
	</g>
</g>
</svg>
