<?xml version="1.0" encoding="utf-8"?>
<!-- Generator: Adobe Illustrator 19.0.1, SVG Export Plug-In . SVG Version: 6.00 Build 0)  -->
<svg version="1.1" id="Layer_1" xmlns="http://www.w3.org/2000/svg" xmlns:xlink="http://www.w3.org/1999/xlink" x="0px" y="0px"
	 viewBox="-103 33 692 335" style="enable-background:new -103 33 692 335;" xml:space="preserve">
<style type="text/css">
	.st0{fill:#83BFE0;}
	.st1{fill:#92CEE8;stroke:#92CEE8;stroke-miterlimit:10;}
	.st2{fill:#92CEE8;}
</style>
<g>
	<path class="st0" d="M441.3,369c-65.8,0-131.5,0-197.3,0c-1.9-7.9-3.9-15.8-5.7-23.7c-0.5-2.4-1.7-3.7-4-4.4
		c-9.4-2.7-18.7-5.5-28-8.4c-2-0.6-3.5,0-4.8,1.2c-7.2,6.7-14.3,13.5-21.4,20.3c-1.4,1.3-1.8,2.7-1.3,4.5c0.9,3.5,1.6,7,2.4,10.5
		c-66.4,0-132.8,0-199.2,0c-0.9-5.5-2.7-10.9-3.7-16.3c-0.6-3-2-4.5-4.9-5.3c-9-2.5-17.9-5.2-26.9-8c-2.2-0.7-3.9-0.2-5.5,1.3
		c-6.4,6.1-12.8,12.3-19.4,18.2c-2.7,2.5-4.2,4.9-2.7,8.5c0.2,0.5,0,1.1,0,1.6c-6.8,0-13.6,0-20.4,0c-1,0-1.4-0.2-1.2-1.2
		c0.1-0.3,0-0.6,0-1c0-111.3,0-222.6,0-333.8c7.2,0,14.4,0,21.6,0c-0.6,1.2-0.8,2.5-0.5,3.9c2.3,9.7,4.6,19.4,6.9,29.1
		c0.4,1.6,1.3,2.7,2.9,3.2c9.6,2.8,19.2,5.7,28.7,8.5c2,0.6,3.5,0.2,5-1.2c6-5.7,11.7-11.7,18.1-16.8c4.6-3.7,5.2-7.5,3.5-12.7
		c-1.5-4.5-2.5-9.2-3.2-14c66.4,0,132.8,0,199.2,0c0,0.2-0.1,0.5,0,0.7c2,8.7,4,17.4,6.1,26.1c0.4,1.6,1.6,2.3,3,2.8
		c9.2,2.7,18.4,5.4,27.6,8.3c2.7,0.8,4.6,0.2,6.7-1.7c6.3-6.2,12.8-12.3,19.4-18.2c2.3-2.1,3-4,2.2-6.9c-1-3.6-1.7-7.3-2.5-11
		C308,33,374,33,439.9,33c0,0.4-0.1,0.8,0,1.2c2,8.5,4,17,6,25.4c0.4,1.8,1.7,2.6,3.4,3.1c9.1,2.7,18.2,5.4,27.3,8.2
		c2.6,0.8,4.5,0.3,6.5-1.6c6.4-6.2,12.9-12.4,19.6-18.4c2.3-2.1,3-4,2.2-6.9c-1-3.6-1.7-7.3-2.5-11c28,0,56,0,84.1,0
		c1.8,0,2.4,0.2,2.4,2.3c-0.2,9.3-0.1,18.7-0.1,28c-6.5,5.5-12.6,11.6-18.7,17.5c-1.4,1.4-1.3,3-0.9,4.7c2.2,9.5,4.5,19,6.7,28.4
		c0.3,1.3,0.7,2.6,2.1,3c3.6,1.2,7.1,2.5,10.8,3c0,17.6,0,35.2,0,52.8c-6.5,5.6-12.6,11.5-18.7,17.5c-1.2,1.2-1.3,2.6-1,4.2
		c2.3,9.7,4.6,19.4,6.9,29.1c0.3,1.3,0.9,2.5,2.2,2.9c3.5,1,6.9,2.5,10.6,2.9c0,17.6,0,35.2,0,52.8c-6.5,5.5-12.6,11.6-18.7,17.5
		c-1.4,1.4-1.3,3-0.9,4.7c2.2,9.5,4.5,19,6.7,28.4c0.3,1.3,0.7,2.6,2.1,3c3.6,1.2,7.1,2.5,10.8,3c0,9.5,0,19,0,28.6
		c0,1.4-0.3,1.7-1.7,1.7c-27.6-0.1-55.2,0-82.8,0c-1.9-7.9-3.9-15.8-5.7-23.7c-0.5-2.3-1.5-3.7-3.8-4.3c-9.5-2.8-19-5.6-28.5-8.5
		c-1.9-0.6-3.3,0.1-4.6,1.3c-7.1,6.7-14.1,13.4-21.3,20.1c-1.5,1.4-1.9,3-1.4,5C439.8,362.1,440.5,365.6,441.3,369z M375.1,210
		c0-0.1-0.1-0.7-0.3-1.3c-2.2-9.2-4.4-18.3-6.4-27.5c-0.5-2.4-1.6-3.7-4-4.4c-9.2-2.7-18.4-5.4-27.6-8.3c-2.2-0.7-3.9-0.2-5.5,1.2
		c-6.9,6.5-13.8,13.1-20.7,19.6c-1.8,1.7-2.3,3.4-1.7,5.8c2.3,9.3,4.5,18.6,6.6,28c0.5,2.1,1.7,3.2,3.7,3.9
		c9.1,2.7,18.2,5.4,27.3,8.2c2.4,0.7,4.2,0.3,6.1-1.4c6.9-6.6,13.8-13,20.8-19.5C374.6,213.2,375.2,212,375.1,210z M245,155.3
		c0-0.2-0.1-0.9-0.3-1.6c-2.1-9.1-4.4-18.2-6.4-27.3c-0.5-2.4-1.6-3.8-4-4.5c-9.2-2.7-18.4-5.4-27.6-8.3c-2.3-0.7-4-0.2-5.7,1.4
		c-6.8,6.4-13.5,12.9-20.4,19.3c-2,1.8-2.5,3.7-1.8,6.2c2.3,9.2,4.5,18.5,6.6,27.7c0.5,2.1,1.6,3.3,3.7,3.9c9,2.7,18.1,5.3,27.1,8.1
		c2.6,0.8,4.5,0.4,6.5-1.5c6.8-6.5,13.7-12.9,20.6-19.4C244.5,158.5,245.1,157.4,245,155.3z M115,326.7c-0.1-0.6-0.2-1.3-0.4-1.9
		c-2.2-9.2-4.4-18.3-6.4-27.5c-0.5-2.4-1.6-3.8-4-4.4c-9.4-2.7-18.7-5.5-28-8.4c-2-0.6-3.6,0-5,1.4c-6.9,6.5-13.8,13.1-20.7,19.6
		c-1.8,1.7-2.3,3.4-1.7,5.8c2.3,9.3,4.5,18.6,6.6,28c0.5,2.1,1.7,3.2,3.7,3.8c9,2.6,18.1,5.3,27.1,8.1c2.6,0.8,4.5,0.4,6.5-1.5
		c6.7-6.5,13.6-12.8,20.5-19.2C114.3,329.5,115.1,328.3,115,326.7z M115,107.9c-0.1-0.7-0.3-1.4-0.4-2.1c-2.1-9-4.4-18-6.3-27.1
		c-0.6-2.6-1.7-4-4.3-4.8c-9.3-2.7-18.5-5.5-27.8-8.3c-2-0.6-3.6,0-5,1.3C64.3,73.4,57.4,80,50.5,86.5c-1.8,1.7-2.3,3.4-1.7,5.8
		c2.3,9.3,4.5,18.6,6.6,28c0.5,2.1,1.6,3.3,3.7,3.9c9,2.6,18.1,5.3,27.1,8.1c2.6,0.8,4.5,0.4,6.5-1.5c6.7-6.5,13.6-12.8,20.5-19.2
		C114.3,110.6,115.1,109.5,115,107.9z M505.2,264.7c0-0.1-0.1-0.8-0.3-1.5c-2.2-9.4-4.4-18.8-6.6-28.2c-0.4-2-1.6-2.9-3.5-3.5
		c-9.3-2.8-18.5-5.5-27.8-8.4c-2.2-0.7-4-0.2-5.7,1.3c-6.8,6.4-13.5,12.9-20.4,19.2c-1.9,1.8-2.5,3.6-1.9,6.2
		c2.3,9.2,4.5,18.5,6.6,27.7c0.5,2.1,1.6,3.3,3.7,3.9c9.1,2.7,18.2,5.4,27.3,8.2c2.5,0.8,4.4,0.3,6.3-1.5
		c6.7-6.5,13.6-12.8,20.5-19.2C504.5,268.1,505.3,267,505.2,264.7z M375.1,319.6c0-0.2-0.1-0.9-0.3-1.6c-2.2-9.4-4.4-18.8-6.6-28.2
		c-0.5-2-1.6-2.9-3.5-3.5c-9.3-2.7-18.5-5.5-27.8-8.4c-2.3-0.7-4-0.3-5.7,1.3c-6.8,6.5-13.7,13-20.6,19.4c-1.8,1.7-2.4,3.4-1.8,5.8
		c2.3,9.4,4.5,18.8,6.7,28.2c0.4,1.9,1.5,3.1,3.4,3.6c9.3,2.8,18.7,5.6,28,8.4c2.1,0.6,3.8,0.3,5.5-1.3c7-6.7,14.1-13.2,21.2-19.8
		C374.6,322.6,375.2,321.5,375.1,319.6z M114.9,216.8c-0.1-0.2-0.2-1-0.4-1.8c-2.2-9.3-4.3-18.5-6.5-27.8c-0.4-1.9-1.4-3.1-3.3-3.6
		c-9.6-2.8-19.1-5.7-28.7-8.6c-1.9-0.6-3.5,0.1-4.8,1.4c-6.9,6.5-13.8,13.1-20.7,19.6c-1.8,1.7-2.3,3.4-1.7,5.8
		c2.3,9.4,4.5,18.8,6.7,28.2c0.4,1.9,1.5,3,3.4,3.6c9.3,2.8,18.7,5.6,28,8.4c2.1,0.6,3.8,0.2,5.5-1.3c7-6.7,14.1-13.2,21.1-19.8
		C114.5,219.8,115,218.7,114.9,216.8z M-15.2,162.1c0-0.2-0.1-0.9-0.3-1.6c-2.2-9.4-4.4-18.8-6.6-28.2c-0.4-2-1.6-2.9-3.5-3.5
		c-9.3-2.7-18.5-5.5-27.8-8.4c-2.3-0.7-4-0.3-5.7,1.3c-6.8,6.5-13.7,13-20.6,19.4c-1.8,1.7-2.4,3.4-1.8,5.8
		c2.3,9.4,4.5,18.8,6.7,28.2c0.5,2,1.6,3.1,3.6,3.7c9.2,2.7,18.4,5.5,27.6,8.3c2.3,0.7,4.1,0.3,5.9-1.4c6.9-6.6,14-13.1,21-19.7
		C-15.6,165.1-15.1,164.1-15.2,162.1z M505.2,155.3c-0.1-0.2-0.2-1-0.4-1.8c-2.1-8.8-4.3-17.5-6.1-26.4c-0.6-3.1-2-4.6-5-5.5
		c-9-2.5-17.9-5.3-26.9-8c-2.1-0.7-3.7-0.1-5.2,1.3c-6.9,6.5-13.8,13.1-20.8,19.6c-1.8,1.7-2.3,3.4-1.7,5.8c2.3,9.3,4.5,18.6,6.6,28
		c0.5,2.1,1.6,3.3,3.7,3.9c9.1,2.7,18.2,5.4,27.3,8.2c2.4,0.7,4.2,0.4,6.1-1.4c6.9-6.6,14-13.1,21-19.7
		C504.7,158.4,505.3,157.3,505.2,155.3z M375.1,100.7c0-0.2-0.1-0.9-0.3-1.6c-2.2-9.4-4.4-18.8-6.6-28.2c-0.5-2-1.6-2.9-3.5-3.5
		c-9.3-2.7-18.5-5.5-27.8-8.4c-2.3-0.7-4-0.3-5.7,1.3c-6.8,6.5-13.7,13-20.6,19.4c-1.8,1.7-2.4,3.4-1.8,5.8
		c2.3,9.4,4.5,18.8,6.7,28.2c0.4,1.9,1.5,3.1,3.4,3.6c9.3,2.8,18.7,5.6,28,8.4c2.1,0.6,3.8,0.3,5.5-1.3c7-6.7,14.1-13.2,21.2-19.8
		C374.6,103.7,375.2,102.6,375.1,100.7z M245,264.7c0-0.1-0.1-0.7-0.3-1.3c-2.2-9.2-4.4-18.3-6.4-27.5c-0.5-2.4-1.6-3.7-4-4.4
		c-9.2-2.7-18.4-5.4-27.6-8.3c-2.2-0.7-3.9-0.2-5.5,1.3c-6.9,6.5-13.8,13.1-20.7,19.6c-1.7,1.6-2.3,3.3-1.7,5.6
		c2.3,9.5,4.5,19,6.7,28.4c0.4,1.8,1.4,2.9,3.2,3.5c9.3,2.8,18.7,5.5,28,8.4c2.3,0.7,4.1,0.2,5.9-1.5c6.9-6.6,13.8-13,20.8-19.5
		C244.5,267.9,245.1,266.7,245,264.7z M-15.2,271.4c0-0.1-0.1-0.8-0.3-1.5c-2.1-9.1-4.4-18.2-6.4-27.3c-0.5-2.4-1.6-3.8-4-4.5
		c-9.3-2.7-18.5-5.5-27.8-8.3c-2.1-0.7-3.7-0.1-5.2,1.3c-6.9,6.5-13.7,13-20.6,19.4c-1.9,1.8-2.5,3.7-1.8,6.2
		c2.3,9.2,4.5,18.5,6.6,27.7c0.5,2.1,1.6,3.3,3.7,3.9c9.1,2.7,18.2,5.4,27.3,8.2c2.5,0.8,4.4,0.3,6.3-1.6c6.7-6.4,13.5-12.7,20.3-19
		C-16,274.9-15,273.7-15.2,271.4z"/>
	<path class="st1" d="M-19.5,33c0.7,4.8,1.7,9.5,3.2,14c1.7,5.2,1.1,9-3.5,12.7c-6.4,5.2-12.1,11.1-18.1,16.8c-1.5,1.4-3,1.8-5,1.2
		c-9.6-2.9-19.1-5.7-28.7-8.5c-1.6-0.5-2.6-1.6-2.9-3.2c-2.3-9.7-4.6-19.4-6.9-29.1c-0.3-1.4-0.1-2.7,0.5-3.9c4.9,0,9.9,0,14.9,0
		c-0.5,1.1-1.4,1.8-2.2,2.4c-2,1.5-2.3,3.3-1.6,5.7c1.4,5.3,2.6,10.7,3.8,16.1c0.5,2.1,1.6,3.3,3.6,3.9c5.8,1.6,11.5,3.3,17.2,5.1
		c1.6,0.5,2.8,0,3.9-1c4.1-3.8,8.1-7.7,12.3-11.4c2.5-2.1,2.9-4.3,2-7.4c-1.2-4.3-2.5-8.8-3-13.4C-26.5,33-23,33-19.5,33z"/>
	<path class="st1" d="M242.1,33c0.8,3.7,1.5,7.4,2.5,11c0.8,2.9,0.1,4.9-2.2,6.9c-6.6,5.9-13,12-19.4,18.2c-2,2-4,2.6-6.7,1.7
		c-9.2-2.8-18.4-5.5-27.6-8.3c-1.5-0.4-2.7-1.2-3-2.8c-2-8.7-4.1-17.4-6.1-26.1c-0.1-0.2,0-0.5,0-0.7c3.5,0,7,0,10.6,0
		c0.7,6,2.7,11.6,3.8,17.5c0.4,2.1,1.6,3.3,3.7,3.9c5.8,1.6,11.5,3.4,17.2,5.1c1.4,0.4,2.5,0.2,3.5-0.7c4.7-4.3,9.3-8.7,14-13.1
		c1.2-1.1,1.5-2.3,1.1-3.9c-0.8-2.9-1.3-5.9-2-8.9C235.1,33,238.6,33,242.1,33z"/>
	<path class="st1" d="M502.3,33c0.8,3.7,1.5,7.4,2.5,11c0.8,2.9,0.1,4.9-2.2,6.9c-6.7,6-13.1,12.2-19.6,18.4c-2,1.9-3.9,2.4-6.5,1.6
		c-9.1-2.8-18.2-5.5-27.3-8.2c-1.6-0.5-2.9-1.3-3.4-3.1c-2-8.5-4-17-6-25.4c-0.1-0.4,0-0.8,0-1.2c3.5,0,7,0,10.6,0
		c0.8,6.4,2.8,12.6,4.2,18.9c0.3,1.1,1.2,1.9,2.3,2.2c6.1,1.8,12.2,3.6,18.3,5.5c1.2,0.4,2.2,0.2,3.1-0.7c4.9-4.5,9.7-9,14.5-13.6
		c1-0.9,1.1-2,0.8-3.3c-0.8-3-1.4-6.1-2-9.1C495.2,33,498.8,33,502.3,33z"/>
	<path class="st1" d="M181.2,369c-0.8-3.5-1.6-7-2.4-10.5c-0.4-1.8,0-3.3,1.3-4.5c7.1-6.7,14.3-13.5,21.4-20.3
		c1.3-1.3,2.9-1.8,4.8-1.2c9.3,2.9,18.6,5.7,28,8.4c2.4,0.7,3.5,2,4,4.4c1.8,7.9,3.8,15.8,5.7,23.7c-3.7,0-7.4,0-11,0
		c-0.9-5.8-2.5-11.5-3.9-17.2c-0.4-1.5-1.5-2.1-2.9-2.5c-5.9-1.7-11.8-3.5-17.7-5.3c-1.3-0.4-2.4-0.2-3.3,0.7
		c-4.8,4.5-9.5,8.9-14.3,13.4c-1.1,1-1.2,2.1-0.9,3.5c0.6,2.5,1.2,5,1.7,7.5C188.2,369,184.7,369,181.2,369z"/>
	<path class="st1" d="M441.3,369c-0.8-3.4-1.5-6.9-2.4-10.3c-0.5-2-0.1-3.5,1.4-5c7.1-6.7,14.2-13.4,21.3-20.1
		c1.3-1.2,2.7-1.9,4.6-1.3c9.5,2.9,19,5.7,28.5,8.5c2.3,0.7,3.3,2.1,3.8,4.3c1.8,7.9,3.8,15.8,5.7,23.7c-3.7,0-7.4,0-11,0
		c-0.8-5.5-2.4-10.7-3.5-16.1c-0.5-2.1-1.6-3.3-3.7-3.8c-5.5-1.5-10.9-3.1-16.3-4.8c-2-0.7-3.5-0.4-5,1c-4.5,4.3-9,8.6-13.5,12.8
		c-1.1,1-1.2,2.1-0.9,3.5c0.6,2.5,1.2,5,1.7,7.5C448.4,369,444.8,369,441.3,369z"/>
	<path class="st1" d="M-80.9,369c0-0.6,0.1-1.2,0-1.6c-1.5-3.6,0-6.1,2.7-8.5c6.6-5.9,12.9-12.1,19.4-18.2c1.6-1.5,3.2-2,5.5-1.3
		c8.9,2.8,17.9,5.5,26.9,8c2.9,0.8,4.3,2.3,4.9,5.3c1,5.5,2.7,10.8,3.7,16.3c-3.5,0-7,0-10.6,0c-0.7-3.2-1.5-6.4-2.2-9.6
		c-0.4-1.9-1.5-3-3.4-3.5c-5.7-1.6-11.4-3.3-17-5.1c-1.7-0.5-2.9-0.3-4.1,0.9c-4.5,4.2-8.9,8.4-13.5,12.6c-1.5,1.4-1.9,2.9-1.1,4.7
		C-73.6,369-77.2,369-80.9,369z"/>
	<path class="st2" d="M-59.8,33c8.3,0,16.6,0,25,0c1.2,4.9,2.3,9.8,3.5,14.7c0.3,1.3,0.1,2.3-0.9,3.2c-3.6,3.3-7.1,6.7-10.6,10
		c-0.9,0.9-1.9,1-3.1,0.7c-4.6-1.4-9.2-2.8-13.8-4.1c-1.5-0.4-2.2-1.3-2.6-2.8c-1-4.4-2-8.9-3.1-13.3c-0.4-1.6,0-2.7,1.1-3.8
		C-62.8,36-60.8,35-59.8,33z"/>
	<path class="st2" d="M588.7,119.9c-3.7-0.5-7.2-1.9-10.8-3c-1.4-0.4-1.8-1.7-2.1-3c-2.2-9.5-4.5-19-6.7-28.4
		c-0.4-1.7-0.5-3.3,0.9-4.7c6.2-5.9,12.2-11.9,18.7-17.5c0,4.8,0,9.6,0,14.4c-2.7,1.9-4.9,4.3-7.3,6.5c-1.3,1.2-1.5,2.5-1.1,4.1
		c1.3,5.4,2.7,10.8,3.8,16.3c0.6,2.7,1.8,4.4,4.6,4.8C588.7,112.8,588.7,116.4,588.7,119.9z"/>
	<path class="st2" d="M588.7,338.8c-3.7-0.5-7.2-1.9-10.8-3c-1.4-0.4-1.8-1.7-2.1-3c-2.2-9.5-4.5-19-6.7-28.4
		c-0.4-1.7-0.5-3.3,0.9-4.7c6.2-5.9,12.2-11.9,18.7-17.5c0,4.8,0,9.6,0,14.4c-2.7,1.9-4.9,4.3-7.3,6.5c-1.3,1.2-1.5,2.5-1.1,4.1
		c1.3,5.4,2.7,10.8,3.8,16.3c0.6,2.7,1.8,4.4,4.6,4.8C588.7,331.7,588.7,335.2,588.7,338.8z"/>
	<path class="st2" d="M588.7,229.3c-3.7-0.5-7.1-1.9-10.6-2.9c-1.4-0.4-1.9-1.6-2.2-2.9c-2.3-9.7-4.6-19.4-6.9-29.1
		c-0.4-1.6-0.3-3,1-4.2c6.1-5.9,12.2-11.9,18.7-17.5c0,4.8,0,9.6,0,14.4c-2.7,1.9-4.9,4.3-7.3,6.5c-1.3,1.2-1.5,2.5-1.1,4.1
		c1.3,5.4,2.7,10.8,3.8,16.3c0.6,2.7,1.8,4.4,4.6,4.8C588.7,222.3,588.7,225.8,588.7,229.3z"/>
	<path class="st2" d="M194.6,33c10.9,0,21.8,0,32.6,0c0,2.7,1,5.2,1.6,7.7c0.3,1.4,0.2,2.4-0.9,3.4c-3.6,3.3-7.1,6.7-10.6,10.1
		c-0.8,0.8-1.7,1.1-2.8,0.7c-4.7-1.4-9.5-2.8-14.2-4.3c-1.1-0.3-1.9-0.9-2.1-2C197,43.4,195.8,38.2,194.6,33z"/>
	<path class="st1" d="M454.8,33c10.9,0,21.8,0,32.6,0c0,2.7,1,5.2,1.6,7.7c0.3,1.4,0.2,2.4-0.9,3.4c-3.6,3.3-7.1,6.7-10.6,10.1
		c-0.8,0.8-1.7,1.1-2.8,0.7c-4.7-1.4-9.5-2.8-14.2-4.2c-1.1-0.3-1.9-0.9-2.1-2C457.1,43.4,455.9,38.2,454.8,33z"/>
	<path class="st1" d="M488.8,369c-10.9,0-21.8,0-32.6,0c-0.1-2.1-0.7-4.1-1.2-6.1c-0.4-1.5-0.1-2.6,1-3.6c3.4-3.2,6.8-6.5,10.2-9.7
		c0.9-0.8,1.7-1.2,3-0.8c4.7,1.5,9.5,2.9,14.2,4.3c1.2,0.4,1.9,1,2.2,2.2C486.7,359.8,487.8,364.4,488.8,369z"/>
	<path class="st1" d="M228.7,369c-10.9,0-21.8,0-32.6,0c-0.1-2.1-0.7-4.1-1.2-6.1c-0.4-1.5-0.1-2.6,1-3.6c3.4-3.2,6.8-6.5,10.2-9.7
		c0.9-0.8,1.7-1.2,3-0.8c4.7,1.5,9.5,2.9,14.2,4.3c1.2,0.4,1.9,1,2.2,2.2C226.6,359.8,227.6,364.4,228.7,369z"/>
	<path class="st0" d="M-59.8,33c-1,2-3,3-4.4,4.6c-1.1,1.2-1.5,2.2-1.1,3.8c1.1,4.4,2.1,8.8,3.1,13.3c0.3,1.5,1.1,2.4,2.6,2.8
		c4.6,1.3,9.2,2.7,13.8,4.1c1.2,0.4,2.2,0.2,3.1-0.7c3.5-3.4,7-6.7,10.6-10c1-0.9,1.2-1.9,0.9-3.2c-1.4-4.9-2.5-9.8-3.6-14.7
		c1.6,0,3.2,0,4.8,0c0.5,4.6,1.8,9.1,3,13.5c0.9,3.1,0.4,5.2-2,7.4c-4.2,3.6-8.2,7.5-12.3,11.4c-1.1,1.1-2.3,1.5-3.9,1
		c-5.7-1.8-11.5-3.5-17.2-5.1c-2.1-0.6-3.2-1.8-3.6-3.9c-1.2-5.4-2.4-10.7-3.8-16.1c-0.6-2.4-0.4-4.2,1.6-5.7
		c0.8-0.7,1.7-1.4,2.2-2.5C-64,33-61.9,33-59.8,33z"/>
	<path class="st0" d="M194.6,33c1.2,5.2,2.4,10.4,3.5,15.6c0.3,1.1,1.1,1.7,2.1,2c4.7,1.4,9.5,2.8,14.2,4.3c1.1,0.3,2,0.1,2.8-0.7
		c3.5-3.4,7-6.7,10.6-10.1c1.1-1,1.2-2,0.9-3.4c-0.6-2.6-1.6-5-1.6-7.7c1.4,0,2.9,0,4.3,0c0.7,3,1.2,5.9,2,8.9
		c0.4,1.6,0.1,2.8-1.1,3.9c-4.7,4.3-9.3,8.7-14,13.1c-1,0.9-2.1,1.2-3.5,0.7c-5.7-1.8-11.5-3.5-17.2-5.1c-2.1-0.6-3.2-1.8-3.7-3.9
		c-0.9-6-2.9-11.6-3.6-17.6C191.7,33,193.2,33,194.6,33z"/>
	<path class="st0" d="M454.8,33c1.2,5.2,2.4,10.4,3.5,15.6c0.3,1.1,1.1,1.7,2.1,2c4.7,1.4,9.5,2.8,14.2,4.2c1.1,0.3,2,0.1,2.8-0.7
		c3.5-3.4,7.1-6.7,10.6-10.1c1.1-1,1.2-2,0.9-3.4c-0.6-2.6-1.6-5-1.6-7.7c1.4,0,2.9,0,4.3,0c0.7,3,1.3,6.1,2,9.1
		c0.3,1.3,0.1,2.4-0.8,3.3c-4.8,4.5-9.7,9.1-14.5,13.6c-0.9,0.8-1.9,1-3.1,0.7c-6.1-1.8-12.2-3.7-18.3-5.5c-1.2-0.3-2.1-1.1-2.3-2.2
		c-1.4-6.3-3.4-12.5-4.2-18.9C451.9,33,453.3,33,454.8,33z"/>
	<path class="st1" d="M-32.9,369c-10.9,0-21.8,0-32.6,0c-0.2-1.2,0.4-2.1,1.2-2.9c3.4-3.2,6.9-6.5,10.3-9.7c1-0.9,1.9-1.2,3.3-0.8
		c4.4,1.4,8.9,2.7,13.3,4c1.9,0.5,2.8,1.6,3.1,3.5C-34,365-33.4,367-32.9,369z"/>
	<path class="st0" d="M488.8,369c-1.1-4.6-2.1-9.2-3.2-13.7c-0.3-1.2-1-1.9-2.2-2.2c-4.7-1.4-9.5-2.8-14.2-4.3c-1.3-0.4-2.2,0-3,0.8
		c-3.4,3.2-6.8,6.5-10.2,9.7c-1.1,1-1.5,2.1-1,3.6c0.5,2,1.1,4,1.2,6.1c-1.4,0-2.9,0-4.3,0c-0.6-2.5-1.1-5-1.7-7.5
		c-0.3-1.4-0.1-2.5,0.9-3.5c4.5-4.3,9-8.6,13.5-12.8c1.5-1.4,3-1.6,5-1c5.4,1.8,10.8,3.3,16.3,4.8c2.1,0.6,3.3,1.7,3.7,3.8
		c1.1,5.4,2.8,10.6,3.5,16.1C491.7,369,490.3,369,488.8,369z"/>
	<path class="st0" d="M228.7,369c-1.1-4.6-2.1-9.2-3.2-13.7c-0.3-1.2-1-1.9-2.2-2.2c-4.7-1.4-9.5-2.8-14.2-4.3c-1.3-0.4-2.2,0-3,0.8
		c-3.4,3.2-6.8,6.5-10.2,9.7c-1.1,1-1.5,2.1-1,3.6c0.5,2,1.1,4,1.2,6.1c-1.4,0-2.9,0-4.3,0c-0.6-2.5-1.1-5-1.7-7.5
		c-0.3-1.3-0.2-2.5,0.9-3.5c4.8-4.5,9.5-8.9,14.3-13.4c0.9-0.9,2-1.1,3.3-0.7c5.9,1.8,11.8,3.5,17.7,5.3c1.4,0.4,2.5,1,2.9,2.5
		c1.4,5.7,3,11.4,3.9,17.2C231.6,369,230.1,369,228.7,369z"/>
	<path class="st0" d="M-32.9,369c-0.5-2-1-4-1.4-6.1c-0.4-1.8-1.2-2.9-3.1-3.5c-4.5-1.2-8.9-2.6-13.3-4c-1.3-0.4-2.3-0.1-3.3,0.8
		c-3.4,3.3-6.8,6.5-10.3,9.7c-0.9,0.8-1.4,1.7-1.2,2.9c-1.4,0-2.9,0-4.3,0c-0.9-1.8-0.4-3.3,1.1-4.7c4.5-4.2,9-8.4,13.5-12.6
		c1.2-1.2,2.5-1.4,4.1-0.9c5.6,1.8,11.3,3.5,17,5.1c1.9,0.5,3,1.6,3.4,3.5c0.7,3.2,1.4,6.4,2.2,9.6C-30,369-31.5,369-32.9,369z"/>
	<path class="st0" d="M588.7,328.2c-2.8-0.4-4-2.1-4.6-4.8c-1.1-5.5-2.5-10.9-3.8-16.3c-0.4-1.6-0.2-2.9,1.1-4.1
		c2.4-2.2,4.6-4.6,7.3-6.5c0,1.9,0,3.8,0,5.8c-1.5,1.5-4.3,2.5-3.7,5.1c1.1,5.1,1.9,10.2,3.7,15.1
		C588.7,324.4,588.7,326.3,588.7,328.2z"/>
	<path class="st0" d="M588.7,109.3c-2.8-0.4-4-2.1-4.6-4.8c-1.1-5.5-2.5-10.9-3.8-16.3c-0.4-1.6-0.2-2.9,1.1-4.1
		c2.4-2.2,4.6-4.6,7.3-6.5c0,1.9,0,3.8,0,5.8c-1.5,1.5-4.3,2.5-3.7,5.1c1.1,5.1,1.9,10.2,3.7,15.1
		C588.7,105.5,588.7,107.4,588.7,109.3z"/>
	<path class="st0" d="M588.7,218.8c-2.8-0.4-4-2.1-4.6-4.8c-1.1-5.5-2.5-10.9-3.8-16.3c-0.4-1.6-0.2-2.9,1.1-4.1
		c2.4-2.2,4.6-4.6,7.3-6.5c0,1.9,0,3.8,0,5.8c-0.7,0.6-1.3,1.1-2,1.7c-1,1-2.2,1.9-1.8,3.6c1.3,5.1,2.5,10.2,3.8,15.3
		C588.7,215.2,588.7,217,588.7,218.8z"/>
	<path class="st2" d="M588.7,213.5c-1.3-5.1-2.5-10.2-3.8-15.3c-0.4-1.7,0.8-2.6,1.8-3.6c0.6-0.6,1.3-1.2,2-1.7
		C588.7,199.7,588.7,206.6,588.7,213.5z"/>
	<path class="st2" d="M588.7,322.4c-1.8-4.9-2.7-10-3.7-15.1c-0.6-2.6,2.2-3.6,3.7-5.1C588.7,309,588.7,315.7,588.7,322.4z"/>
	<path class="st2" d="M588.7,103.6c-1.8-4.9-2.7-10-3.7-15.1c-0.6-2.6,2.2-3.6,3.7-5.1C588.7,90.1,588.7,96.8,588.7,103.6z"/>
	<path class="st1" d="M375.1,210c0.1,2-0.5,3.1-1.6,4.1c-7,6.5-13.9,13-20.8,19.5c-1.8,1.8-3.7,2.2-6.1,1.4
		c-9.1-2.8-18.2-5.5-27.3-8.2c-2.1-0.6-3.3-1.7-3.7-3.9c-2.2-9.3-4.4-18.7-6.6-28c-0.6-2.4-0.1-4.1,1.7-5.8c7-6.5,13.8-13,20.7-19.6
		c1.6-1.5,3.3-1.9,5.5-1.2c9.2,2.8,18.3,5.6,27.6,8.3c2.4,0.7,3.5,2,4,4.4c2,9.2,4.3,18.4,6.4,27.5C375,209.3,375.1,209.9,375.1,210
		z M363.9,207.3c-0.1-0.4-0.2-0.9-0.3-1.4c-1.4-5.8-2.8-11.6-4.1-17.5c-0.4-1.9-1.5-2.9-3.3-3.4c-5.8-1.7-11.6-3.4-17.4-5.2
		c-1.4-0.4-2.5-0.3-3.5,0.7c-4.7,4.4-9.4,8.8-14.2,13.3c-1,1-1.3,2.1-1,3.5c1.4,6,2.8,12,4.2,17.9c0.4,1.5,1.2,2.6,2.7,3.1
		c6,1.8,12.1,3.6,18.1,5.4c1.4,0.4,2.5,0.1,3.5-0.8c4.6-4.3,9.2-8.6,13.8-12.9C363.2,209.3,363.9,208.4,363.9,207.3z"/>
	<path class="st1" d="M245,155.3c0.1,2-0.5,3.1-1.6,4.1c-6.9,6.4-13.8,12.8-20.6,19.4c-2,1.9-3.9,2.3-6.5,1.5
		c-9-2.8-18-5.5-27.1-8.1c-2.1-0.6-3.2-1.8-3.7-3.9c-2.1-9.3-4.3-18.5-6.6-27.7c-0.6-2.5-0.1-4.4,1.8-6.2
		c6.9-6.3,13.6-12.8,20.4-19.3c1.6-1.6,3.3-2.1,5.7-1.4c9.2,2.9,18.3,5.6,27.6,8.3c2.4,0.7,3.4,2.1,4,4.5c2,9.1,4.2,18.2,6.4,27.3
		C244.9,154.5,245,155.2,245,155.3z M215.8,169.2c1.3,0,2.1-0.4,2.7-1c4.7-4.4,9.3-8.7,14-13.1c1.1-1,1.5-2.1,1.1-3.7
		c-1.5-5.9-2.8-11.8-4.2-17.7c-0.4-1.9-1.6-3-3.5-3.5c-5.8-1.6-11.5-3.4-17.2-5.1c-1.4-0.4-2.5-0.3-3.5,0.7
		c-4.7,4.4-9.4,8.8-14.2,13.2c-1.1,1-1.3,2.2-1,3.7c1.4,5.8,2.8,11.6,4.1,17.5c0.4,1.9,1.5,3,3.4,3.6c4.2,1.2,8.4,2.5,12.6,3.7
		C212.2,168.1,214.1,168.7,215.8,169.2z"/>
	<path class="st1" d="M115,326.7c0.1,1.6-0.7,2.7-1.8,3.8c-6.8,6.4-13.7,12.7-20.5,19.2c-2,1.9-3.9,2.3-6.5,1.5
		c-9-2.8-18-5.5-27.1-8.1c-2.1-0.6-3.3-1.7-3.7-3.8c-2.2-9.3-4.4-18.7-6.6-28c-0.6-2.4-0.1-4.1,1.7-5.8c7-6.5,13.8-13.1,20.7-19.6
		c1.4-1.3,3-2,5-1.4c9.3,2.8,18.7,5.7,28,8.4c2.4,0.7,3.5,2,4,4.4c2,9.2,4.3,18.4,6.4,27.5C114.8,325.5,114.9,326.1,115,326.7z
		 M103.7,323.5c0-0.2-0.1-0.4-0.1-0.7c-1.5-6.2-3-12.4-4.4-18.6c-0.4-1.7-1.5-2.5-3.1-3c-5.9-1.7-11.8-3.5-17.7-5.3
		c-1.4-0.4-2.5,0-3.5,0.9c-4.6,4.3-9.2,8.6-13.8,12.9c-1.3,1.2-1.5,2.5-1.1,4.1c1.4,5.6,2.7,11.2,4,16.8c0.5,2.2,1.6,3.5,3.8,4.1
		c5.8,1.6,11.5,3.4,17.2,5.1c1.4,0.4,2.5,0.1,3.5-0.8c4.7-4.4,9.3-8.7,14-13.1C103.2,325.3,103.7,324.5,103.7,323.5z"/>
	<path class="st1" d="M115,107.9c0,1.6-0.8,2.7-1.9,3.8c-6.8,6.4-13.7,12.7-20.5,19.2c-2,1.9-3.9,2.3-6.5,1.5
		c-9-2.8-18-5.5-27.1-8.1c-2.1-0.6-3.2-1.8-3.7-3.9c-2.2-9.3-4.4-18.7-6.6-28c-0.6-2.4-0.1-4.1,1.7-5.8c7-6.5,13.8-13.1,20.7-19.6
		c1.4-1.3,3-2,5-1.3c9.2,2.8,18.5,5.6,27.8,8.3c2.6,0.7,3.7,2.2,4.3,4.8c2,9.1,4.2,18.1,6.3,27.1C114.8,106.5,114.9,107.2,115,107.9
		z M103.7,104c-1.5-6.2-3.1-12.9-4.8-19.5c-0.3-1.3-1.5-1.7-2.7-2.1c-5.9-1.7-11.8-3.5-17.7-5.3c-1.5-0.5-2.6,0-3.7,1
		c-4.5,4.3-9.1,8.5-13.7,12.7c-1.3,1.2-1.6,2.4-1.2,4.1c1.4,5.7,2.8,11.3,4,17c0.5,2.1,1.6,3.4,3.6,4c5.8,1.6,11.5,3.4,17.2,5.1
		c1.4,0.4,2.5,0.2,3.5-0.7c4.7-4.4,9.5-8.8,14.2-13.2C103.3,106.3,103.8,105.5,103.7,104z"/>
	<path class="st1" d="M505.2,264.7c0.1,2.2-0.7,3.4-1.8,4.4c-6.8,6.4-13.7,12.7-20.5,19.2c-1.9,1.8-3.8,2.3-6.3,1.5
		c-9.1-2.8-18.2-5.5-27.3-8.2c-2.1-0.6-3.2-1.8-3.7-3.9c-2.1-9.3-4.3-18.5-6.6-27.7c-0.6-2.5,0-4.4,1.9-6.2
		c6.9-6.3,13.6-12.8,20.4-19.2c1.7-1.6,3.5-2,5.7-1.3c9.2,2.8,18.5,5.6,27.8,8.4c1.9,0.6,3,1.5,3.5,3.5c2.2,9.4,4.4,18.8,6.6,28.2
		C505,264,505.1,264.7,505.2,264.7z M476.2,278.7c1,0,1.7-0.4,2.3-0.9c4.7-4.4,9.5-8.8,14.2-13.2c1-0.9,1.4-2,1.1-3.4
		c-1.5-5.9-2.8-11.8-4.2-17.7c-0.5-2-1.6-3.1-3.6-3.7c-5.7-1.6-11.3-3.3-17-5c-1.6-0.5-2.8-0.3-3.9,0.8c-4.6,4.4-9.3,8.7-14,13.1
		c-1.1,1-1.3,2.1-1,3.5c1.4,5.9,2.8,11.8,4.2,17.7c0.4,1.8,1.4,2.9,3.2,3.5c5.7,1.7,11.5,3.4,17.2,5.1
		C475.3,278.5,475.8,278.6,476.2,278.7z"/>
	<path class="st1" d="M375.1,319.6c0.1,1.9-0.5,3-1.5,3.9c-7.1,6.6-14.1,13.2-21.2,19.8c-1.6,1.6-3.3,1.9-5.5,1.3
		c-9.3-2.8-18.7-5.6-28-8.4c-1.9-0.6-2.9-1.7-3.4-3.6c-2.2-9.4-4.4-18.8-6.7-28.2c-0.6-2.4,0-4.1,1.8-5.8
		c6.9-6.4,13.7-12.9,20.6-19.4c1.6-1.6,3.4-2,5.7-1.3c9.2,2.9,18.5,5.6,27.8,8.4c1.9,0.5,3,1.5,3.5,3.5c2.2,9.4,4.4,18.8,6.6,28.2
		C374.9,318.7,375.1,319.4,375.1,319.6z M337.6,289c-1.1,0-1.9,0.5-2.6,1.2c-4.5,4.3-9.1,8.5-13.7,12.7c-1.3,1.2-1.6,2.5-1.2,4.3
		c1.4,5.6,2.7,11.2,4,16.8c0.5,2.2,1.7,3.5,3.8,4.1c5.7,1.6,11.3,3.3,17,5c1.4,0.4,2.5,0.3,3.6-0.6c4.7-4.4,9.5-8.8,14.2-13.2
		c0.9-0.9,1.4-1.8,1.1-3.2c-1.5-6.1-2.9-12.3-4.4-18.4c-0.4-1.6-1.3-2.6-3-3.1c-5.4-1.6-10.7-3.2-16.1-4.8
		C339.4,289.5,338.5,289.2,337.6,289z"/>
	<path class="st1" d="M114.9,216.8c0.1,1.9-0.5,3-1.4,3.9c-7.1,6.6-14.1,13.2-21.1,19.8c-1.6,1.5-3.3,2-5.5,1.3
		c-9.3-2.8-18.7-5.6-28-8.4c-1.9-0.6-3-1.7-3.4-3.6c-2.2-9.4-4.4-18.8-6.7-28.2c-0.6-2.4,0-4.1,1.7-5.8c7-6.5,13.8-13.1,20.7-19.6
		c1.3-1.3,2.9-2,4.8-1.4c9.6,2.9,19.1,5.8,28.7,8.6c1.9,0.6,2.9,1.7,3.3,3.6c2.1,9.3,4.3,18.5,6.5,27.8
		C114.7,215.8,114.9,216.6,114.9,216.8z M103.7,214.1c0-0.2-0.1-0.4-0.1-0.7c-1.5-6.3-3-12.6-4.5-18.9c-0.4-1.6-1.5-2.3-3-2.8
		c-5.7-1.7-11.5-3.4-17.2-5.1c-1.6-0.5-2.9-0.3-4.2,0.9c-4.6,4.4-9.3,8.8-14,13.1c-1.1,1-1.2,2.2-0.9,3.5c1.4,5.8,2.8,11.6,4.1,17.5
		c0.4,1.9,1.5,3.1,3.4,3.6c5.8,1.7,11.6,3.4,17.4,5.2c1.4,0.4,2.5,0.2,3.5-0.7c4.7-4.4,9.3-8.7,14-13.1
		C103.1,215.9,103.7,215.2,103.7,214.1z"/>
	<path class="st1" d="M-15.2,162.1c0.1,1.9-0.5,3-1.5,3.9c-7,6.5-14,13.1-21,19.7c-1.8,1.7-3.6,2.1-5.9,1.4
		c-9.2-2.8-18.4-5.6-27.6-8.3c-2-0.6-3.1-1.7-3.6-3.7c-2.2-9.4-4.4-18.8-6.7-28.2c-0.6-2.4,0-4.1,1.8-5.8
		c6.9-6.4,13.7-12.9,20.6-19.4c1.7-1.6,3.4-2,5.7-1.3c9.2,2.9,18.5,5.6,27.8,8.4c1.9,0.5,3,1.5,3.5,3.5c2.2,9.4,4.4,18.8,6.6,28.2
		C-15.3,161.3-15.2,162-15.2,162.1z M-26.3,159.3c0-0.2-0.1-0.4-0.1-0.7c-1.5-6.2-3-12.4-4.4-18.6c-0.4-1.8-1.7-2.5-3.4-3
		c-5.5-1.6-11.1-3.1-16.5-5c-2.1-0.7-3.6-0.3-5,1.1c-4.5,4.2-8.9,8.5-13.4,12.7c-1,1-1.3,2.1-1,3.5c1.4,5.9,2.8,11.8,4.2,17.7
		c0.4,1.8,1.4,2.9,3.2,3.5c5.9,1.7,11.8,3.5,17.7,5.3c1.3,0.4,2.4,0.2,3.3-0.7c4.8-4.5,9.6-8.9,14.3-13.4
		C-26.8,161-26.4,160.2-26.3,159.3z"/>
	<path class="st1" d="M505.2,155.3c0.1,1.9-0.4,3-1.4,3.9c-7,6.5-14,13.1-21,19.7c-1.9,1.8-3.7,2.1-6.1,1.4
		c-9.1-2.8-18.2-5.5-27.3-8.2c-2.1-0.6-3.2-1.8-3.7-3.9c-2.2-9.3-4.4-18.7-6.6-28c-0.6-2.4-0.1-4.1,1.7-5.8
		c7-6.5,13.8-13.1,20.8-19.6c1.5-1.4,3.1-1.9,5.2-1.3c8.9,2.8,17.9,5.5,26.9,8c3,0.8,4.4,2.4,5,5.5c1.8,8.8,4.1,17.6,6.1,26.4
		C505,154.3,505.1,155.1,505.2,155.3z M467.6,124.8c-1.1,0.1-1.8,0.5-2.5,1.1c-4.8,4.5-9.5,9-14.3,13.5c-0.9,0.9-1,2-0.7,3.1
		c1.4,6,2.8,12,4.2,17.9c0.4,1.6,1.3,2.7,2.9,3.2c6,1.8,11.9,3.5,17.9,5.4c1.4,0.4,2.5,0.1,3.5-0.8c4.7-4.4,9.3-8.7,14-13.1
		c1.1-1,1.4-2.1,1.1-3.7c-1.5-5.9-2.9-11.8-4.2-17.7c-0.4-1.9-1.6-3-3.5-3.5c-3.4-0.9-6.7-2-10.1-3
		C473.2,126.4,470.3,125.6,467.6,124.8z"/>
	<path class="st1" d="M375.1,100.7c0.1,1.9-0.5,3-1.5,3.9c-7.1,6.6-14.1,13.2-21.2,19.8c-1.6,1.6-3.3,1.9-5.5,1.3
		c-9.3-2.8-18.7-5.6-28-8.4c-1.9-0.6-2.9-1.7-3.4-3.6c-2.2-9.4-4.4-18.8-6.7-28.2c-0.6-2.4,0-4.1,1.8-5.8
		c6.9-6.4,13.7-12.9,20.6-19.4c1.6-1.6,3.4-2,5.7-1.3c9.2,2.9,18.5,5.6,27.8,8.4c1.9,0.5,3,1.5,3.5,3.5c2.2,9.4,4.4,18.8,6.6,28.2
		C375,99.8,375.1,100.5,375.1,100.7z M363.9,97.9c0-0.2-0.1-0.4-0.1-0.7c-1.5-6.2-3-12.4-4.4-18.6c-0.4-1.7-1.5-2.5-3.1-3
		c-5.9-1.7-11.8-3.5-17.7-5.3c-1.4-0.4-2.5-0.1-3.5,0.9c-4.6,4.3-9.2,8.6-13.8,12.9c-1.3,1.2-1.5,2.4-1.1,4.1c1.4,5.7,2.8,11.3,4,17
		c0.5,2.1,1.6,3.3,3.7,3.9c5.8,1.6,11.5,3.4,17.2,5.1c1.4,0.4,2.5,0.2,3.5-0.8c4.7-4.4,9.3-8.7,14-13.1
		C363.3,99.7,363.8,99,363.9,97.9z"/>
	<path class="st1" d="M245,264.7c0.1,2-0.5,3.1-1.6,4.1c-7,6.5-13.9,13-20.8,19.5c-1.8,1.7-3.5,2.2-5.9,1.5
		c-9.3-2.8-18.7-5.6-28-8.4c-1.8-0.5-2.8-1.7-3.2-3.5c-2.2-9.5-4.4-19-6.7-28.4c-0.6-2.3,0-4,1.7-5.6c7-6.5,13.8-13.1,20.7-19.6
		c1.6-1.5,3.3-1.9,5.5-1.3c9.2,2.8,18.3,5.6,27.6,8.3c2.4,0.7,3.5,2,4,4.4c2,9.2,4.3,18.4,6.4,27.5C244.9,264,245,264.6,245,264.7z
		 M207.6,234.3c-1.1,0-1.9,0.5-2.5,1.1c-4.7,4.4-9.4,8.8-14.2,13.3c-1.2,1.1-1.2,2.3-0.8,3.7c1.4,5.7,2.7,11.3,4,17
		c0.5,2.1,1.6,3.3,3.7,3.9c5.8,1.6,11.5,3.4,17.2,5.1c1.4,0.4,2.5,0.2,3.5-0.7c4.7-4.4,9.3-8.7,14-13.1c1.1-1,1.5-2.1,1.1-3.6
		c-1.5-6-2.9-11.9-4.3-17.9c-0.4-1.7-1.4-2.7-3.1-3.2c-3.7-1-7.3-2.2-11-3.3C212.6,235.8,210,235,207.6,234.3z"/>
	<path class="st1" d="M-15.2,271.4c0.2,2.3-0.8,3.5-1.9,4.5c-6.8,6.3-13.6,12.6-20.3,19c-1.9,1.8-3.8,2.3-6.3,1.6
		c-9.1-2.8-18.2-5.5-27.3-8.2c-2.1-0.6-3.2-1.8-3.7-3.9c-2.1-9.3-4.3-18.5-6.6-27.7c-0.6-2.5-0.1-4.4,1.8-6.2
		c6.9-6.4,13.7-12.9,20.6-19.4c1.5-1.4,3.1-1.9,5.2-1.3c9.2,2.9,18.5,5.6,27.8,8.3c2.4,0.7,3.5,2.1,4,4.5c2,9.1,4.2,18.2,6.4,27.3
		C-15.3,270.6-15.2,271.3-15.2,271.4z M-52.6,241c-1.3,0-2.1,0.7-2.9,1.4c-4.6,4.3-9.2,8.7-13.8,13c-1.1,1-1.2,2.2-0.9,3.5
		c1.4,5.8,2.8,11.6,4.1,17.5c0.4,1.9,1.5,3.1,3.4,3.6c5.8,1.7,11.7,3.4,17.5,5.2c1.4,0.4,2.5,0.2,3.5-0.8c4.7-4.4,9.3-8.7,14-13.1
		c1.1-1,1.5-2.1,1.1-3.7c-1.5-6-2.9-12.1-4.3-18.2c-0.4-1.8-1.5-2.5-3.1-2.9c-5.4-1.6-10.7-3.2-16.1-4.8
		C-51,241.5-51.9,241.2-52.6,241z"/>
	<path class="st0" d="M363.9,207.3c0,1.2-0.6,2-1.4,2.7c-4.6,4.3-9.2,8.6-13.8,12.9c-1,0.9-2.1,1.3-3.5,0.8
		c-6-1.8-12.1-3.6-18.1-5.4c-1.5-0.5-2.3-1.6-2.7-3.1c-1.4-6-2.8-12-4.2-17.9c-0.3-1.4,0-2.5,1-3.5c4.7-4.4,9.5-8.8,14.2-13.3
		c1-1,2.1-1.1,3.5-0.7c5.8,1.8,11.6,3.5,17.4,5.2c1.8,0.5,2.8,1.5,3.3,3.4c1.3,5.8,2.7,11.7,4.1,17.5
		C363.7,206.4,363.8,206.8,363.9,207.3z M344.8,219.1c1.4,0.2,2-0.2,2.5-0.7c3.6-3.4,7.2-6.8,10.8-10.2c0.9-0.9,1.2-1.8,0.8-3
		c-1.1-4.5-2.2-9-3.2-13.5c-0.4-1.5-1.1-2.5-2.7-3c-4.6-1.3-9.2-2.7-13.8-4.1c-1.3-0.4-2.2,0-3,0.8c-3.5,3.3-6.9,6.6-10.4,9.9
		c-1.1,1-1.3,2.1-0.9,3.5c0.7,2.8,1.7,5.6,1.9,8.4c0.4,5.8,3.4,8.5,8.9,9.4C339.1,217.1,342.2,218.4,344.8,219.1z"/>
	<path class="st0" d="M215.8,169.2c-1.6-0.5-3.6-1.1-5.6-1.7c-4.2-1.3-8.4-2.5-12.6-3.7c-1.9-0.5-3-1.7-3.4-3.6
		c-1.3-5.8-2.7-11.7-4.1-17.5c-0.4-1.5-0.1-2.6,1-3.7c4.7-4.4,9.5-8.8,14.2-13.2c1-1,2.2-1.1,3.5-0.7c5.7,1.8,11.5,3.5,17.2,5.1
		c1.9,0.5,3,1.6,3.5,3.5c1.4,5.9,2.7,11.8,4.2,17.7c0.4,1.5,0,2.6-1.1,3.7c-4.7,4.4-9.3,8.7-14,13.1
		C217.9,168.8,217.1,169.2,215.8,169.2z M215.1,164.5c1,0,1.5-0.2,1.9-0.6c3.8-3.6,7.5-7.1,11.3-10.7c0.8-0.7,0.9-1.6,0.6-2.6
		c-1.1-4.6-2.2-9.2-3.3-13.8c-0.4-1.6-1.2-2.4-2.8-2.9c-4.5-1.3-9.1-2.6-13.5-4c-1.3-0.4-2.3-0.1-3.2,0.8c-3.3,3.2-6.7,6.4-10.1,9.6
		c-1.2,1.1-1.6,2.2-1.1,3.8c0.7,2.6,1.6,5.3,1.8,7.9c0.4,6,3.5,9,9.4,9.9C209.2,162.4,212.3,163.7,215.1,164.5z"/>
	<path class="st0" d="M103.7,323.5c0,1.1-0.6,1.8-1.3,2.5c-4.7,4.4-9.3,8.7-14,13.1c-1,0.9-2.1,1.2-3.5,0.8
		c-5.7-1.7-11.5-3.5-17.2-5.1c-2.2-0.6-3.3-1.9-3.8-4.1c-1.2-5.6-2.6-11.2-4-16.8c-0.4-1.6-0.2-2.9,1.1-4.1
		c4.6-4.3,9.2-8.6,13.8-12.9c1-0.9,2-1.3,3.5-0.9c5.9,1.8,11.8,3.6,17.7,5.3c1.6,0.5,2.7,1.3,3.1,3c1.5,6.2,3,12.4,4.4,18.6
		C103.7,323,103.7,323.3,103.7,323.5z M84.8,335.3c1.2,0.2,1.9-0.3,2.5-0.9c3.5-3.4,7.1-6.7,10.6-10.1c0.9-0.8,1.2-1.7,0.9-3
		c-1.1-4.6-2.2-9.2-3.2-13.8c-0.4-1.6-1.3-2.4-2.8-2.9c-4.5-1.3-9-2.6-13.5-4c-1.2-0.4-2.2-0.2-3.1,0.7c-3.5,3.4-7.1,6.7-10.6,10.1
		c-1,0.9-1.2,2-0.8,3.3c0.7,2.7,1.7,5.4,1.9,8.2c0.4,6.2,3.7,9,9.6,9.9C79.2,333.4,82.2,334.6,84.8,335.3z"/>
	<path class="st0" d="M103.7,104c0.1,1.5-0.4,2.3-1.2,3c-4.7,4.4-9.4,8.8-14.2,13.2c-1,1-2.2,1.1-3.5,0.7
		c-5.7-1.8-11.5-3.5-17.2-5.1c-2.1-0.6-3.2-1.8-3.6-4c-1.3-5.7-2.6-11.4-4-17c-0.4-1.7-0.1-2.9,1.2-4.1c4.6-4.2,9.1-8.5,13.7-12.7
		c1.1-1,2.1-1.5,3.7-1c5.9,1.8,11.8,3.5,17.7,5.3c1.2,0.4,2.4,0.8,2.7,2.1C100.6,91.1,102.2,97.8,103.7,104z M84.6,116.4
		c1.4,0.2,2-0.2,2.6-0.7c3.6-3.4,7.2-6.8,10.8-10.2c0.9-0.9,1.1-1.7,0.8-3c-1.1-4.6-2.2-9.2-3.2-13.8c-0.3-1.5-1.1-2.3-2.6-2.8
		c-4.6-1.3-9.2-2.7-13.8-4.1c-1.2-0.4-2.2-0.1-3.1,0.7c-3.5,3.3-6.9,6.6-10.4,9.9c-1.1,1-1.3,2-1,3.4c1.1,4.5,2.2,9,3.2,13.5
		c0.3,1.5,1.2,2.3,2.6,2.8c3.9,1.1,7.8,2.3,11.7,3.5C83.2,116,84.2,116.3,84.6,116.4z"/>
	<path class="st0" d="M476.2,278.7c-0.4-0.1-0.9-0.2-1.5-0.4c-5.7-1.7-11.5-3.4-17.2-5.1c-1.8-0.5-2.8-1.7-3.2-3.5
		c-1.4-5.9-2.8-11.8-4.2-17.7c-0.3-1.4-0.1-2.5,1-3.5c4.7-4.4,9.3-8.7,14-13.1c1.2-1.1,2.4-1.3,3.9-0.8c5.6,1.8,11.3,3.5,17,5
		c2,0.6,3.1,1.7,3.6,3.7c1.3,5.9,2.7,11.8,4.2,17.7c0.4,1.4-0.1,2.5-1.1,3.4c-4.7,4.4-9.4,8.8-14.2,13.2
		C477.9,278.3,477.2,278.6,476.2,278.7z M475.1,273.9c1.2,0.1,1.8-0.3,2.3-0.8c3.6-3.4,7.2-6.8,10.8-10.2c0.8-0.8,1.2-1.6,0.9-2.8
		c-1.2-4.7-2.3-9.3-3.3-14c-0.3-1.5-1.2-2.3-2.6-2.7c-4.6-1.3-9.2-2.7-13.8-4.1c-1.2-0.4-2.2-0.1-3,0.8c-3.5,3.3-6.9,6.6-10.4,9.9
		c-1.1,1-1.3,2.1-0.9,3.4c0.7,2.8,1.3,5.6,2,8.4c2.2,9,0.2,6.5,8.9,9.4C469,272.2,472.3,273.1,475.1,273.9z"/>
	<path class="st0" d="M337.6,289c0.9,0.3,1.8,0.5,2.7,0.8c5.4,1.6,10.7,3.2,16.1,4.8c1.6,0.5,2.6,1.4,3,3.1
		c1.4,6.1,2.9,12.3,4.4,18.4c0.3,1.4-0.2,2.3-1.1,3.2c-4.7,4.4-9.4,8.8-14.2,13.2c-1,1-2.2,1.1-3.6,0.6c-5.6-1.7-11.3-3.4-17-5
		c-2.2-0.6-3.3-1.9-3.8-4.1c-1.2-5.6-2.6-11.2-4-16.8c-0.4-1.8-0.1-3.1,1.2-4.3c4.6-4.2,9.1-8.5,13.7-12.7
		C335.7,289.5,336.5,289,337.6,289z M345,328.6c1.3,0.1,1.9-0.3,2.5-0.9c3.5-3.3,6.9-6.6,10.4-9.9c1-1,1.4-1.9,1-3.4
		c-1.1-4.4-2.2-8.8-3.2-13.3c-0.4-1.7-1.2-2.6-2.9-3.1c-4.5-1.3-9.1-2.6-13.6-4c-1.2-0.4-2.2-0.2-3.1,0.7c-3.5,3.3-6.9,6.6-10.4,9.9
		c-1,1-1.4,2-1,3.4c0.7,2.6,1.7,5.3,1.8,7.9c0.4,6.4,3.9,9.3,9.9,10.2C339.6,326.7,342.4,327.9,345,328.6z"/>
	<path class="st0" d="M103.7,214.1c-0.1,1.1-0.6,1.8-1.3,2.5c-4.7,4.4-9.3,8.7-14,13.1c-1,0.9-2.2,1.2-3.5,0.7
		c-5.8-1.8-11.6-3.5-17.4-5.2c-1.9-0.5-2.9-1.7-3.4-3.6c-1.3-5.8-2.7-11.7-4.1-17.5c-0.3-1.3-0.2-2.5,0.9-3.5
		c4.7-4.4,9.3-8.7,14-13.1c1.2-1.2,2.5-1.4,4.2-0.9c5.7,1.8,11.5,3.5,17.2,5.1c1.5,0.4,2.6,1.2,3,2.8c1.5,6.3,3,12.6,4.5,18.9
		C103.7,213.7,103.7,213.9,103.7,214.1z M84.7,225.9c1.4,0.2,2-0.2,2.5-0.7c3.6-3.4,7.2-6.8,10.8-10.2c0.9-0.9,1.2-1.8,0.8-3
		c-1.1-4.5-2.2-9-3.2-13.5c-0.4-1.5-1.1-2.5-2.7-3c-4.6-1.3-9.2-2.7-13.8-4.1c-1.3-0.4-2.2-0.1-3,0.8c-3.4,3.2-6.8,6.5-10.3,9.7
		c-1.1,1-1.5,2.1-1.1,3.6c0.8,2.8,1.8,5.6,1.9,8.4c0.4,5.8,3.4,8.5,8.9,9.4C78.9,223.8,82.1,225.1,84.7,225.9z"/>
	<path class="st0" d="M-26.3,159.3c0,1-0.4,1.7-1.1,2.4c-4.8,4.5-9.6,9-14.3,13.4c-0.9,0.9-2,1.1-3.3,0.7
		c-5.9-1.8-11.8-3.5-17.7-5.3c-1.8-0.5-2.8-1.7-3.2-3.5c-1.4-5.9-2.8-11.8-4.2-17.7c-0.3-1.4-0.1-2.5,1-3.5
		c4.5-4.2,8.9-8.5,13.4-12.7c1.4-1.4,2.9-1.8,5-1.1c5.5,1.8,11,3.4,16.5,5c1.6,0.5,2.9,1.2,3.4,3c1.5,6.2,3,12.4,4.4,18.6
		C-26.4,158.8-26.4,159.1-26.3,159.3z M-45.1,171.2c1.1,0,1.7-0.2,2.1-0.7c3.7-3.5,7.3-6.9,11-10.4c0.8-0.8,1.1-1.6,0.8-2.8
		c-1.1-4.6-2.2-9.2-3.3-13.8c-0.4-1.6-1.2-2.5-2.8-2.9c-4.5-1.3-9.1-2.6-13.5-4c-1.3-0.4-2.3-0.1-3.3,0.8c-3.4,3.3-6.8,6.5-10.3,9.7
		c-1.1,1.1-1.4,2.2-1,3.7c0.7,2.7,1.7,5.4,1.9,8.2c0.5,5.8,3.3,8.8,9.1,9.6C-51.1,169.1-47.9,170.4-45.1,171.2z"/>
	<path class="st0" d="M467.6,124.8c2.7,0.8,5.5,1.6,8.4,2.4c3.4,1,6.7,2.1,10.1,3c1.9,0.5,3,1.6,3.5,3.5c1.3,5.9,2.7,11.8,4.2,17.7
		c0.4,1.5,0,2.7-1.1,3.7c-4.7,4.4-9.3,8.7-14,13.1c-1,0.9-2.1,1.2-3.5,0.8c-6-1.8-11.9-3.6-17.9-5.4c-1.6-0.5-2.5-1.6-2.9-3.2
		c-1.4-6-2.8-12-4.2-17.9c-0.3-1.2-0.2-2.2,0.7-3.1c4.8-4.5,9.5-9,14.3-13.5C465.8,125.3,466.5,124.9,467.6,124.8z M475,164.5
		c1.2,0.1,1.8-0.2,2.4-0.7c3.6-3.4,7.2-6.8,10.8-10.2c0.9-0.9,1.2-1.8,0.9-3c-1.1-4.5-2.2-9-3.2-13.5c-0.4-1.5-1.1-2.5-2.7-3
		c-4.6-1.3-9.2-2.7-13.8-4.1c-1.3-0.4-2.2-0.1-3,0.8c-3.5,3.3-6.9,6.6-10.4,9.9c-1.1,1-1.3,2.1-0.9,3.5c0.7,2.7,1.7,5.4,1.9,8.2
		c0.4,5.9,3.4,8.9,9.2,9.7C469.3,162.4,472.4,163.7,475,164.5z"/>
	<path class="st0" d="M363.9,97.9c-0.1,1.1-0.6,1.8-1.3,2.5c-4.7,4.4-9.3,8.7-14,13.1c-1,0.9-2.1,1.2-3.5,0.8
		c-5.7-1.7-11.5-3.5-17.2-5.1c-2.1-0.6-3.2-1.8-3.7-3.9c-1.3-5.7-2.6-11.4-4-17c-0.4-1.7-0.1-2.9,1.1-4.1c4.6-4.3,9.2-8.6,13.8-12.9
		c1-0.9,2.1-1.3,3.5-0.9c5.9,1.8,11.8,3.6,17.7,5.3c1.6,0.5,2.7,1.3,3.1,3c1.5,6.2,3,12.4,4.4,18.6
		C363.8,97.5,363.9,97.7,363.9,97.9z M345.1,109.8c1.2,0.1,1.8-0.4,2.3-0.9c3.5-3.4,7.1-6.7,10.6-10.1c0.9-0.8,1.3-1.7,1-3
		c-1.2-4.6-2.2-9.2-3.3-13.8c-0.4-1.6-1.2-2.4-2.8-2.9c-4.5-1.3-9.1-2.6-13.6-4c-1.2-0.4-2.2-0.2-3.1,0.7
		c-3.5,3.4-7.1,6.7-10.6,10.1c-1,0.9-1.2,2-0.9,3.2c0.7,2.7,1.7,5.4,1.9,8.2c0.4,6.2,3.7,9.1,9.6,10
		C339.5,107.8,342.5,109,345.1,109.8z"/>
	<path class="st0" d="M207.6,234.3c2.4,0.7,5,1.5,7.6,2.3c3.7,1.1,7.3,2.2,11,3.3c1.7,0.5,2.7,1.5,3.1,3.2c1.4,6,2.8,12,4.3,17.9
		c0.4,1.5-0.1,2.6-1.1,3.6c-4.7,4.4-9.3,8.7-14,13.1c-1,0.9-2.1,1.2-3.5,0.7c-5.7-1.8-11.5-3.5-17.2-5.1c-2.1-0.6-3.2-1.8-3.7-3.9
		c-1.3-5.7-2.6-11.4-4-17c-0.3-1.4-0.3-2.7,0.8-3.7c4.7-4.4,9.4-8.8,14.2-13.3C205.7,234.8,206.4,234.3,207.6,234.3z M214.7,273.9
		c1.4,0.2,2-0.2,2.5-0.7c3.6-3.4,7.2-6.8,10.8-10.2c0.9-0.8,1.2-1.7,0.9-3c-1.1-4.5-2.2-9-3.2-13.5c-0.4-1.7-1.3-2.6-2.9-3.1
		c-4.5-1.3-9.1-2.6-13.6-4c-1.2-0.4-2.2-0.1-3,0.7c-3.5,3.3-6.9,6.6-10.4,9.9c-1.1,1-1.3,2-1,3.4c1.1,4.5,2.2,9,3.2,13.5
		c0.3,1.5,1.2,2.3,2.6,2.7c3.9,1.1,7.8,2.3,11.7,3.5C213.3,273.4,214.3,273.7,214.7,273.9z"/>
	<path class="st0" d="M-52.6,241c0.8,0.2,1.7,0.5,2.6,0.8c5.4,1.6,10.7,3.2,16.1,4.8c1.6,0.5,2.7,1.2,3.1,2.9
		c1.4,6.1,2.8,12.1,4.3,18.2c0.4,1.5,0,2.6-1.1,3.7c-4.7,4.4-9.3,8.7-14,13.1c-1,0.9-2.1,1.2-3.5,0.8c-5.8-1.8-11.6-3.5-17.5-5.2
		c-1.9-0.5-3-1.7-3.4-3.6c-1.3-5.8-2.7-11.7-4.1-17.5c-0.3-1.3-0.2-2.5,0.9-3.5c4.6-4.3,9.2-8.7,13.8-13
		C-54.8,241.7-53.9,241-52.6,241z M-45.2,280.6c1.2,0.2,1.9-0.3,2.5-0.9c3.5-3.4,7.1-6.7,10.6-10.1c1-0.9,1.2-1.9,0.9-3.2
		c-1.1-4.4-2.2-8.8-3.2-13.3c-0.4-1.6-1.2-2.6-2.9-3.1c-4.5-1.3-9.1-2.6-13.6-4c-1.2-0.4-2.2-0.2-3.1,0.7
		c-3.5,3.4-7.1,6.7-10.6,10.1c-1,0.9-1.2,2-0.8,3.3c0.7,2.6,1.7,5.3,1.8,7.9c0.4,6.4,3.9,9.3,9.9,10.2
		C-50.7,278.7-47.8,279.9-45.2,280.6z"/>
	<path class="st2" d="M344.8,219.1c-2.6-0.8-5.8-2.1-9.1-2.6c-5.6-0.9-8.5-3.6-8.9-9.4c-0.2-2.8-1.2-5.6-1.9-8.4
		c-0.4-1.4-0.2-2.5,0.9-3.5c3.5-3.3,7-6.6,10.4-9.9c0.9-0.8,1.8-1.2,3-0.8c4.6,1.4,9.2,2.8,13.8,4.1c1.6,0.5,2.4,1.4,2.7,3
		c1,4.5,2.1,9,3.2,13.5c0.3,1.2,0.1,2.2-0.8,3c-3.6,3.4-7.2,6.8-10.8,10.2C346.8,218.9,346.2,219.3,344.8,219.1z"/>
	<path class="st2" d="M215.1,164.5c-2.8-0.8-5.8-2.1-9-2.6c-5.8-0.9-9-3.9-9.4-9.9c-0.2-2.7-1.1-5.3-1.8-7.9c-0.5-1.6,0-2.7,1.1-3.8
		c3.4-3.1,6.7-6.4,10.1-9.6c0.9-0.9,1.9-1.2,3.2-0.8c4.5,1.4,9,2.8,13.5,4c1.6,0.4,2.4,1.3,2.8,2.9c1,4.6,2.1,9.2,3.3,13.8
		c0.3,1,0.2,1.9-0.6,2.6c-3.8,3.6-7.5,7.1-11.3,10.7C216.6,164.3,216.1,164.5,215.1,164.5z"/>
	<path class="st2" d="M84.8,335.3c-2.7-0.8-5.6-2-8.6-2.5c-5.9-0.9-9.2-3.8-9.6-9.9c-0.2-2.8-1.2-5.5-1.9-8.2
		c-0.3-1.3-0.2-2.3,0.8-3.3c3.6-3.3,7.1-6.7,10.6-10.1c0.9-0.9,1.8-1.1,3.1-0.7c4.5,1.4,9,2.7,13.5,4c1.5,0.4,2.5,1.3,2.8,2.9
		c1,4.6,2.1,9.2,3.2,13.8c0.3,1.3,0,2.1-0.9,3c-3.6,3.3-7.1,6.7-10.6,10.1C86.7,335.1,86.1,335.5,84.8,335.3z"/>
	<path class="st2" d="M84.6,116.4c-0.4-0.1-1.4-0.4-2.4-0.7c-3.9-1.2-7.8-2.3-11.7-3.5c-1.5-0.4-2.3-1.2-2.6-2.8
		c-1-4.5-2.1-9-3.2-13.5c-0.4-1.4-0.1-2.5,1-3.4c3.5-3.3,7-6.6,10.4-9.9c0.9-0.8,1.8-1.1,3.1-0.7c4.6,1.4,9.2,2.8,13.8,4.1
		c1.5,0.4,2.3,1.3,2.6,2.8c1,4.6,2.1,9.2,3.2,13.8c0.3,1.3,0.1,2.1-0.8,3c-3.6,3.4-7.2,6.8-10.8,10.2
		C86.6,116.3,86,116.6,84.6,116.4z"/>
	<path class="st1" d="M475.1,273.9c-2.9-0.8-6.1-1.7-9.3-2.8c-8.7-2.8-6.7-0.4-8.9-9.4c-0.7-2.8-1.3-5.6-2-8.4
		c-0.4-1.4-0.1-2.5,0.9-3.4c3.5-3.3,7-6.6,10.4-9.9c0.9-0.8,1.8-1.1,3-0.8c4.6,1.4,9.2,2.8,13.8,4.1c1.5,0.4,2.3,1.2,2.6,2.7
		c1.1,4.7,2.2,9.3,3.3,14c0.3,1.2-0.1,2-0.9,2.8c-3.6,3.4-7.2,6.8-10.8,10.2C476.9,273.7,476.3,274,475.1,273.9z"/>
	<path class="st1" d="M345,328.6c-2.6-0.7-5.4-1.9-8.4-2.4c-6-0.9-9.5-3.8-9.9-10.2c-0.2-2.7-1.1-5.3-1.8-7.9c-0.4-1.4,0-2.5,1-3.4
		c3.5-3.3,7-6.6,10.4-9.9c0.9-0.8,1.8-1.1,3.1-0.7c4.5,1.4,9,2.8,13.6,4c1.7,0.5,2.5,1.4,2.9,3.1c1,4.4,2,8.9,3.2,13.3
		c0.4,1.5,0,2.4-1,3.4c-3.5,3.3-7,6.6-10.4,9.9C346.9,328.3,346.2,328.8,345,328.6z"/>
	<path class="st2" d="M84.7,225.9c-2.6-0.8-5.8-2.1-9.1-2.6c-5.6-0.9-8.5-3.6-8.9-9.4c-0.2-2.8-1.2-5.6-1.9-8.4
		c-0.4-1.5,0-2.6,1.1-3.6c3.5-3.2,6.9-6.5,10.3-9.7c0.9-0.8,1.8-1.2,3-0.8c4.6,1.4,9.2,2.8,13.8,4.1c1.6,0.5,2.4,1.4,2.7,3
		c1,4.5,2.1,9,3.2,13.5c0.3,1.3,0.1,2.2-0.8,3c-3.6,3.4-7.2,6.8-10.8,10.2C86.7,225.6,86.1,226,84.7,225.9z"/>
	<path class="st2" d="M-45.1,171.2c-2.8-0.8-6-2.2-9.3-2.6c-5.7-0.9-8.6-3.8-9.1-9.6c-0.2-2.8-1.1-5.5-1.9-8.2
		c-0.4-1.5-0.2-2.6,1-3.7c3.5-3.2,6.9-6.5,10.3-9.7c1-0.9,1.9-1.2,3.3-0.8c4.5,1.4,9,2.8,13.5,4c1.6,0.4,2.4,1.3,2.8,2.9
		c1,4.6,2.1,9.2,3.3,13.8c0.3,1.2,0,2-0.8,2.8c-3.7,3.5-7.3,6.9-11,10.4C-43.5,171-44,171.3-45.1,171.2z"/>
	<path class="st1" d="M475,164.5c-2.7-0.8-5.8-2.1-9-2.6c-5.8-0.9-8.8-3.8-9.2-9.7c-0.2-2.8-1.2-5.5-1.9-8.2
		c-0.4-1.4-0.1-2.5,0.9-3.5c3.5-3.3,7-6.6,10.4-9.9c0.9-0.8,1.8-1.2,3-0.8c4.6,1.4,9.2,2.8,13.8,4.1c1.6,0.5,2.4,1.4,2.7,3
		c1,4.5,2.1,9,3.2,13.5c0.3,1.3,0,2.2-0.9,3c-3.6,3.4-7.2,6.8-10.8,10.2C476.9,164.2,476.3,164.6,475,164.5z"/>
	<path class="st1" d="M345.1,109.8c-2.6-0.8-5.6-2-8.8-2.5c-5.9-0.9-9.2-3.8-9.6-10c-0.2-2.8-1.2-5.5-1.9-8.2
		c-0.3-1.3-0.1-2.3,0.9-3.2c3.6-3.3,7.1-6.7,10.6-10.1c0.9-0.9,1.8-1,3.1-0.7c4.5,1.4,9,2.8,13.6,4c1.6,0.4,2.4,1.3,2.8,2.9
		c1,4.6,2.1,9.2,3.3,13.8c0.3,1.3-0.1,2.1-1,3c-3.5,3.3-7.1,6.7-10.6,10.1C346.9,109.4,346.4,109.8,345.1,109.8z"/>
	<path class="st2" d="M214.7,273.9c-0.4-0.1-1.4-0.4-2.4-0.7c-3.9-1.2-7.8-2.3-11.7-3.5c-1.5-0.4-2.3-1.2-2.6-2.7
		c-1-4.5-2-9-3.2-13.5c-0.4-1.4-0.1-2.5,1-3.4c3.5-3.3,7-6.6,10.4-9.9c0.9-0.8,1.8-1.1,3-0.7c4.5,1.4,9,2.8,13.6,4
		c1.7,0.5,2.5,1.4,2.9,3.1c1,4.5,2.1,9,3.2,13.5c0.3,1.3,0,2.2-0.9,3c-3.6,3.4-7.2,6.8-10.8,10.2C216.7,273.7,216.1,274,214.7,273.9
		z"/>
	<path class="st2" d="M-45.2,280.6c-2.6-0.8-5.4-1.9-8.4-2.4c-6-0.9-9.5-3.8-9.9-10.2c-0.2-2.7-1.1-5.3-1.8-7.9
		c-0.3-1.3-0.2-2.3,0.8-3.3c3.6-3.3,7.1-6.7,10.6-10.1c0.9-0.9,1.8-1.1,3.1-0.7c4.5,1.4,9,2.8,13.6,4c1.7,0.5,2.5,1.5,2.9,3.1
		c1,4.4,2,8.9,3.2,13.3c0.3,1.3,0.1,2.3-0.9,3.2c-3.6,3.3-7.1,6.7-10.6,10.1C-43.4,280.3-44,280.8-45.2,280.6z"/>
</g>
</svg>
