<?xml version="1.0" encoding="utf-8"?>
<!-- Generator: Adobe Illustrator 19.0.1, SVG Export Plug-In . SVG Version: 6.00 Build 0)  -->
<svg version="1.1" id="Layer_1" xmlns="http://www.w3.org/2000/svg" xmlns:xlink="http://www.w3.org/1999/xlink" x="0px" y="0px"
	 viewBox="0 0 380 327" style="enable-background:new 0 0 380 327;" xml:space="preserve">
<style type="text/css">
	.st0{fill:#83BFE0;}
	.st1{fill:#FFFFFF;}
</style>
<rect x="0" class="st0" width="380" height="327"/>
<g id="r14MNu.tif">
	<g>
		<path class="st1" d="M184.9,219.3c-1.2-0.6-2.6-0.3-3.9-0.6c-0.9-0.2-0.9-0.4-0.3-1c3.6-3.8,7.2-7.7,10.8-11.5
			c0.9-1,2.1-1.4,3.5-1.4c7.8,0,15.5,0.1,23.3,0.1c0.7,0,1.1,0.3,1.5,0.8c1.2,1.8,3.4,2,4.9,0.7c1.4-1.3,1.5-3.6,0.1-4.9
			c-1.5-1.4-3.7-1.3-4.9,0.5c-0.6,0.9-1.2,0.9-2.1,0.9c-7.3-0.1-14.6-0.1-21.9-0.2c-2.7,0-4.8,0.8-6.6,2.8
			c-3.5,3.9-7.2,7.6-10.8,11.5c-0.7,0.8-1.3,1-2.4,0.8c-3.6-0.8-7.2-1.9-10.7-3.2c-0.4-0.2-0.9-0.2-1.1-0.6c0.5-1.7,1.7-1.9,3.2-1.8
			c2,0.1,4.1,0.1,6.1,0c2.1-0.1,3.9-0.8,5.3-2.3c3.3-3.5,6.7-6.9,10-10.3c1.5-1.6,3.3-2.3,5.5-2.3c1,0,1.9,0,2.9,0
			c1.3,0,2.4-0.1,3.4,1.3c1,1.5,3.3,1.3,4.6-0.1c1.3-1.3,1.3-3.4,0-4.7c-1.4-1.3-3.6-1.4-4.7,0.2c-0.8,1.2-1.7,1.4-2.8,1.2
			c-5.2-0.7-9.3,1-12.6,5.2c-2,2.5-4.5,4.6-6.6,7c-1.7,2-3.8,2.8-6.3,2.8c-1.9,0-3.9,0-5.8,0c-0.7,0-1.1-0.2-1.5-0.8
			c-0.8-1.2-2-1.8-3.4-1.5c-1.4,0.3-2.3,1.2-2.6,2.5c-0.2,1.1-0.6,0.8-1.2,0.4c-4.3-2.4-8.4-5.3-12.1-8.6c0.3-0.5,0.8-0.3,1.1-0.3
			c4.3,0,8.7,0,13,0c0.8,0,1.3,0.1,1.7,0.9c0.8,1.3,2.3,1.8,3.7,1.3c1.5-0.5,2.3-1.7,2.3-3.2c0-1.6-0.8-2.6-2.2-3.2
			c-1.4-0.5-2.9-0.1-3.8,1.2c-0.5,0.7-1,0.8-1.8,0.8c-5.2,0-10.4-0.1-15.6,0c-0.8,0-1.3-0.2-1.9-0.8c-1.4-1.5-2.8-3-4.1-4.7
			c1.6-0.3,2.8-0.5,3.9,1.1c1.1,1.6,3.5,1.5,4.8,0c1.3-1.4,1.2-3.5-0.2-4.8c-1.5-1.3-3.6-1.1-4.9,0.4c-1.4,1.8-5,1.6-6.3-0.3
			c-1.6-2.3-3.2-4.7-4.4-7.4c19,0,37.8,0,56.9,0c-1.4,1.3-1.9,2.7-1.3,4.4c0.1,0.2-0.3,0.5-0.5,0.7c-2.5,2.6-5,5.1-7.5,7.7
			c-0.6,0.7-1.2,0.3-1.8,0.3c-1.7,0-3.1,0.9-3.5,2.4c-0.4,1.4,0.3,3,1.6,3.8c1.3,0.7,3.1,0.4,4-0.7c0.7-0.8,1.1-1.7,0.8-2.8
			c-0.2-0.7-0.1-1.1,0.4-1.6c2.5-2.5,5-5.1,7.5-7.7c0.3-0.3,0.5-0.4,0.9-0.3c2.3,0.2,3.4-0.3,4.1-1.7c0.7-1.5,0.3-2.6-1.2-4.3
			c0.4-0.3,0.8-0.2,1.1-0.2c18.1,0,36.1,0,54.2,0c1.7,0,1.7,0,0.9,1.5c-0.1,0.1-0.2,0.3-0.2,0.4c-0.5,0.9-0.9,2-1.6,2.6
			c-0.9,0.7-1.7-0.5-2.7-0.7c-1.9-0.3-3.9-0.1-5.8-0.1c-0.8,0-1.3-0.2-1.8-0.9c-1.2-1.6-3-1.7-4.4-0.5c-1.3,1.2-1.3,3.1,0,4.3
			c1.3,1.3,3.3,1.2,4.4-0.4c0.5-0.7,1-0.9,1.8-0.8c1.9,0.1,3.8-0.2,5.6,0.2c1.7,0.4,1.6,0.6,0.8,2.1c-1.2,2.3-2.9,3-5.5,2.9
			c-6.1-0.2-12.2,0-18.4,0c-0.8,0-1.5,0-2.1-0.9c-1-1.4-3.1-1.5-4.3-0.3c-1.2,1.1-1.2,3.1-0.1,4.3c1.3,1.3,3.3,1.2,4.4-0.3
			c0.4-0.5,0.7-0.9,1.4-0.9c6.8,0,13.6,0,20.6,0c-1.5,2.1-3.3,3.9-5.2,5.6c-9.4,8.6-20.4,14.2-33,16.5c-2.4,0.4-4.9,0.8-7.3,1.1
			c-0.5,0-1,0-1.5,0c0.9-1.8,2.7-3,4-4.5c0.3-0.3,0.7-0.1,1-0.1c2.1,0.1,3.5-1.1,3.5-2.9c0-1.5-1.5-2.9-3-2.9c-1.8,0-3,1.5-2.8,3.4
			c0.1,0.8-0.1,1.3-0.7,1.9c-1.7,1.6-3.4,3.2-4.8,5.1C188.4,219.3,186.7,219.3,184.9,219.3z"/>
		<path class="st1" d="M123.7,147.7c0.4-2.4,0.8-4.9,1.2-7.3c0.5-2.8,1.3-5.6,2.2-8.3c0.2-0.6,0.3-1.2,1.2-1.2
			c4.4,0.1,8.8-0.3,13.1,0.3c6.6,0.9,11,4.6,12.7,11.1c1.7,6.3,1.7,12.6,0,18.9c-1.9,7.1-6.9,11-14.5,11.5c-4.1,0.2-8.2,0-12.2,0.1
			c-1,0-1.1-0.6-1.2-1.2c-1-3.6-1.8-7.3-2.2-11.1c0-0.3,0.1-0.7-0.3-0.9C123.7,155.6,123.7,151.6,123.7,147.7z M145.4,151.8
			c0.1-2.8-0.1-5.5-0.9-8.2c-1-3.4-2.8-4.9-6.3-5.3c-1.5-0.2-3.1,0-4.6-0.2c-1.1-0.1-1.3,0.4-1.3,1.4c0,8.2,0,16.3,0,24.5
			c0,1,0.2,1.5,1.3,1.4c1.2-0.1,2.4,0,3.7,0c3.8,0,6-1.6,7.2-5.2C145.3,157.5,145.5,154.6,145.4,151.8z"/>
		<path class="st1" d="M189.5,87c-0.5,2.8,1.9,4.2,3.8,3.6c1.1-0.4,1.8-1.2,2-2.3c0.1-0.9,0.5-1,1.3-1c6.8,0.7,13.3,2.4,19.6,5.1
			c-0.9,1.9-2.3,2.3-4.4,2.3c-7.1-0.1-14.3,0-21.4,0c-1.4,0-2.6-0.3-3.6-1.3c-1.8-1.9-3.6-3.8-5.3-5.7c0.5-0.8,1.6,0,2-0.7
			C185.4,87,187.5,87,189.5,87z"/>
		<path class="st1" d="M190.1,219.3c1.5-1.8,3.2-3.4,4.8-5.1c0.5-0.5,0.8-1.1,0.7-1.9c-0.2-2,1-3.4,2.8-3.4c1.5,0,3,1.4,3,2.9
			c0,1.8-1.4,3-3.5,2.9c-0.3,0-0.7-0.2-1,0.1c-1.4,1.5-3.1,2.6-4,4.5C192,219.3,191.1,219.3,190.1,219.3z"/>
		<path class="st1" d="M245.5,117.5c-37.2,0-74.2,0-111.2,0c-0.2-0.6,0.3-1,0.6-1.3c8.9-13,20.9-21.9,36-26.5
			c0.9-0.3,1.5-0.1,2.1,0.5c3.3,3.4,6.6,6.8,9.9,10.2c1.8,1.9,4,2.7,6.6,2.7c1,0,2,0,3.1,0c1.3,0,2.4,0,3.4,1.3
			c1.1,1.5,3.3,1.3,4.6-0.1c1.3-1.4,1.2-3.3-0.2-4.6c-1.3-1.3-3.5-1.3-4.6,0.2c-0.8,1.1-1.7,1.1-2.8,1.2c-4.6,0.6-8.2-0.8-11.1-4.6
			c-1.9-2.5-4.3-4.6-6.6-6.8c-0.7-0.7-0.8-1.1,0.3-1.2c0.7-0.1,1.4-0.2,2.1-0.5c0.7-0.2,1.1,0,1.6,0.5c1.7,1.9,3.5,3.7,5.2,5.6
			c1.7,1.9,3.7,2.7,6.2,2.7c7.4-0.1,14.8-0.1,22.2-0.1c0.9,0,1.6,0,2.2,1c0.7,1.1,1.9,1.5,3.2,1.2c1.3-0.3,2.2-1.1,2.5-2.4
			c0.1-0.5,0.2-1,0.3-1.6c4.5,2.4,8.6,5.3,12.5,8.7c-1,0.4-1.8,0.1-2.6,0.1c-5.7,0-11.4-0.1-17.1-0.1c-0.9,0-1.5-0.2-2-1
			c-0.9-1.3-3-1.4-4.2-0.3c-1.3,1.1-1.3,3.2-0.1,4.4c1.2,1.2,3.3,1.2,4.2-0.1c0.7-1,1.6-1.1,2.6-1.1c6.9-0.1,13.9,0.3,20.8,0.1
			c0.6,0,3.2,2.2,3.3,2.7c0.1,0.3-0.2,0.4-0.4,0.5c-0.6,0.3-1.3,0.5-2.1,0.5c-1.4,0-2.8,0-4.1,0c-1,0-1.8-0.1-2.4-1.1
			c-0.9-1.3-3.1-1.3-4.2-0.1c-1.2,1.2-1.2,3.2,0.1,4.4c1.3,1.1,3.3,1.1,4.2-0.3c0.7-1,1.4-1,2.4-1.1c2.6-0.1,5.2,0.5,7.6-1.1
			c0.4-0.3,0.7,0,0.9,0.3C242.2,112.6,243.9,114.9,245.5,117.5z M172.4,100.5c0.8-0.5,1.3,0.2,1.9,0.8c2.2,2.3,4.4,4.5,6.7,6.8
			c0.6,0.6,1,1.1,0.7,2.1c-0.4,1.3,0.5,2.8,1.7,3.4c1.3,0.7,2.9,0.4,3.9-0.7c1-1,1.2-2.6,0.6-3.8c-0.7-1.3-2.1-2.1-3.4-1.8
			c-0.9,0.2-1.4,0-2-0.6c-2.3-2.4-4.7-4.8-7-7.2c-0.4-0.4-0.6-0.7-0.5-1.4c0.5-2.1-0.9-4-2.9-4.2c-1.9-0.2-3.6,1.4-3.6,3.3
			C168.4,99.2,170.1,100.7,172.4,100.5z"/>
		<path class="st1" d="M181.7,152.8c1.9-7,5.2-13.4,7.8-20.1c0.4-1,1-1.4,2-1.6c3.1-0.4,6.1-0.3,9.2,0.1c0.8,0.1,1.2,0.3,1.2,1.3
			c0,12.9,0,25.7,0,38.6c0,0.9-0.2,1.3-1.1,1.4c-2.1,0.3-4.3,0.3-6.4,0c-1.3-0.1-1.4-0.7-1.4-1.8c0.1-9.2-0.2-18.5,0.6-27.7
			c0-0.3,0-0.7,0-1.4c-1.3,3.4-2.4,6.5-3.6,9.5c-1.6,4-3.3,7.9-4.9,11.9c-0.3,0.7-0.7,1.1-1.4,1.2c-1.5,0.2-2.9,0.2-4.4,0.1
			c-0.9-0.1-1.3-0.7-1.6-1.4c-2.7-6.4-5.6-12.7-7.7-19.3c-0.1-0.3-0.2-0.5-0.6-0.7c0.1,2.3,0.2,4.6,0.4,6.9
			c0.5,7.1,0.1,14.3,0.3,21.4c0,0.9-0.3,1.1-1.1,1.2c-1.9,0.3-3.8,0.3-5.8,0c-1.1-0.1-1.4-0.5-1.4-1.6c0.1-5.2,0-10.4,0-15.6
			c0-7.5,0-15,0-22.5c0-1.2,0.4-1.5,1.4-1.6c2.9-0.3,5.7-0.4,8.5,0c0.9,0.1,1.4,0.4,1.8,1.3c2.7,6.6,5.8,13,7.9,19.9
			C181.3,152.6,181.3,152.8,181.7,152.8z M169.3,142.2c0-0.1-0.1-0.2-0.1-0.3c0,0.1-0.1,0.1-0.1,0.2c0,0,0,0.1,0,0.1
			C169.2,142.3,169.2,142.2,169.3,142.2z"/>
		<path class="st1" d="M249,148.3c1.8,0,3.7,0,5.5,0c0.9,0,1.4,0.2,1.4,1.2c0.4,7.5-0.5,14.8-2.5,21.9c-0.1,0.5-0.2,0.9-0.9,1.1
			c-5.9,1.2-11.8,1.5-17.4-1.1c-4.2-1.9-6.9-5.3-8.3-9.7c-2.1-6.6-2.1-13.3,0-19.9c2.3-6.9,7.3-10.4,14.4-11.3
			c3.2-0.4,6.3-0.2,9.4,0.3c1.1,0.2,1.8,0.5,2.1,1.8c0.4,1.7,1,3.3,1.4,5c0.4,1.4,0,1.7-1.4,1.3c-2.4-0.7-4.9-1.1-7.4-1.1
			c-5.3,0.1-8.3,2.4-9.6,7.5c-1.1,4.4-1.1,8.9,0,13.3c1.7,6.7,6.6,7.4,11.6,7.1c0.6,0,0.7-0.4,0.7-0.9c0-2.8,0-5.5,0-8.3
			c0-0.8-0.4-1-1.1-1c-1.4,0-2.8,0-4.1,0c-0.8,0-1.2-0.3-1.3-1.1c-0.4-1.7-0.3-3.4,0-5.2c0.2-0.8,0.5-1,1.3-1
			C244.9,148.3,246.9,148.3,249,148.3z"/>
		<path class="st1" d="M209.7,151.8c0-6.4,0-12.8,0-19.1c0-1,0.3-1.4,1.3-1.6c2.2-0.3,4.5-0.3,6.7,0c1,0.1,1.4,0.5,1.4,1.7
			c0,12.7,0,25.3,0,38c0,1.1-0.2,1.6-1.5,1.8c-2.2,0.2-4.4,0.2-6.6,0c-1.3-0.1-1.4-0.7-1.4-1.8C209.8,164.5,209.7,158.1,209.7,151.8
			z"/>
		<path class="st1" d="M172.4,100.5c-2.3,0.2-4-1.3-4-3.3c0-1.9,1.8-3.5,3.6-3.3c2.1,0.2,3.4,2,2.9,4.2c-0.2,0.7,0.1,1,0.5,1.4
			c2.4,2.4,4.7,4.8,7,7.2c0.6,0.6,1.1,0.9,2,0.6c1.3-0.4,2.8,0.5,3.4,1.8c0.7,1.3,0.4,2.8-0.6,3.8c-1,1-2.6,1.3-3.9,0.7
			c-1.2-0.6-2.1-2.1-1.7-3.4c0.3-1-0.1-1.5-0.7-2.1c-2.2-2.2-4.4-4.5-6.7-6.8C173.7,100.7,173.2,100,172.4,100.5z"/>
		<path class="st1" d="M169.3,142.2c-0.1,0-0.1,0-0.2,0.1c0,0,0-0.1,0-0.1c0-0.1,0.1-0.1,0.1-0.2C169.2,142,169.2,142.1,169.3,142.2
			z"/>
	</g>
</g>
</svg>
