<?xml version="1.0" encoding="utf-8"?>
<!-- Generator: Adobe Illustrator 19.0.1, SVG Export Plug-In . SVG Version: 6.00 Build 0)  -->
<svg version="1.1" id="Layer_1" xmlns="http://www.w3.org/2000/svg" xmlns:xlink="http://www.w3.org/1999/xlink" x="0px" y="0px"
	 viewBox="58 121 692 335" style="enable-background:new 58 121 692 335;" xml:space="preserve">
<style type="text/css">
	.st0{fill:#E25B5A;}
	.st1{fill:#E89292;stroke:#E89292;stroke-width:0.5;stroke-miterlimit:10;}
</style>
<g>
	<path class="st0" d="M602.2,457.2c-65.8,0-131.5,0-197.3,0c-1.9-7.9-3.9-15.8-5.7-23.7c-0.5-2.4-1.7-3.7-4-4.4
		c-9.4-2.7-18.7-5.5-28-8.4c-2-0.6-3.5,0-4.8,1.2c-7.2,6.7-14.3,13.5-21.4,20.3c-1.4,1.3-1.8,2.7-1.3,4.5c0.9,3.5,1.6,7,2.4,10.5
		c-66.4,0-132.8,0-199.2,0c-0.9-5.5-2.7-10.9-3.7-16.3c-0.6-3-2-4.5-4.9-5.3c-9-2.5-17.9-5.2-26.9-8c-2.2-0.7-3.9-0.2-5.5,1.3
		c-6.4,6.1-12.8,12.3-19.4,18.2c-2.7,2.5-4.2,4.9-2.7,8.5c0.2,0.5,0,1.1,0,1.6c-6.8,0-13.6,0-20.4,0c-1,0-1.4-0.2-1.2-1.2
		c0.1-0.3,0-0.6,0-1c0-111.3,0-222.6,0-333.8c7.2,0,14.4,0,21.6,0c-0.6,1.2-0.8,2.5-0.5,3.9c2.3,9.7,4.6,19.4,6.9,29.1
		c0.4,1.6,1.3,2.7,2.9,3.2c9.6,2.8,19.2,5.7,28.7,8.5c2,0.6,3.5,0.2,5-1.2c6-5.7,11.7-11.7,18.1-16.8c4.6-3.7,5.2-7.5,3.5-12.7
		c-1.5-4.5-2.5-9.2-3.2-14c66.4,0,132.8,0,199.2,0c0,0.2-0.1,0.5,0,0.7c2,8.7,4,17.4,6.1,26.1c0.4,1.6,1.6,2.3,3,2.8
		c9.2,2.7,18.4,5.4,27.6,8.3c2.7,0.8,4.6,0.2,6.7-1.7c6.3-6.2,12.8-12.3,19.4-18.2c2.3-2.1,3-4,2.2-6.9c-1-3.6-1.7-7.3-2.5-11
		c66-0.1,132-0.1,197.9-0.1c0,0.4-0.1,0.8,0,1.2c2,8.5,4,17,6,25.4c0.4,1.8,1.7,2.6,3.4,3.1c9.1,2.7,18.2,5.4,27.3,8.2
		c2.6,0.8,4.5,0.3,6.5-1.6c6.4-6.2,12.9-12.4,19.6-18.4c2.3-2.1,3-4,2.2-6.9c-1-3.6-1.7-7.3-2.5-11c28,0,56,0,84.1,0
		c1.8,0,2.4,0.2,2.4,2.3c-0.2,9.3-0.1,18.7-0.1,28c-6.5,5.5-12.6,11.6-18.7,17.5c-1.4,1.4-1.3,3-0.9,4.7c2.2,9.5,4.5,19,6.7,28.4
		c0.3,1.3,0.7,2.6,2.1,3c3.6,1.2,7.1,2.5,10.8,3c0,17.6,0,35.2,0,52.8c-6.5,5.6-12.6,11.5-18.7,17.5c-1.2,1.2-1.3,2.6-1,4.2
		c2.3,9.7,4.6,19.4,6.9,29.1c0.3,1.3,0.9,2.5,2.2,2.9c3.5,1,6.9,2.5,10.6,2.9c0,17.6,0,35.2,0,52.8c-6.5,5.5-12.6,11.6-18.7,17.5
		c-1.4,1.4-1.3,3-0.9,4.7c2.2,9.5,4.5,19,6.7,28.4c0.3,1.3,0.7,2.6,2.1,3c3.6,1.2,7.1,2.5,10.8,3c0,9.5,0,19,0,28.6
		c0,1.4-0.3,1.7-1.7,1.7c-27.6-0.1-55.2,0-82.8,0c-1.9-7.9-3.9-15.8-5.7-23.7c-0.5-2.3-1.5-3.7-3.8-4.3c-9.5-2.8-19-5.6-28.5-8.5
		c-1.9-0.6-3.3,0.1-4.6,1.3c-7.1,6.7-14.1,13.4-21.3,20.1c-1.5,1.4-1.9,3-1.4,5C600.7,450.3,601.4,453.8,602.2,457.2z M536,298.2
		c0-0.1-0.1-0.7-0.3-1.3c-2.2-9.2-4.4-18.3-6.4-27.5c-0.5-2.4-1.6-3.7-4-4.4c-9.2-2.7-18.4-5.4-27.6-8.3c-2.2-0.7-3.9-0.2-5.5,1.2
		c-6.9,6.5-13.8,13.1-20.7,19.6c-1.8,1.7-2.3,3.4-1.7,5.8c2.3,9.3,4.5,18.6,6.6,28c0.5,2.1,1.7,3.2,3.7,3.9
		c9.1,2.7,18.2,5.4,27.3,8.2c2.4,0.7,4.2,0.3,6.1-1.4c6.9-6.6,13.8-13,20.8-19.5C535.5,301.4,536.1,300.2,536,298.2z M405.9,243.5
		c0-0.2-0.1-0.9-0.3-1.6c-2.1-9.1-4.4-18.2-6.4-27.3c-0.5-2.4-1.6-3.8-4-4.5c-9.2-2.7-18.4-5.4-27.6-8.3c-2.3-0.7-4-0.2-5.7,1.4
		c-6.8,6.4-13.5,12.9-20.4,19.3c-2,1.8-2.5,3.7-1.8,6.2c2.3,9.2,4.5,18.5,6.6,27.7c0.5,2.1,1.6,3.3,3.7,3.9c9,2.7,18.1,5.3,27.1,8.1
		c2.6,0.8,4.5,0.4,6.5-1.5c6.8-6.5,13.7-12.9,20.6-19.4C405.4,246.7,406,245.6,405.9,243.5z M275.9,414.9c-0.1-0.6-0.2-1.3-0.4-1.9
		c-2.2-9.2-4.4-18.3-6.4-27.5c-0.5-2.4-1.6-3.8-4-4.4c-9.4-2.7-18.7-5.5-28-8.4c-2-0.6-3.6,0-5,1.4c-6.9,6.5-13.8,13.1-20.7,19.6
		c-1.8,1.7-2.3,3.4-1.7,5.8c2.3,9.3,4.5,18.6,6.6,28c0.5,2.1,1.7,3.2,3.7,3.8c9,2.6,18.1,5.3,27.1,8.1c2.6,0.8,4.5,0.4,6.5-1.5
		c6.7-6.5,13.6-12.8,20.5-19.2C275.2,417.7,276,416.5,275.9,414.9z M275.9,196.1c-0.1-0.7-0.3-1.4-0.4-2.1c-2.1-9-4.4-18-6.3-27.1
		c-0.6-2.6-1.7-4-4.3-4.8c-9.3-2.7-18.5-5.5-27.8-8.3c-2-0.6-3.6,0-5,1.3c-6.9,6.5-13.8,13.1-20.7,19.6c-1.8,1.7-2.3,3.4-1.7,5.8
		c2.3,9.3,4.5,18.6,6.6,28c0.5,2.1,1.6,3.3,3.7,3.9c9,2.6,18.1,5.3,27.1,8.1c2.6,0.8,4.5,0.4,6.5-1.5c6.7-6.5,13.6-12.8,20.5-19.2
		C275.2,198.8,276,197.7,275.9,196.1z M666.1,352.9c0-0.1-0.1-0.8-0.3-1.5c-2.2-9.4-4.4-18.8-6.6-28.2c-0.4-2-1.6-2.9-3.5-3.5
		c-9.3-2.8-18.5-5.5-27.8-8.4c-2.2-0.7-4-0.2-5.7,1.3c-6.8,6.4-13.5,12.9-20.4,19.2c-1.9,1.8-2.5,3.6-1.9,6.2
		c2.3,9.2,4.5,18.5,6.6,27.7c0.5,2.1,1.6,3.3,3.7,3.9c9.1,2.7,18.2,5.4,27.3,8.2c2.5,0.8,4.4,0.3,6.3-1.5
		c6.7-6.5,13.6-12.8,20.5-19.2C665.4,356.3,666.2,355.2,666.1,352.9z M536,407.8c0-0.2-0.1-0.9-0.3-1.6c-2.2-9.4-4.4-18.8-6.6-28.2
		c-0.5-2-1.6-2.9-3.5-3.5c-9.3-2.7-18.5-5.5-27.8-8.4c-2.3-0.7-4-0.3-5.7,1.3c-6.8,6.5-13.7,13-20.6,19.4c-1.8,1.7-2.4,3.4-1.8,5.8
		c2.3,9.4,4.5,18.8,6.7,28.2c0.4,1.9,1.5,3.1,3.4,3.6c9.3,2.8,18.7,5.6,28,8.4c2.1,0.6,3.8,0.3,5.5-1.3c7-6.7,14.1-13.2,21.2-19.8
		C535.5,410.8,536.1,409.7,536,407.8z M275.8,305c-0.1-0.2-0.2-1-0.4-1.8c-2.2-9.3-4.3-18.5-6.5-27.8c-0.4-1.9-1.4-3.1-3.3-3.6
		c-9.6-2.8-19.1-5.7-28.7-8.6c-1.9-0.6-3.5,0.1-4.8,1.4c-6.9,6.5-13.8,13.1-20.7,19.6c-1.8,1.7-2.3,3.4-1.7,5.8
		c2.3,9.4,4.5,18.8,6.7,28.2c0.4,1.9,1.5,3,3.4,3.6c9.3,2.8,18.7,5.6,28,8.4c2.1,0.6,3.8,0.2,5.5-1.3c7-6.7,14.1-13.2,21.1-19.8
		C275.4,308,275.9,306.9,275.8,305z M145.7,250.3c0-0.2-0.1-0.9-0.3-1.6c-2.2-9.4-4.4-18.8-6.6-28.2c-0.4-2-1.6-2.9-3.5-3.5
		c-9.3-2.7-18.5-5.5-27.8-8.4c-2.3-0.7-4-0.3-5.7,1.3c-6.8,6.5-13.7,13-20.6,19.4c-1.8,1.7-2.4,3.4-1.8,5.8
		c2.3,9.4,4.5,18.8,6.7,28.2c0.5,2,1.6,3.1,3.6,3.7c9.2,2.7,18.4,5.5,27.6,8.3c2.3,0.7,4.1,0.3,5.9-1.4c6.9-6.6,14-13.1,21-19.7
		C145.3,253.3,145.8,252.3,145.7,250.3z M666.1,243.5c-0.1-0.2-0.2-1-0.4-1.8c-2.1-8.8-4.3-17.5-6.1-26.4c-0.6-3.1-2-4.6-5-5.5
		c-9-2.5-17.9-5.3-26.9-8c-2.1-0.7-3.7-0.1-5.2,1.3c-6.9,6.5-13.8,13.1-20.8,19.6c-1.8,1.7-2.3,3.4-1.7,5.8c2.3,9.3,4.5,18.6,6.6,28
		c0.5,2.1,1.6,3.3,3.7,3.9c9.1,2.7,18.2,5.4,27.3,8.2c2.4,0.7,4.2,0.4,6.1-1.4c6.9-6.6,14-13.1,21-19.7
		C665.6,246.6,666.2,245.5,666.1,243.5z M536,188.9c0-0.2-0.1-0.9-0.3-1.6c-2.2-9.4-4.4-18.8-6.6-28.2c-0.5-2-1.6-2.9-3.5-3.5
		c-9.3-2.7-18.5-5.5-27.8-8.4c-2.3-0.7-4-0.3-5.7,1.3c-6.8,6.5-13.7,13-20.6,19.4c-1.8,1.7-2.4,3.4-1.8,5.8
		c2.3,9.4,4.5,18.8,6.7,28.2c0.4,1.9,1.5,3.1,3.4,3.6c9.3,2.8,18.7,5.6,28,8.4c2.1,0.6,3.8,0.3,5.5-1.3c7-6.7,14.1-13.2,21.2-19.8
		C535.5,191.9,536.1,190.8,536,188.9z M405.9,352.9c0-0.1-0.1-0.7-0.3-1.3c-2.2-9.2-4.4-18.3-6.4-27.5c-0.5-2.4-1.6-3.7-4-4.4
		c-9.2-2.7-18.4-5.4-27.6-8.3c-2.2-0.7-3.9-0.2-5.5,1.3c-6.9,6.5-13.8,13.1-20.7,19.6c-1.7,1.6-2.3,3.3-1.7,5.6
		c2.3,9.5,4.5,19,6.7,28.4c0.4,1.8,1.4,2.9,3.2,3.5c9.3,2.8,18.7,5.5,28,8.4c2.3,0.7,4.1,0.2,5.9-1.5c6.9-6.6,13.8-13,20.8-19.5
		C405.4,356.1,406,354.9,405.9,352.9z M145.7,359.6c0-0.1-0.1-0.8-0.3-1.5c-2.1-9.1-4.4-18.2-6.4-27.3c-0.5-2.4-1.6-3.8-4-4.5
		c-9.3-2.7-18.5-5.5-27.8-8.3c-2.1-0.7-3.7-0.1-5.2,1.3c-6.9,6.5-13.7,13-20.6,19.4c-1.9,1.8-2.5,3.7-1.8,6.2
		c2.3,9.2,4.5,18.5,6.6,27.7c0.5,2.1,1.6,3.3,3.7,3.9c9.1,2.7,18.2,5.4,27.3,8.2c2.5,0.8,4.4,0.3,6.3-1.6c6.7-6.4,13.5-12.7,20.3-19
		C144.9,363.1,145.9,361.9,145.7,359.6z"/>
	<path class="st1" d="M141.4,121.2c0.7,4.8,1.7,9.5,3.2,14c1.7,5.2,1.1,9-3.5,12.7c-6.4,5.2-12.1,11.1-18.1,16.8
		c-1.5,1.4-3,1.8-5,1.2c-9.6-2.9-19.1-5.7-28.7-8.5c-1.6-0.5-2.6-1.6-2.9-3.2c-2.3-9.7-4.6-19.4-6.9-29.1c-0.3-1.4-0.1-2.7,0.5-3.9
		c4.9,0,9.9,0,14.9,0c-0.5,1.1-1.4,1.8-2.2,2.4c-2,1.5-2.3,3.3-1.6,5.7c1.4,5.3,2.6,10.7,3.8,16.1c0.5,2.1,1.6,3.3,3.6,3.9
		c5.8,1.6,11.5,3.3,17.2,5.1c1.6,0.5,2.8,0,3.9-1c4.1-3.8,8.1-7.7,12.3-11.4c2.5-2.1,2.9-4.3,2-7.4c-1.2-4.3-2.5-8.8-3-13.4
		C134.4,121.2,137.9,121.2,141.4,121.2z"/>
	<path class="st1" d="M403,121.2c0.8,3.7,1.5,7.4,2.5,11c0.8,2.9,0.1,4.9-2.2,6.9c-6.6,5.9-13,12-19.4,18.2c-2,2-4,2.6-6.7,1.7
		c-9.2-2.8-18.4-5.5-27.6-8.3c-1.5-0.4-2.7-1.2-3-2.8c-2-8.7-4.1-17.4-6.1-26.1c-0.1-0.2,0-0.5,0-0.7c3.5,0,7,0,10.6,0
		c0.7,6,2.7,11.6,3.8,17.5c0.4,2.1,1.6,3.3,3.7,3.9c5.8,1.6,11.5,3.4,17.2,5.1c1.4,0.4,2.5,0.2,3.5-0.7c4.7-4.3,9.3-8.7,14-13.1
		c1.2-1.1,1.5-2.3,1.1-3.9c-0.8-2.9-1.3-5.9-2-8.9C396,121.2,399.5,121.2,403,121.2z"/>
	<path class="st1" d="M663.2,121.2c0.8,3.7,1.5,7.4,2.5,11c0.8,2.9,0.1,4.9-2.2,6.9c-6.7,6-13.1,12.2-19.6,18.4
		c-2,1.9-3.9,2.4-6.5,1.6c-9.1-2.8-18.2-5.5-27.3-8.2c-1.6-0.5-2.9-1.3-3.4-3.1c-2-8.5-4-17-6-25.4c-0.1-0.4,0-0.8,0-1.2
		c3.5,0,7,0,10.6,0c0.8,6.4,2.8,12.6,4.2,18.9c0.3,1.1,1.2,1.9,2.3,2.2c6.1,1.8,12.2,3.6,18.3,5.5c1.2,0.4,2.2,0.2,3.1-0.7
		c4.9-4.5,9.7-9,14.5-13.6c1-0.9,1.1-2,0.8-3.3c-0.8-3-1.4-6.1-2-9.1C656.1,121.2,659.7,121.2,663.2,121.2z"/>
	<path class="st1" d="M342.1,457.2c-0.8-3.5-1.6-7-2.4-10.5c-0.4-1.8,0-3.3,1.3-4.5c7.1-6.7,14.3-13.5,21.4-20.3
		c1.3-1.3,2.9-1.8,4.8-1.2c9.3,2.9,18.6,5.7,28,8.4c2.4,0.7,3.5,2,4,4.4c1.8,7.9,3.8,15.8,5.7,23.7c-3.7,0-7.4,0-11,0
		c-0.9-5.8-2.5-11.5-3.9-17.2c-0.4-1.5-1.5-2.1-2.9-2.5c-5.9-1.7-11.8-3.5-17.7-5.3c-1.3-0.4-2.4-0.2-3.3,0.7
		c-4.8,4.5-9.5,8.9-14.3,13.4c-1.1,1-1.2,2.1-0.9,3.5c0.6,2.5,1.2,5,1.7,7.5C349.1,457.2,345.6,457.2,342.1,457.2z"/>
	<path class="st1" d="M602.2,457.2c-0.8-3.4-1.5-6.9-2.4-10.3c-0.5-2-0.1-3.5,1.4-5c7.1-6.7,14.2-13.4,21.3-20.1
		c1.3-1.2,2.7-1.9,4.6-1.3c9.5,2.9,19,5.7,28.5,8.5c2.3,0.7,3.3,2.1,3.8,4.3c1.8,7.9,3.8,15.8,5.7,23.7c-3.7,0-7.4,0-11,0
		c-0.8-5.5-2.4-10.7-3.5-16.1c-0.5-2.1-1.6-3.3-3.7-3.8c-5.5-1.5-10.9-3.1-16.3-4.8c-2-0.7-3.5-0.4-5,1c-4.5,4.3-9,8.6-13.5,12.8
		c-1.1,1-1.2,2.1-0.9,3.5c0.6,2.5,1.2,5,1.7,7.5C609.3,457.2,605.7,457.2,602.2,457.2z"/>
	<path class="st1" d="M80,457.2c0-0.6,0.1-1.2,0-1.6c-1.5-3.6,0-6.1,2.7-8.5c6.6-5.9,12.9-12.1,19.4-18.2c1.6-1.5,3.2-2,5.5-1.3
		c8.9,2.8,17.9,5.5,26.9,8c2.9,0.8,4.3,2.3,4.9,5.3c1,5.5,2.7,10.8,3.7,16.3c-3.5,0-7,0-10.6,0c-0.7-3.2-1.5-6.4-2.2-9.6
		c-0.4-1.9-1.5-3-3.4-3.5c-5.7-1.6-11.4-3.3-17-5.1c-1.7-0.5-2.9-0.3-4.1,0.9c-4.5,4.2-8.9,8.4-13.5,12.6c-1.5,1.4-1.9,2.9-1.1,4.7
		C87.3,457.2,83.7,457.2,80,457.2z"/>
	<path class="st1" d="M101.1,121.2c8.3,0,16.6,0,25,0c1.2,4.9,2.3,9.8,3.5,14.7c0.3,1.3,0.1,2.3-0.9,3.2c-3.6,3.3-7.1,6.7-10.6,10
		c-0.9,0.9-1.9,1-3.1,0.7c-4.6-1.4-9.2-2.8-13.8-4.1c-1.5-0.4-2.2-1.3-2.6-2.8c-1-4.4-2-8.9-3.1-13.3c-0.4-1.6,0-2.7,1.1-3.8
		C98.1,124.2,100.1,123.2,101.1,121.2z"/>
	<path class="st1" d="M749.6,208.1c-3.7-0.5-7.2-1.9-10.8-3c-1.4-0.4-1.8-1.7-2.1-3c-2.2-9.5-4.5-19-6.7-28.4
		c-0.4-1.7-0.5-3.3,0.9-4.7c6.2-5.9,12.2-11.9,18.7-17.5c0,4.8,0,9.6,0,14.4c-2.7,1.9-4.9,4.3-7.3,6.5c-1.3,1.2-1.5,2.5-1.1,4.1
		c1.3,5.4,2.7,10.8,3.8,16.3c0.6,2.7,1.8,4.4,4.6,4.8C749.6,201,749.6,204.6,749.6,208.1z"/>
	<path class="st1" d="M749.6,427c-3.7-0.5-7.2-1.9-10.8-3c-1.4-0.4-1.8-1.7-2.1-3c-2.2-9.5-4.5-19-6.7-28.4
		c-0.4-1.7-0.5-3.3,0.9-4.7c6.2-5.9,12.2-11.9,18.7-17.5c0,4.8,0,9.6,0,14.4c-2.7,1.9-4.9,4.3-7.3,6.5c-1.3,1.2-1.5,2.5-1.1,4.1
		c1.3,5.4,2.7,10.8,3.8,16.3c0.6,2.7,1.8,4.4,4.6,4.8C749.6,419.9,749.6,423.4,749.6,427z"/>
	<path class="st1" d="M749.6,317.5c-3.7-0.5-7.1-1.9-10.6-2.9c-1.4-0.4-1.9-1.6-2.2-2.9c-2.3-9.7-4.6-19.4-6.9-29.1
		c-0.4-1.6-0.3-3,1-4.2c6.1-5.9,12.2-11.9,18.7-17.5c0,4.8,0,9.6,0,14.4c-2.7,1.9-4.9,4.3-7.3,6.5c-1.3,1.2-1.5,2.5-1.1,4.1
		c1.3,5.4,2.7,10.8,3.8,16.3c0.6,2.7,1.8,4.4,4.6,4.8C749.6,310.5,749.6,314,749.6,317.5z"/>
	<path class="st1" d="M355.5,121.2c10.9,0,21.8,0,32.6,0c0,2.7,1,5.2,1.6,7.7c0.3,1.4,0.2,2.4-0.9,3.4c-3.6,3.3-7.1,6.7-10.6,10.1
		c-0.8,0.8-1.7,1.1-2.8,0.7c-4.7-1.4-9.5-2.8-14.2-4.3c-1.1-0.3-1.9-0.9-2.1-2C357.9,131.6,356.7,126.4,355.5,121.2z"/>
	<path class="st1" d="M615.7,121.2c10.9,0,21.8,0,32.6,0c0,2.7,1,5.2,1.6,7.7c0.3,1.4,0.2,2.4-0.9,3.4c-3.6,3.3-7.1,6.7-10.6,10.1
		c-0.8,0.8-1.7,1.1-2.8,0.7c-4.7-1.4-9.5-2.8-14.2-4.2c-1.1-0.3-1.9-0.9-2.1-2C618,131.6,616.8,126.4,615.7,121.2z"/>
	<path class="st1" d="M649.7,457.2c-10.9,0-21.8,0-32.6,0c-0.1-2.1-0.7-4.1-1.2-6.1c-0.4-1.5-0.1-2.6,1-3.6
		c3.4-3.2,6.8-6.5,10.2-9.7c0.9-0.8,1.7-1.2,3-0.8c4.7,1.5,9.5,2.9,14.2,4.3c1.2,0.4,1.9,1,2.2,2.2
		C647.6,448,648.7,452.6,649.7,457.2z"/>
	<path class="st1" d="M389.6,457.2c-10.9,0-21.8,0-32.6,0c-0.1-2.1-0.7-4.1-1.2-6.1c-0.4-1.5-0.1-2.6,1-3.6
		c3.4-3.2,6.8-6.5,10.2-9.7c0.9-0.8,1.7-1.2,3-0.8c4.7,1.5,9.5,2.9,14.2,4.3c1.2,0.4,1.9,1,2.2,2.2
		C387.5,448,388.5,452.6,389.6,457.2z"/>
	<path class="st0" d="M101.1,121.2c-1,2-3,3-4.4,4.6c-1.1,1.2-1.5,2.2-1.1,3.8c1.1,4.4,2.1,8.8,3.1,13.3c0.3,1.5,1.1,2.4,2.6,2.8
		c4.6,1.3,9.2,2.7,13.8,4.1c1.2,0.4,2.2,0.2,3.1-0.7c3.5-3.4,7-6.7,10.6-10c1-0.9,1.2-1.9,0.9-3.2c-1.4-4.9-2.5-9.8-3.6-14.7
		c1.6,0,3.2,0,4.8,0c0.5,4.6,1.8,9.1,3,13.5c0.9,3.1,0.4,5.2-2,7.4c-4.2,3.6-8.2,7.5-12.3,11.4c-1.1,1.1-2.3,1.5-3.9,1
		c-5.7-1.8-11.5-3.5-17.2-5.1c-2.1-0.6-3.2-1.8-3.6-3.9c-1.2-5.4-2.4-10.7-3.8-16.1c-0.6-2.4-0.4-4.2,1.6-5.7
		c0.8-0.7,1.7-1.4,2.2-2.5C96.9,121.2,99,121.2,101.1,121.2z"/>
	<path class="st0" d="M355.5,121.2c1.2,5.2,2.4,10.4,3.5,15.6c0.3,1.1,1.1,1.7,2.1,2c4.7,1.4,9.5,2.8,14.2,4.3
		c1.1,0.3,2,0.1,2.8-0.7c3.5-3.4,7-6.7,10.6-10.1c1.1-1,1.2-2,0.9-3.4c-0.6-2.6-1.6-5-1.6-7.7c1.4,0,2.9,0,4.3,0
		c0.7,3,1.2,5.9,2,8.9c0.4,1.6,0.1,2.8-1.1,3.9c-4.7,4.3-9.3,8.7-14,13.1c-1,0.9-2.1,1.2-3.5,0.7c-5.7-1.8-11.5-3.5-17.2-5.1
		c-2.1-0.6-3.2-1.8-3.7-3.9c-0.9-6-2.9-11.6-3.6-17.6C352.6,121.2,354.1,121.2,355.5,121.2z"/>
	<path class="st0" d="M615.7,121.2c1.2,5.2,2.4,10.4,3.5,15.6c0.3,1.1,1.1,1.7,2.1,2c4.7,1.4,9.5,2.8,14.2,4.2
		c1.1,0.3,2,0.1,2.8-0.7c3.5-3.4,7.1-6.7,10.6-10.1c1.1-1,1.2-2,0.9-3.4c-0.6-2.6-1.6-5-1.6-7.7c1.4,0,2.9,0,4.3,0
		c0.7,3,1.3,6.1,2,9.1c0.3,1.3,0.1,2.4-0.8,3.3c-4.8,4.5-9.7,9.1-14.5,13.6c-0.9,0.8-1.9,1-3.1,0.7c-6.1-1.8-12.2-3.7-18.3-5.5
		c-1.2-0.3-2.1-1.1-2.3-2.2c-1.4-6.3-3.4-12.5-4.2-18.9C612.8,121.2,614.2,121.2,615.7,121.2z"/>
	<path class="st1" d="M128,457.2c-10.9,0-21.8,0-32.6,0c-0.2-1.2,0.4-2.1,1.2-2.9c3.4-3.2,6.9-6.5,10.3-9.7c1-0.9,1.9-1.2,3.3-0.8
		c4.4,1.4,8.9,2.7,13.3,4c1.9,0.5,2.8,1.6,3.1,3.5C126.9,453.2,127.5,455.2,128,457.2z"/>
	<path class="st0" d="M649.7,457.2c-1.1-4.6-2.1-9.2-3.2-13.7c-0.3-1.2-1-1.9-2.2-2.2c-4.7-1.4-9.5-2.8-14.2-4.3
		c-1.3-0.4-2.2,0-3,0.8c-3.4,3.2-6.8,6.5-10.2,9.7c-1.1,1-1.5,2.1-1,3.6c0.5,2,1.1,4,1.2,6.1c-1.4,0-2.9,0-4.3,0
		c-0.6-2.5-1.1-5-1.7-7.5c-0.3-1.4-0.1-2.5,0.9-3.5c4.5-4.3,9-8.6,13.5-12.8c1.5-1.4,3-1.6,5-1c5.4,1.8,10.8,3.3,16.3,4.8
		c2.1,0.6,3.3,1.7,3.7,3.8c1.1,5.4,2.8,10.6,3.5,16.1C652.6,457.2,651.2,457.2,649.7,457.2z"/>
	<path class="st0" d="M389.6,457.2c-1.1-4.6-2.1-9.2-3.2-13.7c-0.3-1.2-1-1.9-2.2-2.2c-4.7-1.4-9.5-2.8-14.2-4.3
		c-1.3-0.4-2.2,0-3,0.8c-3.4,3.2-6.8,6.5-10.2,9.7c-1.1,1-1.5,2.1-1,3.6c0.5,2,1.1,4,1.2,6.1c-1.4,0-2.9,0-4.3,0
		c-0.6-2.5-1.1-5-1.7-7.5c-0.3-1.3-0.2-2.5,0.9-3.5c4.8-4.5,9.5-8.9,14.3-13.4c0.9-0.9,2-1.1,3.3-0.7c5.9,1.8,11.8,3.5,17.7,5.3
		c1.4,0.4,2.5,1,2.9,2.5c1.4,5.7,3,11.4,3.9,17.2C392.5,457.2,391,457.2,389.6,457.2z"/>
	<path class="st0" d="M128,457.2c-0.5-2-1-4-1.4-6.1c-0.4-1.8-1.2-2.9-3.1-3.5c-4.5-1.2-8.9-2.6-13.3-4c-1.3-0.4-2.3-0.1-3.3,0.8
		c-3.4,3.3-6.8,6.5-10.3,9.7c-0.9,0.8-1.4,1.7-1.2,2.9c-1.4,0-2.9,0-4.3,0c-0.9-1.8-0.4-3.3,1.1-4.7c4.5-4.2,9-8.4,13.5-12.6
		c1.2-1.2,2.5-1.4,4.1-0.9c5.6,1.8,11.3,3.5,17,5.1c1.9,0.5,3,1.6,3.4,3.5c0.7,3.2,1.4,6.4,2.2,9.6
		C130.9,457.2,129.4,457.2,128,457.2z"/>
	<path class="st0" d="M749.6,416.4c-2.8-0.4-4-2.1-4.6-4.8c-1.1-5.5-2.5-10.9-3.8-16.3c-0.4-1.6-0.2-2.9,1.1-4.1
		c2.4-2.2,4.6-4.6,7.3-6.5c0,1.9,0,3.8,0,5.8c-1.5,1.5-4.3,2.5-3.7,5.1c1.1,5.1,1.9,10.2,3.7,15.1
		C749.6,412.6,749.6,414.5,749.6,416.4z"/>
	<path class="st0" d="M749.6,197.5c-2.8-0.4-4-2.1-4.6-4.8c-1.1-5.5-2.5-10.9-3.8-16.3c-0.4-1.6-0.2-2.9,1.1-4.1
		c2.4-2.2,4.6-4.6,7.3-6.5c0,1.9,0,3.8,0,5.8c-1.5,1.5-4.3,2.5-3.7,5.1c1.1,5.1,1.9,10.2,3.7,15.1
		C749.6,193.7,749.6,195.6,749.6,197.5z"/>
	<path class="st0" d="M749.6,307c-2.8-0.4-4-2.1-4.6-4.8c-1.1-5.5-2.5-10.9-3.8-16.3c-0.4-1.6-0.2-2.9,1.1-4.1
		c2.4-2.2,4.6-4.6,7.3-6.5c0,1.9,0,3.8,0,5.8c-0.7,0.6-1.3,1.1-2,1.7c-1,1-2.2,1.9-1.8,3.6c1.3,5.1,2.5,10.2,3.8,15.3
		C749.6,303.4,749.6,305.2,749.6,307z"/>
	<path class="st1" d="M749.6,301.7c-1.3-5.1-2.5-10.2-3.8-15.3c-0.4-1.7,0.8-2.6,1.8-3.6c0.6-0.6,1.3-1.2,2-1.7
		C749.6,287.9,749.6,294.8,749.6,301.7z"/>
	<path class="st1" d="M749.6,410.6c-1.8-4.9-2.7-10-3.7-15.1c-0.6-2.6,2.2-3.6,3.7-5.1C749.6,397.2,749.6,403.9,749.6,410.6z"/>
	<path class="st1" d="M749.6,191.8c-1.8-4.9-2.7-10-3.7-15.1c-0.6-2.6,2.2-3.6,3.7-5.1C749.6,178.3,749.6,185,749.6,191.8z"/>
	<path class="st1" d="M536,298.2c0.1,2-0.5,3.1-1.6,4.1c-7,6.5-13.9,13-20.8,19.5c-1.8,1.8-3.7,2.2-6.1,1.4
		c-9.1-2.8-18.2-5.5-27.3-8.2c-2.1-0.6-3.3-1.7-3.7-3.9c-2.2-9.3-4.4-18.7-6.6-28c-0.6-2.4-0.1-4.1,1.7-5.8c7-6.5,13.8-13,20.7-19.6
		c1.6-1.5,3.3-1.9,5.5-1.2c9.2,2.8,18.3,5.6,27.6,8.3c2.4,0.7,3.5,2,4,4.4c2,9.2,4.3,18.4,6.4,27.5C535.9,297.5,536,298.1,536,298.2
		z M524.8,295.5c-0.1-0.4-0.2-0.9-0.3-1.4c-1.4-5.8-2.8-11.6-4.1-17.5c-0.4-1.9-1.5-2.9-3.3-3.4c-5.8-1.7-11.6-3.4-17.4-5.2
		c-1.4-0.4-2.5-0.3-3.5,0.7c-4.7,4.4-9.4,8.8-14.2,13.3c-1,1-1.3,2.1-1,3.5c1.4,6,2.8,12,4.2,17.9c0.4,1.5,1.2,2.6,2.7,3.1
		c6,1.8,12.1,3.6,18.1,5.4c1.4,0.4,2.5,0.1,3.5-0.8c4.6-4.3,9.2-8.6,13.8-12.9C524.1,297.5,524.8,296.6,524.8,295.5z"/>
	<path class="st1" d="M405.9,243.5c0.1,2-0.5,3.1-1.6,4.1c-6.9,6.4-13.8,12.8-20.6,19.4c-2,1.9-3.9,2.3-6.5,1.5
		c-9-2.8-18-5.5-27.1-8.1c-2.1-0.6-3.2-1.8-3.7-3.9c-2.1-9.3-4.3-18.5-6.6-27.7c-0.6-2.5-0.1-4.4,1.8-6.2
		c6.9-6.3,13.6-12.8,20.4-19.3c1.6-1.6,3.3-2.1,5.7-1.4c9.2,2.9,18.3,5.6,27.6,8.3c2.4,0.7,3.4,2.1,4,4.5c2,9.1,4.2,18.2,6.4,27.3
		C405.8,242.7,405.9,243.4,405.9,243.5z M376.7,257.4c1.3,0,2.1-0.4,2.7-1c4.7-4.4,9.3-8.7,14-13.1c1.1-1,1.5-2.1,1.1-3.7
		c-1.5-5.9-2.8-11.8-4.2-17.7c-0.4-1.9-1.6-3-3.5-3.5c-5.8-1.6-11.5-3.4-17.2-5.1c-1.4-0.4-2.5-0.3-3.5,0.7
		c-4.7,4.4-9.4,8.8-14.2,13.2c-1.1,1-1.3,2.2-1,3.7c1.4,5.8,2.8,11.6,4.1,17.5c0.4,1.9,1.5,3,3.4,3.6c4.2,1.2,8.4,2.5,12.6,3.7
		C373.1,256.3,375,256.9,376.7,257.4z"/>
	<path class="st1" d="M275.9,414.9c0.1,1.6-0.7,2.7-1.8,3.8c-6.8,6.4-13.7,12.7-20.5,19.2c-2,1.9-3.9,2.3-6.5,1.5
		c-9-2.8-18-5.5-27.1-8.1c-2.1-0.6-3.3-1.7-3.7-3.8c-2.2-9.3-4.4-18.7-6.6-28c-0.6-2.4-0.1-4.1,1.7-5.8c7-6.5,13.8-13.1,20.7-19.6
		c1.4-1.3,3-2,5-1.4c9.3,2.8,18.7,5.7,28,8.4c2.4,0.7,3.5,2,4,4.4c2,9.2,4.3,18.4,6.4,27.5C275.7,413.7,275.8,414.3,275.9,414.9z
		 M264.6,411.7c0-0.2-0.1-0.4-0.1-0.7c-1.5-6.2-3-12.4-4.4-18.6c-0.4-1.7-1.5-2.5-3.1-3c-5.9-1.7-11.8-3.5-17.7-5.3
		c-1.4-0.4-2.5,0-3.5,0.9c-4.6,4.3-9.2,8.6-13.8,12.9c-1.3,1.2-1.5,2.5-1.1,4.1c1.4,5.6,2.7,11.2,4,16.8c0.5,2.2,1.6,3.5,3.8,4.1
		c5.8,1.6,11.5,3.4,17.2,5.1c1.4,0.4,2.5,0.1,3.5-0.8c4.7-4.4,9.3-8.7,14-13.1C264.1,413.5,264.6,412.7,264.6,411.7z"/>
	<path class="st1" d="M275.9,196.1c0,1.6-0.8,2.7-1.9,3.8c-6.8,6.4-13.7,12.7-20.5,19.2c-2,1.9-3.9,2.3-6.5,1.5
		c-9-2.8-18-5.5-27.1-8.1c-2.1-0.6-3.2-1.8-3.7-3.9c-2.2-9.3-4.4-18.7-6.6-28c-0.6-2.4-0.1-4.1,1.7-5.8c7-6.5,13.8-13.1,20.7-19.6
		c1.4-1.3,3-2,5-1.3c9.2,2.8,18.5,5.6,27.8,8.3c2.6,0.7,3.7,2.2,4.3,4.8c2,9.1,4.2,18.1,6.3,27.1
		C275.7,194.7,275.8,195.4,275.9,196.1z M264.6,192.2c-1.5-6.2-3.1-12.9-4.8-19.5c-0.3-1.3-1.5-1.7-2.7-2.1
		c-5.9-1.7-11.8-3.5-17.7-5.3c-1.5-0.5-2.6,0-3.7,1c-4.5,4.3-9.1,8.5-13.7,12.7c-1.3,1.2-1.6,2.4-1.2,4.1c1.4,5.7,2.8,11.3,4,17
		c0.5,2.1,1.6,3.4,3.6,4c5.8,1.6,11.5,3.4,17.2,5.1c1.4,0.4,2.5,0.2,3.5-0.7c4.7-4.4,9.5-8.8,14.2-13.2
		C264.2,194.5,264.7,193.7,264.6,192.2z"/>
	<path class="st1" d="M666.1,352.9c0.1,2.2-0.7,3.4-1.8,4.4c-6.8,6.4-13.7,12.7-20.5,19.2c-1.9,1.8-3.8,2.3-6.3,1.5
		c-9.1-2.8-18.2-5.5-27.3-8.2c-2.1-0.6-3.2-1.8-3.7-3.9c-2.1-9.3-4.3-18.5-6.6-27.7c-0.6-2.5,0-4.4,1.9-6.2
		c6.9-6.3,13.6-12.8,20.4-19.2c1.7-1.6,3.5-2,5.7-1.3c9.2,2.8,18.5,5.6,27.8,8.4c1.9,0.6,3,1.5,3.5,3.5c2.2,9.4,4.4,18.8,6.6,28.2
		C665.9,352.2,666,352.9,666.1,352.9z M637.1,366.9c1,0,1.7-0.4,2.3-0.9c4.7-4.4,9.5-8.8,14.2-13.2c1-0.9,1.4-2,1.1-3.4
		c-1.5-5.9-2.8-11.8-4.2-17.7c-0.5-2-1.6-3.1-3.6-3.7c-5.7-1.6-11.3-3.3-17-5c-1.6-0.5-2.8-0.3-3.9,0.8c-4.6,4.4-9.3,8.7-14,13.1
		c-1.1,1-1.3,2.1-1,3.5c1.4,5.9,2.8,11.8,4.2,17.7c0.4,1.8,1.4,2.9,3.2,3.5c5.7,1.7,11.5,3.4,17.2,5.1
		C636.2,366.7,636.7,366.8,637.1,366.9z"/>
	<path class="st1" d="M536,407.8c0.1,1.9-0.5,3-1.5,3.9c-7.1,6.6-14.1,13.2-21.2,19.8c-1.6,1.6-3.3,1.9-5.5,1.3
		c-9.3-2.8-18.7-5.6-28-8.4c-1.9-0.6-2.9-1.7-3.4-3.6c-2.2-9.4-4.4-18.8-6.7-28.2c-0.6-2.4,0-4.1,1.8-5.8
		c6.9-6.4,13.7-12.9,20.6-19.4c1.6-1.6,3.4-2,5.7-1.3c9.2,2.9,18.5,5.6,27.8,8.4c1.9,0.5,3,1.5,3.5,3.5c2.2,9.4,4.4,18.8,6.6,28.2
		C535.8,406.9,536,407.6,536,407.8z M498.5,377.2c-1.1,0-1.9,0.5-2.6,1.2c-4.5,4.3-9.1,8.5-13.7,12.7c-1.3,1.2-1.6,2.5-1.2,4.3
		c1.4,5.6,2.7,11.2,4,16.8c0.5,2.2,1.7,3.5,3.8,4.1c5.7,1.6,11.3,3.3,17,5c1.4,0.4,2.5,0.3,3.6-0.6c4.7-4.4,9.5-8.8,14.2-13.2
		c0.9-0.9,1.4-1.8,1.1-3.2c-1.5-6.1-2.9-12.3-4.4-18.4c-0.4-1.6-1.3-2.6-3-3.1c-5.4-1.6-10.7-3.2-16.1-4.8
		C500.3,377.7,499.4,377.4,498.5,377.2z"/>
	<path class="st1" d="M275.8,305c0.1,1.9-0.5,3-1.4,3.9c-7.1,6.6-14.1,13.2-21.1,19.8c-1.6,1.5-3.3,2-5.5,1.3
		c-9.3-2.8-18.7-5.6-28-8.4c-1.9-0.6-3-1.7-3.4-3.6c-2.2-9.4-4.4-18.8-6.7-28.2c-0.6-2.4,0-4.1,1.7-5.8c7-6.5,13.8-13.1,20.7-19.6
		c1.3-1.3,2.9-2,4.8-1.4c9.6,2.9,19.1,5.8,28.7,8.6c1.9,0.6,2.9,1.7,3.3,3.6c2.1,9.3,4.3,18.5,6.5,27.8
		C275.6,304,275.8,304.8,275.8,305z M264.6,302.3c0-0.2-0.1-0.4-0.1-0.7c-1.5-6.3-3-12.6-4.5-18.9c-0.4-1.6-1.5-2.3-3-2.8
		c-5.7-1.7-11.5-3.4-17.2-5.1c-1.6-0.5-2.9-0.3-4.2,0.9c-4.6,4.4-9.3,8.8-14,13.1c-1.1,1-1.2,2.2-0.9,3.5c1.4,5.8,2.8,11.6,4.1,17.5
		c0.4,1.9,1.5,3.1,3.4,3.6c5.8,1.7,11.6,3.4,17.4,5.2c1.4,0.4,2.5,0.2,3.5-0.7c4.7-4.4,9.3-8.7,14-13.1
		C264,304.1,264.6,303.4,264.6,302.3z"/>
	<path class="st1" d="M145.7,250.3c0.1,1.9-0.5,3-1.5,3.9c-7,6.5-14,13.1-21,19.7c-1.8,1.7-3.6,2.1-5.9,1.4
		c-9.2-2.8-18.4-5.6-27.6-8.3c-2-0.6-3.1-1.7-3.6-3.7c-2.2-9.4-4.4-18.8-6.7-28.2c-0.6-2.4,0-4.1,1.8-5.8
		c6.9-6.4,13.7-12.9,20.6-19.4c1.7-1.6,3.4-2,5.7-1.3c9.2,2.9,18.5,5.6,27.8,8.4c1.9,0.5,3,1.5,3.5,3.5c2.2,9.4,4.4,18.8,6.6,28.2
		C145.6,249.5,145.7,250.2,145.7,250.3z M134.6,247.5c0-0.2-0.1-0.4-0.1-0.7c-1.5-6.2-3-12.4-4.4-18.6c-0.4-1.8-1.7-2.5-3.4-3
		c-5.5-1.6-11.1-3.1-16.5-5c-2.1-0.7-3.6-0.3-5,1.1c-4.5,4.2-8.9,8.5-13.4,12.7c-1,1-1.3,2.1-1,3.5c1.4,5.9,2.8,11.8,4.2,17.7
		c0.4,1.8,1.4,2.9,3.2,3.5c5.9,1.7,11.8,3.5,17.7,5.3c1.3,0.4,2.4,0.2,3.3-0.7c4.8-4.5,9.6-8.9,14.3-13.4
		C134.1,249.2,134.5,248.4,134.6,247.5z"/>
	<path class="st1" d="M666.1,243.5c0.1,1.9-0.4,3-1.4,3.9c-7,6.5-14,13.1-21,19.7c-1.9,1.8-3.7,2.1-6.1,1.4
		c-9.1-2.8-18.2-5.5-27.3-8.2c-2.1-0.6-3.2-1.8-3.7-3.9c-2.2-9.3-4.4-18.7-6.6-28c-0.6-2.4-0.1-4.1,1.7-5.8
		c7-6.5,13.8-13.1,20.8-19.6c1.5-1.4,3.1-1.9,5.2-1.3c8.9,2.8,17.9,5.5,26.9,8c3,0.8,4.4,2.4,5,5.5c1.8,8.8,4.1,17.6,6.1,26.4
		C665.9,242.5,666,243.3,666.1,243.5z M628.5,213c-1.1,0.1-1.8,0.5-2.5,1.1c-4.8,4.5-9.5,9-14.3,13.5c-0.9,0.9-1,2-0.7,3.1
		c1.4,6,2.8,12,4.2,17.9c0.4,1.6,1.3,2.7,2.9,3.2c6,1.8,11.9,3.5,17.9,5.4c1.4,0.4,2.5,0.1,3.5-0.8c4.7-4.4,9.3-8.7,14-13.1
		c1.1-1,1.4-2.1,1.1-3.7c-1.5-5.9-2.9-11.8-4.2-17.7c-0.4-1.9-1.6-3-3.5-3.5c-3.4-0.9-6.7-2-10.1-3
		C634.1,214.6,631.2,213.8,628.5,213z"/>
	<path class="st1" d="M536,188.9c0.1,1.9-0.5,3-1.5,3.9c-7.1,6.6-14.1,13.2-21.2,19.8c-1.6,1.6-3.3,1.9-5.5,1.3
		c-9.3-2.8-18.7-5.6-28-8.4c-1.9-0.6-2.9-1.7-3.4-3.6c-2.2-9.4-4.4-18.8-6.7-28.2c-0.6-2.4,0-4.1,1.8-5.8
		c6.9-6.4,13.7-12.9,20.6-19.4c1.6-1.6,3.4-2,5.7-1.3c9.2,2.9,18.5,5.6,27.8,8.4c1.9,0.5,3,1.5,3.5,3.5c2.2,9.4,4.4,18.8,6.6,28.2
		C535.9,188,536,188.7,536,188.9z M524.8,186.1c0-0.2-0.1-0.4-0.1-0.7c-1.5-6.2-3-12.4-4.4-18.6c-0.4-1.7-1.5-2.5-3.1-3
		c-5.9-1.7-11.8-3.5-17.7-5.3c-1.4-0.4-2.5-0.1-3.5,0.9c-4.6,4.3-9.2,8.6-13.8,12.9c-1.3,1.2-1.5,2.4-1.1,4.1c1.4,5.7,2.8,11.3,4,17
		c0.5,2.1,1.6,3.3,3.7,3.9c5.8,1.6,11.5,3.4,17.2,5.1c1.4,0.4,2.5,0.2,3.5-0.8c4.7-4.4,9.3-8.7,14-13.1
		C524.2,187.9,524.7,187.2,524.8,186.1z"/>
	<path class="st1" d="M405.9,352.9c0.1,2-0.5,3.1-1.6,4.1c-7,6.5-13.9,13-20.8,19.5c-1.8,1.7-3.5,2.2-5.9,1.5
		c-9.3-2.8-18.7-5.6-28-8.4c-1.8-0.5-2.8-1.7-3.2-3.5c-2.2-9.5-4.4-19-6.7-28.4c-0.6-2.3,0-4,1.7-5.6c7-6.5,13.8-13.1,20.7-19.6
		c1.6-1.5,3.3-1.9,5.5-1.3c9.2,2.8,18.3,5.6,27.6,8.3c2.4,0.7,3.5,2,4,4.4c2,9.2,4.3,18.4,6.4,27.5
		C405.8,352.2,405.9,352.8,405.9,352.9z M368.5,322.5c-1.1,0-1.9,0.5-2.5,1.1c-4.7,4.4-9.4,8.8-14.2,13.3c-1.2,1.1-1.2,2.3-0.8,3.7
		c1.4,5.7,2.7,11.3,4,17c0.5,2.1,1.6,3.3,3.7,3.9c5.8,1.6,11.5,3.4,17.2,5.1c1.4,0.4,2.5,0.2,3.5-0.7c4.7-4.4,9.3-8.7,14-13.1
		c1.1-1,1.5-2.1,1.1-3.6c-1.5-6-2.9-11.9-4.3-17.9c-0.4-1.7-1.4-2.7-3.1-3.2c-3.7-1-7.3-2.2-11-3.3
		C373.5,324,370.9,323.2,368.5,322.5z"/>
	<path class="st1" d="M145.7,359.6c0.2,2.3-0.8,3.5-1.9,4.5c-6.8,6.3-13.6,12.6-20.3,19c-1.9,1.8-3.8,2.3-6.3,1.6
		c-9.1-2.8-18.2-5.5-27.3-8.2c-2.1-0.6-3.2-1.8-3.7-3.9c-2.1-9.3-4.3-18.5-6.6-27.7c-0.6-2.5-0.1-4.4,1.8-6.2
		c6.9-6.4,13.7-12.9,20.6-19.4c1.5-1.4,3.1-1.9,5.2-1.3c9.2,2.9,18.5,5.6,27.8,8.3c2.4,0.7,3.5,2.1,4,4.5c2,9.1,4.2,18.2,6.4,27.3
		C145.6,358.8,145.7,359.5,145.7,359.6z M108.3,329.2c-1.3,0-2.1,0.7-2.9,1.4c-4.6,4.3-9.2,8.7-13.8,13c-1.1,1-1.2,2.2-0.9,3.5
		c1.4,5.8,2.8,11.6,4.1,17.5c0.4,1.9,1.5,3.1,3.4,3.6c5.8,1.7,11.7,3.4,17.5,5.2c1.4,0.4,2.5,0.2,3.5-0.8c4.7-4.4,9.3-8.7,14-13.1
		c1.1-1,1.5-2.1,1.1-3.7c-1.5-6-2.9-12.1-4.3-18.2c-0.4-1.8-1.5-2.5-3.1-2.9c-5.4-1.6-10.7-3.2-16.1-4.8
		C109.9,329.7,109,329.4,108.3,329.2z"/>
	<path class="st0" d="M524.8,295.5c0,1.2-0.6,2-1.4,2.7c-4.6,4.3-9.2,8.6-13.8,12.9c-1,0.9-2.1,1.3-3.5,0.8
		c-6-1.8-12.1-3.6-18.1-5.4c-1.5-0.5-2.3-1.6-2.7-3.1c-1.4-6-2.8-12-4.2-17.9c-0.3-1.4,0-2.5,1-3.5c4.7-4.4,9.5-8.8,14.2-13.3
		c1-1,2.1-1.1,3.5-0.7c5.8,1.8,11.6,3.5,17.4,5.2c1.8,0.5,2.8,1.5,3.3,3.4c1.3,5.8,2.7,11.7,4.1,17.5
		C524.6,294.6,524.7,295,524.8,295.5z M505.7,307.3c1.4,0.2,2-0.2,2.5-0.7c3.6-3.4,7.2-6.8,10.8-10.2c0.9-0.9,1.2-1.8,0.8-3
		c-1.1-4.5-2.2-9-3.2-13.5c-0.4-1.5-1.1-2.5-2.7-3c-4.6-1.3-9.2-2.7-13.8-4.1c-1.3-0.4-2.2,0-3,0.8c-3.5,3.3-6.9,6.6-10.4,9.9
		c-1.1,1-1.3,2.1-0.9,3.5c0.7,2.8,1.7,5.6,1.9,8.4c0.4,5.8,3.4,8.5,8.9,9.4C500,305.3,503.1,306.6,505.7,307.3z"/>
	<path class="st0" d="M376.7,257.4c-1.6-0.5-3.6-1.1-5.6-1.7c-4.2-1.3-8.4-2.5-12.6-3.7c-1.9-0.5-3-1.7-3.4-3.6
		c-1.3-5.8-2.7-11.7-4.1-17.5c-0.4-1.5-0.1-2.6,1-3.7c4.7-4.4,9.5-8.8,14.2-13.2c1-1,2.2-1.1,3.5-0.7c5.7,1.8,11.5,3.5,17.2,5.1
		c1.9,0.5,3,1.6,3.5,3.5c1.4,5.9,2.7,11.8,4.2,17.7c0.4,1.5,0,2.6-1.1,3.7c-4.7,4.4-9.3,8.7-14,13.1
		C378.8,257,378,257.4,376.7,257.4z M376,252.7c1,0,1.5-0.2,1.9-0.6c3.8-3.6,7.5-7.1,11.3-10.7c0.8-0.7,0.9-1.6,0.6-2.6
		c-1.1-4.6-2.2-9.2-3.3-13.8c-0.4-1.6-1.2-2.4-2.8-2.9c-4.5-1.3-9.1-2.6-13.5-4c-1.3-0.4-2.3-0.1-3.2,0.8c-3.3,3.2-6.7,6.4-10.1,9.6
		c-1.2,1.1-1.6,2.2-1.1,3.8c0.7,2.6,1.6,5.3,1.8,7.9c0.4,6,3.5,9,9.4,9.9C370.1,250.6,373.2,251.9,376,252.7z"/>
	<path class="st0" d="M264.6,411.7c0,1.1-0.6,1.8-1.3,2.5c-4.7,4.4-9.3,8.7-14,13.1c-1,0.9-2.1,1.2-3.5,0.8
		c-5.7-1.7-11.5-3.5-17.2-5.1c-2.2-0.6-3.3-1.9-3.8-4.1c-1.2-5.6-2.6-11.2-4-16.8c-0.4-1.6-0.2-2.9,1.1-4.1
		c4.6-4.3,9.2-8.6,13.8-12.9c1-0.9,2-1.3,3.5-0.9c5.9,1.8,11.8,3.6,17.7,5.3c1.6,0.5,2.7,1.3,3.1,3c1.5,6.2,3,12.4,4.4,18.6
		C264.6,411.2,264.6,411.5,264.6,411.7z M245.7,423.5c1.2,0.2,1.9-0.3,2.5-0.9c3.5-3.4,7.1-6.7,10.6-10.1c0.9-0.8,1.2-1.7,0.9-3
		c-1.1-4.6-2.2-9.2-3.2-13.8c-0.4-1.6-1.3-2.4-2.8-2.9c-4.5-1.3-9-2.6-13.5-4c-1.2-0.4-2.2-0.2-3.1,0.7c-3.5,3.4-7.1,6.7-10.6,10.1
		c-1,0.9-1.2,2-0.8,3.3c0.7,2.7,1.7,5.4,1.9,8.2c0.4,6.2,3.7,9,9.6,9.9C240.1,421.6,243.1,422.8,245.7,423.5z"/>
	<path class="st0" d="M264.6,192.2c0.1,1.5-0.4,2.3-1.2,3c-4.7,4.4-9.4,8.8-14.2,13.2c-1,1-2.2,1.1-3.5,0.7
		c-5.7-1.8-11.5-3.5-17.2-5.1c-2.1-0.6-3.2-1.8-3.6-4c-1.3-5.7-2.6-11.4-4-17c-0.4-1.7-0.1-2.9,1.2-4.1c4.6-4.2,9.1-8.5,13.7-12.7
		c1.1-1,2.1-1.5,3.7-1c5.9,1.8,11.8,3.5,17.7,5.3c1.2,0.4,2.4,0.8,2.7,2.1C261.5,179.3,263.1,186,264.6,192.2z M245.5,204.6
		c1.4,0.2,2-0.2,2.6-0.7c3.6-3.4,7.2-6.8,10.8-10.2c0.9-0.9,1.1-1.7,0.8-3c-1.1-4.6-2.2-9.2-3.2-13.8c-0.3-1.5-1.1-2.3-2.6-2.8
		c-4.6-1.3-9.2-2.7-13.8-4.1c-1.2-0.4-2.2-0.1-3.1,0.7c-3.5,3.3-6.9,6.6-10.4,9.9c-1.1,1-1.3,2-1,3.4c1.1,4.5,2.2,9,3.2,13.5
		c0.3,1.5,1.2,2.3,2.6,2.8c3.9,1.1,7.8,2.3,11.7,3.5C244.1,204.2,245.1,204.5,245.5,204.6z"/>
	<path class="st0" d="M637.1,366.9c-0.4-0.1-0.9-0.2-1.5-0.4c-5.7-1.7-11.5-3.4-17.2-5.1c-1.8-0.5-2.8-1.7-3.2-3.5
		c-1.4-5.9-2.8-11.8-4.2-17.7c-0.3-1.4-0.1-2.5,1-3.5c4.7-4.4,9.3-8.7,14-13.1c1.2-1.1,2.4-1.3,3.9-0.8c5.6,1.8,11.3,3.5,17,5
		c2,0.6,3.1,1.7,3.6,3.7c1.3,5.9,2.7,11.8,4.2,17.7c0.4,1.4-0.1,2.5-1.1,3.4c-4.7,4.4-9.4,8.8-14.2,13.2
		C638.8,366.5,638.1,366.8,637.1,366.9z M636,362.1c1.2,0.1,1.8-0.3,2.3-0.8c3.6-3.4,7.2-6.8,10.8-10.2c0.8-0.8,1.2-1.6,0.9-2.8
		c-1.2-4.7-2.3-9.3-3.3-14c-0.3-1.5-1.2-2.3-2.6-2.7c-4.6-1.3-9.2-2.7-13.8-4.1c-1.2-0.4-2.2-0.1-3,0.8c-3.5,3.3-6.9,6.6-10.4,9.9
		c-1.1,1-1.3,2.1-0.9,3.4c0.7,2.8,1.3,5.6,2,8.4c2.2,9,0.2,6.5,8.9,9.4C629.9,360.4,633.2,361.3,636,362.1z"/>
	<path class="st0" d="M498.5,377.2c0.9,0.3,1.8,0.5,2.7,0.8c5.4,1.6,10.7,3.2,16.1,4.8c1.6,0.5,2.6,1.4,3,3.1
		c1.4,6.1,2.9,12.3,4.4,18.4c0.3,1.4-0.2,2.3-1.1,3.2c-4.7,4.4-9.4,8.8-14.2,13.2c-1,1-2.2,1.1-3.6,0.6c-5.6-1.7-11.3-3.4-17-5
		c-2.2-0.6-3.3-1.9-3.8-4.1c-1.2-5.6-2.6-11.2-4-16.8c-0.4-1.8-0.1-3.1,1.2-4.3c4.6-4.2,9.1-8.5,13.7-12.7
		C496.6,377.7,497.4,377.2,498.5,377.2z M505.9,416.8c1.3,0.1,1.9-0.3,2.5-0.9c3.5-3.3,6.9-6.6,10.4-9.9c1-1,1.4-1.9,1-3.4
		c-1.1-4.4-2.2-8.8-3.2-13.3c-0.4-1.7-1.2-2.6-2.9-3.1c-4.5-1.3-9.1-2.6-13.6-4c-1.2-0.4-2.2-0.2-3.1,0.7c-3.5,3.3-6.9,6.6-10.4,9.9
		c-1,1-1.4,2-1,3.4c0.7,2.6,1.7,5.3,1.8,7.9c0.4,6.4,3.9,9.3,9.9,10.2C500.5,414.9,503.3,416.1,505.9,416.8z"/>
	<path class="st0" d="M264.6,302.3c-0.1,1.1-0.6,1.8-1.3,2.5c-4.7,4.4-9.3,8.7-14,13.1c-1,0.9-2.2,1.2-3.5,0.7
		c-5.8-1.8-11.6-3.5-17.4-5.2c-1.9-0.5-2.9-1.7-3.4-3.6c-1.3-5.8-2.7-11.7-4.1-17.5c-0.3-1.3-0.2-2.5,0.9-3.5
		c4.7-4.4,9.3-8.7,14-13.1c1.2-1.2,2.5-1.4,4.2-0.9c5.7,1.8,11.5,3.5,17.2,5.1c1.5,0.4,2.6,1.2,3,2.8c1.5,6.3,3,12.6,4.5,18.9
		C264.6,301.9,264.6,302.1,264.6,302.3z M245.6,314.1c1.4,0.2,2-0.2,2.5-0.7c3.6-3.4,7.2-6.8,10.8-10.2c0.9-0.9,1.2-1.8,0.8-3
		c-1.1-4.5-2.2-9-3.2-13.5c-0.4-1.5-1.1-2.5-2.7-3c-4.6-1.3-9.2-2.7-13.8-4.1c-1.3-0.4-2.2-0.1-3,0.8c-3.4,3.2-6.8,6.5-10.3,9.7
		c-1.1,1-1.5,2.1-1.1,3.6c0.8,2.8,1.8,5.6,1.9,8.4c0.4,5.8,3.4,8.5,8.9,9.4C239.8,312,243,313.3,245.6,314.1z"/>
	<path class="st0" d="M134.6,247.5c0,1-0.4,1.7-1.1,2.4c-4.8,4.5-9.6,9-14.3,13.4c-0.9,0.9-2,1.1-3.3,0.7
		c-5.9-1.8-11.8-3.5-17.7-5.3c-1.8-0.5-2.8-1.7-3.2-3.5c-1.4-5.9-2.8-11.8-4.2-17.7c-0.3-1.4-0.1-2.5,1-3.5
		c4.5-4.2,8.9-8.5,13.4-12.7c1.4-1.4,2.9-1.8,5-1.1c5.5,1.8,11,3.4,16.5,5c1.6,0.5,2.9,1.2,3.4,3c1.5,6.2,3,12.4,4.4,18.6
		C134.5,247,134.5,247.3,134.6,247.5z M115.8,259.4c1.1,0,1.7-0.2,2.1-0.7c3.7-3.5,7.3-6.9,11-10.4c0.8-0.8,1.1-1.6,0.8-2.8
		c-1.1-4.6-2.2-9.2-3.3-13.8c-0.4-1.6-1.2-2.5-2.8-2.9c-4.5-1.3-9.1-2.6-13.5-4c-1.3-0.4-2.3-0.1-3.3,0.8c-3.4,3.3-6.8,6.5-10.3,9.7
		c-1.1,1.1-1.4,2.2-1,3.7c0.7,2.7,1.7,5.4,1.9,8.2c0.5,5.8,3.3,8.8,9.1,9.6C109.8,257.3,113,258.6,115.8,259.4z"/>
	<path class="st0" d="M628.5,213c2.7,0.8,5.5,1.6,8.4,2.4c3.4,1,6.7,2.1,10.1,3c1.9,0.5,3,1.6,3.5,3.5c1.3,5.9,2.7,11.8,4.2,17.7
		c0.4,1.5,0,2.7-1.1,3.7c-4.7,4.4-9.3,8.7-14,13.1c-1,0.9-2.1,1.2-3.5,0.8c-6-1.8-11.9-3.6-17.9-5.4c-1.6-0.5-2.5-1.6-2.9-3.2
		c-1.4-6-2.8-12-4.2-17.9c-0.3-1.2-0.2-2.2,0.7-3.1c4.8-4.5,9.5-9,14.3-13.5C626.7,213.5,627.4,213.1,628.5,213z M635.9,252.7
		c1.2,0.1,1.8-0.2,2.4-0.7c3.6-3.4,7.2-6.8,10.8-10.2c0.9-0.9,1.2-1.8,0.9-3c-1.1-4.5-2.2-9-3.2-13.5c-0.4-1.5-1.1-2.5-2.7-3
		c-4.6-1.3-9.2-2.7-13.8-4.1c-1.3-0.4-2.2-0.1-3,0.8c-3.5,3.3-6.9,6.6-10.4,9.9c-1.1,1-1.3,2.1-0.9,3.5c0.7,2.7,1.7,5.4,1.9,8.2
		c0.4,5.9,3.4,8.9,9.2,9.7C630.2,250.6,633.3,251.9,635.9,252.7z"/>
	<path class="st0" d="M524.8,186.1c-0.1,1.1-0.6,1.8-1.3,2.5c-4.7,4.4-9.3,8.7-14,13.1c-1,0.9-2.1,1.2-3.5,0.8
		c-5.7-1.7-11.5-3.5-17.2-5.1c-2.1-0.6-3.2-1.8-3.7-3.9c-1.3-5.7-2.6-11.4-4-17c-0.4-1.7-0.1-2.9,1.1-4.1c4.6-4.3,9.2-8.6,13.8-12.9
		c1-0.9,2.1-1.3,3.5-0.9c5.9,1.8,11.8,3.6,17.7,5.3c1.6,0.5,2.7,1.3,3.1,3c1.5,6.2,3,12.4,4.4,18.6
		C524.7,185.7,524.8,185.9,524.8,186.1z M506,198c1.2,0.1,1.8-0.4,2.3-0.9c3.5-3.4,7.1-6.7,10.6-10.1c0.9-0.8,1.3-1.7,1-3
		c-1.2-4.6-2.2-9.2-3.3-13.8c-0.4-1.6-1.2-2.4-2.8-2.9c-4.5-1.3-9.1-2.6-13.6-4c-1.2-0.4-2.2-0.2-3.1,0.7
		c-3.5,3.4-7.1,6.7-10.6,10.1c-1,0.9-1.2,2-0.9,3.2c0.7,2.7,1.7,5.4,1.9,8.2c0.4,6.2,3.7,9.1,9.6,10C500.4,196,503.4,197.2,506,198z
		"/>
	<path class="st0" d="M368.5,322.5c2.4,0.7,5,1.5,7.6,2.3c3.7,1.1,7.3,2.2,11,3.3c1.7,0.5,2.7,1.5,3.1,3.2c1.4,6,2.8,12,4.3,17.9
		c0.4,1.5-0.1,2.6-1.1,3.6c-4.7,4.4-9.3,8.7-14,13.1c-1,0.9-2.1,1.2-3.5,0.7c-5.7-1.8-11.5-3.5-17.2-5.1c-2.1-0.6-3.2-1.8-3.7-3.9
		c-1.3-5.7-2.6-11.4-4-17c-0.3-1.4-0.3-2.7,0.8-3.7c4.7-4.4,9.4-8.8,14.2-13.3C366.6,323,367.3,322.5,368.5,322.5z M375.6,362.1
		c1.4,0.2,2-0.2,2.5-0.7c3.6-3.4,7.2-6.8,10.8-10.2c0.9-0.8,1.2-1.7,0.9-3c-1.1-4.5-2.2-9-3.2-13.5c-0.4-1.7-1.3-2.6-2.9-3.1
		c-4.5-1.3-9.1-2.6-13.6-4c-1.2-0.4-2.2-0.1-3,0.7c-3.5,3.3-6.9,6.6-10.4,9.9c-1.1,1-1.3,2-1,3.4c1.1,4.5,2.2,9,3.2,13.5
		c0.3,1.5,1.2,2.3,2.6,2.7c3.9,1.1,7.8,2.3,11.7,3.5C374.2,361.6,375.2,361.9,375.6,362.1z"/>
	<path class="st0" d="M108.3,329.2c0.8,0.2,1.7,0.5,2.6,0.8c5.4,1.6,10.7,3.2,16.1,4.8c1.6,0.5,2.7,1.2,3.1,2.9
		c1.4,6.1,2.8,12.1,4.3,18.2c0.4,1.5,0,2.6-1.1,3.7c-4.7,4.4-9.3,8.7-14,13.1c-1,0.9-2.1,1.2-3.5,0.8c-5.8-1.8-11.6-3.5-17.5-5.2
		c-1.9-0.5-3-1.7-3.4-3.6c-1.3-5.8-2.7-11.7-4.1-17.5c-0.3-1.3-0.2-2.5,0.9-3.5c4.6-4.3,9.2-8.7,13.8-13
		C106.1,329.9,107,329.2,108.3,329.2z M115.7,368.8c1.2,0.2,1.9-0.3,2.5-0.9c3.5-3.4,7.1-6.7,10.6-10.1c1-0.9,1.2-1.9,0.9-3.2
		c-1.1-4.4-2.2-8.8-3.2-13.3c-0.4-1.6-1.2-2.6-2.9-3.1c-4.5-1.3-9.1-2.6-13.6-4c-1.2-0.4-2.2-0.2-3.1,0.7
		c-3.5,3.4-7.1,6.7-10.6,10.1c-1,0.9-1.2,2-0.8,3.3c0.7,2.6,1.7,5.3,1.8,7.9c0.4,6.4,3.9,9.3,9.9,10.2
		C110.2,366.9,113.1,368.1,115.7,368.8z"/>
	<path class="st1" d="M505.7,307.3c-2.6-0.8-5.8-2.1-9.1-2.6c-5.6-0.9-8.5-3.6-8.9-9.4c-0.2-2.8-1.2-5.6-1.9-8.4
		c-0.4-1.4-0.2-2.5,0.9-3.5c3.5-3.3,7-6.6,10.4-9.9c0.9-0.8,1.8-1.2,3-0.8c4.6,1.4,9.2,2.8,13.8,4.1c1.6,0.5,2.4,1.4,2.7,3
		c1,4.5,2.1,9,3.2,13.5c0.3,1.2,0.1,2.2-0.8,3c-3.6,3.4-7.2,6.8-10.8,10.2C507.7,307.1,507.1,307.5,505.7,307.3z"/>
	<path class="st1" d="M376,252.7c-2.8-0.8-5.8-2.1-9-2.6c-5.8-0.9-9-3.9-9.4-9.9c-0.2-2.7-1.1-5.3-1.8-7.9c-0.5-1.6,0-2.7,1.1-3.8
		c3.4-3.1,6.7-6.4,10.1-9.6c0.9-0.9,1.9-1.2,3.2-0.8c4.5,1.4,9,2.8,13.5,4c1.6,0.4,2.4,1.3,2.8,2.9c1,4.6,2.1,9.2,3.3,13.8
		c0.3,1,0.2,1.9-0.6,2.6c-3.8,3.6-7.5,7.1-11.3,10.7C377.5,252.5,377,252.7,376,252.7z"/>
	<path class="st1" d="M245.7,423.5c-2.7-0.8-5.6-2-8.6-2.5c-5.9-0.9-9.2-3.8-9.6-9.9c-0.2-2.8-1.2-5.5-1.9-8.2
		c-0.3-1.3-0.2-2.3,0.8-3.3c3.6-3.3,7.1-6.7,10.6-10.1c0.9-0.9,1.8-1.1,3.1-0.7c4.5,1.4,9,2.7,13.5,4c1.5,0.4,2.5,1.3,2.8,2.9
		c1,4.6,2.1,9.2,3.2,13.8c0.3,1.3,0,2.1-0.9,3c-3.6,3.3-7.1,6.7-10.6,10.1C247.6,423.3,247,423.7,245.7,423.5z"/>
	<path class="st1" d="M245.5,204.6c-0.4-0.1-1.4-0.4-2.4-0.7c-3.9-1.2-7.8-2.3-11.7-3.5c-1.5-0.4-2.3-1.2-2.6-2.8
		c-1-4.5-2.1-9-3.2-13.5c-0.4-1.4-0.1-2.5,1-3.4c3.5-3.3,7-6.6,10.4-9.9c0.9-0.8,1.8-1.1,3.1-0.7c4.6,1.4,9.2,2.8,13.8,4.1
		c1.5,0.4,2.3,1.3,2.6,2.8c1,4.6,2.1,9.2,3.2,13.8c0.3,1.3,0.1,2.1-0.8,3c-3.6,3.4-7.2,6.8-10.8,10.2
		C247.5,204.5,246.9,204.8,245.5,204.6z"/>
	<path class="st1" d="M636,362.1c-2.9-0.8-6.1-1.7-9.3-2.8c-8.7-2.8-6.7-0.4-8.9-9.4c-0.7-2.8-1.3-5.6-2-8.4
		c-0.4-1.4-0.1-2.5,0.9-3.4c3.5-3.3,7-6.6,10.4-9.9c0.9-0.8,1.8-1.1,3-0.8c4.6,1.4,9.2,2.8,13.8,4.1c1.5,0.4,2.3,1.2,2.6,2.7
		c1.1,4.7,2.2,9.3,3.3,14c0.3,1.2-0.1,2-0.9,2.8c-3.6,3.4-7.2,6.8-10.8,10.2C637.8,361.9,637.2,362.2,636,362.1z"/>
	<path class="st1" d="M505.9,416.8c-2.6-0.7-5.4-1.9-8.4-2.4c-6-0.9-9.5-3.8-9.9-10.2c-0.2-2.7-1.1-5.3-1.8-7.9
		c-0.4-1.4,0-2.5,1-3.4c3.5-3.3,7-6.6,10.4-9.9c0.9-0.8,1.8-1.1,3.1-0.7c4.5,1.4,9,2.8,13.6,4c1.7,0.5,2.5,1.4,2.9,3.1
		c1,4.4,2,8.9,3.2,13.3c0.4,1.5,0,2.4-1,3.4c-3.5,3.3-7,6.6-10.4,9.9C507.8,416.5,507.1,417,505.9,416.8z"/>
	<path class="st1" d="M245.6,314.1c-2.6-0.8-5.8-2.1-9.1-2.6c-5.6-0.9-8.5-3.6-8.9-9.4c-0.2-2.8-1.2-5.6-1.9-8.4
		c-0.4-1.5,0-2.6,1.1-3.6c3.5-3.2,6.9-6.5,10.3-9.7c0.9-0.8,1.8-1.2,3-0.8c4.6,1.4,9.2,2.8,13.8,4.1c1.6,0.5,2.4,1.4,2.7,3
		c1,4.5,2.1,9,3.2,13.5c0.3,1.3,0.1,2.2-0.8,3c-3.6,3.4-7.2,6.8-10.8,10.2C247.6,313.8,247,314.2,245.6,314.1z"/>
	<path class="st1" d="M115.8,259.4c-2.8-0.8-6-2.2-9.3-2.6c-5.7-0.9-8.6-3.8-9.1-9.6c-0.2-2.8-1.1-5.5-1.9-8.2
		c-0.4-1.5-0.2-2.6,1-3.7c3.5-3.2,6.9-6.5,10.3-9.7c1-0.9,1.9-1.2,3.3-0.8c4.5,1.4,9,2.8,13.5,4c1.6,0.4,2.4,1.3,2.8,2.9
		c1,4.6,2.1,9.2,3.3,13.8c0.3,1.2,0,2-0.8,2.8c-3.7,3.5-7.3,6.9-11,10.4C117.4,259.2,116.9,259.5,115.8,259.4z"/>
	<path class="st1" d="M635.9,252.7c-2.7-0.8-5.8-2.1-9-2.6c-5.8-0.9-8.8-3.8-9.2-9.7c-0.2-2.8-1.2-5.5-1.9-8.2
		c-0.4-1.4-0.1-2.5,0.9-3.5c3.5-3.3,7-6.6,10.4-9.9c0.9-0.8,1.8-1.2,3-0.8c4.6,1.4,9.2,2.8,13.8,4.1c1.6,0.5,2.4,1.4,2.7,3
		c1,4.5,2.1,9,3.2,13.5c0.3,1.3,0,2.2-0.9,3c-3.6,3.4-7.2,6.8-10.8,10.2C637.8,252.4,637.2,252.8,635.9,252.7z"/>
	<path class="st1" d="M506,198c-2.6-0.8-5.6-2-8.8-2.5c-5.9-0.9-9.2-3.8-9.6-10c-0.2-2.8-1.2-5.5-1.9-8.2c-0.3-1.3-0.1-2.3,0.9-3.2
		c3.6-3.3,7.1-6.7,10.6-10.1c0.9-0.9,1.8-1,3.1-0.7c4.5,1.4,9,2.8,13.6,4c1.6,0.4,2.4,1.3,2.8,2.9c1,4.6,2.1,9.2,3.3,13.8
		c0.3,1.3-0.1,2.1-1,3c-3.5,3.3-7.1,6.7-10.6,10.1C507.8,197.6,507.3,198,506,198z"/>
	<path class="st1" d="M375.6,362.1c-0.4-0.1-1.4-0.4-2.4-0.7c-3.9-1.2-7.8-2.3-11.7-3.5c-1.5-0.4-2.3-1.2-2.6-2.7
		c-1-4.5-2-9-3.2-13.5c-0.4-1.4-0.1-2.5,1-3.4c3.5-3.3,7-6.6,10.4-9.9c0.9-0.8,1.8-1.1,3-0.7c4.5,1.4,9,2.8,13.6,4
		c1.7,0.5,2.5,1.4,2.9,3.1c1,4.5,2.1,9,3.2,13.5c0.3,1.3,0,2.2-0.9,3c-3.6,3.4-7.2,6.8-10.8,10.2C377.6,361.9,377,362.2,375.6,362.1
		z"/>
	<path class="st1" d="M115.7,368.8c-2.6-0.8-5.4-1.9-8.4-2.4c-6-0.9-9.5-3.8-9.9-10.2c-0.2-2.7-1.1-5.3-1.8-7.9
		c-0.3-1.3-0.2-2.3,0.8-3.3c3.6-3.3,7.1-6.7,10.6-10.1c0.9-0.9,1.8-1.1,3.1-0.7c4.5,1.4,9,2.8,13.6,4c1.7,0.5,2.5,1.5,2.9,3.1
		c1,4.4,2,8.9,3.2,13.3c0.3,1.3,0.1,2.3-0.9,3.2c-3.6,3.3-7.1,6.7-10.6,10.1C117.5,368.5,116.9,369,115.7,368.8z"/>
</g>
</svg>
