<?xml version="1.0" encoding="utf-8"?>
<!-- Generator: Adobe Illustrator 19.0.1, SVG Export Plug-In . SVG Version: 6.00 Build 0)  -->
<svg version="1.1" id="Layer_1" xmlns="http://www.w3.org/2000/svg" xmlns:xlink="http://www.w3.org/1999/xlink" x="0px" y="0px"
	 viewBox="0 0 29.2 135" style="enable-background:new 0 0 29.2 135;" xml:space="preserve">
<style type="text/css">
	.st0{fill:#7CD0E4;}
</style>
<g>
	<g>
		<path class="st0" d="M14,31.3c3,0,3-4.7,0-4.7C10.9,26.6,10.9,31.3,14,31.3L14,31.3z"/>
	</g>
</g>
<g>
	<g>
		<path class="st0" d="M14,56.6c3,0,3-4.7,0-4.7C10.9,51.9,10.9,56.6,14,56.6L14,56.6z"/>
	</g>
</g>
<g>
	<g>
		<path class="st0" d="M14,81.9c3,0,3-4.7,0-4.7S10.9,81.9,14,81.9L14,81.9z"/>
	</g>
</g>
<g>
	<g>
		<path class="st0" d="M14,107.3c3,0,3-4.7,0-4.7C10.9,102.5,10.9,107.3,14,107.3L14,107.3z"/>
	</g>
</g>
</svg>
