<?xml version="1.0" encoding="utf-8"?>
<!-- Generator: Adobe Illustrator 19.0.1, SVG Export Plug-In . SVG Version: 6.00 Build 0)  -->
<svg version="1.1" id="Layer_1" xmlns="http://www.w3.org/2000/svg" xmlns:xlink="http://www.w3.org/1999/xlink" x="0px" y="0px"
	 viewBox="-554 383 29.2 135" style="enable-background:new -554 383 29.2 135;" xml:space="preserve">
<style type="text/css">
	.st0{fill:#7CD0E4;}
</style>
<g>
	<g>
		<path class="st0" d="M-539.7,415c3.5,0,3.5-5.4,0-5.4S-543.2,415-539.7,415L-539.7,415z"/>
	</g>
</g>
<g>
	<g>
		<path class="st0" d="M-539.7,440.1c3.5,0,3.5-5.4,0-5.4C-543.2,434.7-543.2,440.1-539.7,440.1L-539.7,440.1z"/>
	</g>
</g>
<g>
	<g>
		<path class="st0" d="M-539.7,465.3c3.5,0,3.5-5.4,0-5.4S-543.2,465.3-539.7,465.3L-539.7,465.3z"/>
	</g>
</g>
<g>
	<g>
		<path class="st0" d="M-539.7,490.4c3.5,0,3.5-5.4,0-5.4C-543.2,485-543.2,490.4-539.7,490.4L-539.7,490.4z"/>
	</g>
</g>
</svg>
