<?xml version="1.0" encoding="utf-8"?>
<!-- Generator: Adobe Illustrator 19.0.1, SVG Export Plug-In . SVG Version: 6.00 Build 0)  -->
<svg version="1.1" id="Layer_1" xmlns="http://www.w3.org/2000/svg" xmlns:xlink="http://www.w3.org/1999/xlink" x="0px" y="0px"
	 viewBox="0 0 419.1 870" style="enable-background:new 0 0 419.1 870;" xml:space="preserve">
<style type="text/css">
	.st0{fill:#7BD0E4;}
</style>
<g>
	<g>
		<path class="st0" d="M206,149c3.9,0,3.9-6,0-6C202.1,143,202.1,149,206,149L206,149z"/>
	</g>
</g>
<g>
	<g>
		<path class="st0" d="M175,149c3.9,0,3.9-6,0-6C171.1,143,171.1,149,175,149L175,149z"/>
	</g>
</g>
<g>
	<g>
		<path class="st0" d="M144,149c3.9,0,3.9-6,0-6C140.1,143,140.1,149,144,149L144,149z"/>
	</g>
</g>
<g>
	<g>
		<path class="st0" d="M206,180c3.9,0,3.9-6,0-6C202.1,174,202.1,180,206,180L206,180z"/>
	</g>
</g>
<g>
	<g>
		<path class="st0" d="M175,180c3.9,0,3.9-6,0-6C171.1,174,171.1,180,175,180L175,180z"/>
	</g>
</g>
<g>
	<g>
		<path class="st0" d="M144,180c3.9,0,3.9-6,0-6C140.1,174,140.1,180,144,180L144,180z"/>
	</g>
</g>
<g>
	<g>
		<path class="st0" d="M206,119c3.9,0,3.9-6,0-6C202.1,113,202.1,119,206,119L206,119z"/>
	</g>
</g>
<g>
	<g>
		<path class="st0" d="M175,119c3.9,0,3.9-6,0-6C171.1,113,171.1,119,175,119L175,119z"/>
	</g>
</g>
<g>
	<g>
		<path class="st0" d="M144,119c3.9,0,3.9-6,0-6C140.1,113,140.1,119,144,119L144,119z"/>
	</g>
</g>
<g>
	<g>
		<path class="st0" d="M206,88c3.9,0,3.9-6,0-6C202.1,82,202.1,88,206,88L206,88z"/>
	</g>
</g>
<g>
	<g>
		<path class="st0" d="M175,88c3.9,0,3.9-6,0-6C171.1,82,171.1,88,175,88L175,88z"/>
	</g>
</g>
<g>
	<g>
		<path class="st0" d="M144,88c3.9,0,3.9-6,0-6C140.1,82,140.1,88,144,88L144,88z"/>
	</g>
</g>
<g>
	<g>
		<path class="st0" d="M206,58c3.9,0,3.9-6,0-6C202.1,52,202.1,58,206,58L206,58z"/>
	</g>
</g>
<g>
	<g>
		<path class="st0" d="M175,58c3.9,0,3.9-6,0-6C171.1,52,171.1,58,175,58L175,58z"/>
	</g>
</g>
<g>
	<g>
		<path class="st0" d="M144,58c3.9,0,3.9-6,0-6C140.1,52,140.1,58,144,58L144,58z"/>
	</g>
</g>
<g>
	<g>
		<path class="st0" d="M206,27c3.9,0,3.9-6,0-6C202.1,21,202.1,27,206,27L206,27z"/>
	</g>
</g>
<g>
	<g>
		<path class="st0" d="M175,27c3.9,0,3.9-6,0-6C171.1,21,171.1,27,175,27L175,27z"/>
	</g>
</g>
<g>
	<g>
		<path class="st0" d="M144,27c3.9,0,3.9-6,0-6C140.1,21,140.1,27,144,27L144,27z"/>
	</g>
</g>
<g>
	<g>
		<path class="st0" d="M206,331c3.9,0,3.9-6,0-6C202.1,325,202.1,331,206,331L206,331z"/>
	</g>
</g>
<g>
	<g>
		<path class="st0" d="M175,331c3.9,0,3.9-6,0-6C171.1,325,171.1,331,175,331L175,331z"/>
	</g>
</g>
<g>
	<g>
		<path class="st0" d="M144,331c3.9,0,3.9-6,0-6C140.1,325,140.1,331,144,331L144,331z"/>
	</g>
</g>
<g>
	<g>
		<path class="st0" d="M206,362c3.9,0,3.9-6,0-6C202.1,356,202.1,362,206,362L206,362z"/>
	</g>
</g>
<g>
	<g>
		<path class="st0" d="M175,362c3.9,0,3.9-6,0-6C171.1,356,171.1,362,175,362L175,362z"/>
	</g>
</g>
<g>
	<g>
		<path class="st0" d="M144,362c3.9,0,3.9-6,0-6C140.1,356,140.1,362,144,362L144,362z"/>
	</g>
</g>
<g>
	<g>
		<path class="st0" d="M206,301c3.9,0,3.9-6,0-6C202.1,295,202.1,301,206,301L206,301z"/>
	</g>
</g>
<g>
	<g>
		<path class="st0" d="M175,301c3.9,0,3.9-6,0-6C171.1,295,171.1,301,175,301L175,301z"/>
	</g>
</g>
<g>
	<g>
		<path class="st0" d="M144,301c3.9,0,3.9-6,0-6C140.1,295,140.1,301,144,301L144,301z"/>
	</g>
</g>
<g>
	<g>
		<path class="st0" d="M206,270c3.9,0,3.9-6,0-6C202.1,264,202.1,270,206,270L206,270z"/>
	</g>
</g>
<g>
	<g>
		<path class="st0" d="M175,270c3.9,0,3.9-6,0-6C171.1,264,171.1,270,175,270L175,270z"/>
	</g>
</g>
<g>
	<g>
		<path class="st0" d="M144,270c3.9,0,3.9-6,0-6C140.1,264,140.1,270,144,270L144,270z"/>
	</g>
</g>
<g>
	<g>
		<path class="st0" d="M206,240c3.9,0,3.9-6,0-6C202.1,234,202.1,240,206,240L206,240z"/>
	</g>
</g>
<g>
	<g>
		<path class="st0" d="M175,240c3.9,0,3.9-6,0-6C171.1,234,171.1,240,175,240L175,240z"/>
	</g>
</g>
<g>
	<g>
		<path class="st0" d="M144,240c3.9,0,3.9-6,0-6C140.1,234,140.1,240,144,240L144,240z"/>
	</g>
</g>
<g>
	<g>
		<path class="st0" d="M206,209c3.9,0,3.9-6,0-6C202.1,203,202.1,209,206,209L206,209z"/>
	</g>
</g>
<g>
	<g>
		<path class="st0" d="M175,209c3.9,0,3.9-6,0-6C171.1,203,171.1,209,175,209L175,209z"/>
	</g>
</g>
<g>
	<g>
		<path class="st0" d="M144,209c3.9,0,3.9-6,0-6C140.1,203,140.1,209,144,209L144,209z"/>
	</g>
</g>
<g>
	<g>
		<path class="st0" d="M206,453c3.9,0,3.9-6,0-6C202.1,447,202.1,453,206,453L206,453z"/>
	</g>
</g>
<g>
	<g>
		<path class="st0" d="M175,453c3.9,0,3.9-6,0-6C171.1,447,171.1,453,175,453L175,453z"/>
	</g>
</g>
<g>
	<g>
		<path class="st0" d="M144,453c3.9,0,3.9-6,0-6C140.1,447,140.1,453,144,453L144,453z"/>
	</g>
</g>
<g>
	<g>
		<path class="st0" d="M206,484c3.9,0,3.9-6,0-6C202.1,478,202.1,484,206,484L206,484z"/>
	</g>
</g>
<g>
	<g>
		<path class="st0" d="M175,484c3.9,0,3.9-6,0-6C171.1,478,171.1,484,175,484L175,484z"/>
	</g>
</g>
<g>
	<g>
		<path class="st0" d="M144,484c3.9,0,3.9-6,0-6C140.1,478,140.1,484,144,484L144,484z"/>
	</g>
</g>
<g>
	<g>
		<path class="st0" d="M206,423c3.9,0,3.9-6,0-6C202.1,417,202.1,423,206,423L206,423z"/>
	</g>
</g>
<g>
	<g>
		<path class="st0" d="M175,423c3.9,0,3.9-6,0-6C171.1,417,171.1,423,175,423L175,423z"/>
	</g>
</g>
<g>
	<g>
		<path class="st0" d="M144,423c3.9,0,3.9-6,0-6C140.1,417,140.1,423,144,423L144,423z"/>
	</g>
</g>
<g>
	<g>
		<path class="st0" d="M206,392c3.9,0,3.9-6,0-6C202.1,386,202.1,392,206,392L206,392z"/>
	</g>
</g>
<g>
	<g>
		<path class="st0" d="M175,392c3.9,0,3.9-6,0-6C171.1,386,171.1,392,175,392L175,392z"/>
	</g>
</g>
<g>
	<g>
		<path class="st0" d="M144,392c3.9,0,3.9-6,0-6C140.1,386,140.1,392,144,392L144,392z"/>
	</g>
</g>
<g>
	<g>
		<path class="st0" d="M206,362c3.9,0,3.9-6,0-6C202.1,356,202.1,362,206,362L206,362z"/>
	</g>
</g>
<g>
	<g>
		<path class="st0" d="M175,362c3.9,0,3.9-6,0-6C171.1,356,171.1,362,175,362L175,362z"/>
	</g>
</g>
<g>
	<g>
		<path class="st0" d="M144,362c3.9,0,3.9-6,0-6C140.1,356,140.1,362,144,362L144,362z"/>
	</g>
</g>
<g>
	<g>
		<path class="st0" d="M206,331c3.9,0,3.9-6,0-6C202.1,325,202.1,331,206,331L206,331z"/>
	</g>
</g>
<g>
	<g>
		<path class="st0" d="M175,331c3.9,0,3.9-6,0-6C171.1,325,171.1,331,175,331L175,331z"/>
	</g>
</g>
<g>
	<g>
		<path class="st0" d="M144,331c3.9,0,3.9-6,0-6C140.1,325,140.1,331,144,331L144,331z"/>
	</g>
</g>
<g>
	<g>
		<path class="st0" d="M206,635c3.9,0,3.9-6,0-6C202.1,629,202.1,635,206,635L206,635z"/>
	</g>
</g>
<g>
	<g>
		<path class="st0" d="M175,635c3.9,0,3.9-6,0-6C171.1,629,171.1,635,175,635L175,635z"/>
	</g>
</g>
<g>
	<g>
		<path class="st0" d="M144,635c3.9,0,3.9-6,0-6C140.1,629,140.1,635,144,635L144,635z"/>
	</g>
</g>
<g>
	<g>
		<path class="st0" d="M206,666c3.9,0,3.9-6,0-6C202.1,660,202.1,666,206,666L206,666z"/>
	</g>
</g>
<g>
	<g>
		<path class="st0" d="M175,666c3.9,0,3.9-6,0-6C171.1,660,171.1,666,175,666L175,666z"/>
	</g>
</g>
<g>
	<g>
		<path class="st0" d="M144,666c3.9,0,3.9-6,0-6C140.1,660,140.1,666,144,666L144,666z"/>
	</g>
</g>
<g>
	<g>
		<path class="st0" d="M206,605c3.9,0,3.9-6,0-6C202.1,599,202.1,605,206,605L206,605z"/>
	</g>
</g>
<g>
	<g>
		<path class="st0" d="M175,605c3.9,0,3.9-6,0-6C171.1,599,171.1,605,175,605L175,605z"/>
	</g>
</g>
<g>
	<g>
		<path class="st0" d="M144,605c3.9,0,3.9-6,0-6C140.1,599,140.1,605,144,605L144,605z"/>
	</g>
</g>
<g>
	<g>
		<path class="st0" d="M206,574c3.9,0,3.9-6,0-6C202.1,568,202.1,574,206,574L206,574z"/>
	</g>
</g>
<g>
	<g>
		<path class="st0" d="M175,574c3.9,0,3.9-6,0-6C171.1,568,171.1,574,175,574L175,574z"/>
	</g>
</g>
<g>
	<g>
		<path class="st0" d="M144,574c3.9,0,3.9-6,0-6C140.1,568,140.1,574,144,574L144,574z"/>
	</g>
</g>
<g>
	<g>
		<path class="st0" d="M206,544c3.9,0,3.9-6,0-6C202.1,538,202.1,544,206,544L206,544z"/>
	</g>
</g>
<g>
	<g>
		<path class="st0" d="M175,544c3.9,0,3.9-6,0-6C171.1,538,171.1,544,175,544L175,544z"/>
	</g>
</g>
<g>
	<g>
		<path class="st0" d="M144,544c3.9,0,3.9-6,0-6C140.1,538,140.1,544,144,544L144,544z"/>
	</g>
</g>
<g>
	<g>
		<path class="st0" d="M206,513c3.9,0,3.9-6,0-6C202.1,507,202.1,513,206,513L206,513z"/>
	</g>
</g>
<g>
	<g>
		<path class="st0" d="M175,513c3.9,0,3.9-6,0-6C171.1,507,171.1,513,175,513L175,513z"/>
	</g>
</g>
<g>
	<g>
		<path class="st0" d="M144,513c3.9,0,3.9-6,0-6C140.1,507,140.1,513,144,513L144,513z"/>
	</g>
</g>
<g>
	<g>
		<path class="st0" d="M206,788c3.9,0,3.9-6,0-6C202.1,782,202.1,788,206,788L206,788z"/>
	</g>
</g>
<g>
	<g>
		<path class="st0" d="M175,788c3.9,0,3.9-6,0-6C171.1,782,171.1,788,175,788L175,788z"/>
	</g>
</g>
<g>
	<g>
		<path class="st0" d="M144,788c3.9,0,3.9-6,0-6C140.1,782,140.1,788,144,788L144,788z"/>
	</g>
</g>
<g>
	<g>
		<path class="st0" d="M206,819c3.9,0,3.9-6,0-6C202.1,813,202.1,819,206,819L206,819z"/>
	</g>
</g>
<g>
	<g>
		<path class="st0" d="M175,819c3.9,0,3.9-6,0-6C171.1,813,171.1,819,175,819L175,819z"/>
	</g>
</g>
<g>
	<g>
		<path class="st0" d="M144,819c3.9,0,3.9-6,0-6C140.1,813,140.1,819,144,819L144,819z"/>
	</g>
</g>
<g>
	<g>
		<path class="st0" d="M206,758c3.9,0,3.9-6,0-6C202.1,752,202.1,758,206,758L206,758z"/>
	</g>
</g>
<g>
	<g>
		<path class="st0" d="M175,758c3.9,0,3.9-6,0-6C171.1,752,171.1,758,175,758L175,758z"/>
	</g>
</g>
<g>
	<g>
		<path class="st0" d="M144,758c3.9,0,3.9-6,0-6C140.1,752,140.1,758,144,758L144,758z"/>
	</g>
</g>
<g>
	<g>
		<path class="st0" d="M206,727c3.9,0,3.9-6,0-6C202.1,721,202.1,727,206,727L206,727z"/>
	</g>
</g>
<g>
	<g>
		<path class="st0" d="M175,727c3.9,0,3.9-6,0-6C171.1,721,171.1,727,175,727L175,727z"/>
	</g>
</g>
<g>
	<g>
		<path class="st0" d="M144,727c3.9,0,3.9-6,0-6C140.1,721,140.1,727,144,727L144,727z"/>
	</g>
</g>
<g>
	<g>
		<path class="st0" d="M206,697c3.9,0,3.9-6,0-6C202.1,691,202.1,697,206,697L206,697z"/>
	</g>
</g>
<g>
	<g>
		<path class="st0" d="M175,697c3.9,0,3.9-6,0-6C171.1,691,171.1,697,175,697L175,697z"/>
	</g>
</g>
<g>
	<g>
		<path class="st0" d="M144,697c3.9,0,3.9-6,0-6C140.1,691,140.1,697,144,697L144,697z"/>
	</g>
</g>
<g>
	<g>
		<path class="st0" d="M206,666c3.9,0,3.9-6,0-6C202.1,660,202.1,666,206,666L206,666z"/>
	</g>
</g>
<g>
	<g>
		<path class="st0" d="M175,666c3.9,0,3.9-6,0-6C171.1,660,171.1,666,175,666L175,666z"/>
	</g>
</g>
<g>
	<g>
		<path class="st0" d="M144,666c3.9,0,3.9-6,0-6C140.1,660,140.1,666,144,666L144,666z"/>
	</g>
</g>
<g>
	<g>
		<path class="st0" d="M112,118c3.9,0,3.9-6,0-6C108.1,112,108.1,118,112,118L112,118z"/>
	</g>
</g>
<g>
	<g>
		<path class="st0" d="M81,118c3.9,0,3.9-6,0-6C77.1,112,77.1,118,81,118L81,118z"/>
	</g>
</g>
<g>
	<g>
		<path class="st0" d="M112,149c3.9,0,3.9-6,0-6C108.1,143,108.1,149,112,149L112,149z"/>
	</g>
</g>
<g>
	<g>
		<path class="st0" d="M81,149c3.9,0,3.9-6,0-6C77.1,143,77.1,149,81,149L81,149z"/>
	</g>
</g>
<g>
	<g>
		<path class="st0" d="M112,88c3.9,0,3.9-6,0-6C108.1,82,108.1,88,112,88L112,88z"/>
	</g>
</g>
<g>
	<g>
		<path class="st0" d="M81,88c3.9,0,3.9-6,0-6C77.1,82,77.1,88,81,88L81,88z"/>
	</g>
</g>
<g>
	<g>
		<path class="st0" d="M112,57c3.9,0,3.9-6,0-6C108.1,51,108.1,57,112,57L112,57z"/>
	</g>
</g>
<g>
	<g>
		<path class="st0" d="M81,57c3.9,0,3.9-6,0-6C77.1,51,77.1,57,81,57L81,57z"/>
	</g>
</g>
<g>
	<g>
		<path class="st0" d="M112,27c3.9,0,3.9-6,0-6C108.1,21,108.1,27,112,27L112,27z"/>
	</g>
</g>
<g>
	<g>
		<path class="st0" d="M81,27c3.9,0,3.9-6,0-6C77.1,21,77.1,27,81,27L81,27z"/>
	</g>
</g>
<g>
	<g>
		<path class="st0" d="M206,848c3.9,0,3.9-6,0-6C202.1,842,202.1,848,206,848L206,848z"/>
	</g>
</g>
<g>
	<g>
		<path class="st0" d="M175,848c3.9,0,3.9-6,0-6C171.1,842,171.1,848,175,848L175,848z"/>
	</g>
</g>
<g>
	<g>
		<path class="st0" d="M144,848c3.9,0,3.9-6,0-6C140.1,842,140.1,848,144,848L144,848z"/>
	</g>
</g>
<g>
	<g>
		<path class="st0" d="M113,635c3.9,0,3.9-6,0-6C109.1,629,109.1,635,113,635L113,635z"/>
	</g>
</g>
<g>
	<g>
		<path class="st0" d="M82,635c3.9,0,3.9-6,0-6C78.1,629,78.1,635,82,635L82,635z"/>
	</g>
</g>
<g>
	<g>
		<path class="st0" d="M113,666c3.9,0,3.9-6,0-6C109.1,660,109.1,666,113,666L113,666z"/>
	</g>
</g>
<g>
	<g>
		<path class="st0" d="M82,666c3.9,0,3.9-6,0-6C78.1,660,78.1,666,82,666L82,666z"/>
	</g>
</g>
<g>
	<g>
		<path class="st0" d="M113,605c3.9,0,3.9-6,0-6C109.1,599,109.1,605,113,605L113,605z"/>
	</g>
</g>
<g>
	<g>
		<path class="st0" d="M82,605c3.9,0,3.9-6,0-6C78.1,599,78.1,605,82,605L82,605z"/>
	</g>
</g>
<g>
	<g>
		<path class="st0" d="M113,574c3.9,0,3.9-6,0-6C109.1,568,109.1,574,113,574L113,574z"/>
	</g>
</g>
<g>
	<g>
		<path class="st0" d="M82,574c3.9,0,3.9-6,0-6C78.1,568,78.1,574,82,574L82,574z"/>
	</g>
</g>
<g>
	<g>
		<path class="st0" d="M113,788c3.9,0,3.9-6,0-6C109.1,782,109.1,788,113,788L113,788z"/>
	</g>
</g>
<g>
	<g>
		<path class="st0" d="M82,788c3.9,0,3.9-6,0-6C78.1,782,78.1,788,82,788L82,788z"/>
	</g>
</g>
<g>
	<g>
		<path class="st0" d="M113,819c3.9,0,3.9-6,0-6C109.1,813,109.1,819,113,819L113,819z"/>
	</g>
</g>
<g>
	<g>
		<path class="st0" d="M82,819c3.9,0,3.9-6,0-6C78.1,813,78.1,819,82,819L82,819z"/>
	</g>
</g>
<g>
	<g>
		<path class="st0" d="M113,758c3.9,0,3.9-6,0-6C109.1,752,109.1,758,113,758L113,758z"/>
	</g>
</g>
<g>
	<g>
		<path class="st0" d="M82,758c3.9,0,3.9-6,0-6C78.1,752,78.1,758,82,758L82,758z"/>
	</g>
</g>
<g>
	<g>
		<path class="st0" d="M113,727c3.9,0,3.9-6,0-6C109.1,721,109.1,727,113,727L113,727z"/>
	</g>
</g>
<g>
	<g>
		<path class="st0" d="M82,727c3.9,0,3.9-6,0-6C78.1,721,78.1,727,82,727L82,727z"/>
	</g>
</g>
<g>
	<g>
		<path class="st0" d="M113,697c3.9,0,3.9-6,0-6C109.1,691,109.1,697,113,697L113,697z"/>
	</g>
</g>
<g>
	<g>
		<path class="st0" d="M82,697c3.9,0,3.9-6,0-6C78.1,691,78.1,697,82,697L82,697z"/>
	</g>
</g>
<g>
	<g>
		<path class="st0" d="M113,666c3.9,0,3.9-6,0-6C109.1,660,109.1,666,113,666L113,666z"/>
	</g>
</g>
<g>
	<g>
		<path class="st0" d="M82,666c3.9,0,3.9-6,0-6C78.1,660,78.1,666,82,666L82,666z"/>
	</g>
</g>
<g>
	<g>
		<path class="st0" d="M113,848c3.9,0,3.9-6,0-6C109.1,842,109.1,848,113,848L113,848z"/>
	</g>
</g>
<g>
	<g>
		<path class="st0" d="M82,848c3.9,0,3.9-6,0-6C78.1,842,78.1,848,82,848L82,848z"/>
	</g>
</g>
<g>
	<g>
		<path class="st0" d="M112,240c3.9,0,3.9-6,0-6C108.1,234,108.1,240,112,240L112,240z"/>
	</g>
</g>
<g>
	<g>
		<path class="st0" d="M81,240c3.9,0,3.9-6,0-6C77.1,234,77.1,240,81,240L81,240z"/>
	</g>
</g>
<g>
	<g>
		<path class="st0" d="M112,271c3.9,0,3.9-6,0-6C108.1,265,108.1,271,112,271L112,271z"/>
	</g>
</g>
<g>
	<g>
		<path class="st0" d="M81,271c3.9,0,3.9-6,0-6C77.1,265,77.1,271,81,271L81,271z"/>
	</g>
</g>
<g>
	<g>
		<path class="st0" d="M112,210c3.9,0,3.9-6,0-6C108.1,204,108.1,210,112,210L112,210z"/>
	</g>
</g>
<g>
	<g>
		<path class="st0" d="M81,210c3.9,0,3.9-6,0-6C77.1,204,77.1,210,81,210L81,210z"/>
	</g>
</g>
<g>
	<g>
		<path class="st0" d="M112,179c3.9,0,3.9-6,0-6C108.1,173,108.1,179,112,179L112,179z"/>
	</g>
</g>
<g>
	<g>
		<path class="st0" d="M81,179c3.9,0,3.9-6,0-6C77.1,173,77.1,179,81,179L81,179z"/>
	</g>
</g>
<g>
	<g>
		<path class="st0" d="M112,149c3.9,0,3.9-6,0-6C108.1,143,108.1,149,112,149L112,149z"/>
	</g>
</g>
<g>
	<g>
		<path class="st0" d="M81,149c3.9,0,3.9-6,0-6C77.1,143,77.1,149,81,149L81,149z"/>
	</g>
</g>
<g>
	<g>
		<path class="st0" d="M112,118c3.9,0,3.9-6,0-6C108.1,112,108.1,118,112,118L112,118z"/>
	</g>
</g>
<g>
	<g>
		<path class="st0" d="M81,118c3.9,0,3.9-6,0-6C77.1,112,77.1,118,81,118L81,118z"/>
	</g>
</g>
<g>
	<g>
		<path class="st0" d="M112,422c3.9,0,3.9-6,0-6C108.1,416,108.1,422,112,422L112,422z"/>
	</g>
</g>
<g>
	<g>
		<path class="st0" d="M81,422c3.9,0,3.9-6,0-6C77.1,416,77.1,422,81,422L81,422z"/>
	</g>
</g>
<g>
	<g>
		<path class="st0" d="M112,453c3.9,0,3.9-6,0-6C108.1,447,108.1,453,112,453L112,453z"/>
	</g>
</g>
<g>
	<g>
		<path class="st0" d="M81,453c3.9,0,3.9-6,0-6C77.1,447,77.1,453,81,453L81,453z"/>
	</g>
</g>
<g>
	<g>
		<path class="st0" d="M112,392c3.9,0,3.9-6,0-6C108.1,386,108.1,392,112,392L112,392z"/>
	</g>
</g>
<g>
	<g>
		<path class="st0" d="M81,392c3.9,0,3.9-6,0-6C77.1,386,77.1,392,81,392L81,392z"/>
	</g>
</g>
<g>
	<g>
		<path class="st0" d="M112,361c3.9,0,3.9-6,0-6C108.1,355,108.1,361,112,361L112,361z"/>
	</g>
</g>
<g>
	<g>
		<path class="st0" d="M81,361c3.9,0,3.9-6,0-6C77.1,355,77.1,361,81,361L81,361z"/>
	</g>
</g>
<g>
	<g>
		<path class="st0" d="M112,514c3.9,0,3.9-6,0-6C108.1,508,108.1,514,112,514L112,514z"/>
	</g>
</g>
<g>
	<g>
		<path class="st0" d="M81,514c3.9,0,3.9-6,0-6C77.1,508,77.1,514,81,514L81,514z"/>
	</g>
</g>
<g>
	<g>
		<path class="st0" d="M112,545c3.9,0,3.9-6,0-6C108.1,539,108.1,545,112,545L112,545z"/>
	</g>
</g>
<g>
	<g>
		<path class="st0" d="M81,545c3.9,0,3.9-6,0-6C77.1,539,77.1,545,81,545L81,545z"/>
	</g>
</g>
<g>
	<g>
		<path class="st0" d="M112,484c3.9,0,3.9-6,0-6C108.1,478,108.1,484,112,484L112,484z"/>
	</g>
</g>
<g>
	<g>
		<path class="st0" d="M81,484c3.9,0,3.9-6,0-6C77.1,478,77.1,484,81,484L81,484z"/>
	</g>
</g>
<g>
	<g>
		<path class="st0" d="M112,453c3.9,0,3.9-6,0-6C108.1,447,108.1,453,112,453L112,453z"/>
	</g>
</g>
<g>
	<g>
		<path class="st0" d="M81,453c3.9,0,3.9-6,0-6C77.1,447,77.1,453,81,453L81,453z"/>
	</g>
</g>
<g>
	<g>
		<path class="st0" d="M112,331c3.9,0,3.9-6,0-6C108.1,325,108.1,331,112,331L112,331z"/>
	</g>
</g>
<g>
	<g>
		<path class="st0" d="M81,331c3.9,0,3.9-6,0-6C77.1,325,77.1,331,81,331L81,331z"/>
	</g>
</g>
<g>
	<g>
		<path class="st0" d="M112,300c3.9,0,3.9-6,0-6C108.1,294,108.1,300,112,300L112,300z"/>
	</g>
</g>
<g>
	<g>
		<path class="st0" d="M81,300c3.9,0,3.9-6,0-6C77.1,294,77.1,300,81,300L81,300z"/>
	</g>
</g>
<g>
	<g>
		<path class="st0" d="M50,118c3.9,0,3.9-6,0-6C46.1,112,46.1,118,50,118L50,118z"/>
	</g>
</g>
<g>
	<g>
		<path class="st0" d="M50,149c3.9,0,3.9-6,0-6C46.1,143,46.1,149,50,149L50,149z"/>
	</g>
</g>
<g>
	<g>
		<path class="st0" d="M50,88c3.9,0,3.9-6,0-6C46.1,82,46.1,88,50,88L50,88z"/>
	</g>
</g>
<g>
	<g>
		<path class="st0" d="M50,57c3.9,0,3.9-6,0-6C46.1,51,46.1,57,50,57L50,57z"/>
	</g>
</g>
<g>
	<g>
		<path class="st0" d="M50,27c3.9,0,3.9-6,0-6C46.1,21,46.1,27,50,27L50,27z"/>
	</g>
</g>
<g>
	<g>
		<path class="st0" d="M51,635c3.9,0,3.9-6,0-6C47.1,629,47.1,635,51,635L51,635z"/>
	</g>
</g>
<g>
	<g>
		<path class="st0" d="M51,666c3.9,0,3.9-6,0-6C47.1,660,47.1,666,51,666L51,666z"/>
	</g>
</g>
<g>
	<g>
		<path class="st0" d="M51,605c3.9,0,3.9-6,0-6C47.1,599,47.1,605,51,605L51,605z"/>
	</g>
</g>
<g>
	<g>
		<path class="st0" d="M51,574c3.9,0,3.9-6,0-6C47.1,568,47.1,574,51,574L51,574z"/>
	</g>
</g>
<g>
	<g>
		<path class="st0" d="M51,788c3.9,0,3.9-6,0-6C47.1,782,47.1,788,51,788L51,788z"/>
	</g>
</g>
<g>
	<g>
		<path class="st0" d="M51,819c3.9,0,3.9-6,0-6C47.1,813,47.1,819,51,819L51,819z"/>
	</g>
</g>
<g>
	<g>
		<path class="st0" d="M51,758c3.9,0,3.9-6,0-6C47.1,752,47.1,758,51,758L51,758z"/>
	</g>
</g>
<g>
	<g>
		<path class="st0" d="M51,727c3.9,0,3.9-6,0-6C47.1,721,47.1,727,51,727L51,727z"/>
	</g>
</g>
<g>
	<g>
		<path class="st0" d="M51,697c3.9,0,3.9-6,0-6C47.1,691,47.1,697,51,697L51,697z"/>
	</g>
</g>
<g>
	<g>
		<path class="st0" d="M51,666c3.9,0,3.9-6,0-6C47.1,660,47.1,666,51,666L51,666z"/>
	</g>
</g>
<g>
	<g>
		<path class="st0" d="M51,848c3.9,0,3.9-6,0-6C47.1,842,47.1,848,51,848L51,848z"/>
	</g>
</g>
<g>
	<g>
		<path class="st0" d="M50,240c3.9,0,3.9-6,0-6C46.1,234,46.1,240,50,240L50,240z"/>
	</g>
</g>
<g>
	<g>
		<path class="st0" d="M50,271c3.9,0,3.9-6,0-6C46.1,265,46.1,271,50,271L50,271z"/>
	</g>
</g>
<g>
	<g>
		<path class="st0" d="M50,210c3.9,0,3.9-6,0-6C46.1,204,46.1,210,50,210L50,210z"/>
	</g>
</g>
<g>
	<g>
		<path class="st0" d="M50,179c3.9,0,3.9-6,0-6C46.1,173,46.1,179,50,179L50,179z"/>
	</g>
</g>
<g>
	<g>
		<path class="st0" d="M50,149c3.9,0,3.9-6,0-6C46.1,143,46.1,149,50,149L50,149z"/>
	</g>
</g>
<g>
	<g>
		<path class="st0" d="M50,118c3.9,0,3.9-6,0-6C46.1,112,46.1,118,50,118L50,118z"/>
	</g>
</g>
<g>
	<g>
		<path class="st0" d="M50,422c3.9,0,3.9-6,0-6C46.1,416,46.1,422,50,422L50,422z"/>
	</g>
</g>
<g>
	<g>
		<path class="st0" d="M50,453c3.9,0,3.9-6,0-6C46.1,447,46.1,453,50,453L50,453z"/>
	</g>
</g>
<g>
	<g>
		<path class="st0" d="M50,392c3.9,0,3.9-6,0-6C46.1,386,46.1,392,50,392L50,392z"/>
	</g>
</g>
<g>
	<g>
		<path class="st0" d="M50,361c3.9,0,3.9-6,0-6C46.1,355,46.1,361,50,361L50,361z"/>
	</g>
</g>
<g>
	<g>
		<path class="st0" d="M50,514c3.9,0,3.9-6,0-6C46.1,508,46.1,514,50,514L50,514z"/>
	</g>
</g>
<g>
	<g>
		<path class="st0" d="M50,545c3.9,0,3.9-6,0-6C46.1,539,46.1,545,50,545L50,545z"/>
	</g>
</g>
<g>
	<g>
		<path class="st0" d="M50,484c3.9,0,3.9-6,0-6C46.1,478,46.1,484,50,484L50,484z"/>
	</g>
</g>
<g>
	<g>
		<path class="st0" d="M50,453c3.9,0,3.9-6,0-6C46.1,447,46.1,453,50,453L50,453z"/>
	</g>
</g>
<g>
	<g>
		<path class="st0" d="M50,331c3.9,0,3.9-6,0-6C46.1,325,46.1,331,50,331L50,331z"/>
	</g>
</g>
<g>
	<g>
		<path class="st0" d="M50,300c3.9,0,3.9-6,0-6C46.1,294,46.1,300,50,300L50,300z"/>
	</g>
</g>
<g>
	<g>
		<path class="st0" d="M19,118c3.9,0,3.9-6,0-6C15.1,112,15.1,118,19,118L19,118z"/>
	</g>
</g>
<g>
	<g>
		<path class="st0" d="M19,149c3.9,0,3.9-6,0-6C15.1,143,15.1,149,19,149L19,149z"/>
	</g>
</g>
<g>
	<g>
		<path class="st0" d="M19,88c3.9,0,3.9-6,0-6C15.1,82,15.1,88,19,88L19,88z"/>
	</g>
</g>
<g>
	<g>
		<path class="st0" d="M19,57c3.9,0,3.9-6,0-6C15.1,51,15.1,57,19,57L19,57z"/>
	</g>
</g>
<g>
	<g>
		<path class="st0" d="M19,27c3.9,0,3.9-6,0-6C15.1,21,15.1,27,19,27L19,27z"/>
	</g>
</g>
<g>
	<g>
		<path class="st0" d="M20,635c3.9,0,3.9-6,0-6C16.1,629,16.1,635,20,635L20,635z"/>
	</g>
</g>
<g>
	<g>
		<path class="st0" d="M20,666c3.9,0,3.9-6,0-6C16.1,660,16.1,666,20,666L20,666z"/>
	</g>
</g>
<g>
	<g>
		<path class="st0" d="M20,605c3.9,0,3.9-6,0-6C16.1,599,16.1,605,20,605L20,605z"/>
	</g>
</g>
<g>
	<g>
		<path class="st0" d="M20,574c3.9,0,3.9-6,0-6C16.1,568,16.1,574,20,574L20,574z"/>
	</g>
</g>
<g>
	<g>
		<path class="st0" d="M20,788c3.9,0,3.9-6,0-6C16.1,782,16.1,788,20,788L20,788z"/>
	</g>
</g>
<g>
	<g>
		<path class="st0" d="M20,819c3.9,0,3.9-6,0-6C16.1,813,16.1,819,20,819L20,819z"/>
	</g>
</g>
<g>
	<g>
		<path class="st0" d="M20,758c3.9,0,3.9-6,0-6C16.1,752,16.1,758,20,758L20,758z"/>
	</g>
</g>
<g>
	<g>
		<path class="st0" d="M20,727c3.9,0,3.9-6,0-6C16.1,721,16.1,727,20,727L20,727z"/>
	</g>
</g>
<g>
	<g>
		<path class="st0" d="M20,697c3.9,0,3.9-6,0-6C16.1,691,16.1,697,20,697L20,697z"/>
	</g>
</g>
<g>
	<g>
		<path class="st0" d="M20,666c3.9,0,3.9-6,0-6C16.1,660,16.1,666,20,666L20,666z"/>
	</g>
</g>
<g>
	<g>
		<path class="st0" d="M20,848c3.9,0,3.9-6,0-6C16.1,842,16.1,848,20,848L20,848z"/>
	</g>
</g>
<g>
	<g>
		<path class="st0" d="M19,240c3.9,0,3.9-6,0-6C15.1,234,15.1,240,19,240L19,240z"/>
	</g>
</g>
<g>
	<g>
		<path class="st0" d="M19,271c3.9,0,3.9-6,0-6C15.1,265,15.1,271,19,271L19,271z"/>
	</g>
</g>
<g>
	<g>
		<path class="st0" d="M19,210c3.9,0,3.9-6,0-6C15.1,204,15.1,210,19,210L19,210z"/>
	</g>
</g>
<g>
	<g>
		<path class="st0" d="M19,179c3.9,0,3.9-6,0-6C15.1,173,15.1,179,19,179L19,179z"/>
	</g>
</g>
<g>
	<g>
		<path class="st0" d="M19,149c3.9,0,3.9-6,0-6C15.1,143,15.1,149,19,149L19,149z"/>
	</g>
</g>
<g>
	<g>
		<path class="st0" d="M19,118c3.9,0,3.9-6,0-6C15.1,112,15.1,118,19,118L19,118z"/>
	</g>
</g>
<g>
	<g>
		<path class="st0" d="M19,422c3.9,0,3.9-6,0-6C15.1,416,15.1,422,19,422L19,422z"/>
	</g>
</g>
<g>
	<g>
		<path class="st0" d="M19,453c3.9,0,3.9-6,0-6C15.1,447,15.1,453,19,453L19,453z"/>
	</g>
</g>
<g>
	<g>
		<path class="st0" d="M19,392c3.9,0,3.9-6,0-6C15.1,386,15.1,392,19,392L19,392z"/>
	</g>
</g>
<g>
	<g>
		<path class="st0" d="M19,361c3.9,0,3.9-6,0-6C15.1,355,15.1,361,19,361L19,361z"/>
	</g>
</g>
<g>
	<g>
		<path class="st0" d="M19,514c3.9,0,3.9-6,0-6C15.1,508,15.1,514,19,514L19,514z"/>
	</g>
</g>
<g>
	<g>
		<path class="st0" d="M19,545c3.9,0,3.9-6,0-6C15.1,539,15.1,545,19,545L19,545z"/>
	</g>
</g>
<g>
	<g>
		<path class="st0" d="M19,484c3.9,0,3.9-6,0-6C15.1,478,15.1,484,19,484L19,484z"/>
	</g>
</g>
<g>
	<g>
		<path class="st0" d="M19,453c3.9,0,3.9-6,0-6C15.1,447,15.1,453,19,453L19,453z"/>
	</g>
</g>
<g>
	<g>
		<path class="st0" d="M19,331c3.9,0,3.9-6,0-6C15.1,325,15.1,331,19,331L19,331z"/>
	</g>
</g>
<g>
	<g>
		<path class="st0" d="M19,300c3.9,0,3.9-6,0-6C15.1,294,15.1,300,19,300L19,300z"/>
	</g>
</g>
<g>
	<g>
		<path class="st0" d="M393,149c3.9,0,3.9-6,0-6C389.1,143,389.1,149,393,149L393,149z"/>
	</g>
</g>
<g>
	<g>
		<path class="st0" d="M362,149c3.9,0,3.9-6,0-6C358.1,143,358.1,149,362,149L362,149z"/>
	</g>
</g>
<g>
	<g>
		<path class="st0" d="M331,149c3.9,0,3.9-6,0-6C327.1,143,327.1,149,331,149L331,149z"/>
	</g>
</g>
<g>
	<g>
		<path class="st0" d="M393,180c3.9,0,3.9-6,0-6C389.1,174,389.1,180,393,180L393,180z"/>
	</g>
</g>
<g>
	<g>
		<path class="st0" d="M362,180c3.9,0,3.9-6,0-6C358.1,174,358.1,180,362,180L362,180z"/>
	</g>
</g>
<g>
	<g>
		<path class="st0" d="M331,180c3.9,0,3.9-6,0-6C327.1,174,327.1,180,331,180L331,180z"/>
	</g>
</g>
<g>
	<g>
		<path class="st0" d="M393,119c3.9,0,3.9-6,0-6C389.1,113,389.1,119,393,119L393,119z"/>
	</g>
</g>
<g>
	<g>
		<path class="st0" d="M362,119c3.9,0,3.9-6,0-6C358.1,113,358.1,119,362,119L362,119z"/>
	</g>
</g>
<g>
	<g>
		<path class="st0" d="M331,119c3.9,0,3.9-6,0-6C327.1,113,327.1,119,331,119L331,119z"/>
	</g>
</g>
<g>
	<g>
		<path class="st0" d="M393,88c3.9,0,3.9-6,0-6C389.1,82,389.1,88,393,88L393,88z"/>
	</g>
</g>
<g>
	<g>
		<path class="st0" d="M362,88c3.9,0,3.9-6,0-6C358.1,82,358.1,88,362,88L362,88z"/>
	</g>
</g>
<g>
	<g>
		<path class="st0" d="M331,88c3.9,0,3.9-6,0-6C327.1,82,327.1,88,331,88L331,88z"/>
	</g>
</g>
<g>
	<g>
		<path class="st0" d="M393,58c3.9,0,3.9-6,0-6C389.1,52,389.1,58,393,58L393,58z"/>
	</g>
</g>
<g>
	<g>
		<path class="st0" d="M362,58c3.9,0,3.9-6,0-6C358.1,52,358.1,58,362,58L362,58z"/>
	</g>
</g>
<g>
	<g>
		<path class="st0" d="M331,58c3.9,0,3.9-6,0-6C327.1,52,327.1,58,331,58L331,58z"/>
	</g>
</g>
<g>
	<g>
		<path class="st0" d="M393,27c3.9,0,3.9-6,0-6C389.1,21,389.1,27,393,27L393,27z"/>
	</g>
</g>
<g>
	<g>
		<path class="st0" d="M362,27c3.9,0,3.9-6,0-6C358.1,21,358.1,27,362,27L362,27z"/>
	</g>
</g>
<g>
	<g>
		<path class="st0" d="M331,27c3.9,0,3.9-6,0-6C327.1,21,327.1,27,331,27L331,27z"/>
	</g>
</g>
<g>
	<g>
		<path class="st0" d="M393,331c3.9,0,3.9-6,0-6C389.1,325,389.1,331,393,331L393,331z"/>
	</g>
</g>
<g>
	<g>
		<path class="st0" d="M362,331c3.9,0,3.9-6,0-6C358.1,325,358.1,331,362,331L362,331z"/>
	</g>
</g>
<g>
	<g>
		<path class="st0" d="M331,331c3.9,0,3.9-6,0-6C327.1,325,327.1,331,331,331L331,331z"/>
	</g>
</g>
<g>
	<g>
		<path class="st0" d="M393,362c3.9,0,3.9-6,0-6C389.1,356,389.1,362,393,362L393,362z"/>
	</g>
</g>
<g>
	<g>
		<path class="st0" d="M362,362c3.9,0,3.9-6,0-6C358.1,356,358.1,362,362,362L362,362z"/>
	</g>
</g>
<g>
	<g>
		<path class="st0" d="M331,362c3.9,0,3.9-6,0-6C327.1,356,327.1,362,331,362L331,362z"/>
	</g>
</g>
<g>
	<g>
		<path class="st0" d="M393,301c3.9,0,3.9-6,0-6C389.1,295,389.1,301,393,301L393,301z"/>
	</g>
</g>
<g>
	<g>
		<path class="st0" d="M362,301c3.9,0,3.9-6,0-6C358.1,295,358.1,301,362,301L362,301z"/>
	</g>
</g>
<g>
	<g>
		<path class="st0" d="M331,301c3.9,0,3.9-6,0-6C327.1,295,327.1,301,331,301L331,301z"/>
	</g>
</g>
<g>
	<g>
		<path class="st0" d="M393,270c3.9,0,3.9-6,0-6C389.1,264,389.1,270,393,270L393,270z"/>
	</g>
</g>
<g>
	<g>
		<path class="st0" d="M362,270c3.9,0,3.9-6,0-6C358.1,264,358.1,270,362,270L362,270z"/>
	</g>
</g>
<g>
	<g>
		<path class="st0" d="M331,270c3.9,0,3.9-6,0-6C327.1,264,327.1,270,331,270L331,270z"/>
	</g>
</g>
<g>
	<g>
		<path class="st0" d="M393,240c3.9,0,3.9-6,0-6C389.1,234,389.1,240,393,240L393,240z"/>
	</g>
</g>
<g>
	<g>
		<path class="st0" d="M362,240c3.9,0,3.9-6,0-6C358.1,234,358.1,240,362,240L362,240z"/>
	</g>
</g>
<g>
	<g>
		<path class="st0" d="M331,240c3.9,0,3.9-6,0-6C327.1,234,327.1,240,331,240L331,240z"/>
	</g>
</g>
<g>
	<g>
		<path class="st0" d="M393,209c3.9,0,3.9-6,0-6C389.1,203,389.1,209,393,209L393,209z"/>
	</g>
</g>
<g>
	<g>
		<path class="st0" d="M362,209c3.9,0,3.9-6,0-6C358.1,203,358.1,209,362,209L362,209z"/>
	</g>
</g>
<g>
	<g>
		<path class="st0" d="M331,209c3.9,0,3.9-6,0-6C327.1,203,327.1,209,331,209L331,209z"/>
	</g>
</g>
<g>
	<g>
		<path class="st0" d="M393,453c3.9,0,3.9-6,0-6C389.1,447,389.1,453,393,453L393,453z"/>
	</g>
</g>
<g>
	<g>
		<path class="st0" d="M362,453c3.9,0,3.9-6,0-6C358.1,447,358.1,453,362,453L362,453z"/>
	</g>
</g>
<g>
	<g>
		<path class="st0" d="M331,453c3.9,0,3.9-6,0-6C327.1,447,327.1,453,331,453L331,453z"/>
	</g>
</g>
<g>
	<g>
		<path class="st0" d="M393,484c3.9,0,3.9-6,0-6C389.1,478,389.1,484,393,484L393,484z"/>
	</g>
</g>
<g>
	<g>
		<path class="st0" d="M362,484c3.9,0,3.9-6,0-6C358.1,478,358.1,484,362,484L362,484z"/>
	</g>
</g>
<g>
	<g>
		<path class="st0" d="M331,484c3.9,0,3.9-6,0-6C327.1,478,327.1,484,331,484L331,484z"/>
	</g>
</g>
<g>
	<g>
		<path class="st0" d="M393,423c3.9,0,3.9-6,0-6C389.1,417,389.1,423,393,423L393,423z"/>
	</g>
</g>
<g>
	<g>
		<path class="st0" d="M362,423c3.9,0,3.9-6,0-6C358.1,417,358.1,423,362,423L362,423z"/>
	</g>
</g>
<g>
	<g>
		<path class="st0" d="M331,423c3.9,0,3.9-6,0-6C327.1,417,327.1,423,331,423L331,423z"/>
	</g>
</g>
<g>
	<g>
		<path class="st0" d="M393,392c3.9,0,3.9-6,0-6C389.1,386,389.1,392,393,392L393,392z"/>
	</g>
</g>
<g>
	<g>
		<path class="st0" d="M362,392c3.9,0,3.9-6,0-6C358.1,386,358.1,392,362,392L362,392z"/>
	</g>
</g>
<g>
	<g>
		<path class="st0" d="M331,392c3.9,0,3.9-6,0-6C327.1,386,327.1,392,331,392L331,392z"/>
	</g>
</g>
<g>
	<g>
		<path class="st0" d="M393,362c3.9,0,3.9-6,0-6C389.1,356,389.1,362,393,362L393,362z"/>
	</g>
</g>
<g>
	<g>
		<path class="st0" d="M362,362c3.9,0,3.9-6,0-6C358.1,356,358.1,362,362,362L362,362z"/>
	</g>
</g>
<g>
	<g>
		<path class="st0" d="M331,362c3.9,0,3.9-6,0-6C327.1,356,327.1,362,331,362L331,362z"/>
	</g>
</g>
<g>
	<g>
		<path class="st0" d="M393,331c3.9,0,3.9-6,0-6C389.1,325,389.1,331,393,331L393,331z"/>
	</g>
</g>
<g>
	<g>
		<path class="st0" d="M362,331c3.9,0,3.9-6,0-6C358.1,325,358.1,331,362,331L362,331z"/>
	</g>
</g>
<g>
	<g>
		<path class="st0" d="M331,331c3.9,0,3.9-6,0-6C327.1,325,327.1,331,331,331L331,331z"/>
	</g>
</g>
<g>
	<g>
		<path class="st0" d="M393,635c3.9,0,3.9-6,0-6C389.1,629,389.1,635,393,635L393,635z"/>
	</g>
</g>
<g>
	<g>
		<path class="st0" d="M362,635c3.9,0,3.9-6,0-6C358.1,629,358.1,635,362,635L362,635z"/>
	</g>
</g>
<g>
	<g>
		<path class="st0" d="M331,635c3.9,0,3.9-6,0-6C327.1,629,327.1,635,331,635L331,635z"/>
	</g>
</g>
<g>
	<g>
		<path class="st0" d="M393,666c3.9,0,3.9-6,0-6C389.1,660,389.1,666,393,666L393,666z"/>
	</g>
</g>
<g>
	<g>
		<path class="st0" d="M362,666c3.9,0,3.9-6,0-6C358.1,660,358.1,666,362,666L362,666z"/>
	</g>
</g>
<g>
	<g>
		<path class="st0" d="M331,666c3.9,0,3.9-6,0-6C327.1,660,327.1,666,331,666L331,666z"/>
	</g>
</g>
<g>
	<g>
		<path class="st0" d="M393,605c3.9,0,3.9-6,0-6C389.1,599,389.1,605,393,605L393,605z"/>
	</g>
</g>
<g>
	<g>
		<path class="st0" d="M362,605c3.9,0,3.9-6,0-6C358.1,599,358.1,605,362,605L362,605z"/>
	</g>
</g>
<g>
	<g>
		<path class="st0" d="M331,605c3.9,0,3.9-6,0-6C327.1,599,327.1,605,331,605L331,605z"/>
	</g>
</g>
<g>
	<g>
		<path class="st0" d="M393,574c3.9,0,3.9-6,0-6C389.1,568,389.1,574,393,574L393,574z"/>
	</g>
</g>
<g>
	<g>
		<path class="st0" d="M362,574c3.9,0,3.9-6,0-6C358.1,568,358.1,574,362,574L362,574z"/>
	</g>
</g>
<g>
	<g>
		<path class="st0" d="M331,574c3.9,0,3.9-6,0-6C327.1,568,327.1,574,331,574L331,574z"/>
	</g>
</g>
<g>
	<g>
		<path class="st0" d="M393,544c3.9,0,3.9-6,0-6C389.1,538,389.1,544,393,544L393,544z"/>
	</g>
</g>
<g>
	<g>
		<path class="st0" d="M362,544c3.9,0,3.9-6,0-6C358.1,538,358.1,544,362,544L362,544z"/>
	</g>
</g>
<g>
	<g>
		<path class="st0" d="M331,544c3.9,0,3.9-6,0-6C327.1,538,327.1,544,331,544L331,544z"/>
	</g>
</g>
<g>
	<g>
		<path class="st0" d="M393,513c3.9,0,3.9-6,0-6C389.1,507,389.1,513,393,513L393,513z"/>
	</g>
</g>
<g>
	<g>
		<path class="st0" d="M362,513c3.9,0,3.9-6,0-6C358.1,507,358.1,513,362,513L362,513z"/>
	</g>
</g>
<g>
	<g>
		<path class="st0" d="M331,513c3.9,0,3.9-6,0-6C327.1,507,327.1,513,331,513L331,513z"/>
	</g>
</g>
<g>
	<g>
		<path class="st0" d="M393,788c3.9,0,3.9-6,0-6C389.1,782,389.1,788,393,788L393,788z"/>
	</g>
</g>
<g>
	<g>
		<path class="st0" d="M362,788c3.9,0,3.9-6,0-6C358.1,782,358.1,788,362,788L362,788z"/>
	</g>
</g>
<g>
	<g>
		<path class="st0" d="M331,788c3.9,0,3.9-6,0-6C327.1,782,327.1,788,331,788L331,788z"/>
	</g>
</g>
<g>
	<g>
		<path class="st0" d="M393,819c3.9,0,3.9-6,0-6C389.1,813,389.1,819,393,819L393,819z"/>
	</g>
</g>
<g>
	<g>
		<path class="st0" d="M362,819c3.9,0,3.9-6,0-6C358.1,813,358.1,819,362,819L362,819z"/>
	</g>
</g>
<g>
	<g>
		<path class="st0" d="M331,819c3.9,0,3.9-6,0-6C327.1,813,327.1,819,331,819L331,819z"/>
	</g>
</g>
<g>
	<g>
		<path class="st0" d="M393,758c3.9,0,3.9-6,0-6C389.1,752,389.1,758,393,758L393,758z"/>
	</g>
</g>
<g>
	<g>
		<path class="st0" d="M362,758c3.9,0,3.9-6,0-6C358.1,752,358.1,758,362,758L362,758z"/>
	</g>
</g>
<g>
	<g>
		<path class="st0" d="M331,758c3.9,0,3.9-6,0-6C327.1,752,327.1,758,331,758L331,758z"/>
	</g>
</g>
<g>
	<g>
		<path class="st0" d="M393,727c3.9,0,3.9-6,0-6C389.1,721,389.1,727,393,727L393,727z"/>
	</g>
</g>
<g>
	<g>
		<path class="st0" d="M362,727c3.9,0,3.9-6,0-6C358.1,721,358.1,727,362,727L362,727z"/>
	</g>
</g>
<g>
	<g>
		<path class="st0" d="M331,727c3.9,0,3.9-6,0-6C327.1,721,327.1,727,331,727L331,727z"/>
	</g>
</g>
<g>
	<g>
		<path class="st0" d="M393,697c3.9,0,3.9-6,0-6C389.1,691,389.1,697,393,697L393,697z"/>
	</g>
</g>
<g>
	<g>
		<path class="st0" d="M362,697c3.9,0,3.9-6,0-6C358.1,691,358.1,697,362,697L362,697z"/>
	</g>
</g>
<g>
	<g>
		<path class="st0" d="M331,697c3.9,0,3.9-6,0-6C327.1,691,327.1,697,331,697L331,697z"/>
	</g>
</g>
<g>
	<g>
		<path class="st0" d="M393,666c3.9,0,3.9-6,0-6C389.1,660,389.1,666,393,666L393,666z"/>
	</g>
</g>
<g>
	<g>
		<path class="st0" d="M362,666c3.9,0,3.9-6,0-6C358.1,660,358.1,666,362,666L362,666z"/>
	</g>
</g>
<g>
	<g>
		<path class="st0" d="M331,666c3.9,0,3.9-6,0-6C327.1,660,327.1,666,331,666L331,666z"/>
	</g>
</g>
<g>
	<g>
		<path class="st0" d="M299,118c3.9,0,3.9-6,0-6C295.1,112,295.1,118,299,118L299,118z"/>
	</g>
</g>
<g>
	<g>
		<path class="st0" d="M268,118c3.9,0,3.9-6,0-6C264.1,112,264.1,118,268,118L268,118z"/>
	</g>
</g>
<g>
	<g>
		<path class="st0" d="M299,149c3.9,0,3.9-6,0-6C295.1,143,295.1,149,299,149L299,149z"/>
	</g>
</g>
<g>
	<g>
		<path class="st0" d="M268,149c3.9,0,3.9-6,0-6C264.1,143,264.1,149,268,149L268,149z"/>
	</g>
</g>
<g>
	<g>
		<path class="st0" d="M299,88c3.9,0,3.9-6,0-6C295.1,82,295.1,88,299,88L299,88z"/>
	</g>
</g>
<g>
	<g>
		<path class="st0" d="M268,88c3.9,0,3.9-6,0-6C264.1,82,264.1,88,268,88L268,88z"/>
	</g>
</g>
<g>
	<g>
		<path class="st0" d="M299,57c3.9,0,3.9-6,0-6C295.1,51,295.1,57,299,57L299,57z"/>
	</g>
</g>
<g>
	<g>
		<path class="st0" d="M268,57c3.9,0,3.9-6,0-6C264.1,51,264.1,57,268,57L268,57z"/>
	</g>
</g>
<g>
	<g>
		<path class="st0" d="M299,27c3.9,0,3.9-6,0-6C295.1,21,295.1,27,299,27L299,27z"/>
	</g>
</g>
<g>
	<g>
		<path class="st0" d="M268,27c3.9,0,3.9-6,0-6C264.1,21,264.1,27,268,27L268,27z"/>
	</g>
</g>
<g>
	<g>
		<path class="st0" d="M393,848c3.9,0,3.9-6,0-6C389.1,842,389.1,848,393,848L393,848z"/>
	</g>
</g>
<g>
	<g>
		<path class="st0" d="M362,848c3.9,0,3.9-6,0-6C358.1,842,358.1,848,362,848L362,848z"/>
	</g>
</g>
<g>
	<g>
		<path class="st0" d="M331,848c3.9,0,3.9-6,0-6C327.1,842,327.1,848,331,848L331,848z"/>
	</g>
</g>
<g>
	<g>
		<path class="st0" d="M300,635c3.9,0,3.9-6,0-6C296.1,629,296.1,635,300,635L300,635z"/>
	</g>
</g>
<g>
	<g>
		<path class="st0" d="M269,635c3.9,0,3.9-6,0-6C265.1,629,265.1,635,269,635L269,635z"/>
	</g>
</g>
<g>
	<g>
		<path class="st0" d="M300,666c3.9,0,3.9-6,0-6C296.1,660,296.1,666,300,666L300,666z"/>
	</g>
</g>
<g>
	<g>
		<path class="st0" d="M269,666c3.9,0,3.9-6,0-6C265.1,660,265.1,666,269,666L269,666z"/>
	</g>
</g>
<g>
	<g>
		<path class="st0" d="M300,605c3.9,0,3.9-6,0-6C296.1,599,296.1,605,300,605L300,605z"/>
	</g>
</g>
<g>
	<g>
		<path class="st0" d="M269,605c3.9,0,3.9-6,0-6C265.1,599,265.1,605,269,605L269,605z"/>
	</g>
</g>
<g>
	<g>
		<path class="st0" d="M300,574c3.9,0,3.9-6,0-6C296.1,568,296.1,574,300,574L300,574z"/>
	</g>
</g>
<g>
	<g>
		<path class="st0" d="M269,574c3.9,0,3.9-6,0-6C265.1,568,265.1,574,269,574L269,574z"/>
	</g>
</g>
<g>
	<g>
		<path class="st0" d="M300,788c3.9,0,3.9-6,0-6C296.1,782,296.1,788,300,788L300,788z"/>
	</g>
</g>
<g>
	<g>
		<path class="st0" d="M269,788c3.9,0,3.9-6,0-6C265.1,782,265.1,788,269,788L269,788z"/>
	</g>
</g>
<g>
	<g>
		<path class="st0" d="M300,819c3.9,0,3.9-6,0-6C296.1,813,296.1,819,300,819L300,819z"/>
	</g>
</g>
<g>
	<g>
		<path class="st0" d="M269,819c3.9,0,3.9-6,0-6C265.1,813,265.1,819,269,819L269,819z"/>
	</g>
</g>
<g>
	<g>
		<path class="st0" d="M300,758c3.9,0,3.9-6,0-6C296.1,752,296.1,758,300,758L300,758z"/>
	</g>
</g>
<g>
	<g>
		<path class="st0" d="M269,758c3.9,0,3.9-6,0-6C265.1,752,265.1,758,269,758L269,758z"/>
	</g>
</g>
<g>
	<g>
		<path class="st0" d="M300,727c3.9,0,3.9-6,0-6C296.1,721,296.1,727,300,727L300,727z"/>
	</g>
</g>
<g>
	<g>
		<path class="st0" d="M269,727c3.9,0,3.9-6,0-6C265.1,721,265.1,727,269,727L269,727z"/>
	</g>
</g>
<g>
	<g>
		<path class="st0" d="M300,697c3.9,0,3.9-6,0-6C296.1,691,296.1,697,300,697L300,697z"/>
	</g>
</g>
<g>
	<g>
		<path class="st0" d="M269,697c3.9,0,3.9-6,0-6C265.1,691,265.1,697,269,697L269,697z"/>
	</g>
</g>
<g>
	<g>
		<path class="st0" d="M300,666c3.9,0,3.9-6,0-6C296.1,660,296.1,666,300,666L300,666z"/>
	</g>
</g>
<g>
	<g>
		<path class="st0" d="M269,666c3.9,0,3.9-6,0-6C265.1,660,265.1,666,269,666L269,666z"/>
	</g>
</g>
<g>
	<g>
		<path class="st0" d="M300,848c3.9,0,3.9-6,0-6C296.1,842,296.1,848,300,848L300,848z"/>
	</g>
</g>
<g>
	<g>
		<path class="st0" d="M269,848c3.9,0,3.9-6,0-6C265.1,842,265.1,848,269,848L269,848z"/>
	</g>
</g>
<g>
	<g>
		<path class="st0" d="M299,240c3.9,0,3.9-6,0-6C295.1,234,295.1,240,299,240L299,240z"/>
	</g>
</g>
<g>
	<g>
		<path class="st0" d="M268,240c3.9,0,3.9-6,0-6C264.1,234,264.1,240,268,240L268,240z"/>
	</g>
</g>
<g>
	<g>
		<path class="st0" d="M299,271c3.9,0,3.9-6,0-6C295.1,265,295.1,271,299,271L299,271z"/>
	</g>
</g>
<g>
	<g>
		<path class="st0" d="M268,271c3.9,0,3.9-6,0-6C264.1,265,264.1,271,268,271L268,271z"/>
	</g>
</g>
<g>
	<g>
		<path class="st0" d="M299,210c3.9,0,3.9-6,0-6C295.1,204,295.1,210,299,210L299,210z"/>
	</g>
</g>
<g>
	<g>
		<path class="st0" d="M268,210c3.9,0,3.9-6,0-6C264.1,204,264.1,210,268,210L268,210z"/>
	</g>
</g>
<g>
	<g>
		<path class="st0" d="M299,179c3.9,0,3.9-6,0-6C295.1,173,295.1,179,299,179L299,179z"/>
	</g>
</g>
<g>
	<g>
		<path class="st0" d="M268,179c3.9,0,3.9-6,0-6C264.1,173,264.1,179,268,179L268,179z"/>
	</g>
</g>
<g>
	<g>
		<path class="st0" d="M299,149c3.9,0,3.9-6,0-6C295.1,143,295.1,149,299,149L299,149z"/>
	</g>
</g>
<g>
	<g>
		<path class="st0" d="M268,149c3.9,0,3.9-6,0-6C264.1,143,264.1,149,268,149L268,149z"/>
	</g>
</g>
<g>
	<g>
		<path class="st0" d="M299,118c3.9,0,3.9-6,0-6C295.1,112,295.1,118,299,118L299,118z"/>
	</g>
</g>
<g>
	<g>
		<path class="st0" d="M268,118c3.9,0,3.9-6,0-6C264.1,112,264.1,118,268,118L268,118z"/>
	</g>
</g>
<g>
	<g>
		<path class="st0" d="M299,422c3.9,0,3.9-6,0-6C295.1,416,295.1,422,299,422L299,422z"/>
	</g>
</g>
<g>
	<g>
		<path class="st0" d="M268,422c3.9,0,3.9-6,0-6C264.1,416,264.1,422,268,422L268,422z"/>
	</g>
</g>
<g>
	<g>
		<path class="st0" d="M299,453c3.9,0,3.9-6,0-6C295.1,447,295.1,453,299,453L299,453z"/>
	</g>
</g>
<g>
	<g>
		<path class="st0" d="M268,453c3.9,0,3.9-6,0-6C264.1,447,264.1,453,268,453L268,453z"/>
	</g>
</g>
<g>
	<g>
		<path class="st0" d="M299,392c3.9,0,3.9-6,0-6C295.1,386,295.1,392,299,392L299,392z"/>
	</g>
</g>
<g>
	<g>
		<path class="st0" d="M268,392c3.9,0,3.9-6,0-6C264.1,386,264.1,392,268,392L268,392z"/>
	</g>
</g>
<g>
	<g>
		<path class="st0" d="M299,361c3.9,0,3.9-6,0-6C295.1,355,295.1,361,299,361L299,361z"/>
	</g>
</g>
<g>
	<g>
		<path class="st0" d="M268,361c3.9,0,3.9-6,0-6C264.1,355,264.1,361,268,361L268,361z"/>
	</g>
</g>
<g>
	<g>
		<path class="st0" d="M299,514c3.9,0,3.9-6,0-6C295.1,508,295.1,514,299,514L299,514z"/>
	</g>
</g>
<g>
	<g>
		<path class="st0" d="M268,514c3.9,0,3.9-6,0-6C264.1,508,264.1,514,268,514L268,514z"/>
	</g>
</g>
<g>
	<g>
		<path class="st0" d="M299,545c3.9,0,3.9-6,0-6C295.1,539,295.1,545,299,545L299,545z"/>
	</g>
</g>
<g>
	<g>
		<path class="st0" d="M268,545c3.9,0,3.9-6,0-6C264.1,539,264.1,545,268,545L268,545z"/>
	</g>
</g>
<g>
	<g>
		<path class="st0" d="M299,484c3.9,0,3.9-6,0-6C295.1,478,295.1,484,299,484L299,484z"/>
	</g>
</g>
<g>
	<g>
		<path class="st0" d="M268,484c3.9,0,3.9-6,0-6C264.1,478,264.1,484,268,484L268,484z"/>
	</g>
</g>
<g>
	<g>
		<path class="st0" d="M299,453c3.9,0,3.9-6,0-6C295.1,447,295.1,453,299,453L299,453z"/>
	</g>
</g>
<g>
	<g>
		<path class="st0" d="M268,453c3.9,0,3.9-6,0-6C264.1,447,264.1,453,268,453L268,453z"/>
	</g>
</g>
<g>
	<g>
		<path class="st0" d="M299,331c3.9,0,3.9-6,0-6C295.1,325,295.1,331,299,331L299,331z"/>
	</g>
</g>
<g>
	<g>
		<path class="st0" d="M268,331c3.9,0,3.9-6,0-6C264.1,325,264.1,331,268,331L268,331z"/>
	</g>
</g>
<g>
	<g>
		<path class="st0" d="M299,300c3.9,0,3.9-6,0-6C295.1,294,295.1,300,299,300L299,300z"/>
	</g>
</g>
<g>
	<g>
		<path class="st0" d="M268,300c3.9,0,3.9-6,0-6C264.1,294,264.1,300,268,300L268,300z"/>
	</g>
</g>
<g>
	<g>
		<path class="st0" d="M237,118c3.9,0,3.9-6,0-6C233.1,112,233.1,118,237,118L237,118z"/>
	</g>
</g>
<g>
	<g>
		<path class="st0" d="M237,149c3.9,0,3.9-6,0-6C233.1,143,233.1,149,237,149L237,149z"/>
	</g>
</g>
<g>
	<g>
		<path class="st0" d="M237,88c3.9,0,3.9-6,0-6C233.1,82,233.1,88,237,88L237,88z"/>
	</g>
</g>
<g>
	<g>
		<path class="st0" d="M237,57c3.9,0,3.9-6,0-6C233.1,51,233.1,57,237,57L237,57z"/>
	</g>
</g>
<g>
	<g>
		<path class="st0" d="M237,27c3.9,0,3.9-6,0-6C233.1,21,233.1,27,237,27L237,27z"/>
	</g>
</g>
<g>
	<g>
		<path class="st0" d="M238,635c3.9,0,3.9-6,0-6C234.1,629,234.1,635,238,635L238,635z"/>
	</g>
</g>
<g>
	<g>
		<path class="st0" d="M238,666c3.9,0,3.9-6,0-6C234.1,660,234.1,666,238,666L238,666z"/>
	</g>
</g>
<g>
	<g>
		<path class="st0" d="M238,605c3.9,0,3.9-6,0-6C234.1,599,234.1,605,238,605L238,605z"/>
	</g>
</g>
<g>
	<g>
		<path class="st0" d="M238,574c3.9,0,3.9-6,0-6C234.1,568,234.1,574,238,574L238,574z"/>
	</g>
</g>
<g>
	<g>
		<path class="st0" d="M238,788c3.9,0,3.9-6,0-6C234.1,782,234.1,788,238,788L238,788z"/>
	</g>
</g>
<g>
	<g>
		<path class="st0" d="M238,819c3.9,0,3.9-6,0-6C234.1,813,234.1,819,238,819L238,819z"/>
	</g>
</g>
<g>
	<g>
		<path class="st0" d="M238,758c3.9,0,3.9-6,0-6C234.1,752,234.1,758,238,758L238,758z"/>
	</g>
</g>
<g>
	<g>
		<path class="st0" d="M238,727c3.9,0,3.9-6,0-6C234.1,721,234.1,727,238,727L238,727z"/>
	</g>
</g>
<g>
	<g>
		<path class="st0" d="M238,697c3.9,0,3.9-6,0-6C234.1,691,234.1,697,238,697L238,697z"/>
	</g>
</g>
<g>
	<g>
		<path class="st0" d="M238,666c3.9,0,3.9-6,0-6C234.1,660,234.1,666,238,666L238,666z"/>
	</g>
</g>
<g>
	<g>
		<path class="st0" d="M238,848c3.9,0,3.9-6,0-6C234.1,842,234.1,848,238,848L238,848z"/>
	</g>
</g>
<g>
	<g>
		<path class="st0" d="M237,240c3.9,0,3.9-6,0-6C233.1,234,233.1,240,237,240L237,240z"/>
	</g>
</g>
<g>
	<g>
		<path class="st0" d="M237,271c3.9,0,3.9-6,0-6C233.1,265,233.1,271,237,271L237,271z"/>
	</g>
</g>
<g>
	<g>
		<path class="st0" d="M237,210c3.9,0,3.9-6,0-6C233.1,204,233.1,210,237,210L237,210z"/>
	</g>
</g>
<g>
	<g>
		<path class="st0" d="M237,179c3.9,0,3.9-6,0-6C233.1,173,233.1,179,237,179L237,179z"/>
	</g>
</g>
<g>
	<g>
		<path class="st0" d="M237,149c3.9,0,3.9-6,0-6C233.1,143,233.1,149,237,149L237,149z"/>
	</g>
</g>
<g>
	<g>
		<path class="st0" d="M237,118c3.9,0,3.9-6,0-6C233.1,112,233.1,118,237,118L237,118z"/>
	</g>
</g>
<g>
	<g>
		<path class="st0" d="M237,422c3.9,0,3.9-6,0-6C233.1,416,233.1,422,237,422L237,422z"/>
	</g>
</g>
<g>
	<g>
		<path class="st0" d="M237,453c3.9,0,3.9-6,0-6C233.1,447,233.1,453,237,453L237,453z"/>
	</g>
</g>
<g>
	<g>
		<path class="st0" d="M237,392c3.9,0,3.9-6,0-6C233.1,386,233.1,392,237,392L237,392z"/>
	</g>
</g>
<g>
	<g>
		<path class="st0" d="M237,361c3.9,0,3.9-6,0-6C233.1,355,233.1,361,237,361L237,361z"/>
	</g>
</g>
<g>
	<g>
		<path class="st0" d="M237,514c3.9,0,3.9-6,0-6C233.1,508,233.1,514,237,514L237,514z"/>
	</g>
</g>
<g>
	<g>
		<path class="st0" d="M237,545c3.9,0,3.9-6,0-6C233.1,539,233.1,545,237,545L237,545z"/>
	</g>
</g>
<g>
	<g>
		<path class="st0" d="M237,484c3.9,0,3.9-6,0-6C233.1,478,233.1,484,237,484L237,484z"/>
	</g>
</g>
<g>
	<g>
		<path class="st0" d="M237,453c3.9,0,3.9-6,0-6C233.1,447,233.1,453,237,453L237,453z"/>
	</g>
</g>
<g>
	<g>
		<path class="st0" d="M237,331c3.9,0,3.9-6,0-6C233.1,325,233.1,331,237,331L237,331z"/>
	</g>
</g>
<g>
	<g>
		<path class="st0" d="M237,300c3.9,0,3.9-6,0-6C233.1,294,233.1,300,237,300L237,300z"/>
	</g>
</g>
<g>
	<g>
		<path class="st0" d="M206,118c3.9,0,3.9-6,0-6C202.1,112,202.1,118,206,118L206,118z"/>
	</g>
</g>
<g>
	<g>
		<path class="st0" d="M206,149c3.9,0,3.9-6,0-6C202.1,143,202.1,149,206,149L206,149z"/>
	</g>
</g>
<g>
	<g>
		<path class="st0" d="M206,88c3.9,0,3.9-6,0-6C202.1,82,202.1,88,206,88L206,88z"/>
	</g>
</g>
<g>
	<g>
		<path class="st0" d="M206,57c3.9,0,3.9-6,0-6C202.1,51,202.1,57,206,57L206,57z"/>
	</g>
</g>
<g>
	<g>
		<path class="st0" d="M206,27c3.9,0,3.9-6,0-6C202.1,21,202.1,27,206,27L206,27z"/>
	</g>
</g>
<g>
	<g>
		<path class="st0" d="M207,635c3.9,0,3.9-6,0-6C203.1,629,203.1,635,207,635L207,635z"/>
	</g>
</g>
<g>
	<g>
		<path class="st0" d="M207,666c3.9,0,3.9-6,0-6C203.1,660,203.1,666,207,666L207,666z"/>
	</g>
</g>
<g>
	<g>
		<path class="st0" d="M207,605c3.9,0,3.9-6,0-6C203.1,599,203.1,605,207,605L207,605z"/>
	</g>
</g>
<g>
	<g>
		<path class="st0" d="M207,574c3.9,0,3.9-6,0-6C203.1,568,203.1,574,207,574L207,574z"/>
	</g>
</g>
<g>
	<g>
		<path class="st0" d="M207,788c3.9,0,3.9-6,0-6C203.1,782,203.1,788,207,788L207,788z"/>
	</g>
</g>
<g>
	<g>
		<path class="st0" d="M207,819c3.9,0,3.9-6,0-6C203.1,813,203.1,819,207,819L207,819z"/>
	</g>
</g>
<g>
	<g>
		<path class="st0" d="M207,758c3.9,0,3.9-6,0-6C203.1,752,203.1,758,207,758L207,758z"/>
	</g>
</g>
<g>
	<g>
		<path class="st0" d="M207,727c3.9,0,3.9-6,0-6C203.1,721,203.1,727,207,727L207,727z"/>
	</g>
</g>
<g>
	<g>
		<path class="st0" d="M207,697c3.9,0,3.9-6,0-6C203.1,691,203.1,697,207,697L207,697z"/>
	</g>
</g>
<g>
	<g>
		<path class="st0" d="M207,666c3.9,0,3.9-6,0-6C203.1,660,203.1,666,207,666L207,666z"/>
	</g>
</g>
<g>
	<g>
		<path class="st0" d="M207,848c3.9,0,3.9-6,0-6C203.1,842,203.1,848,207,848L207,848z"/>
	</g>
</g>
<g>
	<g>
		<path class="st0" d="M206,240c3.9,0,3.9-6,0-6C202.1,234,202.1,240,206,240L206,240z"/>
	</g>
</g>
<g>
	<g>
		<path class="st0" d="M206,271c3.9,0,3.9-6,0-6C202.1,265,202.1,271,206,271L206,271z"/>
	</g>
</g>
<g>
	<g>
		<path class="st0" d="M206,210c3.9,0,3.9-6,0-6C202.1,204,202.1,210,206,210L206,210z"/>
	</g>
</g>
<g>
	<g>
		<path class="st0" d="M206,179c3.9,0,3.9-6,0-6C202.1,173,202.1,179,206,179L206,179z"/>
	</g>
</g>
<g>
	<g>
		<path class="st0" d="M206,149c3.9,0,3.9-6,0-6C202.1,143,202.1,149,206,149L206,149z"/>
	</g>
</g>
<g>
	<g>
		<path class="st0" d="M206,118c3.9,0,3.9-6,0-6C202.1,112,202.1,118,206,118L206,118z"/>
	</g>
</g>
<g>
	<g>
		<path class="st0" d="M206,422c3.9,0,3.9-6,0-6C202.1,416,202.1,422,206,422L206,422z"/>
	</g>
</g>
<g>
	<g>
		<path class="st0" d="M206,453c3.9,0,3.9-6,0-6C202.1,447,202.1,453,206,453L206,453z"/>
	</g>
</g>
<g>
	<g>
		<path class="st0" d="M206,392c3.9,0,3.9-6,0-6C202.1,386,202.1,392,206,392L206,392z"/>
	</g>
</g>
<g>
	<g>
		<path class="st0" d="M206,361c3.9,0,3.9-6,0-6C202.1,355,202.1,361,206,361L206,361z"/>
	</g>
</g>
<g>
	<g>
		<path class="st0" d="M206,514c3.9,0,3.9-6,0-6C202.1,508,202.1,514,206,514L206,514z"/>
	</g>
</g>
<g>
	<g>
		<path class="st0" d="M206,545c3.9,0,3.9-6,0-6C202.1,539,202.1,545,206,545L206,545z"/>
	</g>
</g>
<g>
	<g>
		<path class="st0" d="M206,484c3.9,0,3.9-6,0-6C202.1,478,202.1,484,206,484L206,484z"/>
	</g>
</g>
<g>
	<g>
		<path class="st0" d="M206,453c3.9,0,3.9-6,0-6C202.1,447,202.1,453,206,453L206,453z"/>
	</g>
</g>
<g>
	<g>
		<path class="st0" d="M206,331c3.9,0,3.9-6,0-6C202.1,325,202.1,331,206,331L206,331z"/>
	</g>
</g>
<g>
	<g>
		<path class="st0" d="M206,300c3.9,0,3.9-6,0-6C202.1,294,202.1,300,206,300L206,300z"/>
	</g>
</g>
</svg>
