<?xml version="1.0" encoding="utf-8"?>
<!-- Generator: Adobe Illustrator 19.0.1, SVG Export Plug-In . SVG Version: 6.00 Build 0)  -->
<svg version="1.1" id="Layer_1" xmlns="http://www.w3.org/2000/svg" xmlns:xlink="http://www.w3.org/1999/xlink" x="0px" y="0px"
	 viewBox="0 0 380 327" style="enable-background:new 0 0 380 327;" xml:space="preserve">
<style type="text/css">
	.st0{fill:#E45A57;}
	.st1{fill:#FFFFFF;}
</style>
<rect x="0" class="st0" width="380" height="327"/>
<g id="mN1Ed1.tif">
	<g>
		<path class="st1" d="M166.4,184.9c-5.7,5.3-9.2,12.4-12.8,19.4c-3.2-0.9-5.9-2.5-7.7-5.3c-0.7-1-0.8-1.9,0-3.1
			c8.4-13.7,19.5-24.5,33.6-32.2c6.7-3.6,13.5-7.1,20.1-10.8c10.2-5.7,18.2-13.6,23.3-24.2c0.2-0.4,0.4-0.8,0.5-1.2
			c0-0.1,0-0.1,0-0.2c-1.4,1.9-2.7,3.9-4.1,5.7c-5.1,6.5-11.8,11.1-19.3,14.4c-6.5,2.9-13,5.5-19.5,8.4c-8.9,3.9-17,8.8-24.1,15.6
			c-0.1,0.1-0.3,0.2-0.5,0.4c-1.6-3.3-2.6-6.7-3-10.2c-1.6-13,6.1-28.2,20.7-34.6c7.1-3.1,14.5-5.1,22-6.8c6.4-1.4,12.9-2.6,19-4.9
			c6.3-2.4,11.8-6,15.9-11.4c0.1-0.1,0.2-0.3,0.2-0.5c0.1,0,0.3,0,0.4,0.1c1.3,2.8,2.7,5.6,3.8,8.5c3.5,8.7,4.9,17.9,4.3,27.2
			c-1,14.2-5.9,26.7-16.1,36.9c-6.6,6.6-14.7,10.4-23.7,12.4c-8.3,1.9-16.7,2.1-24.9-0.5C171.7,187.2,169.2,186,166.4,184.9z"/>
	</g>
</g>
</svg>
