<?xml version="1.0" encoding="utf-8"?>
<!-- Generator: Adobe Illustrator 19.0.1, SVG Export Plug-In . SVG Version: 6.00 Build 0)  -->
<svg version="1.1" id="Layer_1" xmlns="http://www.w3.org/2000/svg" xmlns:xlink="http://www.w3.org/1999/xlink" x="0px" y="0px"
	 viewBox="-48 49.3 46.7 46.7" style="enable-background:new -48 49.3 46.7 46.7;" xml:space="preserve">
<style type="text/css">
	.st0{fill:#FFFFFF;}
	.st1{fill:#232323;}
</style>
<path class="st0" d="M-34.2,53.2h20.4c5.6,0,10.2,4.6,10.2,10.2v20.4c0,5.6-4.6,10.2-10.2,10.2h-20.4c-5.6,0-10.1-4.6-10.1-10.2
	V63.4C-44.3,57.8-39.8,53.2-34.2,53.2z"/>
<g id="RSoMEi.tif">
	<g>
		<path class="st1" d="M-21.6,71.8c0.3-0.3,0.6-0.7,0.8-1c0.8-0.8,1.7-1.2,2.8-1.4c1-0.1,2.1-0.1,3,0.3c1.2,0.4,2,1.2,2.6,2.3
			c0.7,1.3,0.9,2.6,0.9,4c0,2.8,0,5.6,0,8.4c0,0,0,0.1,0,0.2c-1.7,0-3.3,0-5,0c0-0.1,0-0.2,0-0.2c0-2.5,0-5.1,0-7.6
			c0-0.7,0-1.3-0.3-1.9c-0.4-1.1-1.3-1.6-2.4-1.6c-1.2,0.1-2.1,0.9-2.4,2c-0.1,0.4-0.1,0.8-0.1,1.2c0,2.6,0,5.3,0,7.9
			c0,0.1,0,0.2,0,0.3c-1.7,0-3.3,0-5,0c0-5,0-9.9,0-14.9c0.1,0,0.1,0,0.2,0c1.5,0,3,0,4.5,0c0.2,0,0.2,0,0.2,0.2c0,0.5,0,1.1,0,1.6
			C-21.6,71.6-21.6,71.7-21.6,71.8z"/>
		<path class="st1" d="M-29.3,84.7c-1.7,0-3.3,0-5,0c0-0.1,0-0.2,0-0.2c0-4.8,0-9.6,0-14.5c0-0.2,0-0.2,0.2-0.2c1.5,0,3,0,4.5,0
			c0.2,0,0.2,0,0.2,0.2c0,4.8,0,9.7,0,14.5C-29.3,84.5-29.3,84.6-29.3,84.7z"/>
		<path class="st1" d="M-31.8,67.7c-1,0-1.8-0.3-2.3-1.1c-0.9-1.3-0.4-3.3,1.4-3.9c1-0.3,1.9-0.2,2.7,0.4c0.8,0.6,1.1,1.4,1,2.4
			c-0.1,1-0.7,1.7-1.6,2C-31,67.6-31.4,67.7-31.8,67.7C-31.8,67.7-31.8,67.7-31.8,67.7z"/>
	</g>
</g>
</svg>
