<?xml version="1.0" encoding="utf-8"?>
<!-- Generator: Adobe Illustrator 19.0.1, SVG Export Plug-In . SVG Version: 6.00 Build 0)  -->
<svg version="1.1" id="Layer_1" xmlns="http://www.w3.org/2000/svg" xmlns:xlink="http://www.w3.org/1999/xlink" x="0px" y="0px"
	 viewBox="0 0 46.7 46.7" style="enable-background:new 0 0 46.7 46.7;" xml:space="preserve">
<style type="text/css">
	.st0{fill:#FFFFFF;}
	.st1{fill:#232323;stroke:#FFFFFF;stroke-miterlimit:10;}
</style>
<path class="st0" d="M13.5,4.2h20.4c5.6,0,10.2,4.6,10.2,10.2v20.4c0,5.6-4.6,10.2-10.2,10.2H13.5C7.9,45,3.4,40.4,3.4,34.8V14.4
	C3.4,8.8,7.9,4.2,13.5,4.2z"/>
<path class="st1" d="M31.9,23.3c0.7,4.4-2.4,8.6-6.9,9.2c-4.4,0.7-8.6-2.4-9.2-6.9c-0.7-4.4,2.4-8.6,6.9-9.2c0.8-0.1,1.6-0.1,2.4,0
	C28.6,17,31.3,19.8,31.9,23.3z"/>
<path class="st1" d="M36.8,12.5c0.1,1-0.5,1.8-1.5,2c-1,0.1-1.8-0.5-2-1.5c-0.1-1,0.5-1.8,1.5-2c0.2,0,0.3,0,0.5,0
	C36.1,11.1,36.7,11.7,36.8,12.5z"/>
</svg>
