<?xml version="1.0" encoding="utf-8"?>
<!-- Generator: Adobe Illustrator 19.0.1, SVG Export Plug-In . SVG Version: 6.00 Build 0)  -->
<svg version="1.1" id="Layer_1" xmlns="http://www.w3.org/2000/svg" xmlns:xlink="http://www.w3.org/1999/xlink" x="0px" y="0px"
	 viewBox="0 0 225 225" style="enable-background:new 0 0 225 225;" xml:space="preserve">
<style type="text/css">
	.st0{fill:#7CD0E4;}
	.st1{fill:#010101;}
</style>
<g>
	<g>
		<path class="st0" d="M91.4,179.9c-5.2-23.6-23.8-41-30.9-63.8c-7.3-23.7-1.4-52.2,21.1-65.5c11.2-6.7,25.5-7.4,38.2-7.5
			c6.7,0,13.3,0.9,19.2,4.1c5.2,2.9,9.5,7.1,13,11.8c7.4,9.8,13.1,22.1,15.6,34.2c2.3,11.4,0.1,22.5-5.2,32.8
			c-10.4,20.1-28.8,35.6-35,57.9c0.5-0.4,1-0.7,1.4-1.1c-7.1,0.6-14.2,0.8-21.3,0.5c-5.4-0.2-19.2,0.7-18.6-7.6c0.1-1.9-2.9-1.9-3,0
			c-0.5,8.1,8.6,9.7,14.7,10.2c9.4,0.8,18.8,0.7,28.1-0.2c0.7-0.1,1.2-0.4,1.4-1.1c6.1-21.7,24-37,34.3-56.5
			c5.1-9.6,7.9-20.2,6.7-31.2c-1.5-12.8-7.3-25.8-14.5-36.5c-6.7-10.1-15.9-18-28.2-19.9c-6.6-1-13.3-0.5-19.9-0.1
			c-6.8,0.5-13.6,1.2-20,3.4c-23.9,8.2-36.2,33.8-33.9,58c1.4,14.6,7.5,27.5,14.9,39.8c7.4,12.4,15.7,24.5,18.9,38.8
			C88.9,182.5,91.8,181.7,91.4,179.9L91.4,179.9z"/>
	</g>
</g>
<g>
	<g>
		<path class="st0" d="M84.9,180.2c1.3,3.9-1.8,7.2-3.1,10.7c-1,2.6-1.1,5.3,0.4,7.7c0.2-0.7,0.4-1.4,0.5-2c-6.1,3-4,11.4,2.5,11.9
			c-0.5-0.5-1-1-1.5-1.5c-0.1,3-3.2,4.6-2.7,7.9c0.4,2.4,2.3,4.4,4.5,5.4c3.3,1.5,7.4,1,10.9,0.9c4.5-0.1,9-0.2,13.4-0.3
			c4.1-0.1,8.2-0.1,12.3-0.3c2.5-0.2,5.2-0.5,7.2-2.1c4.2-3.2,2.6-9.4-2.2-10.8c0.1,0.9,0.2,1.8,0.4,2.7c3.3-2.2,3.9-6.5,3.7-10.2
			c-0.1-3.4-2.6-7.1-6.4-5.6c-1.8,0.7-1.1,3.3,0.8,2.9c7.9-1.8,9.5-11.7,2.9-16.2c-1.6-1.1-3.1,1.5-1.5,2.6c4.6,3.2,3,9.5-2.2,10.7
			c0.2,1,0.5,1.9,0.8,2.9c0.8,0.4,1.6,0.9,2.4,1.3c0.2,0.7,0.2,1.3,0.2,2c0,0.7-0.1,1.5-0.1,2.3c-0.2,1.8-0.5,3.8-2.1,4.9
			c-1.1,0.7-0.9,2.3,0.4,2.7c3.1,0.9,3.2,4.5,0.6,5.9c-1.7,1-4,1.1-5.9,1.1c-5.6,0.2-11.3,0.2-17,0.4c-2.7,0.1-5.5,0.1-8.2,0.2
			c-2.6,0.1-5.6,0.4-8.1-0.3c-1.4-0.4-2.7-1.1-3.4-2.5c-0.8-1.6,0-2.6,0.8-3.9c0.9-1.5,1.7-2.7,1.7-4.5c0-0.8-0.7-1.4-1.5-1.5
			c-3.8-0.3-4.2-4.8-1-6.4c0.7-0.4,1-1.4,0.5-2c-2.1-3.4,0.9-7.1,2.3-10.2c1.1-2.5,1.7-4.9,0.8-7.6
			C87.1,177.5,84.3,178.3,84.9,180.2L84.9,180.2z"/>
	</g>
</g>
<g>
	<g>
		<path class="st0" d="M103.1,177.3c1.8-15-2.2-29.7-5.9-44.1c-1.8-6.9-5.5-16.1-2.7-23.1c1.1-2.7,3.4-5.4,6.4-5.9
			c5.9-1,5.4,6.3,5.1,10.2c-0.1,0.4-0.1,0.8-0.2,1.2c-0.8,0.2-1.6,0.4-2.4,0.6c-1.5-0.6-0.6-3.4-0.3-4.5c0.4-1.4,1.1-2.9,1.8-4.2
			c1.4-2.5,3.5-6,6.7-6.2c3.6-0.2,5.8,3.7,7.1,6.4c0.8,1.7,1.7,3.6,1,5.5c-1.4,3.5-5.4,1.1-4.8-2c0.7-3.9,5.5-5.3,8.9-4.5
			c3.6,0.8,5.8,3.8,6.4,7.4c1.2,7.4-4,14.2-6.9,20.5c-6.8,14.6-10.5,30.3-11.1,46.3c-0.1,1.9,2.9,1.9,3,0
			c0.5-11.7,2.6-23.2,6.4-34.3c2-5.6,4.4-11,7.1-16.3c2.3-4.4,4.6-9,4.6-14c0.1-8.4-7.5-15.6-15.9-12c-3.2,1.4-6,4.8-5.4,8.4
			c0.5,3.1,3.6,5.8,6.8,5c3.6-0.9,4.6-4.9,3.9-8.1c-0.8-3.7-3.6-8.4-7-10.3c-7.7-4.5-14,5.8-15.7,12c-0.9,3.2-0.2,7.4,3.6,8.3
			c3.9,0.8,5.2-3.1,5.2-6.2c0.1-4.2,0.7-9.5-3.7-11.7c-3.4-1.7-7.4-0.4-10.1,2c-9,8.1-2.7,23.2-0.2,32.8c3.4,13.3,6.8,26.8,5.1,40.6
			C99.9,179.2,102.9,179.2,103.1,177.3L103.1,177.3z"/>
	</g>
</g>
<g>
	<g>
		<path class="st0" d="M72.6,81.5C72.6,72,80.2,65.7,87,60.4c1.5-1.2-0.6-3.3-2.1-2.1c-7.5,5.9-15.2,12.9-15.3,23.3
			C69.6,83.5,72.6,83.5,72.6,81.5L72.6,81.5z"/>
	</g>
</g>
<g>
	<g>
		<path class="st0" d="M60.7,44.9c-4.9-3.5-9-7.8-12.4-12.7c-1.1-1.5-3.6-0.1-2.6,1.5c3.7,5.4,8.2,9.9,13.5,13.8
			C60.8,48.5,62.3,46,60.7,44.9L60.7,44.9z"/>
	</g>
</g>
<g>
	<g>
		<path class="st0" d="M114.4,27.6c-0.2-6.4-0.4-12.7-0.7-19c-0.1-1.9-3-1.9-3,0c0.2,6.4,0.4,12.7,0.7,19
			C111.5,29.5,114.4,29.6,114.4,27.6L114.4,27.6z"/>
	</g>
</g>
<g>
	<g>
		<path class="st0" d="M161.9,43.4c5.2-3.4,10.4-6.8,15.6-10.3c1.6-1.1,0.1-3.6-1.5-2.6c-5.2,3.4-10.4,6.8-15.6,10.3
			C158.8,41.9,160.3,44.4,161.9,43.4L161.9,43.4z"/>
	</g>
</g>
<g>
	<g>
		<path class="st0" d="M87.1,197.3c5,3.7,11,5,17.1,3.9c1.9-0.3,1.1-3.2-0.8-2.9c-5.4,0.9-10.5-0.4-14.8-3.6
			C87,193.6,85.5,196.2,87.1,197.3L87.1,197.3z"/>
	</g>
</g>
<g>
	<g>
		<path class="st0" d="M89,209.2c4.5,1.7,9.1,2.6,13.9,2.6c1.9,0,1.9-3,0-3c-4.5-0.1-8.9-0.9-13.1-2.5C88,205.7,87.3,208.5,89,209.2
			L89,209.2z"/>
	</g>
</g>
<g>
	<g>
		<path class="st1" d="M92.5,177.5c-5.2-23.6-23.8-41-30.9-63.8c-7.3-23.7-1.4-52.2,21.1-65.5c11.2-6.7,25.5-7.4,38.2-7.5
			c6.7,0,13.3,0.9,19.2,4.1c5.2,2.9,9.5,7.1,13,11.8c7.4,9.8,13.1,22.1,15.6,34.2c2.3,11.4,0.1,22.5-5.2,32.8
			c-10.4,20.1-28.8,35.6-35,57.9c0.5-0.4,1-0.7,1.4-1.1c-7.1,0.6-14.2,0.8-21.3,0.5c-5.4-0.2-19.2,0.7-18.6-7.6c0.1-1.9-2.9-1.9-3,0
			c-0.5,8.1,8.6,9.7,14.7,10.2c9.4,0.8,18.8,0.7,28.1-0.2c0.7-0.1,1.2-0.4,1.4-1.1c6.1-21.7,24-37,34.3-56.5
			c5.1-9.6,7.9-20.2,6.7-31.2c-1.5-12.8-7.3-25.8-14.5-36.5c-6.7-10.1-15.9-18-28.2-19.9c-6.6-1-13.3-0.5-19.9-0.1
			c-6.8,0.5-13.6,1.2-20,3.4c-23.9,8.2-36.2,33.8-33.9,58c1.4,14.6,7.5,27.5,14.9,39.8c7.4,12.4,15.7,24.5,18.9,38.8
			C90.1,180.1,93,179.3,92.5,177.5L92.5,177.5z"/>
	</g>
</g>
<g>
	<g>
		<path class="st1" d="M87.3,178.4c1.3,3.9-1.8,7.2-3.1,10.7c-1,2.6-1.1,5.3,0.4,7.7c0.2-0.7,0.4-1.4,0.5-2c-6.1,3-4,11.4,2.5,11.9
			c-0.5-0.5-1-1-1.5-1.5c-0.1,3-3.2,4.6-2.7,7.9c0.4,2.4,2.3,4.4,4.5,5.4c3.3,1.5,7.4,1,10.9,0.9c4.5-0.1,9-0.2,13.4-0.3
			c4.1-0.1,8.2-0.1,12.3-0.3c2.5-0.2,5.2-0.5,7.2-2.1c4.2-3.2,2.6-9.4-2.2-10.8c0.1,0.9,0.2,1.8,0.4,2.7c3.3-2.2,3.9-6.5,3.7-10.2
			c-0.1-3.4-2.6-7.1-6.4-5.6c-1.8,0.7-1.1,3.3,0.8,2.9c7.9-1.8,9.5-11.7,2.9-16.2c-1.6-1.1-3.1,1.5-1.5,2.6c4.6,3.2,3,9.5-2.2,10.7
			c0.2,1,0.5,1.9,0.8,2.9c0.8,0.4,1.6,0.9,2.4,1.3c0.2,0.7,0.2,1.3,0.2,2c0,0.7-0.1,1.5-0.1,2.3c-0.2,1.8-0.5,3.8-2.1,4.9
			c-1.1,0.7-0.9,2.3,0.4,2.7c3.1,0.9,3.2,4.5,0.6,5.9c-1.7,1-4,1.1-5.9,1.1c-5.6,0.2-11.3,0.2-17,0.4c-2.7,0.1-5.5,0.1-8.2,0.2
			c-2.6,0.1-5.6,0.4-8.1-0.3c-1.4-0.4-2.7-1.1-3.4-2.5c-0.8-1.6,0-2.6,0.8-3.9c0.9-1.5,1.7-2.7,1.7-4.5c0-0.8-0.7-1.4-1.5-1.5
			c-3.8-0.3-4.2-4.8-1-6.4c0.7-0.4,1-1.4,0.5-2c-2.1-3.4,0.9-7.1,2.3-10.2c1.1-2.5,1.7-4.9,0.8-7.6
			C89.5,175.8,86.7,176.5,87.3,178.4L87.3,178.4z"/>
	</g>
</g>
<g>
	<g>
		<path class="st1" d="M104.9,174.9c1.8-15-2.2-29.7-5.9-44.1c-1.8-6.9-5.5-16.1-2.7-23.1c1.1-2.7,3.4-5.4,6.4-5.9
			c5.9-1,5.4,6.3,5.1,10.2c-0.1,0.4-0.1,0.8-0.2,1.2c-0.8,0.2-1.6,0.4-2.4,0.6c-1.5-0.6-0.6-3.4-0.3-4.5c0.4-1.4,1.1-2.9,1.8-4.2
			c1.4-2.5,3.5-6,6.7-6.2c3.6-0.2,5.8,3.7,7.1,6.4c0.8,1.7,1.7,3.6,1,5.5c-1.4,3.5-5.4,1.1-4.8-2c0.7-3.9,5.5-5.3,8.9-4.5
			c3.6,0.8,5.8,3.8,6.4,7.4c1.2,7.4-4,14.2-6.9,20.5c-6.8,14.6-10.5,30.3-11.1,46.3c-0.1,1.9,2.9,1.9,3,0
			c0.5-11.7,2.6-23.2,6.4-34.3c2-5.6,4.4-11,7.1-16.3c2.3-4.4,4.6-9,4.6-14c0.1-8.4-7.5-15.6-15.9-12c-3.2,1.4-6,4.8-5.4,8.4
			c0.5,3.1,3.6,5.8,6.8,5c3.6-0.9,4.6-4.9,3.9-8.1c-0.8-3.7-3.6-8.4-7-10.3c-7.7-4.5-14,5.8-15.7,12c-0.9,3.2-0.2,7.4,3.6,8.3
			c3.9,0.8,5.2-3.1,5.2-6.2c0.1-4.2,0.7-9.5-3.7-11.7c-3.4-1.7-7.4-0.4-10.1,2c-9,8.1-2.7,23.2-0.2,32.8c3.4,13.3,6.8,26.8,5.1,40.6
			C101.7,176.8,104.7,176.8,104.9,174.9L104.9,174.9z"/>
	</g>
</g>
<g>
	<g>
		<path class="st1" d="M73.8,81.5c0.1-9.5,7.7-15.8,14.5-21.1c1.5-1.2-0.6-3.3-2.1-2.1c-7.5,5.9-15.2,12.9-15.3,23.3
			C70.8,83.5,73.8,83.5,73.8,81.5L73.8,81.5z"/>
	</g>
</g>
<g>
	<g>
		<path class="st1" d="M61.9,44.3c-4.9-3.5-9-7.8-12.4-12.7c-1.1-1.5-3.6-0.1-2.6,1.5c3.7,5.4,8.2,9.9,13.5,13.8
			C62,47.9,63.5,45.4,61.9,44.3L61.9,44.3z"/>
	</g>
</g>
<g>
	<g>
		<path class="st1" d="M115.6,26.4c-0.2-6.4-0.4-12.7-0.7-19c-0.1-1.9-3-1.9-3,0c0.2,6.4,0.4,12.7,0.7,19
			C112.6,28.3,115.6,28.4,115.6,26.4L115.6,26.4z"/>
	</g>
</g>
<g>
	<g>
		<path class="st1" d="M163.7,44c5.2-3.4,10.4-6.8,15.6-10.3c1.6-1.1,0.1-3.6-1.5-2.6c-5.2,3.4-10.4,6.8-15.6,10.3
			C160.6,42.5,162.1,45,163.7,44L163.7,44z"/>
	</g>
</g>
<g>
	<g>
		<path class="st1" d="M88.9,195c5,3.7,11,5,17.1,3.9c1.9-0.3,1.1-3.2-0.8-2.9c-5.4,0.9-10.5-0.4-14.8-3.6
			C88.8,191.2,87.3,193.8,88.9,195L88.9,195z"/>
	</g>
</g>
<g>
	<g>
		<path class="st1" d="M90.8,206.9c4.5,1.7,9.1,2.6,13.9,2.6c1.9,0,1.9-3,0-3c-4.5-0.1-8.9-0.9-13.1-2.5
			C89.8,203.3,89,206.1,90.8,206.9L90.8,206.9z"/>
	</g>
</g>
</svg>
