<?xml version="1.0" encoding="UTF-8"?>
<svg width="164px" height="269px" viewBox="0 0 164 269" version="1.1" xmlns="http://www.w3.org/2000/svg" xmlns:xlink="http://www.w3.org/1999/xlink">
    <!-- Generator: Sketch 50.2 (55047) - http://www.bohemiancoding.com/sketch -->
    <title>Group 2</title>
    <desc>Created with Sketch.</desc>
    <defs>
        <polygon id="path-1" points="0.271773512 0.0299936646 40.1059933 0.0299936646 40.1059933 3 0.271773512 3"></polygon>
    </defs>
    <g id="Page-1" stroke="none" stroke-width="1" fill="none" fill-rule="evenodd">
        <g id="Artboard" transform="translate(-811.000000, -2305.000000)">
            <g id="Group-2" transform="translate(811.000000, 2305.000000)">
                <path d="M55.662577,216.398103 C50.7260361,198.194916 40.4727471,182.264359 31.341623,165.970821 C21.5054545,148.416078 13.6724487,130.135373 13.8816241,109.643561 C14.0071294,97.3194346 16.7497888,85.1478836 21.8622832,73.9410006 C22.1883509,73.2248823 21.1289387,72.5985863 20.8004101,73.3196265 C12.3534128,91.8353462 10.3133368,113.010055 15.4812012,132.737762 C20.4694207,151.77396 31.5507984,168.341887 40.9661551,185.37123 C46.4896177,195.363665 51.4778373,205.668633 54.4764291,216.725401 C54.6831436,217.488277 55.870522,217.16467 55.662577,216.398103" id="Fill-71" fill="#010202"></path>
                <path d="M22.8337494,72.0142408 C37.3886702,50.6352781 64.9518438,43.3473589 89.5385737,43.2846063 C96.8498713,43.2661497 104.280522,43.8998283 111.209152,46.3693292 C118.476153,48.960644 124.308457,53.7766014 129.088732,59.749176 C138.190325,71.122169 145.253073,84.9732759 148.816439,99.09385 C152.97657,115.568263 151.832257,133.462609 143.352037,148.412502 C142.959526,149.101551 144.022629,149.722925 144.41391,149.033876 C160.348159,120.945303 150.216684,86.933373 132.533975,62.2875818 C128.50181,56.6681445 123.770753,51.4227622 117.696052,47.973828 C111.330965,44.3612447 104.028281,42.831803 96.7920405,42.2928685 C83.227627,41.2839045 69.0393784,42.8822512 56.0963391,47.0829866 C42.4261075,51.5187368 29.9494064,59.3800429 21.7718763,71.3928666 C21.3239947,72.0499236 22.3907896,72.6651456 22.8337494,72.0142408" id="Fill-73" fill="#010202"></path>
                <path d="M143.371503,148.282226 C128.662777,170.692301 109.876359,190.892498 100.7034,216.498036 C100.435163,217.244915 101.623772,217.567291 101.889548,216.825334 C111.020672,191.336688 129.793554,171.210318 144.433376,148.9036 C144.870183,148.239161 143.80585,147.622708 143.371503,148.282226" id="Fill-75" fill="#010202"></path>
                <path d="M54.9590534,216.15272 C58.3956832,218.196487 62.4155434,218.528707 66.3135896,218.982741 C71.262435,219.558589 76.2346588,219.911726 81.2093434,220.159045 C86.1298885,220.402673 91.142717,220.798876 96.0681839,220.680753 C98.9941795,220.609388 101.947245,219.768995 102.532936,216.534158 C102.673207,215.760208 101.487059,215.426758 101.346788,216.20686 C100.502704,220.869011 92.3793131,219.356796 88.980827,219.243595 C85.1947512,219.115629 81.4086753,218.961823 77.6262908,218.7305 C74.0469295,218.511481 70.4712596,218.222327 66.9066636,217.818741 C63.0590655,217.384394 58.980144,217.111236 55.5804276,215.090847 C54.8987616,214.6848 54.2786179,215.747904 54.9590534,216.15272" id="Fill-77" fill="#010202"></path>
                <path d="M71.9076156,207.358933 C75.1424526,188.447011 69.4245799,169.618758 64.8867028,151.414341 C62.6940518,142.614206 57.7279802,130.750266 63.3769481,122.358639 C65.9805674,118.492584 71.1927277,116.442665 75.4476027,119.014292 C79.3001226,121.341062 79.9756362,129.288499 76.7998606,132.531949 C76.3039917,133.038892 74.6847275,134.038012 73.9033956,133.822685 C73.1577466,133.6172 72.2582921,132.025006 72.0589602,131.364258 C71.7919539,130.479568 71.9026939,129.465683 72.0146643,128.567459 C72.2816706,126.453556 72.9522625,124.30274 73.7040637,122.311882 C75.584182,117.333506 80.0396193,111.985997 86.0023504,113.391164 C90.7850858,114.51825 94.0900581,120.720918 94.4555,125.293247 C94.718815,128.579763 91.6993057,134.146291 87.8886209,130.813019 C86.0626422,129.217133 86.0638726,126.042588 87.1860375,124.035734 C89.1990437,120.435455 93.8230518,119.287451 97.6386583,120.029408 C101.93906,120.86611 105.088996,124.061573 106.528615,128.12819 C109.752378,137.234705 104.558675,145.489753 100.325948,153.204637 C90.6202064,170.902111 85.8140925,191.000182 86.2496697,211.163466 C86.2668959,211.953411 87.4973398,211.955872 87.4801136,211.163466 C87.1823461,197.367729 89.3196272,183.62244 93.895648,170.596961 C96.1670474,164.124826 99.0733559,157.943076 102.427546,151.96681 C105.200967,147.026578 108.119579,141.990371 108.659744,136.234355 C109.474298,127.522812 104.26829,117.901971 94.4628826,118.608246 C90.913052,118.864178 87.2229508,120.704922 85.7771792,124.128017 C84.5602702,127.009717 85.2013315,131.474998 88.4607773,132.721437 C92.0007644,134.074926 95.1839228,130.742883 95.6896352,127.466211 C96.3811447,122.978782 93.6347939,117.366728 90.3236694,114.416123 C86.8784265,111.346166 82.2310399,111.272339 78.4412727,113.793519 C74.1248755,116.662914 72.1315564,122.004271 71.0684529,126.862063 C70.4556918,129.657632 70.20099,134.399763 73.9243132,135.065433 C77.4187738,135.690498 79.2213741,131.415936 79.6704862,128.663433 C80.3558434,124.465159 79.5597462,119.64428 75.4082285,117.591899 C71.9371463,115.87543 67.6305927,116.600161 64.7082884,119.03644 C60.16672,122.821286 59.2069738,129.143306 59.8394219,134.703682 C60.7118067,142.377961 63.2723604,150.02517 65.1377133,157.508729 C69.1649562,173.661997 73.5834802,190.298829 70.7214677,207.031635 C70.5885798,207.806815 71.7747277,208.140265 71.9076156,207.358933" id="Fill-79" fill="#010202"></path>
                <path d="M142.563423,45.870224 C149.223815,41.3655689 156.047857,37.1254592 163.036779,33.1486646 C163.723366,32.756153 163.104453,31.6930494 162.415404,32.085561 C155.427714,36.0623557 148.602441,40.3036958 141.942049,44.8071204 C141.289913,45.2488498 141.905135,46.3156447 142.563423,45.870224" id="Fill-81" fill="#010202"></path>
                <path d="M81.6644091,0.594304759 C81.819445,8.18614358 81.9757114,15.7779824 82.1319778,23.3698212 C82.149204,24.1597662 83.3796479,24.1622271 83.3624216,23.3698212 C83.2061553,15.7779824 83.0511193,8.18614358 82.894853,0.594304759 C82.8776268,-0.196870665 81.6484133,-0.199331552 81.6644091,0.594304759" id="Fill-83" fill="#010202"></path>
                <path d="M17.6890986,47.4804777 C10.9216572,43.6476449 5.51631721,38.1389476 1.80652887,31.3050622 C1.4287826,30.608631 0.365679072,31.2287747 0.744655792,31.925206 C4.54672742,38.930123 10.1329427,44.6147738 17.0677245,48.5435812 C17.7580035,48.9336319 18.3793777,47.8705284 17.6890986,47.4804777" id="Fill-85" fill="#010202"></path>
                <path d="M49.8595833,229.420465 C48.4470337,233.359116 47.815816,237.874845 50.6716763,241.316397 C51.1773887,241.926697 52.0436212,241.051851 51.5416001,240.446473 C48.9908899,237.372824 49.8091351,233.196698 51.0457312,229.747763 C51.313968,229.000884 50.1253592,228.678508 49.8595833,229.420465" id="Fill-87" fill="#010202"></path>
                <path d="M51.874868,242.115884 C48.1983016,244.793329 47.5683144,250.138378 50.5619844,253.578699 C51.0824621,254.177925 51.9499251,253.30431 51.4319082,252.708775 C48.9931684,249.905824 49.4804242,245.372869 52.4962422,243.177757 C53.1299208,242.71634 52.5159293,241.648315 51.874868,242.115884" id="Fill-89" fill="#010202"></path>
                <path d="M49.8081878,252.082195 C50.7753167,253.301565 52.0931221,254.154262 53.5893419,254.570152 C54.3534475,254.783019 54.6795152,253.596871 53.91664,253.385235 C52.6062172,253.019793 51.5209657,252.275374 50.6781116,251.212271 C50.1871645,250.592127 49.320932,251.468203 49.8081878,252.082195" id="Fill-91" fill="#010202"></path>
                <g id="Group-95" transform="translate(55.664254, 266.000000)">
                    <mask id="mask-2" fill="white">
                        <use xlink:href="#path-1"></use>
                    </mask>
                    <g id="Clip-94"></g>
                    <path d="M0.846529412,1.0339 C7.18344118,1.6449 13.7808235,2.9779 20.1840588,2.9999 C26.5764412,3.0209 33.1955294,1.7329 39.5312353,1.1649 C40.2933529,1.0959 40.3017941,0.0959 39.5312353,0.1649 C33.1955294,0.7329 26.5764412,2.0209 20.1840588,1.9999 C13.7952941,1.9779 7.17258824,0.6439 0.846529412,0.0339 C0.0771764706,-0.0401 0.0832058824,0.9609 0.846529412,1.0339" id="Fill-93" fill="#010202" mask="url(#mask-2)"></path>
                </g>
                <path d="M104.27513,227.754565 C105.350538,231.073072 104.812834,234.442028 102.77768,237.27451 C102.316263,237.920493 103.381828,238.534484 103.840783,237.895884 C106.045739,234.823465 106.625278,231.022624 105.462508,227.426037 C105.220111,226.676696 104.031502,226.997842 104.27513,227.754565" id="Fill-96" fill="#010202"></path>
                <path d="M103.83518,238.060151 C106.914981,241.340514 107.41085,246.155241 105.101306,250.007761 C104.69403,250.689427 105.757133,251.30834 106.16564,250.629135 C108.756955,246.304125 108.151577,240.860641 104.706334,237.190227 C104.163708,236.611918 103.293784,237.483073 103.83518,238.060151" id="Fill-98" fill="#010202"></path>
                <path d="M104.686624,261.154231 C103.451258,262.193956 101.76555,262.73043 100.302552,263.383796 C98.8641634,264.026087 97.424544,264.668379 95.9849246,265.310671 C95.2626541,265.633047 95.8877196,266.69369 96.6062988,266.372544 C98.2514023,265.639199 99.8952753,264.904624 101.541609,264.170049 C102.941854,263.544984 104.374091,263.019584 105.556548,262.024155 C106.163157,261.513521 105.289541,260.646058 104.686624,261.154231" id="Fill-100" fill="#010202"></path>
                <path d="M55.1050563,241.203911 C61.8245104,242.746888 68.6350174,243.2526 75.5095074,242.69767 C76.2933002,242.634918 76.3006828,241.403243 75.5095074,241.467226 C68.7469878,242.012313 62.0459903,241.536131 55.4323544,240.017763 C54.6608661,239.84181 54.3323376,241.026727 55.1050563,241.203911" id="Fill-102" fill="#010202"></path>
                <path d="M58.0914337,254.220104 C63.6025919,255.999326 69.2564816,256.263872 74.9140626,255.04081 C75.6880118,254.87224 75.3607137,253.686092 74.5867645,253.853432 C69.1285154,255.034658 63.7305581,254.749195 58.4187318,253.032726 C57.6632392,252.789098 57.3396325,253.977707 58.0914337,254.220104" id="Fill-104" fill="#010202"></path>
                <path d="M58.1018705,222.208111 C64.8680815,223.943037 71.7487237,224.710834 78.7327233,224.501658 C79.5214378,224.47951 79.5251291,223.249067 78.7327233,223.271215 C71.863155,223.476699 65.0858701,222.729819 58.4291686,221.021963 C57.6613716,220.825092 57.3340735,222.01124 58.1018705,222.208111" id="Fill-106" fill="#010202"></path>
                <path d="M54.0033869,254.109172 C51.5990995,255.770271 48.6140427,258.473556 50.0302836,261.723158 C51.2250446,264.464587 54.724427,265.184397 57.3698814,265.521539 C58.1536742,265.621205 58.1462915,264.38953 57.3698814,264.291095 C55.3888667,264.037623 52.8381566,263.579898 51.5646471,261.879425 C49.5639454,259.210592 52.5748416,256.587286 54.6247611,255.171045 C55.2719746,254.724393 54.6579831,253.657599 54.0033869,254.109172" id="Fill-108" fill="#010202"></path>
                <path d="M103.824718,250.069765 C105.790967,252.311634 106.311445,258.104564 104.320587,260.500238 C103.817335,261.104386 104.683568,261.979232 105.190511,261.370162 C107.692003,258.362957 107.215821,252.075389 104.694642,249.199842 C104.171703,248.603076 103.30424,249.476691 103.824718,250.069765" id="Fill-110" fill="#010202"></path>
                <path d="M53.7366511,216.592 C54.0516448,221.294756 51.3520509,225.863394 49.7081778,230.121961 C49.4227148,230.861457 50.6113236,231.180142 50.8943257,230.449259 C52.5861861,226.065187 55.2919322,221.437488 54.967095,216.592 C54.9141859,215.805746 53.683742,215.799594 53.7366511,216.592" id="Fill-112" fill="#010202"></path>
                <path d="M100.698539,217.752528 C101.759182,220.950452 103.16804,224.017948 104.322196,227.180189 C104.591664,227.918456 105.781503,227.599771 105.508344,226.852891 C104.354188,223.69065 102.94656,220.621923 101.885917,217.42523 C101.637368,216.67712 100.448759,216.998266 100.698539,217.752528" id="Fill-114" fill="#010202"></path>
            </g>
        </g>
    </g>
</svg>