<?xml version="1.0" encoding="utf-8"?>
<!-- Generator: Adobe Illustrator 19.0.1, SVG Export Plug-In . SVG Version: 6.00 Build 0)  -->
<svg version="1.1" id="Layer_1" xmlns="http://www.w3.org/2000/svg" xmlns:xlink="http://www.w3.org/1999/xlink" x="0px" y="0px"
	 viewBox="-503 235 432 432" style="enable-background:new -503 235 432 432;" xml:space="preserve">
<style type="text/css">
	.st0{fill:#7AD0E4;}
</style>
<g>
	<g>
		<path class="st0" d="M-333.2,566c-8.7-39.7-40.1-68.9-51.9-107.3c-12.3-39.9-2.4-87.7,35.4-110.2c18.9-11.2,42.8-12.5,64.3-12.6
			c11.2,0,22.4,1.5,32.3,6.9c8.7,4.8,16,11.9,21.9,19.9c12.4,16.5,22.1,37.2,26.2,57.5c3.8,19.2,0.1,37.9-8.8,55.1
			c-17.5,33.8-48.4,59.9-58.8,97.4c0.8-0.6,1.6-1.2,2.4-1.8c-11.9,1-23.8,1.4-35.8,0.9c-9-0.3-32.3,1.1-31.3-12.8
			c0.2-3.2-4.8-3.2-5,0c-0.9,13.7,14.4,16.3,24.7,17.1c15.8,1.3,31.6,1.1,47.3-0.3c1.1-0.1,2.1-0.7,2.4-1.8
			c10.2-36.5,40.3-62.2,57.7-95c8.6-16.2,13.3-34,11.2-52.4c-2.5-21.6-12.3-43.3-24.3-61.3c-11.3-16.9-26.7-30.3-47.4-33.4
			c-11.1-1.7-22.4-0.9-33.5-0.1c-11.4,0.8-22.9,2.1-33.7,5.8c-40.2,13.8-60.8,56.9-57,97.5c2.3,24.5,12.6,46.2,25.1,67
			c12.5,20.8,26.4,41.2,31.7,65.3C-337.3,570.4-332.5,569.1-333.2,566L-333.2,566z"/>
	</g>
</g>
<g>
	<g>
		<path class="st0" d="M-344.1,566.5c2.2,6.6-3.1,12.1-5.2,18c-1.6,4.4-1.9,8.9,0.6,13c0.3-1.1,0.6-2.3,0.9-3.4
			c-10.3,5-6.8,19.2,4.2,20c-0.8-0.8-1.7-1.7-2.5-2.5c-0.2,5-5.4,7.7-4.6,13.2c0.6,4.1,3.8,7.4,7.5,9.1c5.6,2.5,12.4,1.6,18.4,1.5
			c7.5-0.2,15.1-0.3,22.6-0.5c6.9-0.2,13.8-0.1,20.6-0.5c4.2-0.3,8.7-0.9,12.1-3.5c7-5.3,4.4-15.8-3.7-18.1c0.2,1.5,0.4,3,0.6,4.6
			c5.5-3.7,6.5-10.9,6.3-17.1c-0.2-5.7-4.4-12-10.8-9.5c-3,1.1-1.9,5.5,1.3,4.8c13.3-3,15.9-19.6,4.9-27.2c-2.7-1.8-5.2,2.5-2.5,4.3
			c7.7,5.3,5,16-3.7,18c0.4,1.6,0.9,3.2,1.3,4.8c1.4,0.7,2.7,1.5,4.1,2.2c0.3,1.1,0.4,2.2,0.3,3.3c0,1.2-0.1,2.5-0.2,3.8
			c-0.3,3.1-0.8,6.4-3.6,8.3c-1.8,1.2-1.5,3.9,0.6,4.6c5.2,1.5,5.3,7.5,1,10c-2.9,1.7-6.7,1.8-10,1.9c-9.5,0.3-19,0.4-28.6,0.6
			c-4.6,0.1-9.2,0.2-13.8,0.3c-4.4,0.1-9.4,0.7-13.6-0.5c-2.3-0.7-4.6-1.9-5.8-4.2c-1.3-2.7,0-4.3,1.3-6.5c1.5-2.6,2.8-4.5,2.9-7.5
			c0-1.4-1.2-2.4-2.5-2.5c-6.4-0.5-7.1-8.1-1.7-10.7c1.2-0.6,1.6-2.3,0.9-3.4c-3.5-5.7,1.5-11.9,3.8-17.1c1.9-4.2,2.8-8.3,1.3-12.7
			C-340.3,562.1-345.1,563.4-344.1,566.5L-344.1,566.5z"/>
	</g>
</g>
<g>
	<g>
		<path class="st0" d="M-313.5,561.7c3.1-25.3-3.7-50-10-74.2c-3-11.6-9.2-27-4.5-38.8c1.8-4.6,5.7-9.1,10.8-9.9
			c10-1.6,9,10.6,8.6,17.2c-0.1,0.7-0.2,1.4-0.3,2.1c-1.4,0.3-2.7,0.7-4.1,1c-2.5-1-1-5.8-0.5-7.5c0.7-2.4,1.9-4.8,3.1-7
			c2.3-4.2,5.9-10.1,11.3-10.4c6-0.4,9.7,6.2,12,10.8c1.4,2.8,2.9,6.1,1.7,9.2c-2.3,5.9-9.1,1.8-8.1-3.3c1.2-6.5,9.2-8.9,14.9-7.6
			c6.1,1.4,9.8,6.4,10.8,12.4c2,12.4-6.7,23.9-11.6,34.5c-11.4,24.5-17.6,51-18.7,77.9c-0.1,3.2,4.9,3.2,5,0
			c0.8-19.6,4.4-39,10.8-57.6c3.3-9.5,7.4-18.5,12-27.4c3.8-7.4,7.7-15.1,7.8-23.6c0.2-14.1-12.6-26.3-26.8-20.1
			c-5.4,2.3-10.1,8.1-9.1,14.2c0.8,5.2,6.1,9.7,11.5,8.4c6-1.5,7.8-8.3,6.6-13.7c-1.4-6.3-6.1-14.1-11.7-17.4
			c-13-7.6-23.5,9.7-26.4,20.1c-1.5,5.4-0.3,12.5,6.1,13.9c6.6,1.4,8.7-5.2,8.8-10.4c0.1-7,1.2-16-6.2-19.6
			c-5.7-2.8-12.5-0.7-16.9,3.3c-15.1,13.7-4.6,39-0.4,55.2c5.8,22.3,11.5,45,8.6,68.3C-318.8,564.9-313.8,564.9-313.5,561.7
			L-313.5,561.7z"/>
	</g>
</g>
<g>
	<g>
		<path class="st0" d="M-364.8,400.6c0.1-15.9,12.9-26.5,24.3-35.5c2.5-2-1-5.5-3.5-3.5c-12.6,10-25.6,21.7-25.8,39.1
			C-369.8,403.9-364.8,403.9-364.8,400.6L-364.8,400.6z"/>
	</g>
</g>
<g>
	<g>
		<path class="st0" d="M-384.7,339c-8.2-5.9-15.2-13.1-20.9-21.4c-1.8-2.6-6.1-0.1-4.3,2.5c6.2,9,13.8,16.7,22.7,23.2
			C-384.6,345.2-382.1,340.9-384.7,339L-384.7,339z"/>
	</g>
</g>
<g>
	<g>
		<path class="st0" d="M-294.5,310c-0.4-10.7-0.7-21.3-1.1-32c-0.1-3.2-5.1-3.2-5,0c0.4,10.7,0.7,21.3,1.1,32
			C-299.4,313.2-294.4,313.3-294.5,310L-294.5,310z"/>
	</g>
</g>
<g>
	<g>
		<path class="st0" d="M-214.6,336.5c8.7-5.8,17.5-11.5,26.2-17.3c2.7-1.8,0.2-6.1-2.5-4.3c-8.7,5.8-17.5,11.5-26.2,17.3
			C-219.8,334-217.3,338.3-214.6,336.5L-214.6,336.5z"/>
	</g>
</g>
<g>
	<g>
		<path class="st0" d="M-340.4,595.4c8.4,6.2,18.5,8.4,28.7,6.6c3.2-0.5,1.8-5.4-1.3-4.8c-9,1.5-17.6-0.7-24.9-6.1
			C-340.5,589.1-343,593.5-340.4,595.4L-340.4,595.4z"/>
	</g>
</g>
<g>
	<g>
		<path class="st0" d="M-337.1,615.4c7.5,2.9,15.3,4.4,23.4,4.4c3.2,0,3.2-5,0-5c-7.6-0.1-14.9-1.5-22-4.2
			C-338.8,609.4-340.1,614.2-337.1,615.4L-337.1,615.4z"/>
	</g>
</g>
<g>
	<g>
		<path d="M-331.2,562c-8.7-39.7-40.1-68.9-51.9-107.3c-12.3-39.9-2.4-87.7,35.4-110.2c18.9-11.2,42.8-12.5,64.3-12.6
			c11.2,0,22.4,1.5,32.3,6.9c8.7,4.8,16,11.9,21.9,19.9c12.4,16.5,22.1,37.2,26.2,57.5c3.8,19.2,0.1,37.9-8.8,55.1
			c-17.5,33.8-48.4,59.9-58.8,97.4c0.8-0.6,1.6-1.2,2.4-1.8c-11.9,1-23.8,1.4-35.8,0.9c-9-0.3-32.3,1.1-31.3-12.8
			c0.2-3.2-4.8-3.2-5,0c-0.9,13.7,14.4,16.3,24.7,17.1c15.8,1.3,31.6,1.1,47.3-0.3c1.1-0.1,2.1-0.7,2.4-1.8
			c10.2-36.5,40.3-62.2,57.7-95c8.6-16.2,13.3-34,11.2-52.4c-2.5-21.6-12.3-43.3-24.3-61.3c-11.3-16.9-26.7-30.3-47.4-33.4
			c-11.1-1.7-22.4-0.9-33.5-0.1c-11.4,0.8-22.9,2.1-33.7,5.8c-40.2,13.8-60.8,56.9-57,97.5c2.3,24.5,12.6,46.2,25.1,67
			c12.5,20.8,26.4,41.2,31.7,65.3C-335.3,566.4-330.5,565.1-331.2,562L-331.2,562z"/>
	</g>
</g>
<g>
	<g>
		<path d="M-340.1,563.5c2.2,6.6-3.1,12.1-5.2,18c-1.6,4.4-1.9,8.9,0.6,13c0.3-1.1,0.6-2.3,0.9-3.4c-10.3,5-6.8,19.2,4.2,20
			c-0.8-0.8-1.7-1.7-2.5-2.5c-0.2,5-5.4,7.7-4.6,13.2c0.6,4.1,3.8,7.4,7.5,9.1c5.6,2.5,12.4,1.6,18.4,1.5c7.5-0.2,15.1-0.3,22.6-0.5
			c6.9-0.2,13.8-0.1,20.6-0.5c4.2-0.3,8.7-0.9,12.1-3.5c7-5.3,4.4-15.8-3.7-18.1c0.2,1.5,0.4,3,0.6,4.6c5.5-3.7,6.5-10.9,6.3-17.1
			c-0.2-5.7-4.4-12-10.8-9.5c-3,1.1-1.9,5.5,1.3,4.8c13.3-3,15.9-19.6,4.9-27.2c-2.7-1.8-5.2,2.5-2.5,4.3c7.7,5.3,5,16-3.7,18
			c0.4,1.6,0.9,3.2,1.3,4.8c1.4,0.7,2.7,1.5,4.1,2.2c0.3,1.1,0.4,2.2,0.3,3.3c0,1.2-0.1,2.5-0.2,3.8c-0.3,3.1-0.8,6.4-3.6,8.3
			c-1.8,1.2-1.5,3.9,0.6,4.6c5.2,1.5,5.3,7.5,1,10c-2.9,1.7-6.7,1.8-10,1.9c-9.5,0.3-19,0.4-28.6,0.6c-4.6,0.1-9.2,0.2-13.8,0.3
			c-4.4,0.1-9.4,0.7-13.6-0.5c-2.3-0.7-4.6-1.9-5.8-4.2c-1.3-2.7,0-4.3,1.3-6.5c1.5-2.6,2.8-4.5,2.9-7.5c0-1.4-1.2-2.4-2.5-2.5
			c-6.4-0.5-7.1-8.1-1.7-10.7c1.2-0.6,1.6-2.3,0.9-3.4c-3.5-5.7,1.5-11.9,3.8-17.1c1.9-4.2,2.8-8.3,1.3-12.7
			C-336.3,559.1-341.1,560.4-340.1,563.5L-340.1,563.5z"/>
	</g>
</g>
<g>
	<g>
		<path d="M-310.5,557.7c3.1-25.3-3.7-50-10-74.2c-3-11.6-9.2-27-4.5-38.8c1.8-4.6,5.7-9.1,10.8-9.9c10-1.6,9,10.6,8.6,17.2
			c-0.1,0.7-0.2,1.4-0.3,2.1c-1.4,0.3-2.7,0.7-4.1,1c-2.5-1-1-5.8-0.5-7.5c0.7-2.4,1.9-4.8,3.1-7c2.3-4.2,5.9-10.1,11.3-10.4
			c6-0.4,9.7,6.2,12,10.8c1.4,2.8,2.9,6.1,1.7,9.2c-2.3,5.9-9.1,1.8-8.1-3.3c1.2-6.5,9.2-8.9,14.9-7.6c6.1,1.4,9.8,6.4,10.8,12.4
			c2,12.4-6.7,23.9-11.6,34.5c-11.4,24.5-17.6,51-18.7,77.9c-0.1,3.2,4.9,3.2,5,0c0.8-19.6,4.4-39,10.8-57.6
			c3.3-9.5,7.4-18.5,12-27.4c3.8-7.4,7.7-15.1,7.8-23.6c0.2-14.1-12.6-26.3-26.8-20.1c-5.4,2.3-10.1,8.1-9.1,14.2
			c0.8,5.2,6.1,9.7,11.5,8.4c6-1.5,7.8-8.3,6.6-13.7c-1.4-6.3-6.1-14.1-11.7-17.4c-13-7.6-23.5,9.7-26.4,20.1
			c-1.5,5.4-0.3,12.5,6.1,13.9c6.6,1.4,8.7-5.2,8.8-10.4c0.1-7,1.2-16-6.2-19.6c-5.7-2.8-12.5-0.7-16.9,3.3
			c-15.1,13.7-4.6,39-0.4,55.2c5.8,22.3,11.5,45,8.6,68.3C-315.8,560.9-310.8,560.9-310.5,557.7L-310.5,557.7z"/>
	</g>
</g>
<g>
	<g>
		<path d="M-362.8,400.6c0.1-15.9,12.9-26.5,24.3-35.5c2.5-2-1-5.5-3.5-3.5c-12.6,10-25.6,21.7-25.8,39.1
			C-367.8,403.9-362.8,403.9-362.8,400.6L-362.8,400.6z"/>
	</g>
</g>
<g>
	<g>
		<path d="M-382.7,338c-8.2-5.9-15.2-13.1-20.9-21.4c-1.8-2.6-6.1-0.1-4.3,2.5c6.2,9,13.8,16.7,22.7,23.2
			C-382.6,344.2-380.1,339.9-382.7,338L-382.7,338z"/>
	</g>
</g>
<g>
	<g>
		<path d="M-292.5,308c-0.4-10.7-0.7-21.3-1.1-32c-0.1-3.2-5.1-3.2-5,0c0.4,10.7,0.7,21.3,1.1,32
			C-297.4,311.2-292.4,311.3-292.5,308L-292.5,308z"/>
	</g>
</g>
<g>
	<g>
		<path d="M-211.6,337.5c8.7-5.8,17.5-11.5,26.2-17.3c2.7-1.8,0.2-6.1-2.5-4.3c-8.7,5.8-17.5,11.5-26.2,17.3
			C-216.8,335-214.3,339.3-211.6,337.5L-211.6,337.5z"/>
	</g>
</g>
<g>
	<g>
		<path d="M-337.4,591.4c8.4,6.2,18.5,8.4,28.7,6.6c3.2-0.5,1.8-5.4-1.3-4.8c-9,1.5-17.6-0.7-24.9-6.1
			C-337.5,585.1-340,589.5-337.4,591.4L-337.4,591.4z"/>
	</g>
</g>
<g>
	<g>
		<path d="M-334.1,611.4c7.5,2.9,15.3,4.4,23.4,4.4c3.2,0,3.2-5,0-5c-7.6-0.1-14.9-1.5-22-4.2C-335.8,605.4-337.1,610.2-334.1,611.4
			L-334.1,611.4z"/>
	</g>
</g>
</svg>
