<?xml version="1.0" encoding="utf-8"?>
<!-- Generator: Adobe Illustrator 19.0.1, SVG Export Plug-In . SVG Version: 6.00 Build 0)  -->
<svg version="1.1" id="Layer_1" xmlns="http://www.w3.org/2000/svg" xmlns:xlink="http://www.w3.org/1999/xlink" x="0px" y="0px"
	 viewBox="109 -31 650 351" style="enable-background:new 109 -31 650 351;" xml:space="preserve">
<style type="text/css">
	.st0{fill:#E03B53;}
</style>
<rect x="183.6" y="90.7" class="st0" width="504.1" height="259.3"/>
<g>
	<g>
		<path d="M150.4,353.1c-0.7-75.1-1.1-150.3-1.2-225.4c0-9.6,0-19.2,0-28.8c0-7.4-0.4-15.1,1.6-22.3c5.1-19,29.1-16.2,44.7-17
			c37.4-2,74.9-2.9,112.3-3.2c75.8-0.7,151.6,0.4,227.3,0.9c37.7,0.2,75.3,0.5,113,0.7c9.7,0.1,19.3,0.1,29,0.2
			c8.5,0.1,17.7-0.8,26.1,0.7c19.2,3.5,16,26.4,16,41c0,75.1,0,150.3,0,225.4c0,9.3,0,18.5,0,27.8c0,2.6,4,2.6,4,0
			c0-78.4,0-156.9,0-235.3c0-9.6,0-19.2,0-28.8c0-7,0.1-14.3-2.5-20.9c-5.7-14.6-21.4-13.8-34.6-13.9c-39.3-0.3-78.6-0.5-118-0.8
			c-78.8-0.5-157.6-1.5-236.5-1.2c-39.1,0.1-78.3,0.8-117.3,2.5c-9.9,0.4-19.9,0.9-29.8,1.5c-7.7,0.4-16,0.3-23.3,3
			c-13.1,4.9-15.7,18.4-16,30.9c-0.7,38.6,0,77.4,0.1,116c0.1,39.4,0.4,78.8,0.7,118.2c0.1,9.6,0.2,19.2,0.3,28.8
			C146.5,355.7,150.5,355.7,150.4,353.1L150.4,353.1z"/>
	</g>
</g>
<g>
	<g>
		<path d="M180.8,91c0,67.9,0,135.8,0,203.8c0,19.5,0,39.1,0,58.6c0,2.6,4,2.6,4,0c0-67.9,0-135.8,0-203.8c0-19.5,0-39.1,0-58.6
			C184.8,88.4,180.8,88.4,180.8,91L180.8,91z"/>
	</g>
</g>
<g>
	<g>
		<path d="M182.8,93c131.4,0,262.8-0.2,394.2-0.3c37.1,0,74.2,0,111.3,0c2.6,0,2.6-4,0-4c-1.9,0-3.9,0-5.8,0c-2.6,0-2.6,4,0,4
			c1.9,0,3.9,0,5.8,0c0-1.3,0-2.7,0-4c-131.4,0-262.8,0.2-394.2,0.3c-37.1,0-74.2,0-111.3,0C180.3,89,180.3,93,182.8,93L182.8,93z"
			/>
	</g>
</g>
<g>
	<g>
		<path d="M686.4,91.6c0,67,0,133.9,0,200.9c0,19.2,0,38.5,0,57.7c0,2.6,4,2.6,4,0c0-67,0-133.9,0-200.9c0-19.2,0-38.5,0-57.7
			C690.4,89.1,686.4,89.1,686.4,91.6L686.4,91.6z"/>
	</g>
</g>
<g>
	<g>
		<path d="M433.9,66.3c-2.2,1.2-3.1,4-2.3,6.3c0.9,2.6,3.6,4,6.3,3.2c2.5-0.7,4.6-3.2,4.3-5.8c-0.3-2.9-3.3-4.3-5.8-4.8
			s-3.6,3.3-1.1,3.9c0.7,0.2,2.4,0.4,2.9,1.2c0.4,0.7-0.5,1.5-1.2,1.7c-1.5,0.5-2.3-1.5-1.1-2.2C438.2,68.5,436.2,65.1,433.9,66.3
			L433.9,66.3z"/>
	</g>
</g>
</svg>
