<?xml version="1.0" encoding="utf-8"?>
<!-- Generator: Adobe Illustrator 19.0.1, SVG Export Plug-In . SVG Version: 6.00 Build 0)  -->
<svg version="1.1" id="Layer_1" xmlns="http://www.w3.org/2000/svg" xmlns:xlink="http://www.w3.org/1999/xlink" x="0px" y="0px"
	 viewBox="0 0 380 327" style="enable-background:new 0 0 380 327;" xml:space="preserve">
<style type="text/css">
	.st0{fill:#31B780;}
	.st1{fill:#FDFEFD;}
</style>
<rect x="0" class="st0" width="380" height="327"/>
<g id="ysnAPe.tif">
	<g>
		<path class="st1" d="M189.8,118.3c1.7,0,3.1,0.5,4.3,1.5c12,9.5,24,19.1,36,28.6c8.2,6.5,16.3,13,24.5,19.4
			c0.8,0.6,0.9,0.9,0.2,1.8c-2,2.4-4,4.9-5.9,7.4c-0.7,0.9-1.1,0.9-1.9,0.2c-14.8-11.8-29.6-23.6-44.4-35.3c-3.8-3-7.6-6-11.4-9.1
			c-0.9-0.7-1.4-0.8-2.4,0c-18.5,14.5-37.1,28.9-55.6,43.4c-0.9,0.7-1.4,0.7-2.1-0.3c-1.8-2.5-3.8-5-5.7-7.4
			c-0.7-0.8-0.5-1.2,0.2-1.8c18.1-14,36.2-28.1,54.2-42.2c2-1.6,4.1-3.2,6.1-4.8C187.1,118.9,188.4,118.3,189.8,118.3z"/>
		<path class="st1" d="M238.5,123.4c-0.2,0.2-0.3,0.4-0.5,0.6c-2.1,2.7-4.3,5.3-6.3,8c-0.6,0.8-1,0.5-1.6,0c-13-10.3-26-20.7-39-31
			c-0.8-0.6-1.3-0.7-2.2-0.1c-12.9,10.1-25.9,20.2-38.8,30.3c-0.9,0.7-1.4,0.7-2.1-0.2c-1.8-2.5-3.8-5-5.7-7.4
			c-0.7-0.8-0.5-1.2,0.2-1.8c13.5-10.5,27.1-21,40.6-31.6c1-0.8,2-1.5,3-2.3c2.7-2,5.4-2,8,0c10,7.9,19.9,15.8,29.9,23.7
			c4.5,3.6,8.9,7.1,13.4,10.7C237.7,122.7,238.1,123,238.5,123.4z"/>
		<path class="st1" d="M189.2,153.1c1.5,0.1,2.8,0.5,4,1.5c10.2,8.1,20.4,16.3,30.7,24.3c0.9,0.7,1,1.1,0.3,2.1
			c-2,2.4-3.9,4.8-5.8,7.3c-0.6,0.8-1,0.8-1.8,0.2c-8.6-6.9-17.2-13.7-25.8-20.6c-1.1-0.9-1.8-1-3-0.1c-8.5,6.8-17.2,13.4-25.7,20.1
			c-1,0.8-1.4,0.5-2-0.3c-1.8-2.5-3.7-4.9-5.7-7.3c-0.7-0.9-0.7-1.3,0.2-2c9-6.9,18-13.9,26.9-20.9c1.3-1,2.7-2.1,4-3.1
			C186.6,153.5,187.9,153.1,189.2,153.1z"/>
		<path class="st1" d="M189.4,206.7c3.9,0,7.8,0,11.7,0c1,0,1.3,0.3,1.3,1.3c-0.1,3.2,0,6.4,0,9.7c0,0.9-0.2,1.2-1.1,1.1
			c-8,0-15.9,0-23.9,0c-0.8,0-1.1-0.2-1.1-1c0-3.3,0.1-6.6,0-9.9c0-0.9,0.4-1.1,1.2-1.1C181.4,206.7,185.4,206.7,189.4,206.7z"/>
	</g>
</g>
</svg>
