<?xml version="1.0" encoding="utf-8"?>
<!-- Generator: Adobe Illustrator 19.0.1, SVG Export Plug-In . SVG Version: 6.00 Build 0)  -->
<svg version="1.1" id="Layer_1" xmlns="http://www.w3.org/2000/svg" xmlns:xlink="http://www.w3.org/1999/xlink" x="0px" y="0px"
	 viewBox="0 0 46.2 46.2" style="enable-background:new 0 0 46.2 46.2;" xml:space="preserve">
<style type="text/css">
	.st0{fill:#232323;}
	.st1{fill:#FFFFFF;}
</style>
<g id="bthY6J.tif">
	<g>
		<path class="st0" d="M22.8,44.1c-10.5,0.1-20-8.5-20-20.1c0-11.3,9.3-20,20.1-20c11,0.1,20,9.1,19.9,20.1
			C42.8,35.6,33.2,44.2,22.8,44.1z M22.8,34.8c6,0,10.9-4.8,10.8-10.8c0-5.9-4.9-10.8-10.8-10.8c-6,0-10.8,4.9-10.8,10.8
			C12,30,16.8,34.8,22.8,34.8z M22.4,39c0-1.1,0-2,0-3c0-0.2-0.2-0.4-0.3-0.5c-1.3-0.3-2.7-0.5-4.1-0.8c-0.4,0.9-0.9,1.9-1.4,2.9
			C18.4,38.6,20.3,39.1,22.4,39z M29,10.3c-1.9-0.8-3.8-1.3-5.7-1.3c0,1.2,0,2.3,0,3.3c1.5,0.3,2.8,0.6,4.3,1
			C28,12.4,28.4,11.4,29,10.3z M23.2,39c2,0,3.9-0.5,5.7-1.3c-0.5-1.1-1-2.1-1.4-3c-1.5,0.3-2.9,0.6-4.3,1
			C23.2,36.8,23.2,37.9,23.2,39z M22.4,9c-2,0-3.9,0.5-5.7,1.3c0.5,1.1,1,2.1,1.4,3c1.5-0.3,2.9-0.6,4.3-1
			C22.4,11.3,22.4,10.2,22.4,9z M28.2,34.4c0.5,1,1,2,1.4,3c1.8-0.9,3.3-2.2,4.6-3.7c-0.9-0.7-1.8-1.4-2.6-2.1
			C30.5,32.6,29.4,33.5,28.2,34.4z M34.8,33.1c1.2-1.6,2.1-3.3,2.6-5.3c-1.1-0.3-2.2-0.5-3.2-0.7c-0.7,1.4-1.3,2.7-1.9,4
			C33,31.7,33.9,32.4,34.8,33.1z M11.3,21.8c-1-0.2-2.1-0.5-3.2-0.7c-0.4,2-0.5,3.9,0,5.9c1.1-0.3,2.2-0.5,3.2-0.7
			C11.3,24.7,11.3,23.3,11.3,21.8z M8,27.8c0.8,1.8,1.7,3.5,2.6,5.3c1.1-0.9,1.9-1.5,2.7-2.2c-0.7-1.4-1.3-2.7-1.9-4
			c-0.9,0.2-1.8,0.4-2.7,0.6C8.6,27.6,8.4,27.7,8,27.8z M37.4,27c0.5-1.8,0.5-4.3,0-5.9c-1.1,0.2-2.1,0.5-3.1,0.7c0,1.5,0,2.9,0,4.4
			C35.3,26.5,36.4,26.7,37.4,27z M11.2,33.7c1.3,1.6,2.8,2.8,4.6,3.7c0.5-1,1-2,1.4-3c-1.2-1-2.3-1.9-3.5-2.8
			C13,32.3,12.1,32.9,11.2,33.7z M34.1,21c1-0.2,2.1-0.5,3.2-0.7c-0.5-2-1.3-3.7-2.6-5.3c-0.9,0.7-1.8,1.4-2.6,2.1
			C32.8,18.4,33.4,19.7,34.1,21z M13.4,17c-0.8-0.7-1.7-1.3-2.6-2.1c-1.2,1.6-2.1,3.3-2.6,5.3c1.2,0.3,2.2,0.5,3.2,0.7
			C12.1,19.6,12.7,18.4,13.4,17z M34.3,14.4c-1.3-1.6-2.8-2.8-4.6-3.7c-0.5,1.1-1,2.1-1.4,3c1.2,1,2.3,1.8,3.4,2.7
			C32.5,15.8,33.3,15.1,34.3,14.4z M15.9,10.7c-1.8,0.9-3.3,2.1-4.6,3.7c0.9,0.7,1.8,1.4,2.6,2.1c1.2-0.9,2.3-1.8,3.5-2.7
			C16.9,12.7,16.5,11.7,15.9,10.7z M23.2,4.7c0,1.2,0,2.1,0,3.1c0,0.1,0.2,0.4,0.3,0.4c0.9,0.1,1.8,0.2,2.8,0.3
			c0.3-1.1,0.5-2.2,0.8-3.3C25.8,5.1,24.6,4.9,23.2,4.7z M7,22.5c-1.1-0.1-2.2-0.3-3.4-0.4c0,1.3,0,2.6,0,3.9
			c1.2-0.2,2.3-0.3,3.4-0.4C7,24.5,7,23.6,7,22.5z M23.2,39.9c0,1.2,0,2.2,0,3.5c1.3-0.2,2.5-0.3,3.8-0.5c-0.3-1.2-0.6-2.3-0.8-3.3
			C25.2,39.7,24.2,39.8,23.2,39.9z M7.8,18.8c-1-0.4-2.1-0.8-3.2-1.2c-0.3,1.3-0.6,2.5-0.9,3.8c1.2,0.1,2.3,0.3,3.4,0.4
			C7.3,20.7,7.6,19.8,7.8,18.8z M8.1,30.1C7,30.5,6,30.9,4.9,31.3c0.6,1.2,1.2,2.3,1.8,3.4c1-0.7,1.9-1.3,2.8-1.9
			C9,31.8,8.6,31,8.1,30.1z M12,35.7c-0.7-0.8-1.4-1.5-2-2.3C9,34,8.1,34.7,7.1,35.4c0.9,1,1.7,1.9,2.6,2.9
			C10.5,37.3,11.2,36.5,12,35.7z M18.6,39.4c-1-0.4-1.9-0.7-2.9-1.1c-0.5,1-1,2-1.6,3c1.2,0.5,2.4,0.9,3.6,1.4
			C18.1,41.5,18.4,40.5,18.6,39.4z M6.7,13.4c-0.6,1.2-1.2,2.3-1.8,3.4C6,17.3,7.1,17.6,8.1,18c0.5-1,1-1.8,1.4-2.7
			C8.6,14.7,7.7,14.1,6.7,13.4z M9.7,9.8c-0.9,1-1.7,1.9-2.6,2.9c1,0.7,1.9,1.3,2.8,2c0.7-0.8,1.3-1.5,2-2.3
			C11.3,11.6,10.5,10.8,9.7,9.8z M12.6,36.2c-0.8,0.9-1.5,1.7-2.3,2.6c1.1,0.8,2.1,1.5,3.2,2.2c0.6-1.1,1.1-2.1,1.6-3
			C14.2,37.3,13.4,36.8,12.6,36.2z M22.4,39.9c-1-0.1-2-0.2-3-0.3c-0.3,1.1-0.5,2.1-0.8,3.3c1.3,0.2,2.5,0.3,3.8,0.5
			C22.4,42.1,22.4,41,22.4,39.9z M15.8,9.8c1-0.4,1.9-0.7,2.9-1.1c-0.3-1.1-0.5-2.2-0.8-3.3c-1.2,0.5-2.4,0.9-3.6,1.4
			C14.8,7.8,15.3,8.8,15.8,9.8z M13.5,7.1c-1.1,0.8-2.1,1.5-3.2,2.2c0.8,0.9,1.5,1.7,2.3,2.6c0.9-0.6,1.7-1.2,2.5-1.7
			C14.6,9.2,14.1,8.2,13.5,7.1z M3.7,26.8c0.3,1.3,0.6,2.5,0.9,3.7c1.2-0.4,2.2-0.8,3.2-1.2c-0.3-1-0.5-2-0.8-3
			C6,26.5,4.9,26.6,3.7,26.8z M27,39.4c0.3,1.1,0.5,2.2,0.8,3.3c1.2-0.5,2.4-0.9,3.6-1.4c-0.6-1.1-1.1-2.1-1.6-3
			C28.8,38.6,28,39,27,39.4z M33.1,12c0.8-0.8,1.5-1.7,2.3-2.6c-1.1-0.7-2.1-1.5-3.2-2.2c-0.6,1.1-1.1,2.1-1.6,3
			C31.4,10.8,32.2,11.4,33.1,12z M35.6,33.4c-0.7,0.8-1.3,1.5-2,2.3c0.7,0.8,1.5,1.6,2.3,2.6c0.9-1,1.7-1.9,2.6-2.9
			C37.4,34.7,36.5,34,35.6,33.4z M38.9,34.7c0.6-1.2,1.2-2.3,1.8-3.4c-1.1-0.4-2.1-0.8-3.2-1.2C37,31,36.5,31.8,36,32.7
			C37,33.4,37.9,34,38.9,34.7z M38.5,26.4c-0.3,1-0.5,2-0.7,2.9c1.1,0.4,2.1,0.8,3.2,1.2c0.3-1.3,0.6-2.5,0.9-3.7
			C40.6,26.7,39.6,26.5,38.5,26.4z M38.9,13.5c-1,0.7-1.9,1.3-2.8,2c0.5,0.9,0.9,1.8,1.4,2.7c1-0.4,2.1-0.8,3.2-1.2
			C40.1,15.7,39.5,14.7,38.9,13.5z M27.9,5.4c-0.3,1.1-0.5,2.1-0.8,3c0,0.1,0.1,0.4,0.3,0.4c0.8,0.3,1.6,0.6,2.5,0.9
			c0.5-1,1-2,1.6-3C30.2,6.3,29.1,5.9,27.9,5.4z M35.3,38.8c-0.8-0.9-1.6-1.8-2.3-2.6c-0.9,0.6-1.7,1.2-2.5,1.7c0.5,1,1,2,1.6,3
			C33.2,40.2,34.2,39.5,35.3,38.8z M38.5,21.8c1.1-0.1,2.2-0.3,3.4-0.4c-0.3-1.3-0.6-2.5-0.9-3.7c-1.2,0.4-2.2,0.8-3.2,1.2
			C38,19.9,38.2,20.8,38.5,21.8z M19.4,8.5c1-0.1,2-0.2,2.9-0.3c0-1.1,0-2.2,0-3.5c-1.3,0.2-2.5,0.3-3.8,0.5
			C18.9,6.4,19.2,7.5,19.4,8.5z M35.9,9.9c-0.8,0.9-1.6,1.8-2.3,2.6c0.7,0.8,1.3,1.5,2,2.3c0.9-0.6,1.8-1.3,2.8-2
			C37.6,11.9,36.8,10.9,35.9,9.9z M41.9,26c0-1.3,0-2.5,0-3.8c-1.1,0.1-2.2,0.3-3.3,0.4c0,1,0,2,0,3C39.7,25.7,40.8,25.9,41.9,26z"
			/>
		<path class="st1" d="M22.8,34.8c-6,0-10.8-4.8-10.8-10.7c0-6,4.8-10.8,10.8-10.8c5.9,0,10.8,4.9,10.8,10.8
			C33.6,30,28.8,34.8,22.8,34.8z"/>
		<path class="st1" d="M22.4,39c-2.1,0-3.9-0.5-5.8-1.3c0.5-1.1,1-2,1.4-2.9c1.4,0.3,2.7,0.5,4.1,0.8c0.1,0,0.3,0.3,0.3,0.5
			C22.4,37,22.4,38,22.4,39z"/>
		<path class="st1" d="M29,10.3c-0.5,1.1-1,2.1-1.5,3c-1.4-0.3-2.8-0.6-4.3-1c0-1,0-2.1,0-3.3C25.2,9,27.1,9.6,29,10.3z"/>
		<path class="st1" d="M23.2,39c0-1.2,0-2.2,0-3.3c1.4-0.3,2.8-0.6,4.3-1c0.4,0.9,0.9,1.9,1.4,3C27.1,38.6,25.2,39.1,23.2,39z"/>
		<path class="st1" d="M22.4,9c0,1.2,0,2.3,0,3.3c-1.4,0.3-2.8,0.6-4.3,1c-0.4-0.9-0.9-1.9-1.4-3C18.5,9.5,20.3,9.1,22.4,9z"/>
		<path class="st1" d="M28.2,34.4c1.2-1,2.3-1.8,3.5-2.8c0.8,0.6,1.7,1.3,2.6,2.1c-1.3,1.5-2.8,2.8-4.6,3.7
			C29.2,36.4,28.7,35.4,28.2,34.4z"/>
		<path class="st1" d="M34.8,33.1c-0.9-0.7-1.8-1.4-2.6-2.1c0.6-1.3,1.3-2.6,1.9-4c1,0.2,2.1,0.5,3.2,0.7
			C36.9,29.7,36,31.5,34.8,33.1z"/>
		<path class="st1" d="M11.3,21.8c0,1.6,0,3,0,4.4c-1,0.2-2.1,0.5-3.2,0.7c-0.5-2-0.4-3.9,0-5.9C9.2,21.3,10.3,21.5,11.3,21.8z"/>
		<path class="st1" d="M8,27.8c0.4-0.1,0.5-0.2,0.7-0.3c0.9-0.2,1.9-0.4,2.7-0.6c0.6,1.3,1.2,2.6,1.9,4c-0.8,0.6-1.7,1.3-2.7,2.2
			C9.7,31.3,8.9,29.6,8,27.8z"/>
		<path class="st1" d="M37.4,27c-1.1-0.3-2.1-0.5-3.2-0.7c0-1.5,0-2.9,0-4.4c1-0.2,2.1-0.5,3.1-0.7C37.9,22.7,38,25.2,37.4,27z"/>
		<path class="st1" d="M11.2,33.7c0.9-0.7,1.8-1.4,2.6-2.1c1.2,0.9,2.3,1.9,3.5,2.8c-0.4,0.9-0.9,1.9-1.4,3
			C14,36.5,12.6,35.2,11.2,33.7z"/>
		<path class="st1" d="M34.1,21c-0.7-1.4-1.3-2.6-1.9-4c0.8-0.6,1.7-1.3,2.6-2.1c1.2,1.6,2.1,3.3,2.6,5.3
			C36.2,20.6,35.1,20.8,34.1,21z"/>
		<path class="st1" d="M13.4,17c-0.7,1.4-1.3,2.6-1.9,4c-1-0.2-2.1-0.5-3.2-0.7c0.5-2,1.4-3.7,2.6-5.3C11.7,15.7,12.6,16.4,13.4,17z
			"/>
		<path class="st1" d="M34.3,14.4c-0.9,0.7-1.8,1.4-2.6,2.1c-1.1-0.9-2.2-1.8-3.4-2.7c0.4-0.9,0.9-1.9,1.4-3
			C31.5,11.6,32.9,12.8,34.3,14.4z"/>
		<path class="st1" d="M15.9,10.7c0.5,1.1,1,2,1.4,3c-1.1,0.9-2.3,1.8-3.5,2.7c-0.8-0.6-1.7-1.3-2.6-2.1
			C12.6,12.8,14.1,11.6,15.9,10.7z"/>
		<path class="st1" d="M23.2,4.7c1.4,0.2,2.6,0.3,3.9,0.5c-0.3,1.2-0.6,2.2-0.8,3.3c-0.9-0.1-1.9-0.2-2.8-0.3
			c-0.1,0-0.3-0.3-0.3-0.4C23.2,6.9,23.2,5.9,23.2,4.7z"/>
		<path class="st1" d="M7,22.5c0,1,0,2,0,3.1c-1.1,0.1-2.1,0.3-3.4,0.4c0-1.3,0-2.6,0-3.9C4.8,22.3,5.8,22.4,7,22.5z"/>
		<path class="st1" d="M23.2,39.9c1-0.1,1.9-0.2,3-0.4c0.3,1,0.5,2.1,0.8,3.3c-1.3,0.2-2.5,0.3-3.8,0.5
			C23.2,42.2,23.2,41.1,23.2,39.9z"/>
		<path class="st1" d="M7.8,18.8c-0.3,1-0.5,2-0.7,3c-1.1-0.1-2.1-0.3-3.4-0.4c0.3-1.3,0.6-2.5,0.9-3.8C5.7,18,6.8,18.4,7.8,18.8z"
			/>
		<path class="st1" d="M8.1,30.1C8.6,31,9,31.8,9.5,32.8c-0.9,0.6-1.8,1.2-2.8,1.9c-0.6-1.1-1.2-2.2-1.8-3.4C6,30.9,7,30.5,8.1,30.1
			z"/>
		<path class="st1" d="M12,35.7c-0.7,0.8-1.5,1.6-2.3,2.6c-0.9-1-1.7-1.9-2.6-2.9c1-0.7,1.9-1.3,2.8-1.9
			C10.6,34.2,11.3,34.9,12,35.7z"/>
		<path class="st1" d="M18.6,39.4c-0.3,1.1-0.5,2.2-0.8,3.3c-1.2-0.5-2.4-0.9-3.6-1.4c0.6-1.1,1.1-2,1.6-3
			C16.7,38.7,17.6,39,18.6,39.4z"/>
		<path class="st1" d="M6.7,13.4c1,0.7,1.9,1.3,2.8,1.9c-0.5,0.9-0.9,1.7-1.4,2.7c-1-0.4-2.1-0.8-3.2-1.2
			C5.5,15.7,6.1,14.6,6.7,13.4z"/>
		<path class="st1" d="M9.7,9.8c0.8,0.9,1.5,1.7,2.3,2.6c-0.7,0.8-1.3,1.5-2,2.3c-0.9-0.6-1.8-1.3-2.8-2C8,11.8,8.9,10.8,9.7,9.8z"
			/>
		<path class="st1" d="M12.6,36.2c0.9,0.6,1.6,1.1,2.5,1.7c-0.5,1-1,1.9-1.6,3c-1.1-0.7-2.1-1.4-3.2-2.2
			C11.1,37.9,11.8,37.1,12.6,36.2z"/>
		<path class="st1" d="M22.4,39.9c0,1.1,0,2.2,0,3.5c-1.3-0.2-2.5-0.3-3.8-0.5c0.3-1.2,0.6-2.2,0.8-3.3
			C20.4,39.7,21.4,39.8,22.4,39.9z"/>
		<path class="st1" d="M15.8,9.8c-0.5-1-1-2-1.6-3c1.2-0.5,2.4-0.9,3.6-1.4c0.3,1.2,0.6,2.2,0.8,3.3C17.7,9.1,16.8,9.4,15.8,9.8z"/>
		<path class="st1" d="M13.5,7.1c0.6,1.1,1.1,2,1.6,3c-0.8,0.6-1.7,1.1-2.5,1.7c-0.7-0.8-1.5-1.7-2.3-2.6
			C11.4,8.6,12.4,7.9,13.5,7.1z"/>
		<path class="st1" d="M3.7,26.8c1.2-0.2,2.3-0.3,3.4-0.4c0.3,1,0.5,1.9,0.8,3c-1,0.4-2,0.8-3.2,1.2C4.3,29.3,4,28.1,3.7,26.8z"/>
		<path class="st1" d="M27,39.4c1-0.4,1.9-0.7,2.8-1.1c0.5,1,1,1.9,1.6,3c-1.2,0.5-2.4,0.9-3.6,1.4C27.5,41.5,27.3,40.5,27,39.4z"/>
		<path class="st1" d="M33.1,12c-0.9-0.6-1.6-1.2-2.5-1.7c0.5-1,1-1.9,1.6-3c1.1,0.7,2.1,1.5,3.2,2.2C34.5,10.3,33.8,11.1,33.1,12z"
			/>
		<path class="st1" d="M35.6,33.4c0.9,0.6,1.8,1.3,2.8,2c-0.9,1-1.7,1.9-2.6,2.9c-0.8-0.9-1.5-1.7-2.3-2.6
			C34.3,34.9,34.9,34.2,35.6,33.4z"/>
		<path class="st1" d="M38.9,34.7c-1-0.7-1.9-1.3-2.8-2c0.5-0.9,0.9-1.8,1.4-2.7c1.1,0.4,2.1,0.8,3.2,1.2
			C40.1,32.4,39.5,33.5,38.9,34.7z"/>
		<path class="st1" d="M38.5,26.4c1.1,0.1,2.2,0.3,3.4,0.4c-0.3,1.2-0.6,2.4-0.9,3.7c-1.1-0.4-2.2-0.8-3.2-1.2
			C38,28.4,38.2,27.4,38.5,26.4z"/>
		<path class="st1" d="M38.9,13.5c0.6,1.2,1.2,2.2,1.8,3.4c-1.1,0.4-2.2,0.8-3.2,1.2c-0.5-0.9-0.9-1.8-1.4-2.7
			C37,14.8,37.9,14.2,38.9,13.5z"/>
		<path class="st1" d="M27.9,5.4c1.2,0.5,2.4,0.9,3.6,1.4c-0.6,1.1-1.1,2-1.6,3c-0.9-0.3-1.7-0.6-2.5-0.9c-0.1-0.1-0.3-0.3-0.3-0.4
			C27.4,7.5,27.6,6.5,27.9,5.4z"/>
		<path class="st1" d="M35.3,38.8c-1.1,0.8-2.1,1.5-3.2,2.2c-0.6-1.1-1.1-2-1.6-3c0.8-0.6,1.6-1.1,2.5-1.7
			C33.7,37,34.4,37.8,35.3,38.8z"/>
		<path class="st1" d="M38.5,21.8c-0.2-1-0.5-1.9-0.7-2.9c1-0.4,2-0.8,3.2-1.2c0.3,1.3,0.6,2.5,0.9,3.7
			C40.7,21.5,39.6,21.7,38.5,21.8z"/>
		<path class="st1" d="M19.4,8.5c-0.3-1.1-0.5-2.1-0.8-3.3c1.2-0.2,2.5-0.3,3.8-0.5c0,1.2,0,2.3,0,3.5C21.4,8.3,20.5,8.4,19.4,8.5z"
			/>
		<path class="st1" d="M35.9,9.9c0.9,1,1.7,1.9,2.5,2.9c-1,0.7-1.9,1.3-2.8,2c-0.7-0.8-1.3-1.5-2-2.3C34.4,11.7,35.1,10.9,35.9,9.9z
			"/>
		<path class="st1" d="M41.9,26c-1.2-0.1-2.2-0.3-3.3-0.4c0-1,0-2,0-3c1.1-0.1,2.2-0.2,3.3-0.4C41.9,23.5,41.9,24.7,41.9,26z"/>
	</g>
</g>
</svg>
